<?xml version="1.0" encoding="UTF-8"?><svg xmlns="http://www.w3.org/2000/svg" viewBox="0 0 128 128"><defs><style>.cls-1{fill:#e61b72;}.cls-2{fill:#ffec00;}.cls-3{fill:#ececec;}</style></defs><g id="cuadrobase"><g><rect class="cls-3" x="2" y="2" width="124" height="124" rx="22" ry="22"/><path class="cls-2" d="M104,4c11.03,0,20,8.97,20,20V104c0,11.03-8.97,20-20,20H24c-11.03,0-20-8.97-20-20V24C4,12.97,12.97,4,24,4H104m0-4H24C10.75,0,0,10.75,0,24V104C0,117.25,10.75,128,24,128H104c13.25,0,24-10.75,24-24V24c0-13.25-10.75-24-24-24h0Z"/></g></g><g id="figura"><g><path class="cls-1" d="M29.86,53.56c.75-.49,.58-2.15,.58-2.15l.19-21.54c-.1-2.72-3.04-4.29-3.14-6l-1-11.31c1.19-.44,.28-1.91,.07-2.4,.72-.87-.06-.95-.23-1.09-2.14-.16-3.15-.14-5.5,.03,0,0-.9,.6-.01,1.04,.2,.3-1.53,1.9,.03,2.44l-1.06,11.41c-.31,1.93-2.75,2.98-2.99,5.48l.2,22.62s0,1.06,.34,1.38h0c1.53,1.33,11.91,1.14,12.52,.08Z"/><path class="cls-1" d="M46.57,83.16l6.69,3.87-7.83-23.01-23.37,4.98,6.67,3.85,1.78,1.03-5.2,9c-.47,.81-.71,1.71-.71,2.61s.22,1.76,.69,2.55c0,0,4.55,7.92,8.26,14.31,.27-.9,.61-1.78,1.08-2.61l10.18-17.59,1.75,1.01Z"/><path class="cls-1" d="M37.74,101.47c-.58,.97-.86,2.05-.86,3.12s.27,2.13,.84,3.08c1.08,1.91,3.15,3.08,5.35,3.05h20.54v-16.54h-21.67c-.91,1.56-4.21,7.27-4.21,7.27Z"/><path class="cls-1" d="M58.37,37.44c-.92-.53-1.97-.81-3.07-.83-2.2,.02-4.25,1.21-5.32,3.14,0,0-8.66,14.98-10.3,17.8,2.58,1.47,11.77,6.77,14.34,8.24,1.54-2.68,9.88-17.13,10.82-18.75-.9-1.56-4.19-7.28-4.19-7.28-.56-.96-1.35-1.76-2.29-2.31Z"/><path class="cls-1" d="M65.4,60.42l24.19,6,7.04-23.98-6.69,3.85-1.78,1.03-5.17-9.02c-.46-.81-1.14-1.47-1.91-1.91-.77-.46-1.65-.68-2.55-.68h-16.54c.65,.68,1.24,1.41,1.7,2.24l10.15,17.59-1.73,1.03-6.71,3.85Z"/><path class="cls-1" d="M81.93,93.98v-2.05l.03-7.72-16.27,18.01,16.22,18.01v-9.74l10.38,.02c.95,0,1.87-.25,2.64-.7,.77-.44,1.43-1.08,1.87-1.87,0,0,4.59-7.92,8.27-14.31-.9,.2-1.85,.37-2.79,.37l-20.34-.02Z"/><path class="cls-1" d="M107.57,81.2s-8.64-15-10.27-17.81c-2.55,1.49-11.77,6.8-14.32,8.27,1.54,2.68,9.88,17.15,10.82,18.78h8.4c1.12,0,2.22-.29,3.17-.84,.9-.53,1.67-1.27,2.24-2.24,1.08-1.91,1.06-4.26-.04-6.16Z"/></g></g></svg>