<?xml version="1.0" encoding="UTF-8"?><svg xmlns="http://www.w3.org/2000/svg" viewBox="0 0 128 128"><defs><style>.cls-1{fill:#008d36;}.cls-2{fill:#ffec00;}</style></defs><g id="cuadrobase"><g><rect class="cls-1" x="2" y="2" width="124" height="124" rx="22" ry="22"/><path class="cls-2" d="M104,4c11.03,0,20,8.97,20,20V104c0,11.03-8.97,20-20,20H24c-11.03,0-20-8.97-20-20V24C4,12.97,12.97,4,24,4H104m0-4H24C10.75,0,0,10.75,0,24V104C0,117.25,10.75,128,24,128H104c13.25,0,24-10.75,24-24V24c0-13.25-10.75-24-24-24h0Z"/></g></g><g id="figura"><g><path class="cls-2" d="M69.96,44.66c2.69,0,4.88-2.18,4.88-4.88V21.26c0-2.69-2.18-4.88-4.88-4.88h-18.53c-2.69,0-4.88,2.18-4.88,4.88v18.53c0,2.69,2.18,4.88,4.88,4.88h18.53Zm-6.62-24.6c2.37,0,4.17,.48,4.98,.9l-.93,3.63c-.93-.39-2.22-.75-3.84-.75-3.63,0-6.45,2.19-6.45,6.69,0,4.05,2.4,6.6,6.48,6.6,1.38,0,2.91-.3,3.81-.66l.69,3.57c-.84,.42-2.73,.87-5.19,.87-6.99,0-10.59-4.35-10.59-10.11,0-6.9,4.92-10.74,11.04-10.74Z"/><path class="cls-2" d="M67.07,65.17h-1.56v5.7c.45,.06,.99,.06,1.77,.06,2.07,0,3.9-.78,3.9-2.91s-1.83-2.85-4.11-2.85Z"/><path class="cls-2" d="M70.7,59.41c0-1.53-1.17-2.34-3.24-2.34-.99,0-1.56,.06-1.95,.12v4.71h1.5c2.4,0,3.69-.99,3.69-2.49Z"/><path class="cls-2" d="M76.67,50.34h-18.53c-2.69,0-4.88,2.18-4.88,4.88v18.53c0,2.69,2.18,4.88,4.88,4.88h18.53c2.69,0,4.88-2.18,4.88-4.88v-18.53c0-2.69-2.18-4.88-4.88-4.88Zm-2.78,22.15c-1.47,1.17-3.93,1.83-7.95,1.83-2.25,0-3.93-.15-4.95-.3v-19.86c1.2-.24,3.63-.42,5.91-.42,2.79,0,4.5,.27,5.97,1.14,1.41,.75,2.43,2.13,2.43,3.96s-1.05,3.48-3.33,4.32v.06c2.31,.63,4.02,2.37,4.02,4.98,0,1.83-.84,3.27-2.1,4.29Z"/><path class="cls-2" d="M62.61,93.22h-.06c-.3,1.2-.6,2.73-.93,3.9l-1.2,4.29h4.47l-1.26-4.29c-.36-1.2-.72-2.7-1.02-3.9Z"/><path class="cls-2" d="M71.69,86.02h-18.53c-2.69,0-4.88,2.18-4.88,4.88v18.53c0,2.69,2.18,4.88,4.88,4.88h18.53c2.69,0,4.88-2.18,4.88-4.88v-18.53c0-2.69-2.18-4.88-4.88-4.88Zm-4.58,24l-1.56-5.19h-5.79l-1.44,5.19h-4.74l6.18-20.22h6l6.27,20.22h-4.92Z"/></g></g></svg>