<?xml version="1.0" encoding="UTF-8"?><svg xmlns="http://www.w3.org/2000/svg" viewBox="0 0 128 128"><defs><style>.cls-1{fill:#eaa1c7;}.cls-2{fill:#e61b72;}.cls-3{fill:#662482;}</style></defs><g id="cuadrobase"><g><rect class="cls-3" x="2" y="2" width="124" height="124" rx="22" ry="22"/><path class="cls-1" d="M104,4c11.03,0,20,8.97,20,20V104c0,11.03-8.97,20-20,20H24c-11.03,0-20-8.97-20-20V24C4,12.97,12.97,4,24,4H104m0-4H24C10.75,0,0,10.75,0,24V104c0,13.25,10.75,24,24,24H104c13.25,0,24-10.75,24-24V24c0-13.25-10.75-24-24-24h0Z"/></g></g><g id="figura"><g><path class="cls-2" d="M61.84,105.03c.05-.11,.18-.15,.28-.21-.21-.14-.46-.3-.5-.57-.05-.35,.11-.68,.22-1.01,.16-.44,.29-.9,.28-1.36-.1-.07-.16-.18-.19-.3-.1-.06-.24-.13-.24-.26-.01-.22,0-.45,0-.67-.33-.11-.66-.25-.97-.4-.16,.15-.3,.31-.46,.46-.1,.1-.25,.05-.37,.02-.1,.07-.22,.1-.35,.09-.31,.3-.54,.67-.72,1.05-.16,.32-.28,.68-.55,.93-.22,.2-.54,.15-.81,.09,.01,.13,.07,.26,.02,.38-.07,.15-.22,.28-.39,.27-.11,0-.19-.07-.28-.12-.01,.02-.04,.06-.05,.08,0,.13-.12,.24-.08,.37,.04,.21,.04,.45-.1,.63-.21,.26-.54,.37-.83,.51-.4,.18-.79,.41-1.11,.72,0,.11-.01,.23-.07,.33,.05,.13,.05,.27-.02,.4,.02,.09,.04,.19,.02,.29-.04,.1-.12,.17-.19,.24,2.07,1.5,4.49,2.5,7.01,2.91,0-.1,0-.22,.04-.31,.04-.09,.14-.13,.22-.18,.03-.14,.14-.24,.27-.29,.02-.12,.09-.21,.19-.28-.02-.43-.12-.85-.27-1.25-.11-.32-.27-.65-.24-1,.03-.27,.25-.45,.47-.58,0-.09,.03-.19,.12-.24h0s0-.07,0-.11c-.1-.02-.2-.02-.28-.09-.14-.12-.15-.34-.08-.5Z"/><path class="cls-2" d="M61.6,80.65c-.03-.33,.11-.64,.22-.94,.16-.42,.28-.86,.29-1.31-.1-.07-.17-.16-.19-.28-.13-.05-.24-.15-.27-.29-.08-.05-.18-.09-.22-.18-.04-.1-.03-.21-.04-.31-2.54,.4-4.97,1.43-7.05,2.93,.07,.08,.15,.15,.2,.24,.04,.09,.01,.19,0,.28,.06,.12,.06,.26,.02,.39,.05,.1,.08,.21,.06,.33,.38,.36,.84,.59,1.31,.81,.25,.12,.53,.25,.68,.49,.1,.17,.09,.37,.06,.55-.04,.13,.08,.24,.07,.38,.02,.02,.04,.05,.06,.07,.09-.06,.17-.13,.28-.13,.17,0,.31,.12,.38,.26,.06,.12-.01,.25,0,.38,.17-.02,.35-.08,.53-.04,.2,.04,.36,.19,.46,.36,.17,.27,.28,.58,.43,.87,.17,.33,.38,.64,.65,.9,.12,0,.25,.02,.35,.09,.11-.03,.24-.08,.34,0,.18,.13,.31,.31,.47,.46,.32-.15,.64-.29,.97-.4,0-.23,0-.46,0-.68,.01-.13,.14-.19,.24-.25,.02-.13,.1-.22,.18-.32,.03-.58-.2-1.14-.39-1.68-.08-.26-.18-.55-.06-.81,.08-.21,.29-.32,.46-.45-.11-.06-.24-.12-.29-.24-.05-.15-.05-.34,.07-.45h0c.08-.09,.21-.09,.32-.13-.06-.11-.13-.21-.15-.34-.22-.12-.43-.31-.47-.58Z"/><path class="cls-2" d="M54.56,100.14c.05,0,.14,.06,.17,0-.03-.22-.09-.47,.03-.67,.18-.3,.52-.42,.82-.56,.45-.21,.9-.44,1.23-.81,.02-.12,.03-.25,.11-.35-.03-.11-.08-.24,0-.35,.13-.17,.31-.31,.46-.47-.16-.31-.29-.64-.4-.97-.22,0-.45,0-.67,0-.13-.01-.2-.14-.25-.25-.13-.02-.22-.1-.32-.17-.58-.04-1.13,.19-1.67,.38-.26,.09-.56,.18-.82,.06-.2-.09-.31-.29-.44-.46-.06,.1-.11,.24-.24,.28-.15,.06-.35,.04-.46-.08-.08-.08-.09-.2-.11-.3-.03,0-.07,.01-.1,.02-.06,.08-.15,.1-.25,.12-.12,.22-.31,.44-.58,.46-.36,.03-.69-.13-1.01-.24-.4-.15-.81-.25-1.23-.26-.07,.09-.17,.16-.29,.18-.05,.13-.15,.24-.29,.27-.06,.09-.11,.19-.21,.24-.09,.03-.19,.02-.29,.03,.4,2.54,1.42,4.97,2.93,7.04,.08-.07,.15-.15,.24-.2,.09-.04,.18-.02,.27,0,.13-.07,.27-.06,.4,0,.1-.06,.21-.08,.33-.07,.38-.39,.61-.88,.83-1.37,.12-.25,.26-.52,.53-.64,.15-.07,.33-.06,.49-.03,.14,.04,.24-.08,.38-.07h0s.06-.04,.08-.05c-.07-.11-.16-.24-.12-.38,.05-.19,.25-.37,.46-.31Z"/><path class="cls-2" d="M48.26,91.24c.14,.03,.23,.14,.28,.27,.12,.03,.21,.1,.29,.19,.5-.03,.98-.17,1.45-.35,.3-.1,.63-.25,.95-.12,.19,.07,.31,.25,.42,.42,.13,.02,.23,.09,.34,.15,.03-.11,.04-.24,.12-.32,.11-.12,.31-.13,.45-.08,.13,.04,.18,.18,.24,.29,.08-.11,.15-.22,.24-.32,.15-.15,.37-.23,.58-.19,.34,.05,.66,.2,.98,.3,.37,.13,.77,.2,1.16,.21,.08-.1,.19-.17,.31-.19,.06-.11,.13-.24,.27-.25,.21-.02,.42,0,.63,0,.11-.34,.25-.66,.4-.98-.15-.16-.32-.3-.46-.47-.1-.1-.05-.25-.02-.37-.07-.1-.1-.22-.09-.34-.37-.38-.84-.63-1.32-.84-.27-.13-.57-.26-.73-.53-.12-.21-.06-.45-.03-.67-.02-.06-.09,0-.13,0-.24,.1-.53-.14-.51-.39,0-.11,.07-.19,.12-.28-.02-.02-.05-.04-.07-.06-.1,0-.19-.05-.28-.09-.13,0-.26,.04-.39,.03-.21,0-.4-.14-.51-.31-.2-.28-.31-.62-.47-.92-.15-.31-.35-.59-.58-.84-.12,0-.23-.01-.33-.07-.13,.05-.27,.05-.4-.01-.1,.02-.2,.05-.3,.02-.1-.04-.16-.12-.24-.19-1.5,2.08-2.51,4.52-2.91,7.06,.1,0,.2,0,.3,.02,.1,.03,.16,.12,.22,.2Z"/><path class="cls-2" d="M66.21,82.15c-.05,.12-.18,.17-.29,.24,.21,.14,.44,.29,.5,.56,.06,.36-.1,.69-.22,1.02-.17,.44-.29,.91-.27,1.38,.09,.08,.16,.19,.17,.31,.1,.06,.22,.11,.25,.23,.02,.22,0,.45,0,.67,.33,.11,.65,.25,.97,.4,.16-.15,.3-.32,.47-.45,.1-.08,.24-.03,.35,0,.1-.08,.23-.09,.35-.11,.43-.37,.66-.9,.9-1.41,.13-.26,.26-.55,.54-.67,.2-.09,.42-.03,.62,0,.05-.05,0-.11,0-.17-.06-.22,.13-.44,.34-.47,.13-.02,.24,.06,.34,.13,.01-.02,.04-.06,.05-.08-.01-.13,.11-.24,.07-.38-.05-.2-.04-.43,.09-.6,.19-.25,.49-.37,.76-.5,.43-.19,.85-.42,1.2-.75,0-.11,0-.23,.07-.33-.09-.18,.02-.36,0-.54-.02-.16,.12-.27,.22-.37-2.09-1.52-4.54-2.54-7.09-2.94,0,.1,0,.2-.02,.3-.03,.1-.12,.16-.2,.22-.04,.14-.14,.23-.27,.28-.03,.11-.09,.21-.18,.28,0,.5,.16,.98,.34,1.45,.1,.27,.21,.56,.15,.86-.06,.23-.25,.4-.46,.51-.01,.09-.04,.19-.12,.25h0s-.01,.07-.02,.1c.1,.03,.22,.04,.3,.11,.12,.12,.14,.31,.08,.47Z"/><path class="cls-2" d="M87.01,73.59v-13.26h4.78s.58-2.22,5.07-4.8c-9.78-.32-15.06-2.74-17.9-5.24v-9.96h3.1s.38-1.44,3.3-3.12c-13.62-.44-13.8-7.16-13.8-7.16h-3.15v-6.37h-2.7v-7.36h-3.43v7.36h-2.7v6.37h-2.8s-.44,6.81-14.15,7.16c2.48,1.59,2.7,3.12,2.7,3.12h3.71v10.26c-3.02,2.42-8.37,4.69-17.9,4.94,3.81,2.45,4.15,4.8,4.15,4.8h5.7v14.4c-4.09,5.5-13.7,12.35-36.2,12.93,6.87,4.41,7.47,4.24,7.47,4.24h10.27v32.09H105.46v-32.09h8.61s1.05,.42,9.14-4.24c-23.84-.77-32.82-8.48-36.2-14.07Zm4.07,19.95c.03,.1-.05,.16-.11,.22-.28,.26-.56,.53-.75,.86-.15,.26-.32,.51-.52,.73-.28,.31-.73,.46-1.13,.36-.2-.05-.36-.2-.47-.36-.15,.07-.32,.09-.49,.09-.06,.13-.17,.23-.32,.24-.06,.15-.19,.26-.35,.27-.07,.09-.14,.2-.26,.21-.32,.01-.63,.02-.95,.02-.46,3.96-2.04,7.77-4.5,10.9,.21,.22,.43,.42,.64,.65,.1,.11,.06,.26,.02,.38,.1,.13,.11,.29,.05,.44,.1,.11,.11,.26,.07,.4,.12,.12,.23,.26,.29,.43,.19-.04,.39-.04,.56,.05,.34,.17,.55,.55,.58,.92,.02,.37-.07,.73-.16,1.09-.1,.4-.08,.81-.07,1.22,.01,.07-.05,.12-.11,.11-.4,0-.81-.03-1.2,.07-.34,.09-.69,.17-1.05,.16-.39-.02-.79-.23-.97-.59-.09-.17-.09-.36-.05-.55-.16-.05-.29-.16-.4-.28-.14,.04-.28,.03-.4-.05-.15,.05-.32,.05-.44-.07-.11,.01-.25,.04-.34-.04-.23-.21-.45-.43-.67-.65-3.13,2.47-6.94,4.06-10.9,4.52-.01,.3,.02,.61,0,.91-.01,.15-.15,.22-.26,.29,0,.17-.12,.29-.27,.34,0,.16-.11,.26-.24,.33,0,.17-.01,.35-.1,.51,.17,.11,.32,.27,.37,.48,.1,.4-.06,.85-.36,1.13-.23,.21-.49,.38-.76,.53-.37,.22-.66,.54-.95,.85-.08-.02-.16-.04-.21-.1-.25-.27-.51-.54-.83-.73-.31-.19-.62-.38-.87-.64-.26-.29-.38-.73-.25-1.1,.06-.18,.2-.31,.34-.41-.07-.15-.09-.32-.09-.48-.13-.06-.22-.18-.24-.32-.15-.07-.27-.19-.26-.36-.1-.07-.22-.16-.22-.3-.02-.3,0-.61,0-.91-3.97-.46-7.8-2.05-10.93-4.53-.21,.22-.43,.43-.65,.64-.09,.1-.24,.07-.36,.06-.12,.11-.29,.13-.44,.07-.12,.09-.27,.1-.41,.05-.11,.12-.24,.23-.4,.28,.04,.22,.02,.45-.11,.64-.2,.31-.57,.48-.93,.5-.35,0-.7-.08-1.04-.16-.4-.1-.81-.07-1.22-.07-.07,.02-.1-.05-.1-.11,0-.2,.02-.41,0-.61,0-.6-.3-1.17-.22-1.78,.06-.35,.26-.7,.6-.85,.17-.08,.36-.08,.53-.04,.05-.17,.16-.31,.29-.43-.05-.14-.03-.29,.06-.4-.06-.15-.05-.31,.05-.44-.04-.13-.07-.29,.04-.4,.21-.21,.42-.41,.63-.62-2.47-3.13-4.05-6.94-4.51-10.9-.32,0-.64,0-.96-.02-.12-.01-.18-.12-.25-.21-.17,0-.3-.11-.35-.27-.15-.01-.26-.11-.33-.24-.17,0-.33-.02-.48-.09-.12,.17-.28,.32-.49,.36-.37,.09-.78-.04-1.06-.3-.27-.27-.45-.59-.65-.91-.22-.35-.55-.61-.83-.91,.25-.31,.58-.54,.8-.88,.23-.36,.44-.76,.78-1.04,.3-.22,.71-.32,1.06-.19,.17,.06,.29,.2,.39,.34,.16-.08,.33-.1,.51-.09,.06-.13,.18-.23,.33-.25,.06-.15,.18-.26,.35-.27,.06-.11,.13-.24,.27-.25,.31-.02,.61,0,.92,0,.46-3.96,2.05-7.78,4.52-10.9-.22-.21-.43-.43-.64-.65-.1-.09-.07-.24-.06-.36-.12-.12-.12-.29-.07-.44-.09-.12-.09-.27-.05-.41-.12-.11-.23-.24-.28-.4-.2,.03-.41,.03-.59-.08-.36-.21-.56-.64-.55-1.05,.01-.35,.1-.69,.18-1.03,.09-.4,.04-.82,.06-1.23,.45-.02,.92,.04,1.36-.09,.5-.12,1.06-.27,1.53,0,.36,.17,.61,.59,.5,1,.17,.05,.31,.16,.43,.29,.14-.04,.29-.03,.4,.06,.15-.06,.31-.05,.44,.05,.13-.03,.29-.07,.4,.04,.21,.21,.42,.42,.63,.63,3.13-2.46,6.95-4.05,10.9-4.51,0-.31-.01-.61,0-.92,0-.14,.11-.22,.21-.29,0-.17,.11-.3,.27-.36,.02-.15,.11-.26,.25-.32,0-.17,.02-.33,.08-.49-.17-.12-.32-.28-.37-.49-.1-.42,.08-.88,.41-1.15,.23-.2,.48-.36,.74-.51,.35-.21,.61-.52,.89-.8,.03-.04,.1-.07,.14-.02,.27,.25,.5,.54,.81,.75,.33,.21,.68,.41,.96,.69,.26,.28,.4,.7,.3,1.07-.05,.2-.2,.36-.37,.48,.08,.16,.1,.33,.09,.51,.13,.06,.23,.17,.24,.33,.15,.06,.27,.18,.27,.35,.12,.06,.25,.14,.26,.28,.02,.3-.02,.61,0,.92,3.95,.46,7.75,2.04,10.87,4.5,.21-.21,.41-.42,.62-.62,.11-.11,.27-.08,.4-.04,.13-.1,.29-.1,.44-.05,.11-.1,.26-.11,.4-.06,.12-.13,.25-.24,.42-.29-.04-.2-.03-.41,.07-.59,.2-.36,.63-.57,1.04-.55,.31,0,.62,.08,.92,.15,.38,.1,.77,.09,1.16,.08,.08,0,.22-.01,.2,.1,0,.4-.03,.81,.07,1.21,.09,.36,.18,.72,.16,1.1-.03,.38-.23,.75-.58,.93-.17,.09-.37,.09-.56,.06-.05,.16-.16,.29-.28,.4,.05,.14,.03,.29-.05,.41,.06,.15,.05,.31-.06,.43,.01,.12,.04,.27-.06,.37-.21,.22-.42,.44-.63,.65,2.47,3.13,4.06,6.94,4.52,10.9,.3-.01,.61-.02,.92,0,.14,.01,.22,.14,.28,.25,.16,.02,.29,.12,.34,.27,.15,.02,.27,.11,.34,.25,.17,0,.35,.01,.5,.09,.12-.19,.3-.34,.52-.38,.41-.08,.86,.09,1.13,.42,.21,.24,.38,.52,.54,.79,.21,.34,.53,.59,.8,.88h0Z"/><path class="cls-2" d="M77.14,84.15c-.1,.02-.19,0-.29-.02-.13,.06-.27,.06-.4,.01-.1,.06-.22,.08-.33,.07-.37,.37-.6,.85-.81,1.32-.13,.27-.27,.58-.55,.7-.19,.09-.4,.03-.6,.01-.09,.04-.17,.08-.27,.09-.02,.01-.06,.04-.08,.05,.14,.16,.18,.42,.01,.57-.13,.16-.35,.14-.52,.07,.03,.22,.1,.45,0,.66-.12,.28-.41,.41-.67,.54-.5,.23-1.01,.46-1.39,.87-.03,.12-.03,.25-.11,.36,.02,.12,.08,.27-.03,.37-.15,.16-.31,.31-.46,.46,.16,.31,.28,.64,.41,.97,.22,0,.44-.03,.66,0,.12,.02,.18,.15,.24,.25,.13,.02,.24,.09,.32,.19,.45,0,.89-.1,1.31-.26,.34-.11,.68-.29,1.05-.25,.28,.04,.46,.29,.6,.51,.06-.12,.13-.26,.27-.3,.15-.04,.34-.03,.45,.1,.07,.08,.07,.18,.09,.28,.04,0,.07,0,.11,0,.05-.09,.15-.11,.24-.12,.13-.22,.31-.44,.57-.47,.31-.03,.6,.1,.88,.19,.44,.17,.89,.29,1.36,.32,.07-.09,.17-.17,.29-.19,.05-.13,.14-.24,.28-.27,.06-.07,.12-.17,.22-.2h0c.1-.03,.2-.02,.3-.02-.4-2.54-1.41-4.98-2.91-7.06-.08,.07-.15,.16-.24,.19Z"/><path class="cls-2" d="M79.79,95.97c-.14-.04-.24-.14-.29-.28-.12-.02-.21-.09-.28-.18-.47,.01-.93,.14-1.37,.31-.3,.1-.6,.24-.92,.19-.25-.04-.41-.25-.54-.46-.1-.01-.19-.04-.25-.12-.04,0-.07,0-.11,0-.02,.1-.03,.22-.11,.3-.11,.12-.29,.11-.43,.08-.14-.04-.19-.18-.27-.29-.15,.22-.32,.47-.6,.51-.4,.04-.77-.17-1.14-.28-.38-.14-.78-.22-1.19-.22-.08,.09-.19,.17-.31,.18-.06,.1-.12,.24-.26,.25-.22,.01-.45,0-.67,0-.11,.33-.24,.65-.4,.96,.15,.16,.31,.3,.45,.46,.08,.1,.04,.24,.01,.36,.07,.11,.08,.23,.1,.35,.36,.4,.86,.64,1.34,.86,.28,.14,.6,.27,.74,.57,.1,.21,.03,.44,0,.66,.13-.03,.27-.09,.4-.01,.13,.07,.24,.21,.23,.36,0,.11-.07,.2-.13,.29,.02,.01,.06,.04,.08,.06,.1-.01,.19,.03,.27,.09,.23-.06,.5-.09,.71,.06,.27,.2,.38,.53,.53,.81,.18,.41,.41,.81,.72,1.14,.11,0,.23,0,.33,.07,.13-.05,.27-.06,.4,0,.1,0,.21-.04,.3,.02,.08,.05,.15,.12,.22,.19h0c1.51-2.07,2.53-4.51,2.93-7.04-.1,0-.2,0-.29-.04-.1-.05-.15-.15-.2-.23Z"/><path class="cls-2" d="M73.49,106.43c-.06-.13-.06-.27-.01-.4-.07-.11-.05-.25-.1-.36-.32-.32-.74-.53-1.15-.72-.29-.14-.62-.26-.8-.54-.13-.21-.1-.46-.04-.68-.06-.07-.1-.16-.09-.26-.02-.03-.04-.05-.06-.08-.09,.05-.18,.13-.29,.13-.17,0-.32-.12-.38-.27-.05-.11,.01-.23,.02-.35-.17-.03-.34,.07-.51,.02-.34-.05-.52-.38-.66-.66-.24-.52-.49-1.06-.91-1.46-.12,.02-.24-.02-.34-.09-.12,.02-.25,.08-.36,0-.17-.14-.32-.32-.48-.47-.32,.15-.64,.29-.97,.4,0,.22,.01,.44,0,.67-.02,.13-.15,.18-.25,.23,0,.13-.08,.23-.17,.31-.02,.51,.13,1,.31,1.48,.1,.3,.25,.62,.18,.95-.06,.25-.3,.4-.49,.53,.09,.06,.21,.1,.27,.2,.08,.15,.07,.37-.05,.5-.08,.08-.2,.09-.3,.11,0,.04,0,.09,0,.13,.02,.01,.07,.03,.1,.05,0,.06,0,.11,.01,.17,.2,.12,.41,.27,.47,.51,.07,.32-.07,.63-.17,.92-.17,.44-.31,.91-.32,1.39,.08,.08,.15,.17,.18,.29,.13,.05,.23,.14,.27,.28,.07,.06,.16,.12,.2,.21,.02,.1,.02,.21,.03,.31h0c2.54-.4,4.98-1.41,7.06-2.91-.07-.08-.16-.15-.19-.25-.02-.09,0-.19,.02-.28Z"/></g></g></svg>