<?xml version="1.0" encoding="UTF-8"?><svg xmlns="http://www.w3.org/2000/svg" viewBox="0 0 128 128"><defs><style>.cls-1{fill:#fff;}.cls-2{fill:#ffec00;}.cls-3{fill:#00a099;}</style></defs><g id="cuadrobase"><g><rect class="cls-3" x="2" y="2" width="124" height="124" rx="22" ry="22"/><path class="cls-2" d="M104,4c11.03,0,20,8.97,20,20V104c0,11.03-8.97,20-20,20H24c-11.03,0-20-8.97-20-20V24C4,12.97,12.97,4,24,4H104m0-4H24C10.75,0,0,10.75,0,24V104C0,117.25,10.75,128,24,128H104c13.25,0,24-10.75,24-24V24c0-13.25-10.75-24-24-24h0Z"/></g></g><g id="figura"><g><polygon class="cls-1" points="103.34 28.33 86.04 11.03 64.34 44.04 70.33 50.03 103.34 28.33"/><polygon class="cls-1" points="57.75 50.63 24.74 72.33 42.04 89.63 63.74 56.62 57.75 50.63"/><path class="cls-1" d="M61.25,53.12c1.5,1.5,3.93,1.5,5.42,0,1.5-1.5,1.5-3.93,0-5.42-1.5-1.5-3.93-1.5-5.42,0s-1.5,3.93,0,5.42Z"/><polygon class="cls-1" points="64.26 56.7 85.96 89.71 103.26 72.41 70.25 50.71 64.26 56.7"/><polygon class="cls-1" points="63.66 44.12 41.96 11.11 24.66 28.41 57.67 50.11 63.66 44.12"/><polygon class="cls-1" points="60.59 66.69 47.34 124.1 79.66 124.1 67.19 66.69 60.59 66.69"/></g></g></svg>