<?xml version="1.0" standalone="no"?>
<!DOCTYPE svg PUBLIC "-//W3C//DTD SVG 20010904//EN"
 "http://www.w3.org/TR/2001/REC-SVG-20010904/DTD/svg10.dtd">
<svg version="1.0" xmlns="http://www.w3.org/2000/svg"
 width="96.000000pt" height="96.000000pt" viewBox="0 0 96.000000 96.000000"
 preserveAspectRatio="xMidYMid meet">

<g transform="translate(0.000000,96.000000) scale(0.100000,-0.100000)"
fill="#000000" stroke="none">
<path d="M375 871 c-66 -11 -65 -7 -65 -177 0 -85 3 -154 8 -154 4 0 25 5 47
10 29 7 75 5 166 -7 90 -12 139 -14 170 -7 l44 9 3 163 c2 153 1 163 -15 159
-68 -20 -88 -19 -293 7 -14 1 -43 0 -65 -3z"/>
<path d="M210 477 c0 -386 0 -393 20 -394 20 -2 20 4 20 393 0 387 0 394 -20
394 -20 0 -20 -7 -20 -393z"/>
</g>
</svg>
