<?xml version="1.0" encoding="UTF-8"?><svg xmlns="http://www.w3.org/2000/svg" viewBox="0 0 128 128"><defs><style>.cls-1{fill:#bd1622;}.cls-2{fill:#35a8e0;}</style></defs><g id="cuadrobase"><g><rect class="cls-2" x="2" y="2" width="124" height="124" rx="22" ry="22"/><path class="cls-1" d="M104,4c11.03,0,20,8.97,20,20V104c0,11.03-8.97,20-20,20H24c-11.03,0-20-8.97-20-20V24C4,12.97,12.97,4,24,4H104m0-4H24C10.75,0,0,10.75,0,24V104C0,117.25,10.75,128,24,128H104c13.25,0,24-10.75,24-24V24c0-13.25-10.75-24-24-24h0Z"/></g></g><g id="figura"><path class="cls-1" d="M64,9.75c-26.28,0-47.59,21.31-47.59,47.59s39,60.9,47.59,60.9c9.25,0,47.59-34.62,47.59-60.9S90.28,9.75,64,9.75Zm-3.76,38.54h17.07c5.29,0,9.58,4.29,9.58,9.58v.46h-26.65v-10.05Zm-12.19-2.21c3.16,0,5.73,2.56,5.73,5.73s-2.56,5.73-5.73,5.73-5.73-2.56-5.73-5.73,2.56-5.73,5.73-5.73Zm44.94,34.26v-10.74H36.12v10.74h-5.36V34.7h5.36v29.55h56.87v-8.66h5.36v24.75h-5.36Z"/></g></svg>