<?xml version="1.0" encoding="UTF-8"?><svg xmlns="http://www.w3.org/2000/svg" viewBox="0 0 128 128"><defs><style>.cls-1{fill:#1d70b7;}.cls-2{fill:#35a8e0;}.cls-3{fill:#2d2e82;}</style></defs><g id="cuadrobase"><g><rect class="cls-2" x="2" y="2" width="124" height="124" rx="22" ry="22"/><path class="cls-1" d="M104,4c11.03,0,20,8.97,20,20V104c0,11.03-8.97,20-20,20H24c-11.03,0-20-8.97-20-20V24C4,12.97,12.97,4,24,4H104m0-4H24C10.75,0,0,10.75,0,24V104C0,117.25,10.75,128,24,128H104c13.25,0,24-10.75,24-24V24c0-13.25-10.75-24-24-24h0Z"/></g></g><g id="figura"><g><path class="cls-3" d="M47.67,76.8l5.43-1.02,.51,6.42,1.2,.04,1.25-15.24c.34-5.57,3.8-10.7,9.38-11.36h0c5.59-.66,10.66,3.33,11.32,8.92l.58,4.85,7.35-11.6-6.11-1.79,6.45-5.68-15.37-9.47,12.28-4.16-1.78-3.77-8.77,1.04-2.04-17.22-16.79,1.99,2.04,17.22-10.98,1.3-2.04-17.22-16.79,1.99,2.81,23.68,12.62-1.5-.67,8.57,10.28,3.61-2.14,20.4Z"/><polygon class="cls-3" points="83.32 93.34 74.19 86.08 74.19 95.11 53.81 95.11 53.81 90.35 49.78 92.62 49.09 84.94 41.84 84.74 43.3 67.24 38.89 65.13 31.05 124.01 96.95 124.01 92.82 95.39 88.6 86.94 83.32 93.34"/><polygon class="cls-3" points="97.8 49.52 110.26 52.04 114.97 28.66 98.4 25.32 94.97 42.32 92.79 41.88 93.3 46.02 83.51 43.89 91.79 51.04 88.59 56.24 94.08 57.61 74.49 80.08 81.58 83.12 86.18 73.64 94.41 88.43 94.56 88.73 97.8 49.52"/></g></g></svg>