<?xml version="1.0" encoding="UTF-8"?><svg xmlns="http://www.w3.org/2000/svg" viewBox="0 0 128 128"><defs><style>.cls-1{fill:#ffec00;}.cls-2{fill:#29235c;}.cls-3{fill:#2d2e82;}</style></defs><g id="cuadrobase"><g><rect class="cls-1" x="2" y="2" width="124" height="124" rx="22" ry="22"/><path class="cls-2" d="M104,4c11.03,0,20,8.97,20,20V104c0,11.03-8.97,20-20,20H24c-11.03,0-20-8.97-20-20V24C4,12.97,12.97,4,24,4H104m0-4H24C10.75,0,0,10.75,0,24V104C0,117.25,10.75,128,24,128H104c13.25,0,24-10.75,24-24V24c0-13.25-10.75-24-24-24h0Z"/></g></g><g id="figura"><g><path class="cls-3" d="M53.01,55.49c-.29,1.08-.57,2.03-.85,2.94l-2.29,6.76h6.32l-2.28-6.71c-.36-1.05-.64-2.03-.89-2.99Z"/><path class="cls-3" d="M83.13,17.81H44.87l-27.06,27.06v38.27l27.06,27.06h38.27l27.06-27.06V44.87l-27.06-27.06ZM39.2,63.84c-1.79,1.91-4.7,2.96-8.19,2.96-.72,0-1.47-.02-2.16-.12v10.15h-4.31v-26.23l.42-.07c1.99-.33,4.16-.5,6.43-.5,3.32,0,5.85,.76,7.51,2.25,1.55,1.35,2.41,3.38,2.41,5.73s-.71,4.37-2.12,5.82Zm20.74,12.99l-2.74-8.05h-8.36l-2.66,8.05h-4.48l9.04-26.61h4.71l9.08,26.61h-4.59Zm21.13,0l-.14-.25c-.41-.7-.92-2.52-1.76-6.26-.72-3.33-1.89-4.48-4.66-4.59h-2.6v11.09h-4.31v-26.17l.4-.08c1.66-.34,4.07-.54,6.44-.54,3.66,0,6.05,.68,7.74,2.22,1.4,1.24,2.18,3.1,2.18,5.23,0,2.95-1.55,5.37-4.2,6.62,1.51,.91,2.56,2.61,3.13,5.08,.78,3.33,1.42,5.95,1.93,6.9l.4,.74h-4.54Zm23.78,0h-15.4v-26.61h14.83v3.77h-10.52v7.09h9.95v3.74h-9.95v8.23h11.09v3.77Z"/><path class="cls-3" d="M74.67,53.58c-1.25,0-2.19,.1-2.76,.2v8.45h2.88c3.2,0,5.27-1.71,5.27-4.36,0-3.49-2.93-4.26-5.39-4.29Z"/><path class="cls-3" d="M31.47,53.65c-1.05,0-1.99,.06-2.62,.17v9.15c.59,.11,1.32,.17,2.24,.17,3.82,0,5.92-1.77,5.92-4.97,0-3.93-3.47-4.52-5.54-4.52Z"/></g></g></svg>