<?xml version="1.0" encoding="UTF-8"?><svg xmlns="http://www.w3.org/2000/svg" viewBox="0 0 128 128"><defs><style>.cls-1{fill:#ffec00;}.cls-2{fill:#662482;}</style></defs><g id="cuadrobase"><g><rect class="cls-2" x="2" y="2" width="124" height="124" rx="22" ry="22"/><path class="cls-1" d="M104,4c11.03,0,20,8.97,20,20V104c0,11.03-8.97,20-20,20H24c-11.03,0-20-8.97-20-20V24C4,12.97,12.97,4,24,4H104m0-4H24C10.75,0,0,10.75,0,24V104c0,13.25,10.75,24,24,24H104c13.25,0,24-10.75,24-24V24c0-13.25-10.75-24-24-24h0Z"/></g></g><g id="figura"><g><path class="cls-1" d="M85.57,27.13c-7.58-.03-13.5,8.31-13.53,15.51-.04,9.04,7.3,16.36,13.4,16.38,6.1,.02,13.49-7.23,13.53-16.27,.03-7.2-5.82-15.59-13.4-15.62Z"/><path class="cls-1" d="M83.28,62.39l2.14,2.86,2.17-2.85c-.7,.12-1.42,.18-2.15,.18-.73,0-1.45-.08-2.15-.2Z"/><path class="cls-1" d="M64,11.26c-24.23,0-43.87,19.64-43.87,43.87s31.26,62.87,43.87,62.87c11.9,0,43.87-38.64,43.87-62.87S88.23,11.26,64,11.26Zm-14.77,17.84c-.2,23.25-.88,51.62-3.01,54.77-1.94,2.86-5.83,3.76-9,3.86-1.06,.03-2.05-.02-2.85-.13l-1.15-.29,.3-8.16,2.74,.3c2.37,.08,3.8,.17,6.16-2.17,1.2-2.54,1.22-19.02,1.47-48.15l.03-2.43,5.34-.03-.03,2.42Zm16.73,10.51c-.4,14.78-2.66,32.08-2.88,33.76l-.27,9.9,.96,.03-.11,4.05-7.27-.2,.11-4.05,.97,.03,.26-9.76c-.17-1.35-2.41-19.69-2.02-34.1,.1-3.54,.45-6.5,1.03-8.58,.33-1.18,1.2-4.32,4.4-4.24,1.55,.04,5.18,.14,4.82,13.17Zm28.53,19.6l-6.85,9-.13,19.84-4.45-.02,.13-19.84-6.78-9.06c-4.82-3.91-7.95-10.54-7.92-16.52,.04-10.95,9.06-19.09,17.1-19.06,8.04,.03,16.99,8.25,16.95,19.2-.02,5.98-3.2,12.58-8.05,16.46Z"/></g></g></svg>