<?xml version="1.0" encoding="UTF-8"?><svg xmlns="http://www.w3.org/2000/svg" viewBox="0 0 128 128"><defs><style>.cls-1{fill:#008d36;}.cls-2{fill:#d9d9d9;}.cls-3{fill:#93c01f;}</style></defs><g id="cuadrobase"><g><rect class="cls-2" x="2" y="2" width="124" height="124" rx="22" ry="22"/><path class="cls-3" d="M104,4c11.03,0,20,8.97,20,20V104c0,11.03-8.97,20-20,20H24c-11.03,0-20-8.97-20-20V24C4,12.97,12.97,4,24,4H104m0-4H24C10.75,0,0,10.75,0,24V104c0,13.25,10.75,24,24,24H104c13.25,0,24-10.75,24-24V24c0-13.25-10.75-24-24-24h0Z"/></g></g><g id="figura"><path class="cls-1" d="M69.23,47.24l-1.74-3.02c.7-.43,1.31-.99,1.79-1.68l11.24-16.23c.46-.7-8.37-8.01-8.64-8.22h-16.79c-.3-.05-8.97,7.51-8.41,8.22l11.24,16.23c.48,.69,1.09,1.25,1.78,1.68l-1.84,3.19c-15.13,2.89-26.61,16.22-26.61,32.18,0,18.07,14.7,32.77,32.77,32.77s32.77-14.7,32.77-32.77c0-16.29-11.95-29.84-27.55-32.35Zm-5.23,57.39c-13.81,0-25.04-11.23-25.04-25.04,0-10.87,6.96-20.14,16.66-23.59,.58,.61,1.4,1,2.36,1h11.21c1.07,0,1.96-.49,2.55-1.22,10.03,3.27,17.31,12.7,17.31,23.81,0,13.81-11.23,25.04-25.04,25.04Z"/></g></svg>