<?xml version="1.0" encoding="UTF-8"?><svg xmlns="http://www.w3.org/2000/svg" viewBox="0 0 128 128"><defs><style>.cls-1{fill:#ffec00;}.cls-2{fill:#86134d;}</style></defs><g id="cuadrobase"><g><rect class="cls-2" x="2" y="2" width="124" height="124" rx="22" ry="22"/><path class="cls-1" d="M104,4c11.03,0,20,8.97,20,20V104c0,11.03-8.97,20-20,20H24c-11.03,0-20-8.97-20-20V24C4,12.97,12.97,4,24,4H104m0-4H24C10.75,0,0,10.75,0,24V104C0,117.25,10.75,128,24,128H104c13.25,0,24-10.75,24-24V24c0-13.25-10.75-24-24-24h0Z"/></g></g><g id="figura"><g><path class="cls-1" d="M68.15,63.4c0-2.02-1.2-4.22-3.72-4.22s-3.84,2.14-3.84,4.35,1.01,4.03,2.9,6.11c3.09-2.14,4.66-3.78,4.66-6.24Z"/><path class="cls-1" d="M101.6,41.64h-9.25c-.06-15.58-12.75-28.24-28.35-28.24s-28.29,12.66-28.35,28.24h-9.25l-4.72,72.8H106.32l-4.72-72.8Zm-37.6-19.24c10.63,0,19.29,8.62,19.35,19.24H44.65c.06-10.62,8.71-19.24,19.35-19.24Zm12.4,73.95c-.88-.94-1.76-1.89-2.77-3.02-2.77,2.14-6.62,3.72-11.66,3.72-10.27,0-14.81-6.11-14.81-12.03,0-5.61,3.21-9.64,8.06-12.16v-.25c-1.83-2.02-3.21-5.17-3.21-8.19,0-5.36,4.22-11.21,12.73-11.21,6.55,0,11.53,3.84,11.53,9.95,0,4.28-2.52,7.94-8.38,10.9l-.06,.25c2.46,2.71,5.04,5.8,7.12,7.94,1.7-2.65,3.02-6.55,3.59-10.33h8.57c-1.13,6.43-3.28,11.91-7.06,16.13,2.39,2.71,4.85,5.48,7.5,8.32h-11.15Z"/><path class="cls-1" d="M56.24,83.43c0,3.59,2.71,6.68,7.06,6.68,2.52,0,4.6-.95,5.86-2.14-2.65-2.65-6.11-6.49-9.58-10.4-1.76,1.26-3.34,3.09-3.34,5.86Z"/></g></g></svg>