<?xml version="1.0" encoding="UTF-8"?><svg xmlns="http://www.w3.org/2000/svg" viewBox="0 0 128 128"><defs><style>.cls-1{fill:#063;}.cls-2{fill:#ffec00;}.cls-3{fill:#35a8e0;}</style></defs><g id="cuadrobase"><g><rect class="cls-1" x="2" y="2" width="124" height="124" rx="22" ry="22"/><path class="cls-3" d="M104,4c11.03,0,20,8.97,20,20V104c0,11.03-8.97,20-20,20H24c-11.03,0-20-8.97-20-20V24C4,12.97,12.97,4,24,4H104m0-4H24C10.75,0,0,10.75,0,24V104c0,13.25,10.75,24,24,24H104c13.25,0,24-10.75,24-24V24c0-13.25-10.75-24-24-24h0Z"/></g></g><g id="figura"><g><path class="cls-2" d="M37.82,101.12h51.52c2.94,0,5.32,2.39,5.32,5.32v4.67H32.5v-4.67c0-2.94,2.39-5.32,5.32-5.32Z"/><path class="cls-2" d="M63.42,14c-14.96,0-28.12,6.35-29.8,7.19h59.91c-1.72-.84-15.15-7.19-30.11-7.19Z"/><path class="cls-2" d="M35.82,24.78c-.11,.06-.17,.09-.17,.09,0,5.3,1.87,5.6,6.77,5.6h42.32c4.9,0,6.77-.19,6.77-5.6,0,0-.06-.03-.18-.09H35.82Z"/><path class="cls-2" d="M38.24,36.42v59.4h50.69V36.42H38.24Zm41.63,13.56c0,2.32-1.9,4.22-4.22,4.22h-23.29c-2.32,0-4.22-1.9-4.22-4.22v-1.08c0-2.32,1.9-4.22,4.22-4.22h23.29c2.32,0,4.22,1.9,4.22,4.22v1.08Z"/></g></g></svg>