<?xml version="1.0" encoding="UTF-8"?><svg xmlns="http://www.w3.org/2000/svg" viewBox="0 0 128 128"><defs><style>.cls-1{fill:#e61b72;}.cls-2{fill:#ffec00;}.cls-3{fill:#ececec;}</style></defs><g id="cuadrobase"><g><rect class="cls-3" x="2" y="2" width="124" height="124" rx="22" ry="22"/><path class="cls-2" d="M104,4c11.03,0,20,8.97,20,20V104c0,11.03-8.97,20-20,20H24c-11.03,0-20-8.97-20-20V24C4,12.97,12.97,4,24,4H104m0-4H24C10.75,0,0,10.75,0,24V104c0,13.25,10.75,24,24,24H104c13.25,0,24-10.75,24-24V24c0-13.25-10.75-24-24-24h0Z"/></g></g><g id="figura"><g><polygon class="cls-1" points="61.27 66.08 64.43 66.08 64.43 66.08 64.43 66.08 64.43 66.07 64.43 64.71 64.43 64.71 61.35 64.71 61.34 64.71 61.26 66.07 61.26 66.08 61.26 66.08 61.27 66.08"/><polygon class="cls-1" points="65.14 66.08 68.99 66.08 68.99 66.08 68.89 64.72 65.14 64.72 65.14 64.72 65.14 66.07 65.14 66.08 65.14 66.08 65.14 66.08 65.14 66.08"/><polygon class="cls-1" points="69.78 67.2 69.77 67.2 69.92 69.33 73.89 69.33 73.88 69.32 73.59 67.2 73.59 67.2 73.59 67.2 73.59 67.2 69.78 67.2 69.78 67.2"/><polygon class="cls-1" points="65.14 67.2 65.14 67.2 65.14 67.2 65.14 69.33 65.14 69.33 65.14 69.33 69.22 69.33 69.07 67.2 69.07 67.2 69.07 67.2 69.07 67.2 65.14 67.2 65.14 67.2"/><rect class="cls-1" x="73.79" y="66.07" width="0" height="0" transform="translate(-9.35 12.23) rotate(-8.91)"/><polygon class="cls-1" points="69.7 66.08 73.43 66.08 73.43 66.08 73.24 64.72 69.6 64.72 69.7 66.08 69.7 66.08"/><polygon class="cls-1" points="56.68 66.08 56.68 66.08 56.69 66.08 56.69 66.07 56.69 66.07 56.85 64.72 53.87 64.72 53.63 66.08 53.63 66.08 56.68 66.08 56.68 66.08"/><polygon class="cls-1" points="60.36 69.32 60.36 69.32 60.49 67.2 60.49 67.19 60.49 67.19 60.49 67.19 57.27 67.19 57.27 67.19 57.27 67.2 57.26 67.2 57.26 67.2 57.01 69.33 60.36 69.33 60.36 69.32"/><rect class="cls-1" x="53.62" y="66.07" width="0" height="0"/><polygon class="cls-1" points="60.56 66.08 60.56 66.08 60.56 66.07 60.64 64.71 60.63 64.71 57.56 64.71 57.4 66.07 57.4 66.08 60.55 66.08 60.56 66.08"/><polygon class="cls-1" points="61.07 69.33 64.43 69.33 64.43 69.32 64.43 69.32 64.43 67.2 64.43 67.2 64.43 67.19 64.43 67.19 64.43 67.19 61.2 67.19 61.2 67.19 61.2 67.19 61.2 67.2 61.07 69.32 61.07 69.32 61.07 69.33"/><rect class="cls-1" x="57.04" y="66.07" width="0" height="0"/><rect class="cls-1" x="82.6" y="66.64" width="0" height="0"/><rect class="cls-1" x="82.75" y="67.2" width="0" height="0"/><rect class="cls-1" x="82.37" y="67.2" width="0" height="0"/><polygon class="cls-1" points="82.45 66.08 85.51 66.08 85.07 64.71 82.09 64.71 82.09 64.71 82.45 66.08 82.45 66.08"/><path class="cls-1" d="M45.39,55.34h36.54c.73,0,1.32-.67,1.32-1.5V30.83c0-.83-.59-1.5-1.32-1.5H45.39c-.73,0-1.32,.67-1.32,1.5v23.01c0,.83,.59,1.5,1.32,1.5Z"/><rect class="cls-1" x="82.07" y="66.08" width="0" height="0" transform="translate(-17.31 31.08) rotate(-19.44)"/><rect class="cls-1" x="73.95" y="67.2" width="0" height="0" transform="translate(-13.43 18.72) rotate(-13.24)"/><rect class="cls-1" x="77.97" y="66.07" width="0" height="0" transform="translate(-11.26 16.24) rotate(-11.09)"/><polygon class="cls-1" points="74.15 66.07 74.15 66.08 74.15 66.08 74.16 66.08 77.6 66.08 77.6 66.08 77.6 66.08 77.6 66.07 77.6 66.07 77.33 64.71 73.97 64.71 74.15 66.07 74.15 66.07"/><polygon class="cls-1" points="78.34 66.07 78.34 66.08 78.34 66.08 78.34 66.08 78.35 66.08 81.69 66.08 81.69 66.08 81.69 66.08 81.33 64.72 81.33 64.72 78.07 64.72 78.34 66.07 78.34 66.07"/><rect class="cls-1" x="78.2" y="67.2" width="0" height="0"/><polygon class="cls-1" points="44.69 69.33 44.7 69.33 44.7 69.32 45.31 67.2 45.31 67.2 45.31 67.2 45.31 67.19 45.31 67.19 42.59 67.19 42.59 67.2 41.86 69.32 44.7 69.32 44.69 69.33"/><polygon class="cls-1" points="78.26 69.32 77.83 67.2 77.83 67.2 77.83 67.19 77.83 67.19 77.83 67.19 74.31 67.19 74.31 67.2 74.31 67.2 74.6 69.32 74.61 69.32 78.26 69.32 78.26 69.32"/><polygon class="cls-1" points="52.7 67.19 52.69 67.19 49.74 67.19 49.74 67.19 49.74 67.2 49.24 69.32 49.24 69.33 49.24 69.33 52.32 69.33 52.32 69.33 52.32 69.32 52.32 69.32 52.7 67.2 52.7 67.19"/><polygon class="cls-1" points="52.85 70.45 52.85 70.45 52.5 72.44 52.5 72.44 74.31 72.44 74.03 70.45 52.85 70.45"/><rect class="cls-1" x="52.48" y="70.44" width="0" height="0"/><polygon class="cls-1" points="78.49 70.44 78.49 70.44 78.49 70.44 78.48 70.44 74.76 70.44 75.04 72.43 78.89 72.43 78.49 70.44 78.49 70.44"/><rect class="cls-1" x="74.76" y="70.44" width="0" height="0" transform="translate(-9.21 11.28) rotate(-8.13)"/><polygon class="cls-1" points="82.75 67.2 83.32 69.32 84.14 72.44 84.15 72.44 87.58 72.44 85.88 67.2 82.75 67.2"/><path class="cls-1" d="M64,10.64c-23.16,0-41.94,18.78-41.94,41.94s31.41,63.94,41.94,63.94c11.82,0,41.94-40.78,41.94-63.94S87.16,10.64,64,10.64Zm-23.71,16.34c0-.88,.63-1.6,1.41-1.6h43.92c.78,0,1.41,.72,1.41,1.6v30.98c0,.88-.63,1.6-1.41,1.6H41.7c-.78,0-1.41-.72-1.41-1.6V26.98Zm50.48,50.19H37.24c-.78,0-1.82-1.19-1.41-2.24l4.23-10.72c.41-1.05,.63-2.24,1.41-2.24h45.06c.78,0,1.25,1.17,1.65,2.24l3.99,10.72c.4,1.07-.63,2.24-1.41,2.24Z"/><polygon class="cls-1" points="82.55 69.32 82.55 69.32 81.99 67.2 81.99 67.2 81.98 67.2 78.57 67.2 78.57 67.2 78.57 67.2 78.57 67.2 79 69.32 79 69.33 79 69.33 79 69.33 82.55 69.33 82.55 69.32"/><rect class="cls-1" x="78.86" y="70.44" width="0" height="0"/><polygon class="cls-1" points="82.85 70.44 82.85 70.44 79.23 70.44 79.23 70.44 79.63 72.43 83.38 72.43 83.38 72.43 82.85 70.44 82.85 70.44"/><polygon class="cls-1" points="41.48 70.45 40.8 72.44 43.8 72.44 43.8 72.44 44.37 70.45 44.37 70.45 41.48 70.45"/><polygon class="cls-1" points="48.98 70.45 48.51 72.44 51.76 72.44 51.77 72.44 52.12 70.45 52.12 70.45 48.98 70.45"/><polygon class="cls-1" points="46.41 66.08 49.24 66.08 49.24 66.08 49.56 64.72 46.8 64.72 46.8 64.72 46.41 66.07 46.4 66.08 46.4 66.08 46.41 66.08 46.41 66.08"/><polygon class="cls-1" points="50 66.08 52.89 66.08 52.9 66.08 52.9 66.07 52.89 66.07 53.13 64.71 50.31 64.71 50 66.07 49.99 66.07 49.99 66.08 49.99 66.08 50 66.08"/><rect class="cls-1" x="53.06" y="67.2" width="0" height="0" transform="translate(-24.5 103.46) rotate(-76.76)"/><rect class="cls-1" x="45.7" y="67.2" width="0" height="0" transform="translate(-32.88 87.93) rotate(-70.56)"/><polygon class="cls-1" points="45.63 66.08 45.63 66.07 46.03 64.71 46.02 64.71 43.44 64.71 42.97 66.07 42.97 66.08 45.63 66.08 45.63 66.08"/><polygon class="cls-1" points="48.99 67.2 48.98 67.2 48.98 67.2 46.09 67.2 46.09 67.2 46.08 67.2 45.47 69.32 45.47 69.32 45.47 69.33 48.49 69.33 48.49 69.33 48.49 69.32 48.99 67.2 48.99 67.2"/><polygon class="cls-1" points="53.05 69.33 53.05 69.33 53.05 69.33 56.3 69.33 56.55 67.2 56.55 67.2 56.55 67.2 53.43 67.2 53.43 67.2 53.43 67.2 53.05 69.33 53.05 69.33"/><rect class="cls-1" x="48.98" y="70.44" width="0" height="0" transform="translate(-31.24 100.87) rotate(-75.96)"/><polygon class="cls-1" points="45.15 70.44 45.15 70.44 45.15 70.44 45.15 70.44 44.57 72.43 44.58 72.43 47.76 72.43 48.23 70.44 48.23 70.44 48.23 70.44 48.23 70.44 45.15 70.44"/></g></g></svg>