<?xml version="1.0" encoding="UTF-8"?><svg xmlns="http://www.w3.org/2000/svg" viewBox="0 0 128 128"><defs><style>.cls-1{fill:#f8b133;}.cls-2{fill:#ececec;}.cls-3{fill:#1d1d1b;}</style></defs><g id="cuadrobase"><g><rect class="cls-2" x="2" y="2" width="124" height="124" rx="22" ry="22"/><path class="cls-1" d="M104,4c11.03,0,20,8.97,20,20V104c0,11.03-8.97,20-20,20H24c-11.03,0-20-8.97-20-20V24C4,12.97,12.97,4,24,4H104m0-4H24C10.75,0,0,10.75,0,24V104c0,13.25,10.75,24,24,24H104c13.25,0,24-10.75,24-24V24c0-13.25-10.75-24-24-24h0Z"/></g></g><g id="figura"><g><path class="cls-3" d="M51,12.55c-2.77,.02-2.66,4.14,0,4.16h15.44v5.61h-15.44c-2.76-.03-2.65,6.27,.05,6.26h15.39v6.06h-15.39c-2.74-.01-2.75,6.28,0,6.26h15.39v5.73h-15.39c-2.74,0-2.7,6.29,0,6.31h15.39v5.53c-.32-.04-.65-.07-1.01-.07h-14.01c-1.71,0-3.11,1.4-3.11,3.11s1.4,3.11,3.11,3.11h14.01c.35,0,.69-.12,1.01-.3v48.05c-.03,6.11,9.28,6,9.29-6.53V14.88c-1.25-1-2.3-2.3-6.1-2.27l-18.62-.05Z"/><path class="cls-3" d="M100.2,23.17c2.83-.02,5.12-2.32,5.13-5.13,0-2.86-2.3-5.16-5.13-5.18-2.84,.02-5.14,2.32-5.13,5.18-.01,2.81,2.29,5.11,5.13,5.13Z"/><path class="cls-3" d="M114.51,43.9l-4.51-14.77c-.54-1.66-2.68-4.67-6.31-4.67h-7.08c-3.69,0-5.82,2.98-6.31,4.67l-4.46,14.77c-.95,3.18,3.12,4.39,4.1,1.44l4-13.59h1.08l-6.93,24.11h6.52v17.65c-.01,3.22,4.83,3.22,4.82,0v-17.8h1.44v17.8c0,3.2,4.82,3.22,4.82,0v-17.65h6.52l-7.03-24.11h1.18l4.05,13.54c.95,3.09,4.99,1.77,4.1-1.39Z"/><path class="cls-3" d="M43.67,86.02v-27.19l-5.13-44.78c-.15-1.22-.89-1.5-1.59-1.49-.68-.01-1.42,.27-1.54,1.49l-5.03,44.78v27.19c-9.48-4.93-16.6,2.76-16.62,9.75,.02,6.24,4.62,11.37,11.18,11.39,6.55-.02,11.03-5.76,11.03-11.39v-27.34h2.1v27.34c0,6.31,4.95,11,10.4,11.26-.1,3.46,1.04,8.35,3.15,10.28,2.52,2.3,5.49-.63,4.26-3.03-1.16-2.2-2.62-3.47-1.69-8.31,3.96-1.79,6.32-5.63,6.31-10.16,0-7.09-7.32-14.73-16.83-9.8Zm-18.83,15.39c-3.07,0-5.57-2.49-5.59-5.59,.02-3.06,2.52-5.56,5.59-5.54,3.09-.02,5.58,2.48,5.59,5.54,0,3.1-2.5,5.59-5.59,5.59Zm24.57,0c-3.06,0-5.56-2.49-5.54-5.59-.02-3.06,2.48-5.56,5.54-5.54,3.1-.02,5.6,2.48,5.59,5.54,0,3.1-2.49,5.59-5.59,5.59Z"/></g></g></svg>