<?xml version="1.0" encoding="UTF-8"?><svg xmlns="http://www.w3.org/2000/svg" viewBox="0 0 128 128"><defs><style>.cls-1{fill:#e5332a;}.cls-2{fill:#0abcaf;}.cls-3{fill:#35a8e0;}</style></defs><g id="cuadrobase"><g><rect class="cls-2" x="2" y="2" width="124" height="124" rx="22" ry="22"/><path class="cls-3" d="M104,4c11.03,0,20,8.97,20,20V104c0,11.03-8.97,20-20,20H24c-11.03,0-20-8.97-20-20V24C4,12.97,12.97,4,24,4H104M104,0H24C10.75,0,0,10.75,0,24V104C0,117.25,10.75,128,24,128H104c13.25,0,24-10.75,24-24V24C128,10.75,117.25,0,104,0h0Z"/></g></g><g id="figura"><g><path class="cls-1" d="M96.19,74.24c-6.53,2.9-15.56,4.7-25.54,4.7-14.77,0-27.45-3.93-33.04-9.57l-.69,2.76-11.71,20.16,20.95-13.76-5.17,25.39,18-21.6,1.38,24.64,9.97-23.26,9.41,21.6,2.49-22.7,10.8,15.78-1.38-18.55,9.93,5.81-5.4-11.4Z"/><path class="cls-1" d="M34.2,56.68c9.69-1.66,10.07-27.07,28.07-26.24,18,.83,46.78,16.47,46.78,16.47,0,0-24.86-29.1-47.01-25.5S18.95,39.8,18.95,39.8c0,0,5.56,18.54,15.25,16.88Z"/></g></g></svg>