<?xml version="1.0" encoding="UTF-8"?><svg xmlns="http://www.w3.org/2000/svg" viewBox="0 0 128 128"><defs><style>.cls-1{fill:#f4eb45;}.cls-2{fill:#35a8e0;}.cls-3{fill:#189dd1;}</style></defs><g id="cuadrobase"><g><rect class="cls-1" x="2" y="2" width="124" height="124" rx="22" ry="22"/><path class="cls-2" d="M104,4c11.03,0,20,8.97,20,20V104c0,11.03-8.97,20-20,20H24c-11.03,0-20-8.97-20-20V24C4,12.97,12.97,4,24,4H104m0-4H24C10.75,0,0,10.75,0,24V104C0,117.25,10.75,128,24,128H104c13.25,0,24-10.75,24-24V24c0-13.25-10.75-24-24-24h0Z"/></g></g><g id="figura"><g><path class="cls-3" d="M62.77,25.07c-1.61-5.17-4.29-9.68-7.67-13.28-4.78,5.56-12.52,9.56-21.57,12.37-9.05,2.82-17.69,3.93-24.78,2.07-.73,4.88-.38,10.11,1.23,15.28,8.25,26.46,25.45,40.06,40.02,35.52,14.58-4.54,21.71-23.28,12.77-51.97Zm-18.53,9.72c2.02-2.13,9.59-7.43,11.58-6.22,1.99,1.22-2.36,8.5-4.38,10.63-2.02,2.13-5.27,2.87-7.26,1.65-1.99-1.22-1.96-3.94,.06-6.07Zm-26.54,5.72c.89-2.16,10.13-2.34,13.02-1.81,2.89,.53,4.51,2.71,3.62,4.87-.89,2.16-3.95,3.47-6.84,2.94-2.89-.53-10.69-3.85-9.8-6.01Zm30.19,27.41c-16.42,5.11-26.76-12.21-24.47-12.93,8.5,6.08,16.41,5.03,21.51,3.44,4.41-1.37,11.53-4.49,15.75-15.05,2.11-.65,3.1,19.59-12.79,24.54Z"/><path class="cls-3" d="M95.26,63.85c-8.64-3.89-15.84-8.8-19.92-14.89-3.78,3.17-6.99,7.31-9.22,12.25-11.38,25.27-7.53,46.86,6.39,53.13,13.92,6.27,31.68-3.02,44.02-30.42,2.23-4.94,3.2-10.09,3.07-15.02-7.26,.99-15.71-1.16-24.35-5.05Zm-16.11,5.03c2.93-.26,5.85,1.35,6.53,3.58,.68,2.23-1.14,4.25-4.07,4.5-2.93,.26-12.11-.8-12.79-3.03-.68-2.23,7.4-4.8,10.33-5.05Zm13.8,40.85c-2-8.76-7.69-12.6-11.88-14.48-3.62-1.63-9.98-3.69-18.72,.7-1.73-.79,9.18-14.37,22.23-8.49,13.48,6.07,10.26,23.12,8.37,22.28Zm12.32-19.44c-2.1,1.02-9.13-4.97-10.94-7.28s-1.58-5.02,.52-6.05c2.1-1.02,5.26,.02,7.07,2.33,1.81,2.31,5.45,9.97,3.35,11Z"/></g></g></svg>