<?xml version="1.0" encoding="UTF-8"?><svg xmlns="http://www.w3.org/2000/svg" viewBox="0 0 128 128"><defs><style>.cls-1{fill:#f8b133;}.cls-2{fill:#063;}.cls-3{fill:#fff;}</style></defs><g id="cuadrobase"><g><rect class="cls-2" x="2" y="2" width="124" height="124" rx="22" ry="22"/><path class="cls-1" d="M104,4c11.03,0,20,8.97,20,20V104c0,11.03-8.97,20-20,20H24c-11.03,0-20-8.97-20-20V24C4,12.97,12.97,4,24,4H104m0-4H24C10.75,0,0,10.75,0,24V104C0,117.25,10.75,128,24,128H104c13.25,0,24-10.75,24-24V24c0-13.25-10.75-24-24-24h0Z"/></g></g><g id="figura"><g><path class="cls-3" d="M33.39,68.31v15.96c0,15.57,6.61,28.19,22.18,28.19h18.92c15.57,0,24.11-12.62,24.11-28.19v-15.96l-33.18,20.5-32.04-20.5Z"/><path class="cls-3" d="M118.49,41.22L67.83,15.94c-1.08-.54-2.37-.54-3.45,.01L13.54,41.59c-2.7,1.36-2.88,5.14-.33,6.72l4.32,2.67v41.18c-2.19,1.66-3.66,4.65-3.66,8.07,0,5.22,3.4,9.46,7.6,9.46s7.6-4.24,7.6-9.46c0-3.42-1.47-6.41-3.66-8.07V55.85l38.43,23.75c1.24,.77,2.81,.76,4.06-.01l50.86-31.65c2.56-1.6,2.41-5.37-.28-6.71Z"/></g></g></svg>