<?xml version="1.0" encoding="UTF-8"?><svg xmlns="http://www.w3.org/2000/svg" viewBox="0 0 128 128"><defs><style>.cls-1{fill:#fff;}.cls-2{fill:#e84e1b;}.cls-3{fill:#35a8e0;}</style></defs><g id="cuadrobase"><g><rect class="cls-1" x="2" y="2" width="124" height="124" rx="22" ry="22"/><path class="cls-2" d="M104,4c11.03,0,20,8.97,20,20V104c0,11.03-8.97,20-20,20H24c-11.03,0-20-8.97-20-20V24C4,12.97,12.97,4,24,4H104m0-4H24C10.75,0,0,10.75,0,24V104C0,117.25,10.75,128,24,128H104c13.25,0,24-10.75,24-24V24c0-13.25-10.75-24-24-24h0Z"/></g></g><g id="figura"><g><polygon class="cls-3" points="18.56 53.34 21.56 53.34 21.56 64.73 4.02 64.73 4.02 106.5 21.56 106.5 24.73 106.5 34.92 106.5 34.92 53.34 37.93 53.34 37.93 47.99 18.56 47.99 18.56 53.34"/><path class="cls-3" d="M27.95,46.72c2.55,0,4.62-2.07,4.62-4.62s-2.07-4.62-4.62-4.62-4.62,2.07-4.62,4.62,2.07,4.62,4.62,4.62Z"/><polygon class="cls-3" points="106.42 64.73 106.42 53.34 109.42 53.34 109.42 47.99 90.06 47.99 90.06 53.34 93.06 53.34 93.06 106.5 103.25 106.5 106.42 106.5 123.96 106.5 123.96 64.73 106.42 64.73"/><path class="cls-3" d="M95.41,42.1c0,2.55,2.07,4.62,4.62,4.62s4.62-2.07,4.62-4.62-2.07-4.62-4.62-4.62-4.62,2.07-4.62,4.62Z"/><path class="cls-3" d="M52.15,53.82c-7.48,4.27-11.47,6.5-12.41,7.03h-.16s-.29,.3-.29,.3c-.39,.39-.62,.63-.29,43.64v.99h23.04V52.47l-.81-.16c-.2-.04-4.84-.91-9.08,1.51Zm-6.55,49.96h-4.61c-.09-12.12-.17-28.38-.13-36.58h4.74v36.58Zm0-38.58h-4.72c.01-1.27,.03-2.21,.06-2.73,.7-.39,2.24-1.25,4.67-2.63v5.36Zm7.16,38.58h-5.16v-36.58h5.16v36.58Zm0-38.58h-5.16v-6.49c1.48-.84,3.2-1.82,5.16-2.94v9.43Zm7.27,38.58h-5.27v-36.58h5.27v36.58Zm0-38.58h-5.27v-10.37c2.12-.75,4.18-.75,5.27-.66v11.03Z"/><path class="cls-3" d="M88.89,60.84h-.16c-.95-.53-4.94-2.76-12.41-7.02-4.24-2.42-8.89-1.55-9.08-1.51l-.81,.16v53.31h23.03v-.99c.34-43.02,.11-43.25-.28-43.64l-.3-.3Zm-6.02-1c2.43,1.37,3.97,2.23,4.67,2.63,.02,.52,.04,1.46,.06,2.73h-4.72v-5.36Zm-9.16,43.94h-5.27v-36.58h5.27v36.58Zm0-38.58h-5.27v-11.03c1.1-.09,3.16-.09,5.27,.66v10.37Zm7.16,38.58h-5.16v-36.58h5.16v36.58Zm0-38.58h-5.16v-9.43c1.97,1.12,3.69,2.1,5.16,2.94v6.49Zm6.61,38.58h-4.61v-36.58h4.74c.05,8.2-.04,24.46-.13,36.58Z"/><path class="cls-3" d="M64.37,19.88c-2.41,0-3.3,2.48-3.3,4.85,0,2.77,1.15,4.85,3.3,4.85,1.95,0,3.2-1.95,3.2-4.85,0-2.41-.92-4.85-3.2-4.85Z"/><path class="cls-3" d="M85.22,24.06c-2.22-.94-4.01,.99-4.93,3.18-1.08,2.55-.83,4.92,1.14,5.76,1.79,.76,3.71-.54,4.84-3.22,.94-2.22,1.04-4.83-1.05-5.72Z"/><path class="cls-3" d="M98.95,24.79s-14.24-15.18-34.95-15.18S30.61,24.79,30.61,24.79l11.96,20.62s9-7.73,21.43-7.73,21.37,7.73,21.37,7.73l13.58-20.62Zm-55.75,14l-1.2-2.61,1.97-7.91c.39-1.38,.72-2.4,1.14-3.68l-.03-.06-6.45,2.96-1.65-3.6,12-5.5,1.25,2.73-1.87,7.57c-.37,1.33-.69,2.6-1.16,3.8l.03,.06,7.05-3.23,1.66,3.63-12.75,5.84Zm21.04-5.6c-4.72,0-8.35-3.1-8.35-8.32s3.43-8.55,8.61-8.55,8.25,3.4,8.25,8.25c0,5.91-4.19,8.61-8.52,8.61Zm15.67,3.08c-4.35-1.84-6.48-6.12-4.44-10.92,2.04-4.8,6.5-6.53,11.27-4.51,4.56,1.93,6.27,6.35,4.38,10.82-2.31,5.44-7.22,6.29-11.2,4.61Z"/></g></g></svg>