<?xml version="1.0" encoding="UTF-8"?><svg xmlns="http://www.w3.org/2000/svg" viewBox="0 0 128 128"><defs><style>.cls-1{fill:#ffec00;}.cls-2{fill:#86134d;}</style></defs><g id="cuadrobase"><g><rect class="cls-2" x="2" y="2" width="124" height="124" rx="22" ry="22"/><path class="cls-1" d="M104,4c11.03,0,20,8.97,20,20V104c0,11.03-8.97,20-20,20H24c-11.03,0-20-8.97-20-20V24C4,12.97,12.97,4,24,4H104m0-4H24C10.75,0,0,10.75,0,24V104C0,117.25,10.75,128,24,128H104c13.25,0,24-10.75,24-24V24c0-13.25-10.75-24-24-24h0Z"/></g></g><g id="figura"><path class="cls-1" d="M116.47,39.96L66.35,11.55c-1.22-.69-2.7-.69-3.92-.01L11.56,39.95c-1.93,1.08-2.62,3.51-1.54,5.44,.73,1.31,2.09,2.05,3.5,2.05,.66,0,1.33-.16,1.95-.51l6.27-3.51V116.15H106.27V43.37l6.25,3.55c1.92,1.09,4.36,.42,5.45-1.51,1.09-1.92,.41-4.36-1.51-5.45Zm-26.38,22.86c-4.99,4.99-11.35,7.12-15.87,5.75l-5.6,5.6,26.58,26.58c1.4,1.4,1.4,3.66,0,5.06-1.4,1.4-3.66,1.4-5.06,0l-26.58-26.58-26.58,26.58c-1.4,1.4-3.66,1.4-5.06,0-1.4-1.4-1.4-3.66,0-5.06l26.58-26.58-5.6-5.6c-4.52,1.37-10.88-.76-15.87-5.75-4.19-4.19-6.37-9.34-6.15-13.56l10.95,10.95,2.19-2.19-12.27-12.27c.36-.73,.82-1.39,1.4-1.97,.52-.52,1.11-.95,1.75-1.29l12.33,12.33,2.19-2.19-11.1-11.1c4.28-.35,9.58,1.83,13.88,6.12,4.99,4.99,7.12,11.35,5.75,15.87l5.6,5.6,5.6-5.6c-1.37-4.52,.76-10.88,5.75-15.87,6.33-6.33,14.86-8.07,19.05-3.88,4.19,4.19,2.45,12.72-3.88,19.05h0Z"/></g></svg>