<?xml version="1.0" encoding="UTF-8"?><svg xmlns="http://www.w3.org/2000/svg" viewBox="0 0 128 128"><defs><style>.cls-1{fill:#008d36;}.cls-2{fill:#ffec00;}</style></defs><g id="cuadrobase"><g><rect class="cls-1" x="2" y="2" width="124" height="124" rx="22" ry="22"/><path class="cls-2" d="M104,4c11.03,0,20,8.97,20,20V104c0,11.03-8.97,20-20,20H24c-11.03,0-20-8.97-20-20V24C4,12.97,12.97,4,24,4H104m0-4H24C10.75,0,0,10.75,0,24V104c0,13.25,10.75,24,24,24H104c13.25,0,24-10.75,24-24V24c0-13.25-10.75-24-24-24h0Z"/></g></g><g id="figura"><g><rect class="cls-2" x="43.43" y="109.91" width="6.93" height="2.02"/><rect class="cls-2" x="82.23" y="109.91" width="6.93" height="2.02"/><path class="cls-2" d="M35.08,107.52h63.11v-12.99H35.08v12.99Zm18.25-9.7h19.1v4.65h-19.1v-4.65Zm-11.26,0h7.16v4.65h-7.16v-4.65Z"/><polygon class="cls-2" points="42.96 79.9 48.67 79.9 48.67 72.33 54.38 72.33 54.38 79.9 58.66 79.9 58.66 72.33 64.37 72.33 64.37 79.9 68.93 79.9 68.93 72.33 74.64 72.33 74.64 79.9 79.13 79.9 79.13 62.13 42.96 62.13 42.96 79.9"/><polygon class="cls-2" points="42.96 59.1 48.67 59.1 48.67 51.22 54.38 51.22 54.38 59.1 58.66 59.1 58.66 51.22 64.37 51.22 64.37 59.1 68.93 59.1 68.93 51.22 74.64 51.22 74.64 59.1 79.13 59.1 79.13 41.64 42.96 41.64 42.96 59.1"/><path class="cls-2" d="M77.27,22.42H44.81c-1.02,0-1.86,.83-1.86,1.86v14.33h5.47v-8.48h5.71v8.48h4.28v-8.48h5.71v8.48h4.57v-8.48h5.71v8.48h4.74v-14.33c0-1.02-.83-1.86-1.86-1.86Z"/><path class="cls-2" d="M93.85,14.24H39.42c-2.4,0-4.34,1.94-4.34,4.34V91h63.11V18.58c0-2.4-1.94-4.34-4.34-4.34Zm-11.72,66.51c0,2.68-2.18,4.86-4.86,4.86H44.81c-2.68,0-4.86-2.18-4.86-4.86V24.28c0-2.68,2.18-4.86,4.86-4.86h32.46c2.68,0,4.86,2.18,4.86,4.86v56.47Zm11.68-1.96h-6.59v-8.47h6.59v8.47Zm0-15.43h-6.59v-8.47h6.59v8.47Zm0-15.52h-6.59v-8.47h6.59v8.47Z"/></g></g></svg>