<?xml version="1.0" encoding="UTF-8"?><svg xmlns="http://www.w3.org/2000/svg" viewBox="0 0 128 128"><defs><style>.cls-1{fill:#f29100;}.cls-2{fill:#fff;}.cls-3{fill:#662482;}</style></defs><g id="cuadrobase"><g><rect class="cls-1" x="2" y="2" width="124" height="124" rx="22" ry="22"/><path class="cls-3" d="M104,4c11.03,0,20,8.97,20,20V104c0,11.03-8.97,20-20,20H24c-11.03,0-20-8.97-20-20V24C4,12.97,12.97,4,24,4H104m0-4H24C10.75,0,0,10.75,0,24V104C0,117.25,10.75,128,24,128H104c13.25,0,24-10.75,24-24V24c0-13.25-10.75-24-24-24h0Z"/></g></g><g id="figura"><g><rect class="cls-2" x="40.8" y="110.79" width="6.93" height="2.02"/><rect class="cls-2" x="79.6" y="110.79" width="6.93" height="2.02"/><path class="cls-2" d="M32.44,108.4h63.11v-12.99H32.44v12.99Zm18.25-9.7h19.1v4.65h-19.1v-4.65Zm-11.26,0h7.16v4.65h-7.16v-4.65Z"/><polygon class="cls-2" points="40.33 80.78 46.04 80.78 46.04 73.21 51.75 73.21 51.75 80.78 56.03 80.78 56.03 73.21 61.74 73.21 61.74 80.78 66.3 80.78 66.3 73.21 72.01 73.21 72.01 80.78 76.5 80.78 76.5 63.01 40.33 63.01 40.33 80.78"/><polygon class="cls-2" points="40.33 59.98 46.04 59.98 46.04 52.11 51.75 52.11 51.75 59.98 56.03 59.98 56.03 52.11 61.74 52.11 61.74 59.98 66.3 59.98 66.3 52.11 72.01 52.11 72.01 59.98 76.5 59.98 76.5 42.52 40.33 42.52 40.33 59.98"/><path class="cls-2" d="M74.64,23.3H42.18c-1.02,0-1.86,.83-1.86,1.86v14.33h5.47v-8.48h5.71v8.48h4.28v-8.48h5.71v8.48h4.57v-8.48h5.71v8.48h4.74v-14.33c0-1.02-.83-1.86-1.86-1.86Z"/><path class="cls-2" d="M91.21,15.12H36.79c-2.4,0-4.34,1.94-4.34,4.34V91.88h63.11V19.47c0-2.4-1.94-4.34-4.34-4.34Zm-11.72,66.51c0,2.68-2.18,4.86-4.86,4.86H42.18c-2.68,0-4.86-2.18-4.86-4.86V25.16c0-2.68,2.18-4.86,4.86-4.86h32.46c2.68,0,4.86,2.18,4.86,4.86v56.47Zm11.68-1.96h-6.59v-8.47h6.59v8.47Zm0-15.43h-6.59v-8.47h6.59v8.47Zm0-15.52h-6.59v-8.47h6.59v8.47Z"/></g></g></svg>