<?xml version="1.0" encoding="UTF-8"?><svg xmlns="http://www.w3.org/2000/svg" viewBox="0 0 128 128"><defs><style>.cls-1{fill:#eaa1c7;}.cls-2{fill:#e61b72;}.cls-3{fill:#662482;}</style></defs><g id="cuadrobase"><g><rect class="cls-1" x="2" y="2" width="124" height="124" rx="22" ry="22"/><path class="cls-3" d="M104,4c11.03,0,20,8.97,20,20V104c0,11.03-8.97,20-20,20H24c-11.03,0-20-8.97-20-20V24C4,12.97,12.97,4,24,4H104m0-4H24C10.75,0,0,10.75,0,24V104C0,117.25,10.75,128,24,128H104c13.25,0,24-10.75,24-24V24c0-13.25-10.75-24-24-24h0Z"/></g></g><g id="figura"><g><path class="cls-2" d="M61.99,40.22c0-4.02-3.26-7.28-7.28-7.28s-7.28,3.26-7.28,7.28,3.26,7.28,7.28,7.28,7.28-3.26,7.28-7.28Z"/><path class="cls-2" d="M94.03,41.7l-.23-.57c-.22-.55-.59-1-1.03-1.34l.04-.08L38.68,10.12l-.03,.06-.05-.03-4.86,8.89,4.5,2.46,3.6-6.59,45.97,25.12-30.43,12.27c-1.67,.68-2.48,2.58-1.81,4.25l.23,.57c.21,.51,.53,.93,.92,1.26l7.66,18.35-19,35.64c-.93,1.74-.27,3.91,1.47,4.84,1.74,.93,3.91,.27,4.84-1.47l20.04-37.58c.12-.23,.21-.46,.28-.7l3.18,7.4-2.75,29.11c-.19,1.97,1.26,3.71,3.22,3.9,1.97,.19,3.71-1.26,3.9-3.22l2.79-29.58c.15-.69,.09-1.44-.21-2.14l-7.69-17.94-4.24-10.15,22.01-8.88c1.67-.68,2.48-2.58,1.81-4.25Z"/></g></g></svg>