<?xml version="1.0" encoding="UTF-8"?><svg xmlns="http://www.w3.org/2000/svg" viewBox="0 0 128 128"><defs><style>.cls-1{fill:#d9d9d9;}.cls-2{fill:#aed82a;}.cls-3{fill:#0d8237;}</style></defs><g id="cuadrobase"><g><rect class="cls-2" x="2" y="2" width="124" height="124" rx="22" ry="22"/><path class="cls-1" d="M104,4c11.03,0,20,8.97,20,20V104c0,11.03-8.97,20-20,20H24c-11.03,0-20-8.97-20-20V24C4,12.97,12.97,4,24,4H104m0-4H24C10.75,0,0,10.75,0,24V104C0,117.25,10.75,128,24,128H104c13.25,0,24-10.75,24-24V24c0-13.25-10.75-24-24-24h0Z"/></g></g><g id="figura"><g><rect class="cls-3" x="17.19" y="19.35" width="93.62" height="23.83"/><rect class="cls-3" x="71.53" y="56.61" width="39.28" height="33.47"/><rect class="cls-3" x="71.53" y="99.36" width="39.28" height="3.45"/><rect class="cls-3" x="71.53" y="106.52" width="39.28" height="3.45"/><rect class="cls-3" x="17.19" y="56.61" width="47.26" height="6.03"/><rect class="cls-3" x="17.19" y="68.28" width="47.26" height="6.03"/><rect class="cls-3" x="17.19" y="79.95" width="47.26" height="6.03"/><rect class="cls-3" x="17.19" y="91.62" width="47.26" height="6.03"/><rect class="cls-3" x="17.19" y="103.29" width="47.26" height="6.03"/></g></g></svg>