<?xml version="1.0" encoding="UTF-8"?><svg xmlns="http://www.w3.org/2000/svg" viewBox="0 0 128 128"><defs><style>.cls-1{fill:#ffec00;}.cls-2{fill:#86134d;}</style></defs><g id="cuadrobase"><g><rect class="cls-2" x="2" y="2" width="124" height="124" rx="22" ry="22"/><path class="cls-1" d="M104,4c11.03,0,20,8.97,20,20V104c0,11.03-8.97,20-20,20H24c-11.03,0-20-8.97-20-20V24C4,12.97,12.97,4,24,4H104m0-4H24C10.75,0,0,10.75,0,24V104C0,117.25,10.75,128,24,128H104c13.25,0,24-10.75,24-24V24c0-13.25-10.75-24-24-24h0Z"/></g></g><g id="figura"><g><path class="cls-1" d="M64,59.79c-30.83,0-54.98,11.79-54.98,26.84s24.15,26.84,54.98,26.84,54.98-11.79,54.98-26.84-24.15-26.84-54.98-26.84Zm33.36,8.57c-.2,.11-.39,.22-.58,.33-1.98,1.19-4.18,1.88-6.48,1.88s-4.49-.69-6.46-1.88c-2.01-1.23-4.28-1.96-6.67-1.96s-4.63,.73-6.66,1.96c-1.96,1.19-4.16,1.88-6.46,1.88s-4.5-.69-6.46-1.88c-2.02-1.23-4.29-1.96-6.67-1.96s-4.62,.73-6.65,1.96c-1.97,1.19-4.17,1.88-6.47,1.88s-4.49-.69-6.46-1.88c-.21-.13-.42-.24-.63-.36,9.02-3.46,20.63-5.55,33.29-5.55s24.32,2.1,33.36,5.57Zm-76.35,4.88c1.18-.39,2.41-.6,3.68-.6,2.36,0,4.63,.73,6.65,1.99,1.97,1.19,4.16,1.89,6.46,1.89s4.5-.7,6.47-1.89c2.02-1.26,4.28-1.99,6.65-1.99s4.64,.73,6.67,1.99c1.97,1.19,4.17,1.89,6.46,1.89s4.49-.7,6.46-1.89c2.03-1.26,4.31-1.99,6.66-1.99s4.66,.73,6.67,1.99c1.96,1.19,4.16,1.89,6.46,1.89s4.5-.7,6.48-1.89c2.02-1.26,4.29-1.99,6.64-1.99,1.21,0,2.39,.21,3.52,.56,4.9,3.29,8.04,7.16,8.84,11.34-2-.14-3.96-.81-5.69-1.85-2.02-1.23-4.29-1.96-6.67-1.96s-4.62,.73-6.64,1.96c-1.98,1.19-4.18,1.88-6.48,1.88s-4.49-.69-6.46-1.88c-2.01-1.23-4.28-1.96-6.67-1.96s-4.63,.73-6.66,1.96c-1.96,1.19-4.16,1.88-6.46,1.88s-4.5-.69-6.46-1.88c-2.02-1.23-4.29-1.96-6.67-1.96s-4.62,.73-6.65,1.96c-1.97,1.19-4.17,1.88-6.47,1.88s-4.49-.69-6.46-1.88c-2.02-1.23-4.29-1.96-6.65-1.96s-4.64,.73-6.66,1.96c-1.77,1.06-3.76,1.76-5.81,1.89,.78-4.18,3.9-8.06,8.79-11.35Zm2.81,28.49c.29-.02,.58-.04,.87-.04,2.36,0,4.63,.73,6.65,1.99,1.97,1.19,4.16,1.89,6.46,1.89s4.5-.7,6.47-1.89c2.02-1.26,4.28-1.99,6.65-1.99s4.64,.73,6.67,1.99c1.97,1.19,4.17,1.89,6.46,1.89s4.49-.7,6.46-1.89c2.03-1.26,4.31-1.99,6.66-1.99s4.66,.73,6.67,1.99c1.96,1.19,4.16,1.89,6.46,1.89s4.5-.7,6.48-1.89c2.02-1.26,4.29-1.99,6.64-1.99,.26,0,.52,.01,.78,.03-9.54,5.33-24.01,8.74-40.19,8.74s-30.64-3.4-40.18-8.73Zm86.18-4.03c-2-1.2-4.25-1.92-6.59-1.92s-4.62,.73-6.64,1.96c-1.98,1.19-4.18,1.88-6.48,1.88s-4.49-.69-6.46-1.88c-2.01-1.23-4.28-1.96-6.67-1.96s-4.63,.73-6.66,1.96c-1.96,1.19-4.16,1.88-6.46,1.88s-4.5-.69-6.46-1.88c-2.02-1.23-4.29-1.96-6.67-1.96s-4.62,.73-6.65,1.96c-1.97,1.19-4.17,1.88-6.47,1.88s-4.49-.69-6.46-1.88c-2.02-1.23-4.29-1.96-6.65-1.96s-4.64,.73-6.65,1.96c-2.58-2.23-4.41-4.68-5.33-7.26,1.92-.16,3.61-.82,5.33-1.85,2.02-1.26,4.27-1.99,6.66-1.99s4.63,.73,6.65,1.99c1.97,1.19,4.16,1.89,6.46,1.89s4.5-.7,6.47-1.89c2.02-1.26,4.28-1.99,6.65-1.99s4.64,.73,6.67,1.99c1.97,1.19,4.17,1.89,6.46,1.89s4.49-.7,6.46-1.89c2.03-1.26,4.31-1.99,6.66-1.99s4.66,.73,6.67,1.99c1.96,1.19,4.16,1.89,6.46,1.89s4.5-.7,6.48-1.89c2.02-1.26,4.29-1.99,6.64-1.99s4.65,.73,6.67,1.99c1.67,1.01,3.34,1.68,5.21,1.85-.92,2.57-2.73,5-5.28,7.22Z"/><path class="cls-1" d="M122.64,16.51l-46.29,.13c-2.96,0-5.36,2.4-5.36,5.36v4.81c0,3.15,2.55,5.7,5.7,5.7h47.32s.05-6.91,.05-9.74-1.42-6.26-1.42-6.26Z"/><path class="cls-1" d="M65.9,53.41c4.56,0,8.25-3.69,8.25-8.25s-7.02-16.25-8.25-16.25c-1.88,0-8.25,11.69-8.25,16.25s3.69,8.25,8.25,8.25Z"/></g></g></svg>