<?xml version="1.0" encoding="UTF-8"?><svg xmlns="http://www.w3.org/2000/svg" viewBox="0 0 128 128"><defs><style>.cls-1{fill:#e61b72;}.cls-2{fill:#fff;}.cls-3{fill:#ffec00;}</style></defs><g id="cuadrobase"><g><rect class="cls-1" x="2" y="2" width="124" height="124" rx="22" ry="22"/><path class="cls-3" d="M104,4c11.03,0,20,8.97,20,20V104c0,11.03-8.97,20-20,20H24c-11.03,0-20-8.97-20-20V24C4,12.97,12.97,4,24,4H104m0-4H24C10.75,0,0,10.75,0,24V104C0,117.25,10.75,128,24,128H104c13.25,0,24-10.75,24-24V24c0-13.25-10.75-24-24-24h0Z"/></g></g><g id="figura"><g><path class="cls-2" d="M63.53,24.94c3.16,0,5.73-2.99,5.73-6.68s-2.56-6.68-5.73-6.68-5.73,2.99-5.73,6.68,2.56,6.68,5.73,6.68Z"/><polygon class="cls-2" points="64.65 31.96 69.2 34.38 71.4 30.15 66.84 27.72 64.65 31.96"/><polygon class="cls-2" points="59.93 29.28 55.44 27.8 50.89 41.93 55.38 43.42 59.93 29.28"/><polygon class="cls-2" points="52.5 61.29 73.66 54.29 73.66 35.72 61.19 35.72 52.5 61.29"/><rect class="cls-2" x="67.65" y="66.14" width="7.48" height="9.01"/><polygon class="cls-2" points="52.96 66.14 52.68 66.14 52.68 75.16 60.16 75.16 60.16 68.32 77.11 63.21 75.76 58.63 52.79 65.56 52.96 66.14"/><path class="cls-2" d="M80.85,83.03c0-4.33-3.51-7.84-7.84-7.84h-18.03c-4.33,0-7.84,3.51-7.84,7.84v15.23h33.71v-15.23Z"/><rect class="cls-2" x="35.91" y="104.4" width="56.19" height="19.66"/></g></g></svg>