<?xml version="1.0" encoding="UTF-8"?><svg xmlns="http://www.w3.org/2000/svg" viewBox="0 0 128 128"><defs><style>.cls-1{fill:#e95296;}.cls-2{fill:#ffec00;}.cls-3{fill:#e85296;}</style></defs><g id="cuadrobase"><g><rect class="cls-2" x="2" y="2" width="124" height="124" rx="22" ry="22"/><path class="cls-3" d="M104,4c11.03,0,20,8.97,20,20V104c0,11.03-8.97,20-20,20H24c-11.03,0-20-8.97-20-20V24C4,12.97,12.97,4,24,4H104m0-4H24C10.75,0,0,10.75,0,24V104c0,13.25,10.75,24,24,24H104c13.25,0,24-10.75,24-24V24c0-13.25-10.75-24-24-24h0Z"/></g></g><g id="figura"><path class="cls-1" d="M87.86,55.81v-7.66h11.18L64,11.04,28.96,48.15h11.18v7.66l-31.14,21.43h14.2v46.74H104.8v-46.74h14.2l-31.14-21.43Zm-26.19,61.64l-.85,.16v-5.36c0-7.31-21.65-1.61-22.36-14.86-.83-15.45,3.43-15.61,3.43-15.61,0,0-1.86,6.75,4.76,13.14,2.94,2.84,5.91,3.87,10.21,5.31,.98,.33,2.7,1.69,2.7,1.24,0-1.36-5.24-3.03-9.49-6.15-3.58-2.63-7.1-8.42-1.91-14.81,5.18-6.4,7.81-5.57,9.69-8.55,1.96-3.08,2.55-6.25,2.55-6.25v14.71c0,3.28-10.16,7.83-10.16,11.51,0,5.9,11.42,5.44,11.42,12.23v13.27Zm27.09-52.6h-17.08v53.52h-6v-53.52h-17.08v-6h17.08v-19.69h6v19.69h17.08v6Z"/></g></svg>