<?xml version="1.0" encoding="UTF-8"?><svg xmlns="http://www.w3.org/2000/svg" viewBox="0 0 128 128"><defs><style>.cls-1{fill:#fff;}.cls-2{fill:#1d70b7;}.cls-3{fill:#35a8e0;}</style></defs><g id="cuadrobase"><g><rect class="cls-3" x="2" y="2" width="124" height="124" rx="22" ry="22"/><path class="cls-2" d="M104,4c11.03,0,20,8.97,20,20V104c0,11.03-8.97,20-20,20H24c-11.03,0-20-8.97-20-20V24C4,12.97,12.97,4,24,4H104m0-4H24C10.75,0,0,10.75,0,24V104C0,117.25,10.75,128,24,128H104c13.25,0,24-10.75,24-24V24c0-13.25-10.75-24-24-24h0Z"/></g></g><g id="figura"><g><path class="cls-1" d="M15.8,88.73c3.45,0,5.91-1.07,7.89-1.93,1.71-.74,3.06-1.32,4.94-1.32s2.94,.5,4.55,1.26c1.91,.9,4.29,2.01,8.04,2.01,4.19,0,6.9-1.29,8.88-2.23,1.26-.6,2.01-.94,2.67-.94v-4.87c-2.77,0-4.83,.98-6.48,1.76-1.66,.79-2.97,1.41-5.08,1.41-1.62,0-2.58-.41-4.27-1.21-1.96-.92-4.4-2.06-8.32-2.06s-6.4,1.13-8.5,2.03c-1.79,.78-2.88,1.22-4.33,1.22-1.84,0-3.15-.62-4.8-1.4-1.82-.86-4.07-1.83-6.9-1.83v4.87c.73,0,1.78,.39,3.13,1.02,1.97,.93,4.68,2.2,8.58,2.2Z"/><path class="cls-1" d="M15.8,77.07c3.45,0,5.91-1.07,7.89-1.93,1.71-.74,3.06-1.32,4.94-1.32s2.94,.5,4.55,1.26c1.91,.9,4.29,2.01,8.04,2.01,4.19,0,6.9-1.29,8.88-2.23,1.26-.6,2.01-.94,2.67-.94v-4.87c-2.77,0-4.83,.98-6.48,1.76-1.66,.79-2.97,1.41-5.08,1.41-1.62,0-2.58-.41-4.27-1.21-1.96-.92-4.4-2.06-8.32-2.06s-6.4,1.13-8.5,2.03c-1.79,.78-2.88,1.22-4.33,1.22-1.84,0-3.15-.62-4.8-1.4-1.82-.86-4.07-1.83-6.9-1.83v4.87c.73,0,1.78,.39,3.13,1.02,1.97,.93,4.68,2.2,8.58,2.2Z"/><path class="cls-1" d="M15.8,65.48c3.45,0,5.91-1.07,7.89-1.93,1.71-.74,3.06-1.32,4.94-1.32s2.94,.5,4.55,1.26c1.91,.9,4.29,2.01,8.04,2.01,4.19,0,6.9-1.29,8.88-2.23,1.26-.6,2.01-.94,2.67-.94v-4.87c-2.77,0-4.83,.98-6.48,1.76-1.66,.79-2.97,1.41-5.08,1.41-1.62,0-2.58-.41-4.27-1.21-1.96-.92-4.4-2.06-8.32-2.06s-6.4,1.13-8.5,2.03c-1.79,.78-2.88,1.22-4.33,1.22-1.84,0-3.15-.62-4.8-1.4-1.82-.86-4.07-1.83-6.9-1.83v4.87c.73,0,1.78,.39,3.13,1.02,1.97,.93,4.68,2.2,8.58,2.2Z"/><path class="cls-1" d="M15.8,53.82c3.45,0,5.91-1.07,7.89-1.93,1.71-.74,3.06-1.32,4.94-1.32s2.94,.5,4.55,1.26c1.91,.9,4.29,2.01,8.04,2.01,4.19,0,6.9-1.29,8.88-2.23,1.26-.6,2.01-.94,2.67-.94v-4.87c-2.77,0-4.83,.98-6.48,1.76-1.66,.79-2.97,1.41-5.08,1.41-1.62,0-2.58-.41-4.27-1.21-1.96-.92-4.4-2.06-8.32-2.06s-6.4,1.13-8.5,2.03c-1.79,.78-2.88,1.22-4.33,1.22-1.84,0-3.15-.62-4.8-1.4-1.82-.86-4.07-1.83-6.9-1.83v4.87c.73,0,1.78,.39,3.13,1.02,1.97,.93,4.68,2.2,8.58,2.2Z"/><path class="cls-1" d="M101.81,98.58c1.08,0,2.12-.25,3.04-.67,.96-.45,2.03-.7,3.14-.7s2.2,.26,3.14,.7c.93,.42,1.96,.67,3.04,.67s2.12-.25,3.05-.67c.95-.45,2.02-.7,3.13-.7s2.19,.26,3.14,.7c.17,.08,.35,.14,.53,.21v-4.57c-.18-.06-.36-.13-.53-.21-.95-.43-2.02-.69-3.14-.69s-2.18,.26-3.13,.69c-.9,.4-1.9,.64-2.95,.66-4.72-7.81-6.99-37.13-25.99-45.22l-.24,.59c7.11,3.97,16.32,12.4,22.99,40.41-7.76-28.13-18.09-36.72-23.17-39.99l-.31,.74c6.67,4.69,17.42,18.52,20.79,39.26-3.96-20.1-16.07-34.45-20.98-38.8l-.35,.84c5.88,4.75,17.21,21.25,19.15,39.83-3.8-20.23-15.21-35.42-19.31-39.44l-.35,.85c4.55,4.19,15.49,21.36,16.31,38.57-3.5-20.23-13.23-34.95-16.44-38.25l-.34,.83c11.56,15.09,12.01,26.67,11.81,38.77-.71-.22-1.46-.34-2.23-.34-.82,0-1.61,.14-2.35,.38l-10.5-17.13-4.02-21.24h1.42l4-9.7h-7.25l-2.89-15.24h-2.19v-4.41h-13.09v4.41h-2.83v62.02H4.13v14.46H123.9v-3.63h-24.79l-3.28-5.36c1.04,.03,2.03,.27,2.92,.69,.93,.42,1.96,.67,3.05,.67Z"/></g></g></svg>