<?xml version="1.0" encoding="UTF-8"?><svg xmlns="http://www.w3.org/2000/svg" viewBox="0 0 128 128"><defs><style>.cls-1{fill:#fff;}.cls-2{fill:#ffec00;}.cls-3{fill:#29235c;}</style></defs><g id="cuadrobase"><g><rect class="cls-3" x="2" y="2" width="124" height="124" rx="22" ry="22"/><path class="cls-2" d="M104,4c11.03,0,20,8.97,20,20V104c0,11.03-8.97,20-20,20H24c-11.03,0-20-8.97-20-20V24C4,12.97,12.97,4,24,4H104m0-4H24C10.75,0,0,10.75,0,24V104C0,117.25,10.75,128,24,128H104c13.25,0,24-10.75,24-24V24c0-13.25-10.75-24-24-24h0Z"/></g></g><g id="figura"><g><path class="cls-1" d="M74.06,43.39c5.01,0,9.06-4.05,9.06-9.06s-4.05-9.09-9.06-9.09-9.09,4.08-9.09,9.09,4.08,9.06,9.09,9.06Z"/><path class="cls-1" d="M109.73,62.44l-17.53-17.52c-2.33-2.31-6.07-2.31-8.39,0l-11.74,11.74-8.55-8.6c-1.44-1.7-3.97-1.94-5.68-.5-1.7,1.44-1.83,4.02-.38,5.73l11.26,11.28c.74,.81,1.71,1.31,2.97,1.31s2.37-.58,3.12-1.46l6.54-6.54,16.34,16.36v43.36c0,3.62,2.97,6.54,6.59,6.54s6.54-2.92,6.54-6.54v-52.56c0-1.01-.41-1.95-1.08-2.61Z"/><path class="cls-1" d="M43,55.1c-2.48,0-4.49,2.01-4.49,4.49s2.01,4.49,4.49,4.49,4.49-2.01,4.49-4.49-2.01-4.49-4.49-4.49Z"/><rect class="cls-1" x="39.96" y="67.78" width="6.09" height="56.04"/><polygon class="cls-1" points="57.16 29.58 50.04 29.58 47.51 29.58 18.23 29.58 23.06 35.55 17.71 35.55 17.71 41.74 28.07 41.74 30.08 44.22 39.71 44.22 39.71 51.6 46.29 51.6 46.29 44.22 50.04 44.22 50.04 35.77 57.16 35.77 57.16 29.58"/></g></g></svg>