<?xml version="1.0" encoding="UTF-8"?><svg xmlns="http://www.w3.org/2000/svg" viewBox="0 0 128 128"><defs><style>.cls-1{fill:#063;}.cls-2{fill:#ffec00;}.cls-3{fill:#35a8e0;}</style></defs><g id="cuadrobase"><g><rect class="cls-1" x="2" y="2" width="124" height="124" rx="22" ry="22"/><path class="cls-3" d="M104,4c11.03,0,20,8.97,20,20V104c0,11.03-8.97,20-20,20H24c-11.03,0-20-8.97-20-20V24C4,12.97,12.97,4,24,4H104m0-4H24C10.75,0,0,10.75,0,24V104c0,13.25,10.75,24,24,24H104c13.25,0,24-10.75,24-24V24c0-13.25-10.75-24-24-24h0Z"/></g></g><g id="figura"><g><path class="cls-2" d="M60.81,7.95c-3.84,3.56-4.02,8.76-.03,12.49,3.7-3.06,4.28-8.67,.03-12.49Z"/><path class="cls-2" d="M65.81,24.6c3.6,3.06,9.23,2.78,12.31-2.14-4.14-3.14-9.28-2.47-12.31,2.14Z"/><path class="cls-2" d="M54.82,42.03c5.42-2.25,6.54-7.62,4.26-11.73-5.16,2.06-6.63,7.3-4.26,11.73Z"/><path class="cls-2" d="M72.1,12.07c-5.55,.24-8.76,4.56-8.02,9.54,5.2-.06,8.8-4.29,8.02-9.54Z"/><path class="cls-2" d="M66.8,42.02c2.79-3.59,.28-10.55-4.24-11.72-2.29,4.15-1.13,9.49,4.24,11.72Z"/><path class="cls-2" d="M75.99,33.97c-1.52-5.4-6.03-7.31-10.68-5.98-.03,0-.05,.04-.11,.08,.76,3.59,3.59,6.82,8.09,6.68,.8-.02,1.6-.21,2.39-.32,.29-.04,.38-.17,.3-.47Z"/><path class="cls-2" d="M57.56,21.61c.76-5.29-2.83-9.4-8.01-9.52-1.37,4.3,3.55,10.15,8.01,9.52Z"/><path class="cls-2" d="M45.62,34.31c5.67,1.78,9.93-1.7,10.79-6.25-4.72-1.58-9.64,.78-10.79,6.25Z"/><path class="cls-2" d="M55.82,24.62c-2.7-4.37-8.1-5.47-12.22-2.17,2.35,4.36,8.13,5.57,12.22,2.17Z"/><path class="cls-2" d="M105.55,43.24c4.09,.3,7.27-1.49,10.13-4.25-2.86-2.75-5.98-4.61-10.1-4.26,3.05-2.71,4.12-6.15,4.11-10.12-1.93-.09-3.74,.2-5.5,.86-1.77,.66-3.28,1.71-4.66,3.3,.26-4.18-1.42-7.37-4.22-10.14-1.42,1.32-2.5,2.81-3.28,4.51-.79,1.72-1.09,3.53-.96,5.61-2.77-3.09-6.18-4.19-10.18-4.16,.03,3.92,1.07,7.34,4.12,10.14-4.1-.2-7.27,1.53-10.09,4.25,2.76,2.77,5.92,4.46,9.96,4.29-2.94,2.75-4.04,6.15-3.98,10.1,3.95,.04,7.36-1.04,10.15-4.15-.25,4.17,1.43,7.34,4.23,10.13,2.79-2.77,4.48-5.94,4.23-10.12,2.78,3.09,6.19,4.19,10.13,4.15,.11-1.95-.19-3.78-.87-5.55-.68-1.78-1.7-3.33-3.23-4.58Zm-9.87,.17c-2.56,.19-4.73-1.92-4.81-4.14-.09-2.39,1.58-4.49,3.88-4.67,2.76-.22,4.75,1.4,4.95,4.02,.36,2.27-1.73,4.62-4.01,4.79Z"/><path class="cls-2" d="M49.32,57.99c-.62-2.1-1.59-4-3.15-5.56-.07-.07-.12-.15-.22-.27,2.47-.59,4.46-1.9,6.23-3.73-1.75-1.81-3.74-3.13-6.28-3.74,1.88-1.77,2.95-3.91,3.56-6.38-2.42-.7-4.79-.76-7.29-.12,.7-2.46,.59-4.84-.15-7.4-1.17,.49-2.33,.85-3.37,1.43-1.05,.57-1.98,1.35-3,2.06-.61-2.34-1.88-4.35-3.71-6.09-1.81,1.73-3.1,3.73-3.74,6.24-1.8-1.82-3.9-2.92-6.36-3.52-.71,2.4-.82,4.75-.15,7.2-.19-.02-.35-.02-.49-.06-2.04-.51-4.07-.4-6.1,.06-.48,.11-.62,.31-.49,.82,.53,2.03,1.5,3.8,2.94,5.33,.11,.12,.2,.25,.35,.43-2.4,.73-4.45,1.92-6.18,3.74,1.74,1.83,3.75,3.13,6.27,3.73-1.44,1.39-2.42,2.98-3.07,4.77-.14,.38-.24,.79-.38,1.17-.14,.37,0,.5,.36,.59,2.23,.56,4.46,.66,6.81-.02-.67,2.48-.58,4.87,.14,7.29,2.44-.6,4.54-1.68,6.36-3.52,.65,2.47,1.92,4.47,3.75,6.23,1.81-1.71,3.1-3.7,3.74-6.23,1.8,1.81,3.9,2.92,6.37,3.52,.71-2.42,.8-4.78,.15-7.21,.77,.12,1.48,.25,2.2,.34,1.57,.2,3.11-.05,4.63-.4,.48-.11,.37-.39,.28-.69Zm-17.39-4.19c-2.96,0-5.35-2.38-5.36-5.35,0-3.07,2.29-5.34,5.35-5.39,3.14-.05,5.34,2.69,5.38,5.28,.05,3.25-2.63,5.48-5.37,5.46Z"/><path class="cls-2" d="M79.17,68.74c-1.03-.45-2.16-.72-3.27-.94-1.86-.36-3.75-.6-5.62-.91-.31-.05-.46,.02-.61,.3-.22,.42-.51,.79-.84,1.28,1.72,2.05,3.42,4.16,5.21,6.18,.85,.96,1.92,1.65,3.3,1.65,1.74,0,3.39-1.42,3.84-3.29,.45-1.87-.25-3.51-2-4.28Z"/><path class="cls-2" d="M77.7,59.28c-1.15,.4-2.23,1.02-3.3,1.62-1.38,.77-2.71,1.63-4.08,2.43-.25,.15-.32,.28-.27,.58,.1,.55,.13,1.11,.2,1.75,2.56,.45,5.15,.9,7.75,1.34,.29,.05,.6,.03,.9,.02,2.81-.05,4.49-2.23,3.81-4.97-.6-2.41-2.65-3.6-5.01-2.78Z"/><path class="cls-2" d="M54.56,66.79c2.06-.34,4.11-.77,6.15-1.16,.09-.67,.18-1.27,.23-1.88,0-.11-.11-.29-.21-.35-1.98-1.18-3.94-2.39-5.96-3.5-.75-.41-1.63-.69-2.48-.82-2.04-.31-4.03,1.45-4.08,3.53-.01,.51-.06,1.03,.04,1.52,.34,1.68,1.59,2.78,3.38,2.87,.97,.05,1.97-.04,2.93-.2Z"/><path class="cls-2" d="M76.08,58.61c.34-.2,.65-.49,.93-.77,1.94-1.92,1.68-4.61-.6-6.13-2-1.34-4.13-.96-5.45,1.05-.43,.65-.78,1.38-1.06,2.12-.69,1.86-1.31,3.75-1.97,5.62-.1,.29-.07,.45,.2,.65,.47,.35,.89,.79,1.42,1.27,2.16-1.25,4.35-2.52,6.53-3.8Z"/><path class="cls-2" d="M55.51,59c1.98,1.17,3.99,2.28,5.94,3.38,.57-.5,1.05-.91,1.51-1.34,.09-.09,.17-.28,.14-.38-.88-2.43-1.76-4.85-2.68-7.27-.13-.35-.39-.67-.63-.97-1.43-1.81-3.76-1.98-5.59-.44-1.84,1.56-2.07,3.87-.49,5.57,.52,.56,1.14,1.05,1.8,1.44Z"/><path class="cls-2" d="M66.96,59.59c.73-1.98,1.49-3.94,2.18-5.93,.21-.6,.3-1.27,.32-1.91,.06-1.96-1.02-3.3-2.93-3.75-1.93-.45-3.88,.36-4.66,1.92-.43,.88-.5,1.82-.26,2.73,.36,1.37,.83,2.72,1.31,4.06,.44,1.24,.94,2.46,1.41,3.66h2.34c.09-.23,.2-.5,.3-.78Z"/><path class="cls-2" d="M70.59,94.21c0-3.02,.06-5.96,.14-8.58-.58,.11-1.18,.11-1.75-.02-1.51-.35-2.46-.46-3.42-1.98-.59-.92-.21-.13-.97,.34-.84,1.09-2.73,1.51-4.46,1.39-1.51-.11-3.53-.93-3.62-2.95,.03,1.15,.05,5.66,.05,10.53,0,10.68-6.38,13-6.38,13,0,3.36,2.72,9.69,6.08,9.69h15.15c3.36,0,6.08-6.33,6.08-9.69,0,0-6.92-1.85-6.92-11.73Z"/><path class="cls-2" d="M56.5,82.25c0,.06,.02,.1,.02,.16,0-.3-.01-.38-.02-.16Z"/><path class="cls-2" d="M68.99,82.09c.57,.13,1.17,.12,1.75,.02,1.15-.21,2.23-.84,2.86-1.78,.77-1.13,.84-2.37,.24-3.56-.48-.95-1.1-1.84-1.77-2.66-.3-.36-.61-.72-.91-1.07-.33-.39-.66-.79-1-1.18-.69-.8-1.39-1.59-2.08-2.39-.21-.25-.39-.3-.67-.13-.15,.09-.32,.14-.49,.19-.8,.25-.81,.24-.82,1.06,0,.42,0,.85,0,1.27,0,.72,0,1.44,0,2.16-.04,0-.07,3.13,.1,4.68,.2,1.83,1.28,3.04,2.79,3.39Z"/><path class="cls-2" d="M58.4,74.73c-.87,1.05-1.59,2.2-1.62,3.27-.02,2.15,1.43,3.74,3.4,4.1,2.23,.41,3.95-.65,4.49-2.86,.18-.74,.26-1.53,.27-2.3,0-1.7-.02-3.4-.04-5.09,0-.55-.02-1.1-.02-1.66,0-.36-.1-.55-.48-.59-.22-.02-.47-.08-.65-.21-.44-.29-.69-.13-1,.24-.63,.74-1.26,1.48-1.9,2.22-.82,.95-1.65,1.91-2.45,2.87Z"/><path class="cls-2" d="M55.97,75.49c.07-.05,.14-.11,.21-.16,.34-.25,.67-.52,.94-.84,.74-.87,1.47-1.75,2.2-2.63,.94-1.13,1.89-2.25,2.82-3.37-.35-.54-.62-1.01-.94-1.45-.07-.09-.26-.16-.38-.14-2.51,.42-5.03,.8-7.52,1.31-.81,.17-1.65,.57-2.31,1.07-1.56,1.17-1.74,3.38-.55,5.17,1.34,2.01,3.55,2.44,5.53,1.05Z"/></g></g></svg>