<?xml version="1.0" encoding="UTF-8"?><svg xmlns="http://www.w3.org/2000/svg" viewBox="0 0 128 128"><defs><style>.cls-1{fill:#f29100;}.cls-2{fill:#fff;}.cls-3{fill:#662482;}</style></defs><g id="cuadrobase"><g><rect class="cls-3" x="2" y="2" width="124" height="124" rx="22" ry="22"/><path class="cls-1" d="M104,4c11.03,0,20,8.97,20,20V104c0,11.03-8.97,20-20,20H24c-11.03,0-20-8.97-20-20V24C4,12.97,12.97,4,24,4H104m0-4H24C10.75,0,0,10.75,0,24V104C0,117.25,10.75,128,24,128H104c13.25,0,24-10.75,24-24V24c0-13.25-10.75-24-24-24h0Z"/></g></g><g id="figura"><g><path class="cls-2" d="M117.12,93.82c-1.65,0-3.24,.38-4.64,1.02-1.37,.62-2.88,.98-4.47,.98-1.57,0-3.11-.37-4.47-.98-1.4-.64-2.99-1.02-4.65-1.02s-3.24,.38-4.64,1.02c-1.39,.63-2.92,.99-4.53,.99s-3.14-.36-4.51-.99c-1.41-.64-3-1.02-4.66-1.02s-3.23,.38-4.64,1.02c-1.39,.63-2.92,.99-4.53,.99s-3.14-.36-4.51-.99c-1.41-.64-3-1.02-4.65-1.02s-3.25,.38-4.65,1.02c-1.37,.63-2.92,.99-4.52,.99s-3.14-.36-4.52-.99c-1.41-.64-3-1.02-4.65-1.02s-3.24,.38-4.65,1.02c-1.37,.62-2.88,.98-4.47,.98-1.57,0-3.11-.37-4.47-.98-1.4-.64-2.99-1.02-4.65-1.02s-3.24,.38-4.64,1.02c-1.39,.63-2.92,.99-4.53,.99s-3.14-.36-4.51-.99c-1.41-.64-3-1.02-4.66-1.02-1.1,0-2.16,.18-3.18,.48v6.76c1.01-.31,2.08-.49,3.18-.49,1.66,0,3.25,.38,4.66,1.04,1.37,.62,2.92,.99,4.51,.99s3.14-.37,4.53-.99c1.4-.66,2.99-1.04,4.64-1.04s3.25,.38,4.65,1.04c1.35,.61,2.86,.97,4.42,.98h0s.03,0,.04,0,.03,0,.04,0h0c1.57-.02,3.07-.38,4.43-.99,1.41-.66,3-1.04,4.65-1.04s3.24,.38,4.65,1.04c1.38,.62,2.92,.99,4.52,.99s3.15-.37,4.52-.99c1.4-.66,2.99-1.04,4.65-1.04s3.24,.38,4.65,1.04c1.37,.62,2.9,.99,4.51,.99s3.14-.37,4.53-.99c1.41-.66,3-1.04,4.64-1.04s3.25,.38,4.66,1.04c1.37,.62,2.92,.99,4.51,.99s3.14-.37,4.53-.99c1.4-.66,2.99-1.04,4.64-1.04s3.25,.38,4.65,1.04c1.35,.61,2.86,.97,4.42,.98h0s.03,0,.04,0,.03,0,.04,0h0c1.57-.02,3.08-.38,4.43-.99,1.41-.66,3-1.04,4.64-1.04s3.24,.38,4.65,1.04c.67,.3,1.37,.54,2.1,.7v-6.77c-.73-.17-1.44-.41-2.1-.71-1.41-.64-3-1.02-4.65-1.02Z"/><path class="cls-2" d="M121.77,79.73c-1.41-.64-3-1.02-4.65-1.02s-3.24,.38-4.64,1.02c-1.37,.62-2.88,.98-4.47,.98-1.57,0-3.11-.37-4.47-.98-1.4-.64-2.99-1.02-4.65-1.02s-3.24,.38-4.64,1.02c-1.39,.63-2.92,.99-4.53,.99s-3.14-.36-4.51-.99c-1.41-.64-3-1.02-4.66-1.02s-3.23,.38-4.64,1.02c-1.39,.63-2.92,.99-4.53,.99s-3.14-.36-4.51-.99c-1.41-.64-3-1.02-4.65-1.02s-3.25,.38-4.65,1.02c-1.37,.63-2.92,.99-4.52,.99s-3.14-.36-4.52-.99c-1.41-.64-3-1.02-4.65-1.02s-3.24,.38-4.65,1.02c-1.37,.62-2.88,.98-4.47,.98-1.57,0-3.11-.37-4.47-.98-1.4-.64-2.99-1.02-4.65-1.02s-3.24,.38-4.64,1.02c-1.39,.63-2.92,.99-4.53,.99s-3.14-.36-4.51-.99c-1.41-.64-3-1.02-4.66-1.02-1.1,0-2.16,.18-3.18,.48v6.76c1.01-.31,2.08-.49,3.18-.49,1.66,0,3.25,.38,4.66,1.04,1.37,.62,2.92,.99,4.51,.99s3.14-.37,4.53-.99c1.4-.66,2.99-1.04,4.64-1.04s3.25,.38,4.65,1.04c1.35,.61,2.86,.97,4.42,.98h0s.03,0,.04,0,.03,0,.04,0h0c1.57-.02,3.07-.38,4.43-.99,1.41-.66,3-1.04,4.65-1.04s3.24,.38,4.65,1.04c1.38,.62,2.92,.99,4.52,.99s3.15-.37,4.52-.99c1.4-.66,2.99-1.04,4.65-1.04s3.24,.38,4.65,1.04c1.37,.62,2.9,.99,4.51,.99s3.14-.37,4.53-.99c1.41-.66,3-1.04,4.64-1.04s3.25,.38,4.66,1.04c1.37,.62,2.92,.99,4.51,.99s3.14-.37,4.53-.99c1.4-.66,2.99-1.04,4.64-1.04s3.25,.38,4.65,1.04c1.35,.61,2.86,.97,4.42,.98h0s.03,0,.04,0,.03,0,.04,0h0c1.57-.02,3.08-.38,4.43-.99,1.41-.66,3-1.04,4.64-1.04s3.24,.38,4.65,1.04c.67,.3,1.37,.54,2.1,.7v-6.77c-.73-.17-1.44-.41-2.1-.71Z"/><path class="cls-2" d="M16.24,75.39c.08,0,.16,.01,.24,.01,1.61,0,3.14-.36,4.53-.99,1.17-.53,2.47-.87,3.82-.97v-23.62h21.03v23.77c.94,.17,1.84,.44,2.68,.82,1.38,.63,2.92,.99,4.52,.99,.47,0,.93-.04,1.39-.1v-25.48h21.03v24.77c.15-.06,.3-.11,.45-.18,1.41-.64,3-1.02,4.64-1.02,1.22,0,2.4,.21,3.49,.57v-24.14h8.98c2.6,0,4.71-2.11,4.71-4.71s-2.11-4.71-4.71-4.71h-8.98v-2.89c.65-.04,1.16-.56,1.16-1.21v-1.01c0-.68-.55-1.23-1.23-1.23h-8.55c-.68,0-1.23,.55-1.23,1.23v1.01c0,.68,.55,1.23,1.23,1.23h.04v2.87h-21.03v-2.9c.62-.06,1.12-.57,1.12-1.2v-1.01c0-.68-.55-1.23-1.23-1.23h-8.55c-.68,0-1.23,.55-1.23,1.23v1.01c0,.68,.55,1.23,1.23,1.23h.08v2.87H24.82v-2.91c.6-.08,1.07-.57,1.07-1.19v-1.01c0-.68-.55-1.23-1.23-1.23h-8.55c-.68,0-1.23,.55-1.23,1.23v1.01c0,.68,.55,1.23,1.23,1.23h.13v2.87H4.01v9.41h12.23v25.57Z"/></g></g></svg>