<?xml version="1.0" encoding="UTF-8"?><svg xmlns="http://www.w3.org/2000/svg" viewBox="0 0 128 128"><defs><style>.cls-1{fill:#fff;}.cls-2{fill:#1d70b7;}.cls-3{fill:#35a8e0;}</style></defs><g id="cuadrobase"><g><rect class="cls-3" x="2" y="2" width="124" height="124" rx="22" ry="22"/><path class="cls-2" d="M104,4c11.03,0,20,8.97,20,20V104c0,11.03-8.97,20-20,20H24c-11.03,0-20-8.97-20-20V24C4,12.97,12.97,4,24,4H104m0-4H24C10.75,0,0,10.75,0,24V104C0,117.25,10.75,128,24,128H104c13.25,0,24-10.75,24-24V24c0-13.25-10.75-24-24-24h0Z"/></g></g><g id="figura"><g><circle class="cls-1" cx="45.59" cy="26.39" r="8.91"/><path class="cls-1" d="M91.42,55.52c4.01,0,7.27-3.25,7.27-7.27s-3.25-7.27-7.27-7.27-7.27,3.25-7.27,7.27,3.25,7.27,7.27,7.27Z"/><path class="cls-1" d="M99.18,83.77v-19.71l18.9-7.29-2.03-5.28-24.62,9.5-24.62-9.5-2.03,5.28,18.9,7.29v19.71l-8.99,23.32h-6.55l.49-.19-12.48-32.35v-26.73l25.62-9.88-2.76-7.15-33.39,12.88L12.2,30.78l-2.76,7.15,25.62,9.88v26.73l-12.48,32.35,.49,.19h-6.13v2.98H112.86v-2.98h-4.69l-8.99-23.32Zm-9.48,.03h3.43l8.98,23.29h-21.4l8.98-23.29Zm-46.44-9.21h4.65l12.53,32.49H30.73l12.53-32.49Z"/></g></g></svg>