<?xml version="1.0" encoding="UTF-8"?><svg xmlns="http://www.w3.org/2000/svg" viewBox="0 0 128 128"><defs><style>.cls-1{fill:#e61b72;}.cls-2{fill:#ffec00;}.cls-3{fill:#ececec;}</style></defs><g id="cuadrobase"><g><rect class="cls-3" x="2" y="2" width="124" height="124" rx="22" ry="22"/><path class="cls-2" d="M104,4c11.03,0,20,8.97,20,20V104c0,11.03-8.97,20-20,20H24c-11.03,0-20-8.97-20-20V24C4,12.97,12.97,4,24,4H104m0-4H24C10.75,0,0,10.75,0,24V104C0,117.25,10.75,128,24,128H104c13.25,0,24-10.75,24-24V24c0-13.25-10.75-24-24-24h0Z"/></g></g><g id="figura"><polygon class="cls-1" points="69.56 93.7 69.56 46.7 87.81 46.7 87.81 35.58 69.56 35.58 69.56 23.69 58.44 23.69 58.44 35.58 40.19 35.58 40.19 46.7 58.44 46.7 58.44 93.7 4.21 93.7 4.21 104.82 123.79 104.82 123.79 93.7 69.56 93.7"/></g></svg>