<?xml version="1.0" encoding="UTF-8"?><svg xmlns="http://www.w3.org/2000/svg" viewBox="0 0 128 128"><defs><style>.cls-1{fill:#f8b133;}.cls-2{fill:#ececec;}.cls-3{fill:#1d1d1b;}</style></defs><g id="cuadrobase"><g><rect class="cls-2" x="2" y="2" width="124" height="124" rx="22" ry="22"/><path class="cls-1" d="M104,4c11.03,0,20,8.97,20,20V104c0,11.03-8.97,20-20,20H24c-11.03,0-20-8.97-20-20V24C4,12.97,12.97,4,24,4H104m0-4H24C10.75,0,0,10.75,0,24V104C0,117.25,10.75,128,24,128H104c13.25,0,24-10.75,24-24V24c0-13.25-10.75-24-24-24h0Z"/></g></g><g id="figura"><g><polygon class="cls-3" points="64 10.4 14.2 31.95 113.8 31.95 64 10.4"/><polygon class="cls-3" points="98.47 92.65 98.47 47.15 107.38 47.15 107.38 41.94 20.62 41.94 20.62 47.15 29.53 47.15 29.53 92.65 42.9 92.65 42.9 47.15 57.31 47.15 57.31 92.65 70.69 92.65 70.69 47.15 85.1 47.15 85.1 92.65 98.47 92.65"/><rect class="cls-3" x="17.72" y="98.82" width="92.56" height="5.13"/><rect class="cls-3" x="8.66" y="103.96" width="110.68" height="5.13"/></g></g></svg>