<?xml version="1.0" encoding="UTF-8"?><svg xmlns="http://www.w3.org/2000/svg" viewBox="0 0 128 128"><defs><style>.cls-1{fill:#35a8e0;}.cls-2{fill:#93c01f;}.cls-3{fill:#2d2e82;}</style></defs><g id="cuadrobase"><g><rect class="cls-2" x="2" y="2" width="124" height="124" rx="22" ry="22"/><path class="cls-1" d="M104,4c11.03,0,20,8.97,20,20V104c0,11.03-8.97,20-20,20H24c-11.03,0-20-8.97-20-20V24C4,12.97,12.97,4,24,4H104m0-4H24C10.75,0,0,10.75,0,24V104C0,117.25,10.75,128,24,128H104c13.25,0,24-10.75,24-24V24c0-13.25-10.75-24-24-24h0Z"/></g></g><g id="figura"><g><path class="cls-3" d="M103.02,82.75l-.42,.82c-.04,.07-.93,1.81-2.62,4.39-.86,.12-1.69,.36-2.46,.7-.13,.06-.27,.11-.41,.16l-2.36,.53,1.56-.26c-.72,.2-1.47,.33-2.25,.33-1.22,0-2.41-.28-3.46-.76-1.09-.49-2.32-.79-3.6-.79s-2.51,.29-3.59,.79c-1.08,.48-2.26,.76-3.51,.76s-2.43-.28-3.49-.76c-1.09-.49-2.32-.79-3.61-.79s-2.5,.29-3.59,.79c-1.07,.48-2.26,.76-3.51,.76s-2.43-.28-3.49-.76c-1.09-.49-2.32-.79-3.6-.79s-2.52,.29-3.6,.79c-1.06,.48-2.26,.76-3.5,.76s-2.43-.28-3.5-.76c-1.09-.49-2.32-.79-3.6-.79s-2.51,.29-3.6,.79c-1.06,.48-2.23,.76-3.46,.76-1.22,0-2.4-.28-3.46-.76-1.09-.49-2.32-.79-3.6-.79-.58,0-1.16,.07-1.71,.18-1.8-2.65-2.78-4.45-2.82-4.52l-.42-.79H4.07v3H23.57c1.21,2.11,4.86,8.04,10.55,14.05,9.3,9.8,19.63,14.98,29.88,14.98,23.81,0,38.18-24.12,40.85-29.03h19.14v-3h-20.96Zm-39.02,29.03c-8.08,0-15.2-3.5-21.04-8.03,.48-.08,.96-.14,1.46-.14,1.28,0,2.51,.29,3.6,.81,1.07,.48,2.26,.76,3.5,.76s2.44-.28,3.5-.76c1.09-.51,2.32-.81,3.6-.81s2.51,.29,3.6,.81c1.06,.48,2.25,.76,3.49,.76s2.43-.28,3.51-.76c1.09-.51,2.32-.81,3.59-.81s2.52,.29,3.61,.81c1.06,.48,2.26,.76,3.49,.76s2.43-.28,3.51-.76c.72-.34,1.51-.57,2.33-.7-5.9,4.55-13.21,8.06-21.75,8.06Zm26.84-12.52c-.07-.03-.15-.06-.23-.09-1.09-.49-2.32-.79-3.6-.79s-2.51,.29-3.59,.79c-1.08,.48-2.26,.76-3.51,.76s-2.43-.28-3.49-.76c-1.09-.49-2.32-.79-3.61-.79s-2.5,.29-3.59,.79c-1.07,.48-2.26,.76-3.51,.76s-2.43-.28-3.49-.76c-1.09-.49-2.32-.79-3.6-.79s-2.52,.29-3.6,.79c-1.06,.48-2.26,.76-3.5,.76s-2.43-.28-3.5-.76c-1.09-.49-2.32-.79-3.6-.79s-2.51,.29-3.6,.79c-.74,.34-1.54,.56-2.37,.68-2.23-2.14-4.19-4.34-5.87-6.41,.46,.13,.9,.28,1.32,.48,1.04,.47,2.22,.75,3.42,.76h0s.02,0,.03,0,.02,0,.03,0h0c1.22-.01,2.38-.29,3.43-.76,1.09-.51,2.32-.81,3.6-.81s2.51,.29,3.6,.81c1.07,.48,2.26,.76,3.5,.76s2.44-.28,3.5-.76c1.09-.51,2.32-.81,3.6-.81s2.51,.29,3.6,.81c1.06,.48,2.25,.76,3.49,.76s2.43-.28,3.51-.76c1.09-.51,2.32-.81,3.59-.81s2.52,.29,3.61,.81c1.06,.48,2.26,.76,3.49,.76s2.43-.28,3.51-.76c1.09-.51,2.32-.81,3.59-.81s2.52,.29,3.6,.81c1.04,.47,2.22,.75,3.42,.76h0s.02,0,.03,0,.02,0,.03,0h0c.33,0,.66-.03,.98-.07-1.27,1.53-2.68,3.1-4.25,4.65Z"/><path class="cls-3" d="M54.86,83.5c.05-.02,.11-.04,.16-.06,1.09-.49,2.32-.79,3.6-.79s2.51,.29,3.6,.79c1.06,.48,2.25,.76,3.49,.76s2.43-.28,3.51-.76c1.09-.49,2.32-.79,3.59-.79s2.46,.28,3.53,.76c7.9-4.72,8.92-10.93,8.92-10.93l-19.73-8.03-19.73,8.03s1.03,6.34,9.07,11.02Z"/><polygon class="cls-3" points="63.4 8.88 28.83 59.97 63.4 59.97 63.4 8.88"/><path class="cls-3" d="M66.68,20.66V59.97h20.67c1.59-18.32-10.49-33.58-20.67-39.31Z"/></g></g></svg>