<?xml version="1.0" encoding="UTF-8"?><svg xmlns="http://www.w3.org/2000/svg" viewBox="0 0 128 128"><defs><style>.cls-1{fill:#ffec00;}.cls-2{fill:#7a6a58;}</style></defs><g id="cuadrobase"><g><rect class="cls-2" x="2" y="2" width="124" height="124" rx="22" ry="22"/><path class="cls-1" d="M104,4c11.03,0,20,8.97,20,20V104c0,11.03-8.97,20-20,20H24c-11.03,0-20-8.97-20-20V24C4,12.97,12.97,4,24,4H104m0-4H24C10.75,0,0,10.75,0,24V104c0,13.25,10.75,24,24,24H104c13.25,0,24-10.75,24-24V24c0-13.25-10.75-24-24-24h0Z"/></g></g><g id="figura"><g><path class="cls-1" d="M86.72,90.14c13.57-.17,22.68-10.9,23.23-16.94h-40.7v-1.96c0-2.71,1.49-11.17,7.76-11.17s9.52-1.63,9.52-1.63h-.19c4.34-1.18,3.46-5.04,3.73-7.38h-23.32v-2.89c.88-.35,1.5-1.2,1.5-2.2s-.63-1.85-1.51-2.2c0-.62-.23-1.19-.59-1.65h1.02c.59,0,1.08-.48,1.08-1.08s-.48-1.08-1.08-1.08h-1.89v-5.22c0-.71-.58-1.29-1.29-1.29s-1.29,.58-1.29,1.29v5.22h-1.89c-.59,0-1.08,.48-1.08,1.08s.48,1.08,1.08,1.08h1.02c-.36,.46-.58,1.03-.59,1.65-.88,.35-1.51,1.2-1.51,2.2s.63,1.85,1.5,2.2v2.89h-23.32c.27,2.33-.36,6.19,3.83,7.36h-.29s3.25,1.64,9.52,1.64,7.76,8.46,7.76,11.17v1.96H18.04c.56,6.09,10.05,16.94,23.17,16.94h.07l8.96,11.22c-4.9,.05-7.91,.72-8.93,.99-5.5,.63-4.43,3.47-4.73,5.15h55.17c-.3-1.67,.47-4.48-4.68-5.14-.98-.27-4.12-1-9.31-1.01l8.96-11.23Z"/><path class="cls-1" d="M62.75,29.54c-.04,.39,.07,.75,.29,1.04-.01,.39,0,.62,0,.64,.03,.81,.7,1.44,1.5,1.44,.02,0,.04,0,.05,0,.83-.03,1.47-.72,1.45-1.55,0,0-.02-.71,.1-1.77,.05-.44-.1-.85-.37-1.16,0-.19-.02-.38-.03-.59-.06-.83-.78-1.45-1.61-1.38-.83,.06-1.45,.78-1.38,1.61,.08,1.03,.01,1.72,0,1.73Z"/><path class="cls-1" d="M57.81,19.21c1,.58,1.86,1.32,2.56,2.19,.3,.37,.73,.55,1.17,.55,.33,0,.67-.11,.94-.34,.64-.52,.74-1.47,.22-2.11-.93-1.15-2.07-2.12-3.37-2.88-.71-.42-1.63-.18-2.05,.53-.42,.71-.18,1.63,.53,2.05Z"/><path class="cls-1" d="M47.14,17.56c.06,0,.13,0,.19-.01,1.15-.15,2.46-.18,3.66-.13,.83,.04,1.53-.6,1.57-1.43s-.6-1.53-1.43-1.57c-1.36-.06-2.85-.02-4.17,.15-.82,.1-1.4,.85-1.3,1.68,.1,.76,.74,1.31,1.49,1.31Z"/><path class="cls-1" d="M36.46,23.02c.26,.17,.55,.25,.83,.25,.48,0,.96-.23,1.25-.67,.65-.98,1.44-1.83,2.33-2.53,.65-.51,.76-1.46,.25-2.11-.51-.65-1.46-.76-2.11-.25-1.14,.9-2.13,1.98-2.96,3.22-.46,.69-.28,1.62,.41,2.08Z"/><path class="cls-1" d="M34.61,32.66s.04,0,.06,0c.83-.03,1.47-.73,1.44-1.55,0,0-.02-.71,.1-1.77,.09-.82-.5-1.57-1.32-1.66-.82-.1-1.57,.5-1.66,1.32-.15,1.31-.12,2.18-.12,2.22,.03,.81,.7,1.44,1.5,1.44Z"/><path class="cls-1" d="M92.68,29.54c-.09,.82,.51,1.56,1.33,1.65,.05,0,.11,0,.16,0,.76,0,1.41-.57,1.49-1.34,0-.1,.1-.96,0-2.27-.06-.83-.78-1.45-1.61-1.38-.83,.06-1.45,.78-1.38,1.61,.08,1.03,.01,1.72,0,1.73Z"/><path class="cls-1" d="M87.74,19.21c1,.58,1.86,1.32,2.56,2.19,.3,.37,.73,.55,1.17,.55,.33,0,.67-.11,.94-.34,.64-.52,.74-1.47,.22-2.11-.93-1.15-2.07-2.12-3.37-2.88-.71-.42-1.63-.18-2.05,.53-.42,.71-.18,1.63,.53,2.05Z"/><path class="cls-1" d="M77.07,17.56c.06,0,.13,0,.19-.01,1.15-.15,2.46-.18,3.66-.13,.83,.04,1.53-.6,1.57-1.43s-.6-1.53-1.43-1.57c-1.36-.06-2.85-.02-4.17,.15-.82,.1-1.4,.85-1.3,1.68,.1,.76,.74,1.31,1.49,1.31Z"/><path class="cls-1" d="M66.39,23.02c.26,.17,.55,.25,.83,.25,.48,0,.96-.23,1.25-.67,.65-.98,1.44-1.83,2.33-2.53,.65-.51,.76-1.46,.25-2.11-.51-.65-1.46-.76-2.11-.25-1.14,.9-2.13,1.98-2.96,3.22-.46,.69-.28,1.62,.41,2.08Z"/></g></g></svg>