<?xml version="1.0" encoding="UTF-8"?><svg xmlns="http://www.w3.org/2000/svg" viewBox="0 0 128 128"><defs><style>.cls-1{fill:#ffec00;}.cls-2{fill:#662482;}.cls-3{fill:#7a6a58;}</style></defs><g id="cuadrobase"><g><rect class="cls-1" x="2" y="2" width="124" height="124" rx="22" ry="22"/><path class="cls-3" d="M104,4c11.03,0,20,8.97,20,20V104c0,11.03-8.97,20-20,20H24c-11.03,0-20-8.97-20-20V24C4,12.97,12.97,4,24,4H104m0-4H24C10.75,0,0,10.75,0,24V104C0,117.25,10.75,128,24,128H104c13.25,0,24-10.75,24-24V24c0-13.25-10.75-24-24-24h0Z"/></g></g><g id="figura"><g><path class="cls-2" d="M86.36,62.15c4.75-.26,4.16,.71,4.46-3.28,.33-2.88,.48-2.63-1.25-3.1-2.3-.61-4.82-.71-7.2-.69-1.38,0-1,0-1.15,.99-.29,1.94-.68,3.87-1.05,6.09,2.43,0,4.31,.05,6.18-.01Z"/><path class="cls-2" d="M95.51,59.63c.03-2.09-2.14-2.57-3.64-3.08-.1,1.94-.33,3.56-.54,5.22,2.41-.35,4.15,.34,4.19-2.14Z"/><path class="cls-2" d="M66.18,62.84c3.98-.25,7.72-.43,11.46-.77,.48-.04,1.19-.82,1.29-1.37,.33-1.77,.55-3.75,.74-5.64-5.67-.09-12.44,1.59-15.73,5.35,1.63-.18,2.69,.27,2.24,2.43Z"/><path class="cls-2" d="M22.08,47.44l16.72,33.16c.14-.06,.29-.11,.43-.17,1.41-.64,3-1.02,4.65-1.02s3.24,.38,4.65,1.02c1.38,.63,2.92,.99,4.52,.99s3.15-.36,4.52-.99c1.4-.64,2.99-1.02,4.65-1.02s3.24,.38,4.65,1.02c1.37,.63,2.9,.99,4.51,.99s3.14-.36,4.53-.99c1.41-.64,3-1.02,4.64-1.02s3.25,.38,4.66,1.02c1.37,.63,2.92,.99,4.51,.99s3.14-.36,4.53-.99c1.4-.64,2.99-1.02,4.64-1.02s3.25,.38,4.65,1.02c1.36,.62,2.89,.98,4.47,.98,1.59,0,3.11-.37,4.47-.98,.17-.08,.34-.13,.52-.2l5.75-32.79h-14.9v-11.03h-25.57v-8.24h-21.25l-5.07,8.24h-9.72l-7.54,11.03h-12.62Zm28.25,30.3c-3.08,0-5.58-2.5-5.58-5.58s2.5-5.58,5.58-5.58,5.58,2.5,5.58,5.58-2.5,5.58-5.58,5.58Zm46.43,0c-3.08,0-5.58-2.5-5.58-5.58s2.5-5.58,5.58-5.58,5.58,2.5,5.58,5.58-2.5,5.58-5.58,5.58Zm-51.92-14.34c4.47-.78,8.96-1.56,13.35-2.72,2.09-.55,4.04-1.88,5.96-3.02,4.98-2.97,10.27-4.06,15.97-4.21,7.15-.18,13.75,1.04,19.88,5.18,1.63,1.1,3.8,1.34,5.75,1.85,3.19,.84,3.54,1.3,3.83,4.72,.13,1.57,.67,3.1,.81,4.67,.27,2.88,.2,4.78-2.91,4.8-.19,0-.38,.05-.56,.08q-3.09,.46-3.26-2.73c-.22-4.06-3.41-7.22-7.16-7.1-3.9,.12-7,3.58-6.97,7.79,.02,3.11,.02,3.1-2.92,3.1-8.97,0-17.94,0-26.9,.02-.74,0-1.47,0-2.35,0,0-1.14-.07-2.01,.01-2.86,.27-2.98-.69-5.38-3.13-6.81-2.35-1.28-5.95-1.61-8.42,.47-1.86,1.57-2.77,3.6-2.61,6.19,.06,.85,.44,2.06-1,2.13-1.35,.06-2.74,.08-3.23-1.71-1.23-4.45,1.62-9.08,5.86-9.82Z"/><path class="cls-2" d="M117.12,97.69c-1.65,0-3.24,.38-4.64,1.02-1.37,.62-2.88,.98-4.47,.98-1.57,0-3.11-.37-4.47-.98-1.4-.64-2.99-1.02-4.65-1.02s-3.24,.38-4.64,1.02c-1.39,.63-2.92,.99-4.53,.99s-3.14-.36-4.51-.99c-1.41-.64-3-1.02-4.66-1.02s-3.23,.38-4.64,1.02c-1.39,.63-2.92,.99-4.53,.99s-3.14-.36-4.51-.99c-1.41-.64-3-1.02-4.65-1.02s-3.25,.38-4.65,1.02c-1.37,.63-2.92,.99-4.52,.99s-3.14-.36-4.52-.99c-1.41-.64-3-1.02-4.65-1.02s-3.24,.38-4.65,1.02c-1.37,.62-2.88,.98-4.47,.98-1.57,0-3.11-.37-4.47-.98-1.4-.64-2.99-1.02-4.65-1.02s-3.24,.38-4.64,1.02c-1.39,.63-2.92,.99-4.53,.99s-3.14-.36-4.51-.99c-1.41-.64-3-1.02-4.66-1.02-1.1,0-2.16,.18-3.18,.48v6.76c1.01-.31,2.08-.49,3.18-.49,1.66,0,3.25,.38,4.66,1.04,1.37,.62,2.92,.99,4.51,.99s3.14-.37,4.53-.99c1.4-.66,2.99-1.04,4.64-1.04s3.25,.38,4.65,1.04c1.35,.61,2.86,.97,4.42,.98h0s.03,0,.04,0,.03,0,.04,0h0c1.57-.02,3.07-.38,4.43-.99,1.41-.66,3-1.04,4.65-1.04s3.24,.38,4.65,1.04c1.38,.62,2.92,.99,4.52,.99s3.15-.37,4.52-.99c1.4-.66,2.99-1.04,4.65-1.04s3.24,.38,4.65,1.04c1.37,.62,2.9,.99,4.51,.99s3.14-.37,4.53-.99c1.41-.66,3-1.04,4.64-1.04s3.25,.38,4.66,1.04c1.37,.62,2.92,.99,4.51,.99s3.14-.37,4.53-.99c1.4-.66,2.99-1.04,4.64-1.04s3.25,.38,4.65,1.04c1.35,.61,2.86,.97,4.42,.98h0s.03,0,.04,0,.03,0,.04,0h0c1.57-.02,3.08-.38,4.43-.99,1.41-.66,3-1.04,4.64-1.04s3.24,.38,4.65,1.04c.67,.3,1.37,.54,2.1,.7v-6.77c-.73-.17-1.44-.41-2.1-.71-1.41-.64-3-1.02-4.65-1.02Z"/><path class="cls-2" d="M121.77,86.39c-1.41-.64-3-1.02-4.65-1.02s-3.24,.38-4.64,1.02c-1.37,.62-2.88,.98-4.47,.98-1.57,0-3.11-.37-4.47-.98-1.4-.64-2.99-1.02-4.65-1.02s-3.24,.38-4.64,1.02c-1.39,.63-2.92,.99-4.53,.99s-3.14-.36-4.51-.99c-1.41-.64-3-1.02-4.66-1.02s-3.23,.38-4.64,1.02c-1.39,.63-2.92,.99-4.53,.99s-3.14-.36-4.51-.99c-1.41-.64-3-1.02-4.65-1.02s-3.25,.38-4.65,1.02c-1.37,.63-2.92,.99-4.52,.99s-3.14-.36-4.52-.99c-1.41-.64-3-1.02-4.65-1.02s-3.24,.38-4.65,1.02c-1.37,.62-2.88,.98-4.47,.98-1.57,0-3.11-.37-4.47-.98-1.4-.64-2.99-1.02-4.65-1.02s-3.24,.38-4.64,1.02c-1.39,.63-2.92,.99-4.53,.99s-3.14-.36-4.51-.99c-1.41-.64-3-1.02-4.66-1.02-1.1,0-2.16,.18-3.18,.48v6.76c1.01-.31,2.08-.49,3.18-.49,1.66,0,3.25,.38,4.66,1.04,1.37,.62,2.92,.99,4.51,.99s3.14-.37,4.53-.99c1.4-.66,2.99-1.04,4.64-1.04s3.25,.38,4.65,1.04c1.35,.61,2.86,.97,4.42,.98h0s.03,0,.04,0,.03,0,.04,0h0c1.57-.02,3.07-.38,4.43-.99,1.41-.66,3-1.04,4.65-1.04s3.24,.38,4.65,1.04c1.38,.62,2.92,.99,4.52,.99s3.15-.37,4.52-.99c1.4-.66,2.99-1.04,4.65-1.04s3.24,.38,4.65,1.04c1.37,.62,2.9,.99,4.51,.99s3.14-.37,4.53-.99c1.41-.66,3-1.04,4.64-1.04s3.25,.38,4.66,1.04c1.37,.62,2.92,.99,4.51,.99s3.14-.37,4.53-.99c1.4-.66,2.99-1.04,4.64-1.04s3.25,.38,4.65,1.04c1.35,.61,2.86,.97,4.42,.98h0s.03,0,.04,0,.03,0,.04,0h0c1.57-.02,3.08-.38,4.43-.99,1.41-.66,3-1.04,4.64-1.04s3.24,.38,4.65,1.04c.67,.3,1.37,.54,2.1,.7v-6.77c-.73-.17-1.44-.41-2.1-.71Z"/><path class="cls-2" d="M16.84,29.81l.22-.09c1.92,3.68,5.76,6.04,9.93,6.04s8.02-2.36,9.93-6.04l.22,.09c.44,.17,.91,.09,1.27-.2,.36-.3,.52-.75,.44-1.21l-.7-3.78c-.08-.44-.38-.79-.79-.95-.41-.16-.87-.1-1.22,.17l-3.08,2.31c-.37,.28-.56,.72-.5,1.19,.06,.46,.36,.84,.8,1.01l.34,.13c-1.09,1.87-2.91,3.2-5.01,3.68v-14.34c.8-.56,1.28-1.47,1.28-2.44,0-1.65-1.34-2.99-2.99-2.99s-2.99,1.34-2.99,2.99c0,.97,.49,1.88,1.28,2.44v14.34c-2.11-.47-3.93-1.81-5.01-3.68l.34-.13c.44-.17,.73-.55,.8-1.01,.06-.46-.12-.91-.5-1.19l-3.08-2.31c-.35-.27-.81-.33-1.22-.17-.41,.16-.71,.52-.79,.95l-.7,3.78c-.08,.46,.08,.91,.44,1.21,.36,.3,.84,.37,1.27,.2Z"/></g></g></svg>