<?xml version="1.0" encoding="UTF-8"?><svg xmlns="http://www.w3.org/2000/svg" viewBox="0 0 128 128"><defs><style>.cls-1{fill:#35a8e0;}.cls-2{fill:#93c01f;}.cls-3{fill:#2d2e82;}</style></defs><g id="cuadrobase"><g><rect class="cls-2" x="2" y="2" width="124" height="124" rx="22" ry="22"/><path class="cls-1" d="M104,4c11.03,0,20,8.97,20,20V104c0,11.03-8.97,20-20,20H24c-11.03,0-20-8.97-20-20V24C4,12.97,12.97,4,24,4H104m0-4H24C10.75,0,0,10.75,0,24V104C0,117.25,10.75,128,24,128H104c13.25,0,24-10.75,24-24V24c0-13.25-10.75-24-24-24h0Z"/></g></g><g id="figura"><g><path class="cls-3" d="M110.46,93.09L64,12.52,17.54,93.09H4.02v11.26c0,10.86,8.8,19.66,19.66,19.66H104.32c10.86,0,19.66-8.8,19.66-19.66v-11.26h-13.52Zm-27.05,5.38v-27.16h-15.14v27.16H22.13l3.1-5.38L64,25.87l38.77,67.22,3.1,5.38h-22.45Z"/><rect class="cls-3" x="43.88" y="71.32" width="17.66" height="12.62"/></g></g></svg>