<?xml version="1.0" encoding="UTF-8"?><svg xmlns="http://www.w3.org/2000/svg" viewBox="0 0 128 128"><defs><style>.cls-1{fill:#d9d9d9;}.cls-2{fill:#aed82a;}.cls-3{fill:#0d8237;}</style></defs><g id="cuadrobase"><g><rect class="cls-2" x="2" y="2" width="124" height="124" rx="22" ry="22"/><path class="cls-1" d="M104,4c11.03,0,20,8.97,20,20V104c0,11.03-8.97,20-20,20H24c-11.03,0-20-8.97-20-20V24C4,12.97,12.97,4,24,4H104m0-4H24C10.75,0,0,10.75,0,24V104C0,117.25,10.75,128,24,128H104c13.25,0,24-10.75,24-24V24c0-13.25-10.75-24-24-24h0Z"/></g></g><g id="figura"><path class="cls-3" d="M61.54,13.96c-23.45,0-42.52,19.08-42.52,42.52s18,41.43,40.53,42.47v14.82l15.08-19.35-15.08-19.35v14.87c-17.56-1.04-31.53-15.64-31.53-33.46S43.05,22.96,61.54,22.96s33.52,15.04,33.52,33.52V124.17h9V56.48c0-23.45-19.08-42.52-42.52-42.52Z"/></g></svg>