<?xml version="1.0" encoding="UTF-8"?><svg xmlns="http://www.w3.org/2000/svg" viewBox="0 0 128 128"><defs><style>.cls-1{fill:#fff;}.cls-2{fill:#e84e1b;}.cls-3{fill:#35a8e0;}</style></defs><g id="cuadrobase"><g><rect class="cls-1" x="2" y="2" width="124" height="124" rx="22" ry="22"/><path class="cls-2" d="M104,4c11.03,0,20,8.97,20,20V104c0,11.03-8.97,20-20,20H24c-11.03,0-20-8.97-20-20V24C4,12.97,12.97,4,24,4H104m0-4H24C10.75,0,0,10.75,0,24V104C0,117.25,10.75,128,24,128H104c13.25,0,24-10.75,24-24V24c0-13.25-10.75-24-24-24h0Z"/></g></g><g id="figura"><g><path class="cls-3" d="M73.34,67.85l41.29-7.81v-13.07l-41.29-2.93v-10.79h-18.68v10.79l-41.29,2.93v13.07l41.29,7.81v11.3l3.1,20.29h-7.63c-2.13,0-3.85,1.73-3.85,3.85v.83c0,2.13,1.73,3.85,3.85,3.85h27.73c2.13,0,3.85-1.73,3.85-3.85v-.83c0-2.13-1.73-3.85-3.85-3.85h-7.63l3.1-20.29v-11.3Z"/><rect class="cls-3" x="48.89" y="20.02" width="30.23" height="5.38"/></g></g></svg>