<?xml version="1.0" encoding="UTF-8"?><svg xmlns="http://www.w3.org/2000/svg" viewBox="0 0 128 128"><defs><style>.cls-1{fill:#ffec00;}.cls-2{fill:#662482;}.cls-3{fill:#7a6a58;}</style></defs><g id="cuadrobase"><g><rect class="cls-1" x="2" y="2" width="124" height="124" rx="22" ry="22"/><path class="cls-3" d="M104,4c11.03,0,20,8.97,20,20V104c0,11.03-8.97,20-20,20H24c-11.03,0-20-8.97-20-20V24C4,12.97,12.97,4,24,4H104m0-4H24C10.75,0,0,10.75,0,24V104C0,117.25,10.75,128,24,128H104c13.25,0,24-10.75,24-24V24c0-13.25-10.75-24-24-24h0Z"/></g></g><g id="figura"><path class="cls-2" d="M64,9.55c-26.35,0-47.71,21.36-47.71,47.71s38.71,61.19,47.71,61.19c8.49,0,47.71-34.85,47.71-61.19S90.35,9.55,64,9.55Zm.75,9.54c11.18,0,21.19,5.05,27.87,12.98l-16.97,10.3-36.72-12.55c6.6-6.63,15.73-10.73,25.81-10.73Zm-29.26,14.73l34.7,11.86-9.69,5.88-29.39-10.05c1.15-2.75,2.62-5.34,4.38-7.7Zm-5.95,12.34l25.5,8.72-9.38,5.69-17.32-5.92c.07-2.93,.48-5.77,1.19-8.49Zm9.67,35.31c-5.73-5.64-9.59-13.15-10.61-21.55l11.61,3.97-9.12,5.53,2.54,4.19,61.74-37.48-1.52-2.5c2.51,3.33,4.46,7.11,5.71,11.19l-60.36,36.65Zm25.54,10.46c-1.86,0-3.69-.14-5.47-.41l39.94-24.25c-4.89,14.34-18.47,24.66-34.47,24.66Zm-12.15-2.09c-3.42-1.21-6.6-2.91-9.46-5.03l57.6-34.97c.29,1.85,.44,3.74,.44,5.66,0,1.72-.13,3.41-.36,5.06l-48.22,29.28Z"/></g></svg>