<?xml version="1.0" encoding="UTF-8"?><svg xmlns="http://www.w3.org/2000/svg" viewBox="0 0 128 128"><defs><style>.cls-1{fill:#ffec00;}.cls-2{fill:#7a6a58;}</style></defs><g id="cuadrobase"><g><rect class="cls-2" x="2" y="2" width="124" height="124" rx="22" ry="22"/><path class="cls-1" d="M104,4c11.03,0,20,8.97,20,20V104c0,11.03-8.97,20-20,20H24c-11.03,0-20-8.97-20-20V24C4,12.97,12.97,4,24,4H104m0-4H24C10.75,0,0,10.75,0,24V104C0,117.25,10.75,128,24,128H104c13.25,0,24-10.75,24-24V24c0-13.25-10.75-24-24-24h0Z"/></g></g><g id="figura"><g><path class="cls-1" d="M42.68,33.22c-2.21,.37-3.99,2.18-4.36,4.42-.6,3.7,2.51,6.86,6.16,6.25,2.21-.37,3.99-2.18,4.36-4.42,.6-3.7-2.51-6.86-6.16-6.25Z"/><path class="cls-1" d="M63.79,38.85c-7.95,.51-14.4,7.06-14.9,15.12-.61,9.78,7.34,17.85,16.97,17.23,7.95-.51,14.4-7.06,14.9-15.12,.61-9.78-7.34-17.85-16.97-17.23Zm.08,23.58c-3.28-.42-5.92-3.11-6.34-6.43-.61-4.88,3.44-8.99,8.25-8.37,3.28,.42,5.92,3.11,6.34,6.43,.61,4.88-3.44,8.99-8.25,8.37Z"/><path class="cls-1" d="M64,9.63c-28.82,0-52.19,13.22-52.19,39.51s43.91,71.34,52.19,71.34,52.19-45.04,52.19-71.34S92.82,9.63,64,9.63Zm31.18,61.33c0,8.05-3.93,12.17-11.9,12.17H44.72c-7.16,0-11.9-3.62-11.9-12.17V34.53c0-4,3.17-7.23,7.07-7.23h8.99c1.1,0,2.1-.62,2.61-1.6l.51-.98c1.19-2.43,2.14-4.91,4.8-4.91h14.39c2.66,0,3.6,2.45,4.8,4.91l.44,.91c.5,1.02,1.53,1.67,2.65,1.67h9.03c3.9,0,7.07,3.24,7.07,7.23v36.43Z"/></g></g></svg>