<?xml version="1.0" encoding="UTF-8"?><svg xmlns="http://www.w3.org/2000/svg" viewBox="0 0 128 128"><defs><style>.cls-1{fill:#f27ec6;}.cls-2{fill:#ffec00;}.cls-3{fill:#662482;}</style></defs><g id="cuadrobase"><g><rect class="cls-1" x="2" y="2" width="124" height="124" rx="22" ry="22"/><path class="cls-3" d="M104,4c11.03,0,20,8.97,20,20V104c0,11.03-8.97,20-20,20H24c-11.03,0-20-8.97-20-20V24C4,12.97,12.97,4,24,4H104M104,0H24C10.75,0,0,10.75,0,24V104C0,117.25,10.75,128,24,128H104c13.25,0,24-10.75,24-24V24C128,10.75,117.26,0,104,0h0Z"/></g></g><g id="figura"><g><path class="cls-2" d="M94.31,28.85c-15.82-2.77-17.97,8.39-17.97,8.39,12.88,4.32,17.97-8.39,17.97-8.39Z"/><path class="cls-2" d="M74.56,35.61c4.87-5.88-3.19-10.32-3.19-10.32-4.23,7.6,3.19,10.32,3.19,10.32Z"/><path class="cls-2" d="M83.91,38.76c-2.62-.64-5.3-.34-7.52,.7-1.26-1.89-3.33-3.36-5.95-4.01-5.31-1.3-10.86,1.31-12.39,5.85-.06,.17-.1,.31-.15,.49h.04c-.37,1.49-.48,3.39-.14,5.76l-1.75-6.12c-1.27-3.81-5.93-5.15-6.78-7.54l-6.09-15.66c1.44-.97-.42-2.78-.9-3.41,.61-1.44-.48-1.32-.77-1.46-2.99,.4-4.35,.74-7.48,1.66,0,0-.97,1.12,.42,1.47,.4,.36-1.3,3.13,1.07,3.44l3.32,16.42c.39,2.82-2.5,5.01-1.79,8.62l2.9,9.53,2.67,3.95,5.21-7.72,5.21,7.72,5.21-7.72,.43,.64h0l4.78,7.08,5.21-7.72,5.21,7.72,5.21-7.72,4.73,7c1.22-.99,2.1-1.78,2.1-1.78,.08-.07,.14-.14,.22-.21l3.51-5.2h.08v.9c.35-.56,.64-1.11,.86-1.62h.02s.16-.48,.16-.48c1.53-4.54-1.56-9.28-6.85-10.58Z"/><polygon class="cls-2" points="89.65 58.05 84.31 65.95 79.1 58.23 73.89 65.95 68.68 58.23 63.46 65.95 58.25 58.23 53.04 65.95 47.83 58.23 42.62 65.95 37.28 58.05 37.18 58.05 37.18 102.7 89.73 102.7 89.73 58.05 89.65 58.05"/><polygon class="cls-2" points="37.04 105.8 35.93 113.58 91.02 113.58 89.9 105.8 37.04 105.8"/></g></g></svg>