<?xml version="1.0" encoding="UTF-8"?><svg xmlns="http://www.w3.org/2000/svg" viewBox="0 0 128 128"><defs><style>.cls-1{fill:#ffec00;}.cls-2{fill:#86134d;}</style></defs><g id="cuadrobase"><g><rect class="cls-2" x="2" y="2" width="124" height="124" rx="22" ry="22"/><path class="cls-1" d="M104,4c11.03,0,20,8.97,20,20V104c0,11.03-8.97,20-20,20H24c-11.03,0-20-8.97-20-20V24C4,12.97,12.97,4,24,4H104m0-4H24C10.75,0,0,10.75,0,24V104c0,13.25,10.75,24,24,24H104c13.25,0,24-10.75,24-24V24c0-13.25-10.75-24-24-24h0Z"/></g></g><g id="figura"><g><path class="cls-1" d="M79.77,59.58h-22.75v7.02c0,.37-.08,.72-.23,1.04h22.96c-.03-.15-.05-.31-.05-.47v-7.03c0-.19,.02-.38,.06-.56Z"/><path class="cls-1" d="M48.57,59.58h-10.67c-.93,0-1.78-.39-2.38-1.01-.17,.59-.26,1.2-.26,1.83,0,3.98,3.59,7.24,7.98,7.24h5.56c-.14-.32-.23-.67-.23-1.04v-7.02Z"/><path class="cls-1" d="M64,7.45c-23.89,0-43.26,19.37-43.26,43.26s30.54,62.26,43.26,62.26c13.74,0,43.26-38.37,43.26-62.26S87.89,7.45,64,7.45Zm22.02,65.22H36.85c-3.87,0-6.57-3.25-6.57-6.76l.78-3.49c.86-2.23,2.23-3.76,3.83-4.76-.21-.43-.32-.91-.32-1.42v-3.91c0-3.3,2.58-6.03,5.83-6.26,.2-.1,.4-.2,.61-.28l19.94-8.32v-8.6c0-3.1,2.53-5.63,5.63-5.63h17.79c3.1,0,5.63,2.53,5.63,5.63v17.02c.73,1.1,1.21,2.35,1.34,3.67l.14,1.36c.31,3.18-1.45,5.98-4.29,7.39-.39,.49-.92,.87-1.53,1.09,.07,.24,.11,.48,.11,.74v7.03c0,.16-.02,.32-.05,.47h4.8c.86,0,1.68-.13,2.46-.35-.52,3.05-3.45,5.4-6.95,5.4Z"/></g></g></svg>