<?xml version="1.0" encoding="UTF-8"?><svg xmlns="http://www.w3.org/2000/svg" viewBox="0 0 128 128"><defs><style>.cls-1{fill:#008d36;}.cls-2{fill:#ffec00;}</style></defs><g id="cuadrobase"><g><rect class="cls-1" x="2" y="2" width="124" height="124" rx="22" ry="22"/><path class="cls-2" d="M104,4c11.03,0,20,8.97,20,20V104c0,11.03-8.97,20-20,20H24c-11.03,0-20-8.97-20-20V24C4,12.97,12.97,4,24,4H104m0-4H24C10.75,0,0,10.75,0,24V104C0,117.25,10.75,128,24,128H104c13.25,0,24-10.75,24-24V24c0-13.25-10.75-24-24-24h0Z"/></g></g><g id="figura"><g><path class="cls-2" d="M56.51,81.33l6.37,3.69-7.46-21.93-22.27,4.75,6.36,3.67,1.7,.98-4.96,8.58c-.45,.77-.68,1.63-.68,2.49s.21,1.68,.66,2.43c0,0,4.34,7.54,7.87,13.64,.26-.86,.58-1.7,1.03-2.49l9.7-16.76,1.67,.96Z"/><path class="cls-2" d="M48.1,98.79c-.56,.93-.82,1.95-.82,2.98s.26,2.03,.8,2.94c1.03,1.82,3,2.93,5.1,2.91h19.57v-15.76h-20.65c-.86,1.49-4.01,6.93-4.01,6.93Z"/><path class="cls-2" d="M67.75,37.77c-.88-.5-1.88-.77-2.92-.79-2.09,.02-4.05,1.15-5.07,2.99,0,0-8.25,14.28-9.81,16.96,2.45,1.4,11.21,6.45,13.67,7.85,1.47-2.55,9.41-16.32,10.31-17.87-.86-1.49-4-6.94-4-6.94-.54-.92-1.29-1.68-2.18-2.2Z"/><path class="cls-2" d="M74.45,59.66l23.05,5.71,6.71-22.85-6.37,3.67-1.7,.99-4.93-8.6c-.44-.77-1.09-1.4-1.82-1.82-.73-.44-1.57-.64-2.43-.64h-15.77c.62,.64,1.18,1.34,1.62,2.13l9.68,16.76-1.65,.99-6.4,3.67Z"/><path class="cls-2" d="M90.21,91.65v-1.95l.03-7.36-15.51,17.17,15.46,17.16v-9.28l9.89,.02c.91,0,1.78-.23,2.52-.67,.74-.42,1.36-1.03,1.78-1.78,0,0,4.38-7.54,7.88-13.64-.86,.19-1.76,.35-2.66,.35l-19.39-.02Z"/><path class="cls-2" d="M114.64,79.47s-8.23-14.29-9.78-16.97c-2.43,1.42-11.21,6.48-13.65,7.88,1.47,2.55,9.41,16.34,10.31,17.9h8.01c1.07,0,2.11-.27,3.02-.8,.86-.5,1.59-1.21,2.13-2.14,1.03-1.82,1.01-4.06-.04-5.87Z"/><path class="cls-2" d="M44.46,30.68h-.02l.05-.05-13.47-13.34h0s0-.03,0-.03h-14.52V54.03h27.97V30.68Zm-13.45-9.17l9.26,9.17h-9.26v-9.17Zm10.45,29.53H19.49V20.26h8.52v13.42h13.45v17.36Z"/></g></g></svg>