<?xml version="1.0" encoding="UTF-8"?><svg xmlns="http://www.w3.org/2000/svg" viewBox="0 0 128 128"><defs><style>.cls-1{fill:#fff;}.cls-2{fill:#ffec00;}.cls-3{fill:#00a099;}</style></defs><g id="cuadrobase"><g><rect class="cls-3" x="2" y="2" width="124" height="124" rx="22" ry="22"/><path class="cls-2" d="M104,4c11.03,0,20,8.97,20,20V104c0,11.03-8.97,20-20,20H24c-11.03,0-20-8.97-20-20V24C4,12.97,12.97,4,24,4H104m0-4H24C10.75,0,0,10.75,0,24V104C0,117.25,10.75,128,24,128H104c13.25,0,24-10.75,24-24V24c0-13.25-10.75-24-24-24h0Z"/></g></g><g id="figura"><g><path class="cls-1" d="M96.47,121.18l-26.02-76.03c-.36-1.05-1.5-1.61-2.54-1.24-1.05,.36-1.6,1.49-1.24,2.54l4.38,12.79-6.96,5.16-7.08-5.25,4.35-12.7c.36-1.04-.2-2.18-1.24-2.54-1.04-.36-2.18,.2-2.54,1.24L31.53,121.18c-.36,1.04,.2,2.18,1.24,2.54,.21,.07,.43,.11,.65,.11,.83,0,1.61-.52,1.89-1.35l7.02-20.5h11.36l-11.76,18.79c-.59,.94-.3,2.17,.63,2.76,.33,.21,.7,.31,1.06,.31,.67,0,1.32-.33,1.7-.94l13.09-20.91h11.77l12.47,20.88c.37,.63,1.04,.98,1.72,.98,.35,0,.7-.09,1.02-.28,.95-.57,1.26-1.79,.69-2.74l-11.25-18.83h10.82s0,0,0,0l7.02,20.5c.28,.83,1.06,1.35,1.89,1.35,.21,0,.43-.03,.65-.11,1.04-.36,1.6-1.49,1.24-2.54Zm-48.86-23.2l16.46-8.66,16.46,8.66H47.61Zm31.09-16.35l4.54,13.26-14.87-7.82,10.33-5.43Zm-14.63,3.17l-12.17-6.4,12.17-9.02,12.17,9.02-12.17,6.4Zm-14.75-3.24l10.46,5.5-15.05,7.92,4.59-13.42Zm23.08-18.35l3.37,9.86-8.34-6.18,4.96-3.68Zm-11.68,3.68l-8.54,6.33,3.45-10.09,5.08,3.77Z"/><circle class="cls-1" cx="64" cy="26.14" r="7.91"/><path class="cls-1" d="M40.79,42.79c1.13,1.13,2.35,2.12,3.67,2.98l.99-1.51,.99-1.5c-1.11-.72-2.15-1.57-3.1-2.52-1.76-1.76-3.15-3.82-4.11-6.1-1-2.37-1.51-4.88-1.51-7.47s.51-5.11,1.51-7.47c.97-2.29,2.35-4.34,4.11-6.1,.92-.92,1.91-1.73,2.98-2.44l-.99-1.5-.99-1.51c-1.27,.84-2.45,1.81-3.54,2.9-2.09,2.09-3.74,4.53-4.89,7.25-1.19,2.81-1.79,5.8-1.79,8.88s.6,6.06,1.79,8.88c1.15,2.72,2.79,5.15,4.89,7.25Z"/><path class="cls-1" d="M46.67,32.42c.74,1.76,1.81,3.34,3.17,4.7,.73,.73,1.54,1.39,2.4,1.95l.21,.13,1.53-2.33-.21-.14c-.7-.46-1.36-.99-1.96-1.59-2.26-2.26-3.51-5.27-3.51-8.47s1.25-6.21,3.51-8.48c.56-.57,1.19-1.08,1.85-1.52l.2-.14-1.53-2.33-.21,.14c-.82,.54-1.59,1.17-2.29,1.87-1.36,1.36-2.42,2.94-3.17,4.7-.77,1.82-1.16,3.76-1.16,5.75s.39,3.93,1.16,5.75Z"/><path class="cls-1" d="M88.77,19.27c1,2.37,1.51,4.88,1.51,7.47s-.51,5.11-1.51,7.47c-.97,2.29-2.35,4.34-4.11,6.1-.92,.92-1.91,1.73-2.98,2.44l.99,1.5,.99,1.51c1.27-.84,2.45-1.81,3.54-2.9,2.09-2.09,3.74-4.53,4.89-7.25,1.19-2.81,1.79-5.8,1.79-8.88s-.6-6.06-1.79-8.88c-1.15-2.72-2.79-5.15-4.89-7.25-1.13-1.13-2.35-2.12-3.67-2.98l-.99,1.51-.99,1.5c1.11,.72,2.15,1.57,3.1,2.52,1.76,1.76,3.15,3.82,4.11,6.1Z"/><path class="cls-1" d="M76.19,18.27c2.26,2.26,3.51,5.27,3.51,8.47s-1.25,6.21-3.51,8.48c-.56,.57-1.19,1.08-1.85,1.52l-.2,.14,1.53,2.33,.21-.14c.82-.54,1.59-1.17,2.29-1.87,1.36-1.36,2.42-2.94,3.17-4.7,.77-1.82,1.16-3.76,1.16-5.75s-.39-3.93-1.16-5.75c-.74-1.76-1.81-3.34-3.17-4.7-.73-.73-1.54-1.39-2.4-1.95l-.21-.13-1.53,2.33,.21,.14c.7,.46,1.36,.99,1.96,1.59Z"/></g></g></svg>