<?xml version="1.0" encoding="UTF-8"?><svg xmlns="http://www.w3.org/2000/svg" viewBox="0 0 128 128"><defs><style>.cls-1{fill:#008d36;}.cls-2{fill:#ffec00;}</style></defs><g id="cuadrobase"><g><rect class="cls-1" x="2" y="2" width="124" height="124" rx="22" ry="22"/><path class="cls-2" d="M104,4c11.03,0,20,8.97,20,20V104c0,11.03-8.97,20-20,20H24c-11.03,0-20-8.97-20-20V24C4,12.97,12.97,4,24,4H104m0-4H24C10.75,0,0,10.75,0,24V104C0,117.25,10.75,128,24,128H104c13.25,0,24-10.75,24-24V24c0-13.25-10.75-24-24-24h0Z"/></g></g><g id="figura"><path class="cls-2" d="M70.46,54.05l19.8-22.59-7.34-6.43-25.43,29.02H15.45v10.96l17.07,41.04h62.96l17.08-40.72v-11.27h-42.09Zm-16.79,22.44v-14.08h20.65v14.08h-20.65Zm20.65,6.24v14.95h-20.65v-14.95h20.65ZM23.81,62.41h23.63v14.08H29.28l-5.47-13.16v-.92Zm8.07,20.32h15.57v14.95h-9.35l-6.22-14.95Zm58.04,14.95h-9.36v-14.95h15.63l-6.27,14.95Zm14.28-34.04l-5.39,12.85h-18.24v-14.08h23.63v1.23Z"/></g></svg>