<?xml version="1.0" encoding="UTF-8"?><svg xmlns="http://www.w3.org/2000/svg" viewBox="0 0 128 128"><defs><style>.cls-1{fill:#f4eb45;}.cls-2{fill:#35a8e0;}.cls-3{fill:#189dd1;}</style></defs><g id="cuadrobase"><g><rect class="cls-1" x="2" y="2" width="124" height="124" rx="22" ry="22"/><path class="cls-2" d="M104,4c11.03,0,20,8.97,20,20V104c0,11.03-8.97,20-20,20H24c-11.03,0-20-8.97-20-20V24C4,12.97,12.97,4,24,4H104M104,0H24C10.75,0,0,10.75,0,24V104C0,117.25,10.75,128,24,128H104c13.25,0,24-10.75,24-24V24C128,10.75,117.25,0,104,0h0Z"/></g></g><g id="figura"><path class="cls-3" d="M95.74,104.07h-11.38v-5.32c0-2.05-1.67-3.72-3.72-3.72h-9.29V25.7h0v-3.59c0-3.34-2.71-6.05-6.05-6.05h-2.62c-3.34,0-6.05,2.71-6.05,6.05v3.23h0V95.03h-9.29c-2.05,0-3.72,1.67-3.72,3.72v5.32h-11.38c-4.35,0-7.88,3.53-7.88,7.88H103.63c0-4.35-3.53-7.88-7.88-7.88Z"/></g></svg>