<?xml version="1.0" encoding="UTF-8"?><svg xmlns="http://www.w3.org/2000/svg" viewBox="0 0 128 128"><defs><style>.cls-1{fill:#063;}.cls-2{fill:#ffec00;}.cls-3{fill:#35a8e0;}</style></defs><g id="cuadrobase"><g><rect class="cls-1" x="2" y="2" width="124" height="124" rx="22" ry="22"/><path class="cls-3" d="M104,4c11.03,0,20,8.97,20,20V104c0,11.03-8.97,20-20,20H24c-11.03,0-20-8.97-20-20V24C4,12.97,12.97,4,24,4H104m0-4H24C10.75,0,0,10.75,0,24V104C0,117.25,10.75,128,24,128H104c13.25,0,24-10.75,24-24V24c0-13.25-10.75-24-24-24h0Z"/></g></g><g id="figura"><g><rect class="cls-2" x="20.06" y="110.74" width="87.89" height="6.07"/><path class="cls-2" d="M100.13,26.52c-11.57-7.88-27.58-15.24-42.41-15.24s-17.43-.27-17.43-.27v15.51h-12.78V106.1H100.5V26.52h-.37ZM33.54,80.39v-12.38h61.56v12.38H33.54Zm15.17-55.69h9.32V15.34h9.16v9.36h9.32v9.21h-9.32v9.36h-9.16v-9.36h-9.32v-9.21Zm-15.49,25.83h61.56v12.38H33.22v-12.38Zm14.64,50.53h-14.21v-14.52h14.21v14.52Zm27.52-.07h-22.64v-14.45h22.64v14.45Zm19.24,.07h-14.21v-14.52h14.21v14.52Z"/></g></g></svg>