<?xml version="1.0" encoding="UTF-8"?><svg xmlns="http://www.w3.org/2000/svg" viewBox="0 0 128 128"><defs><style>.cls-1{fill:#008d36;}.cls-2{fill:#d9d9d9;}.cls-3{fill:#93c01f;}</style></defs><g id="cuadrobase"><g><rect class="cls-2" x="2" y="2" width="124" height="124" rx="22" ry="22"/><path class="cls-3" d="M104,4c11.03,0,20,8.97,20,20V104c0,11.03-8.97,20-20,20H24c-11.03,0-20-8.97-20-20V24C4,12.97,12.97,4,24,4H104m0-4H24C10.75,0,0,10.75,0,24V104C0,117.25,10.75,128,24,128H104c13.25,0,24-10.75,24-24V24c0-13.25-10.75-24-24-24h0Z"/></g></g><g id="figura"><g><path class="cls-1" d="M107.8,51.04h0c-4.11-1.34-8.53,.9-9.87,5.01l-6.37,22.9s-9.95-3.34-27.56-3.34-27.56,3.34-27.56,3.34l-6.37-22.9c-1.34-4.11-5.76-6.35-9.87-5.01-4.11,1.34-6.35,5.76-5.01,9.87l9.14,28H103.66l9.14-28c1.34-4.11-.9-8.53-5.01-9.87Z"/><polygon class="cls-1" points="30.89 108.03 34.54 108.03 37.6 95.43 30.89 95.43 30.89 108.03"/><polygon class="cls-1" points="93.46 108.03 97.11 108.03 97.11 95.43 90.4 95.43 93.46 108.03"/><path class="cls-1" d="M21.89,37.91c3.57-.34,10.33,1.81,11.48,5.36l4.98,17.9s8.1-4.11,25.64-4.11,25.64,4.11,25.64,4.11l4.98-17.9c1.16-3.55,7.92-5.7,11.48-5.36,0,0,1.12,.07,1.96-5.11,.84-5.17-3.04-8.21-7.33-9.19-8.59-1.96-23.37-4.8-36.74-4.8s-28.14,2.84-36.74,4.8c-4.29,.98-7.38,5.03-7.33,9.19s1.96,5.11,1.96,5.11Z"/></g></g></svg>