<?xml version="1.0" encoding="UTF-8"?><svg xmlns="http://www.w3.org/2000/svg" viewBox="0 0 128 128"><defs><style>.cls-1{fill:#925f36;}.cls-2{fill:#dddb00;}.cls-3{fill:#35a8e0;}</style></defs><g id="cuadrobase"><g><rect class="cls-2" x="2" y="2" width="124" height="124" rx="22" ry="22"/><path class="cls-3" d="M104,4c11.03,0,20,8.97,20,20V104c0,11.03-8.97,20-20,20H24c-11.03,0-20-8.97-20-20V24C4,12.97,12.97,4,24,4H104m0-4H24C10.75,0,0,10.75,0,24V104c0,13.25,10.75,24,24,24H104c13.25,0,24-10.75,24-24V24c0-13.25-10.75-24-24-24h0Z"/></g></g><g id="figura"><g><path class="cls-1" d="M80.58,69.09c-1.94,.63-2.86,3.03-3.26,5.76-.29,3.13-6.79-1.86-4.13-2.94,2.45-1.23,4.46-2.86,4.46-4.94,0-5.38-11.12-.92-13.65-4.05-2.45,3.13-13.65-1.33-13.65,4.05,0,2.05,2.03,3.68,4.54,4.9,2.72,1.93-3.5,5.31-4.08,2.85-.41-2.68-1.34-5.04-3.29-5.68-5.11-1.68-4.34,10.27-8.1,11.7,2.21,3.31-5.52,12.55-.41,14.23,1.82,.6,3.83-.6,5.66-2.38,2.6-2.56,5.44,4.82,1.24,4.27-2.44-.32-4.7-.08-5.82,1.45-3.19,4.33,8.41,7.33,8.59,11.35,3.83-1.07,10.21,9.16,13.39,4.82,1.07-1.46,.68-3.57-.32-5.74-1.05-2.57,1.52-2.73,2.27-2.73,.69,0,3.22,.2,2.01,2.76-.96,2.14-1.34,4.24-.27,5.72,3.15,4.36,9.54-5.77,13.43-4.73,.15-3.97,11.83-6.93,8.68-11.28-1.11-1.53-3.39-1.75-5.88-1.41-3.91,.63-1.25-6.73,1.31-4.32,1.82,1.74,3.83,2.92,5.67,2.32,5.12-1.65-2.54-10.86-.34-14.23-3.73-1.37-2.93-13.39-8.05-11.74Zm-33.74,15.28l-4.74-1.66,.82-2.33,4.74,1.66-.82,2.33Zm18.35-17.97l.05,5.02-2.47,.02-.05-5.02,2.47-.02Zm-14.02,41.76l-1.98-1.48,3.01-4.02,1.98,1.48-3.01,4.02Zm25.53,.11l-3.04-4,1.96-1.49,3.04,4-1.96,1.49Zm-12.7-5.57s-13.37-9.88-13.37-17.26,8.72-9.58,13.37-5.43c4.26-4.44,13.37-1.95,13.37,5.43s-13.37,17.26-13.37,17.26Zm22.06-19.5l-4.75,1.62-.8-2.34,4.75-1.62,.8,2.34Z"/><polygon class="cls-1" points="66.38 81.34 61.62 81.34 61.62 85.27 57.26 85.27 57.26 89.99 61.62 89.99 61.62 99.15 66.38 99.15 66.38 89.99 70.74 89.99 70.74 85.27 66.38 85.27 66.38 81.34"/><path class="cls-1" d="M87.86,55.83v-7.66h11.18L64,11.06,28.96,48.17h11.18v7.66l-31.14,21.43h14.2v46.74H104.8v-46.74h14.2l-31.14-21.43Zm-23.86,63.45c-16.56,0-30.03-13.47-30.03-30.03s13.47-30.03,30.03-30.03,30.03,13.47,30.03,30.03-13.47,30.03-30.03,30.03Z"/></g></g></svg>