<?xml version="1.0" encoding="UTF-8"?><svg xmlns="http://www.w3.org/2000/svg" viewBox="0 0 128 128"><defs><style>.cls-1{fill:#35a8e0;}.cls-2{fill:#93c01f;}.cls-3{fill:#2d2e82;}</style></defs><g id="cuadrobase"><g><rect class="cls-2" x="2" y="2" width="124" height="124" rx="22" ry="22"/><path class="cls-1" d="M104,4c11.03,0,20,8.97,20,20V104c0,11.03-8.97,20-20,20H24c-11.03,0-20-8.97-20-20V24C4,12.97,12.97,4,24,4H104m0-4H24C10.75,0,0,10.75,0,24V104C0,117.25,10.75,128,24,128H104c13.25,0,24-10.75,24-24V24c0-13.25-10.75-24-24-24h0Z"/></g></g><g id="figura"><g><path class="cls-3" d="M52.05,93.26h5.83V59.24c-1.98,.22-3.92,.53-5.83,.92v33.1Z"/><path class="cls-3" d="M61.09,58.98v34.28h5.83V59.01c-1.06-.07-2.13-.11-3.2-.11-.88,0-1.76,.03-2.63,.08Z"/><path class="cls-3" d="M70.12,93.26h5.83V60.29c-1.89-.41-3.84-.74-5.83-.98v33.95Z"/><path class="cls-3" d="M88.29,56.58c-7.21-1.92-15.38-2.9-24.29-2.9s-16.51,.91-23.53,2.7c-.54,.14-.86,.68-.72,1.22,.14,.54,.68,.86,1.22,.72,6.86-1.75,14.61-2.64,23.04-2.64s16.74,.95,23.77,2.83c.09,.02,.17,.03,.26,.03,.44,0,.85-.3,.97-.74,.14-.53-.17-1.08-.71-1.22Z"/><rect class="cls-3" x="36.96" y="24.85" width="54.07" height="10.14"/><rect class="cls-3" x="36.96" y="39.09" width="54.07" height="10.14"/><path class="cls-3" d="M118.77,65.48h-21.77V18.02H31v47.46H9.23v44.38h15.87s77.81,0,77.81,0h0s15.87,0,15.87,0v-44.38Zm-24.77-44.46v54.75c-2.7-.83-5.83-1.76-9.02-2.63v-10.28c-1.84-.64-3.79-1.25-5.83-1.79v32.2h5.83v-17.01c6.43,1.79,12.56,3.77,14.92,4.54v26.08h-3.52v-24.69h-2.63v24.69h-2.04v-24.69h-2.63v24.69h-4.11v-11.68h-5.75v11.68h-2.43v-11.91h-11.6v11.91h-1.73v-11.91h-11.6v11.91h-3.07v-11.68h-5.75v11.68h-4.4v-24.69h-2.63v24.69h-2.04v-24.69h-2.63v24.69h-3.24v-26.12c2.24-.83,8.16-2.95,14.92-4.79v17.3h5.83V60.89c-2.02,.51-3.97,1.08-5.83,1.7v10.27c-3.28,.87-6.38,1.82-9.02,2.67V21.02h60ZM12.23,106.87v-38.38H31v8.04c-2.99,1.03-4.9,1.77-4.94,1.78l-.96,.37v28.19H12.23Zm103.54,0h-12.87v-28.24l-1.02-.34s-1.96-.66-4.88-1.58v-8.22h18.77v38.38Z"/><rect class="cls-3" x="15.69" y="72.54" width="3.83" height="3.44"/><rect class="cls-3" x="15.69" y="78.47" width="3.83" height="3.44"/><rect class="cls-3" x="15.69" y="93.13" width="3.83" height="3.44"/><rect class="cls-3" x="15.69" y="99.06" width="3.83" height="3.44"/><rect class="cls-3" x="108.74" y="72.54" width="3.83" height="3.44"/><rect class="cls-3" x="108.74" y="78.47" width="3.83" height="3.44"/><rect class="cls-3" x="108.74" y="93.13" width="3.83" height="3.44"/><rect class="cls-3" x="108.74" y="99.06" width="3.83" height="3.44"/></g></g></svg>