<?xml version="1.0" encoding="UTF-8"?><svg xmlns="http://www.w3.org/2000/svg" viewBox="0 0 128 128"><defs><style>.cls-1{fill:#008d36;}.cls-2{fill:#ffec00;}</style></defs><g id="cuadrobase"><g><rect class="cls-1" x="2" y="2" width="124" height="124" rx="22" ry="22"/><path class="cls-2" d="M104,4c11.03,0,20,8.97,20,20V104c0,11.03-8.97,20-20,20H24c-11.03,0-20-8.97-20-20V24C4,12.97,12.97,4,24,4H104m0-4H24C10.75,0,0,10.75,0,24V104C0,117.25,10.75,128,24,128H104c13.25,0,24-10.75,24-24V24c0-13.25-10.75-24-24-24h0Z"/></g></g><g id="figura"><g><path class="cls-2" d="M67.31,84.58c.83,0,1.5-.67,1.5-1.5v-10.34c0-.83-.67-1.5-1.5-1.5s-1.5,.67-1.5,1.5v10.34c0,.83,.67,1.5,1.5,1.5Z"/><path class="cls-2" d="M78.54,83.08v-22.19c0-.83-.67-1.5-1.5-1.5s-1.5,.67-1.5,1.5v22.19c0,.83,.67,1.5,1.5,1.5s1.5-.67,1.5-1.5Z"/><path class="cls-2" d="M87.16,84.58c.83,0,1.5-.67,1.5-1.5V48.25c0-.83-.67-1.5-1.5-1.5s-1.5,.67-1.5,1.5v34.83c0,.83,.67,1.5,1.5,1.5Z"/><path class="cls-2" d="M97.15,84.58c.83,0,1.5-.67,1.5-1.5V48.25c0-.83-.67-1.5-1.5-1.5s-1.5,.67-1.5,1.5v34.83c0,.83,.67,1.5,1.5,1.5Z"/><path class="cls-2" d="M107.65,73.79c.83,0,1.5-.67,1.5-1.5v-16.5c0-.83-.67-1.5-1.5-1.5s-1.5,.67-1.5,1.5v16.5c0,.83,.67,1.5,1.5,1.5Z"/><path class="cls-2" d="M112.4,48.56c-5.29-8.99-12.51-13.98-20.37-14.09v-9.72l5.67-2.32c.45-.18,.75-.56,.87-.99,0,0,0-.02,.01-.03,0-.02,0-.03,0-.05,0-.01,0-.03,0-.04,.19-.76-.24-1.55-1.01-1.79l-5.66-1.76c-.21-.58-.76-1-1.41-1-.83,0-1.5,.67-1.5,1.5v16.35c-12.57,1.65-16,14.65-18.1,22.63-.61,2.3-1.18,4.47-1.71,5.2-2.33,3.17-4.44,4.19-6.82,5.19-.02-2.37-.48-4.64-1.28-6.73h0c1.16-.8,1.46-2.41,.65-3.58l-1.17-1.69c-.73-1.06-2.12-1.39-3.24-.84-2.77-3.05-6.49-5.21-10.7-6-.19-1.23-1.25-2.19-2.53-2.19h-2.06c-1.28,0-2.35,.96-2.53,2.19-4.52,.85-8.49,3.26-11.31,6.67-.46-.11-.96-.09-1.44,.08l-1.35,.48c-1.33,.48-2.03,1.96-1.55,3.29l.7,1.94c.05,.15,.12,.29,.2,.42-.64,1.92-1,3.96-1,6.09,0,1.44,.17,2.84,.47,4.19h-6.55V30.11l11.3-3.93c.78-.27,1.2-1.13,.92-1.91-.03-.09-.07-.17-.12-.25-.15-.4-.47-.74-.91-.88l-11.2-3.8v-1.06c0-.83-.67-1.5-1.5-1.5s-1.5,.67-1.5,1.5V102.22H5.41c-.83,0-1.5,.67-1.5,1.5s.67,1.5,1.5,1.5H98.51c6.97,0,12.64-3.02,16.38-8.74,3.24-4.95,4.95-11.73,4.95-19.6,0-9.81-2.78-20.4-7.43-28.32Zm-20.37-27.61l.78,.24-.78,.32v-.56Zm-52.23,30.85c.43,.82,1.28,1.39,2.27,1.39h2.06c.99,0,1.84-.57,2.27-1.39,3.39,.7,6.39,2.47,8.66,4.92-.43,.82-.42,1.85,.14,2.66l1.17,1.69c.48,.69,1.24,1.07,2.03,1.1,.64,1.75,1.01,3.63,1.01,5.6,0,1.72-.27,3.37-.77,4.93-.68,.2-1.27,.67-1.59,1.35l-.88,1.86c-.27,.57-.3,1.19-.14,1.76-1.41,1.83-3.18,3.36-5.22,4.46l-3.12-10.53c.87-1.04,1.4-2.38,1.4-3.84,0-3.3-2.68-5.98-5.98-5.98s-5.98,2.68-5.98,5.98c0,1.39,.48,2.66,1.28,3.68l-2.85,10.76c-2.07-1.09-3.88-2.62-5.31-4.45,.45-.83,.44-1.87-.13-2.69l-1.17-1.69c-.36-.53-.9-.86-1.47-1.01-.43-1.46-.67-3-.67-4.59,0-1.7,.26-3.33,.75-4.87,.11-.02,.23-.04,.34-.08l1.35-.48c1.33-.48,2.03-1.96,1.55-3.29l-.48-1.34c2.34-2.97,5.67-5.11,9.51-5.9Zm-.26,34.94c.21,1.21,1.26,2.15,2.53,2.15h2.06c1.27,0,2.32-.93,2.53-2.15,.76-.14,1.5-.32,2.22-.54l4.75,16.02h-20.29l4.23-15.95c.64,.19,1.3,.35,1.97,.47Zm6.88-3c-.42-.84-1.29-1.43-2.29-1.43h-2.06c-1,0-1.87,.59-2.29,1.43-.49-.1-.97-.23-1.44-.37l2.65-10.01c.66,.25,1.37,.39,2.11,.39,.7,0,1.36-.13,1.99-.35l2.94,9.91c-.52,.17-1.06,.31-1.6,.42Zm-3.32-12.99c-1.64,0-2.98-1.34-2.98-2.98s1.34-2.98,2.98-2.98,2.98,1.34,2.98,2.98-1.34,2.98-2.98,2.98ZM24.16,24.69l-6.44,2.24v-4.43l6.44,2.18Zm-6.44,50.27h5.46c-.2,.71-.1,1.5,.35,2.15l1.17,1.69c.73,1.05,2.1,1.38,3.22,.85,1.82,2.32,4.16,4.21,6.84,5.5l-4.52,17.05h-12.52v-27.25Zm94.66,19.87c-3.2,4.9-7.87,7.38-13.86,7.38H56.76l-5.09-17.16c2.56-1.28,4.8-3.09,6.56-5.32l.47,.22c1.28,.6,2.82,.05,3.42-1.23l.88-1.86c.6-1.28,.05-2.82-1.23-3.42l-.19-.09c.23-.76,.4-1.54,.53-2.33,.31-.13,.61-.26,.91-.39,2.76-1.15,5.61-2.33,8.61-6.4,.87-1.19,1.43-3.29,2.2-6.21,2.07-7.85,5.16-19.55,16.44-20.5,.08,.01,.17,.03,.25,.03,.15,0,.29-.03,.43-.07,.27-.01,.53-.03,.81-.03,14.77,0,25.07,20.78,25.07,39.42,0,7.29-1.54,13.5-4.46,17.96Z"/><path class="cls-2" d="M72.25,90.02h-6.47c-3.49,0-6.34,2.85-6.34,6.34v2.12c0,.52,.42,.94,.94,.94h11.87c.52,0,.94-.42,.94-.94v-7.52c0-.52-.42-.94-.94-.94Z"/><path class="cls-2" d="M85.38,90.02h-5.02c-1.88,0-3.4,1.52-3.4,3.4v5.78c0,.12,.1,.22,.22,.22h11.38c.12,0,.22-.1,.22-.22v-5.78c0-1.88-1.52-3.4-3.4-3.4Z"/><path class="cls-2" d="M99.77,88.75l-4.98,.67c-1.86,.25-3.16,1.96-2.91,3.82l.77,5.73c.02,.12,.13,.2,.25,.19l11.28-1.53c.12-.02,.2-.13,.19-.25l-.78-5.73c-.25-1.86-1.96-3.16-3.82-2.91Z"/><path class="cls-2" d="M113.02,78.96l-5.62-1.34c-1.83-.43-3.66,.69-4.09,2.52l-1.16,4.89c-.43,1.83,.69,3.66,2.52,4.09l5.62,1.34c.12,.03,.24-.04,.26-.16l2.63-11.07c.03-.12-.04-.24-.16-.26Z"/></g></g></svg>