<?xml version="1.0" encoding="UTF-8"?><svg xmlns="http://www.w3.org/2000/svg" viewBox="0 0 128 128"><defs><style>.cls-1{fill:#e9a1c7;}.cls-2{fill:#e20613;}.cls-3{fill:#35a8e0;}</style></defs><g id="cuadrobase"><g><rect class="cls-2" x="2" y="2" width="124" height="124" rx="22" ry="22"/><path class="cls-3" d="M104,4c11.03,0,20,8.97,20,20V104c0,11.03-8.97,20-20,20H24c-11.03,0-20-8.97-20-20V24C4,12.97,12.97,4,24,4H104m0-4H24C10.75,0,0,10.75,0,24V104c0,13.25,10.75,24,24,24H104c13.25,0,24-10.75,24-24V24c0-13.25-10.75-24-24-24h0Z"/></g></g><g id="figura"><path class="cls-1" d="M64,9.55c-26.35,0-47.71,21.36-47.71,47.71s38.71,61.19,47.71,61.19c8.49,0,47.71-34.85,47.71-61.19S90.35,9.55,64,9.55Zm20.24,15.2c4.59,2.92,8.49,6.83,11.38,11.44h-11.38v-11.44Zm-37.53,62.4c-5.6-3.2-10.26-7.84-13.49-13.42h13.49v13.42Zm0-23.73H29.2c-.56-2.55-.87-5.19-.87-7.91,0-3.11,.39-6.13,1.13-9.02h17.25v16.93Zm0-27.23h-12.83c3.19-5.09,7.6-9.33,12.83-12.31v12.31Zm27.23,54.57c-2.93,.76-6.01,1.17-9.19,1.17-2.66,0-5.25-.29-7.74-.83v-17.38h16.93v17.04Zm0-27.34h-16.93v-16.93h16.93v16.93Zm0-27.23h-16.93V19.92c2.5-.54,5.08-.83,7.74-.83,3.17,0,6.25,.41,9.19,1.17v15.93Zm10.3,50.08v-12.55h12.05c-2.95,5.09-7.09,9.4-12.05,12.55Zm0-22.86v-16.93h15.81c.73,2.88,1.13,5.91,1.13,9.02,0,2.72-.31,5.36-.87,7.91h-16.06Z"/></g></svg>