<?xml version="1.0" encoding="UTF-8"?><svg xmlns="http://www.w3.org/2000/svg" viewBox="0 0 128 128"><defs><style>.cls-1{fill:#ffec00;}.cls-2{fill:#662482;}</style></defs><g id="cuadrobase"><g><rect class="cls-2" x="2" y="2" width="124" height="124" rx="22" ry="22"/><path class="cls-1" d="M104,4c11.03,0,20,8.97,20,20V104c0,11.03-8.97,20-20,20H24c-11.03,0-20-8.97-20-20V24C4,12.97,12.97,4,24,4H104m0-4H24C10.75,0,0,10.75,0,24V104C0,117.25,10.75,128,24,128H104c13.25,0,24-10.75,24-24V24c0-13.25-10.75-24-24-24h0Z"/></g></g><g id="figura"><g><polygon class="cls-1" points="55.85 26.57 4.21 21.8 4.24 37.61 55.88 32.87 55.85 26.57"/><polygon class="cls-1" points="72.14 26.53 72.14 32.84 123.87 37.6 123.87 21.8 72.14 26.53"/><path class="cls-1" d="M74.85,22.73c0-4.82-3.91-8.74-8.74-8.74h-4.03c-4.83,0-8.74,3.91-8.74,8.74v.7h21.5v-.7Z"/><polygon class="cls-1" points="52.84 99.09 75.52 99.09 74.82 88.47 53.54 88.47 52.84 99.09"/><polygon class="cls-1" points="53.76 83.89 74.61 83.89 73.9 73.26 54.46 73.26 53.76 83.89"/><polygon class="cls-1" points="52.63 103.24 51.03 124.01 77.34 124.01 75.74 103.24 52.63 103.24"/><path class="cls-1" d="M52.57,46c0,1.8,1.21,3.26,2.71,3.33h17.28c1.51-.06,2.71-1.53,2.71-3.33v-8.64h-22.7v8.64Z"/><polygon class="cls-1" points="55.38 58.06 54.68 68.68 73.69 68.68 72.99 58.06 55.38 58.06"/></g></g></svg>