<?xml version="1.0" encoding="UTF-8"?><svg xmlns="http://www.w3.org/2000/svg" viewBox="0 0 128 128"><defs><style>.cls-1{fill:#fff;}.cls-2{fill:#ffec00;}.cls-3{fill:#29235c;}</style></defs><g id="cuadrobase"><g><rect class="cls-3" x="2" y="2" width="124" height="124" rx="22" ry="22"/><path class="cls-2" d="M104,4c11.03,0,20,8.97,20,20V104c0,11.03-8.97,20-20,20H24c-11.03,0-20-8.97-20-20V24C4,12.97,12.97,4,24,4H104m0-4H24C10.75,0,0,10.75,0,24V104c0,13.25,10.75,24,24,24H104c13.25,0,24-10.75,24-24V24c0-13.25-10.75-24-24-24h0Z"/></g></g><g id="figura"><g><path class="cls-1" d="M100.23,75.45l-9.02,.04V41.97h9.87v-4.75h-26.27v-4.31h-21.63v4.31H25.15v4.75h11.64v33.62h-12.79v6.56h3.55l.23,33.55,72.73-.28-.22-33.27h3.73v-6.56h-3.77v-.14ZM43.19,41.97h9.99v2.07h9.75v3.73c-5.4,.58-6.87,5.81-6.87,8.66h2c0-.27,.1-6.71,5.88-6.71s7.02,6.43,7.06,6.7l1.98-.31c-.42-2.72-2.61-7.7-7.9-8.32v-3.74h9.74v-2.07h9.99v33.54l-20.88,.08h-20.74V41.97Z"/><polygon class="cls-1" points="64.21 16.64 89.76 30.56 98.37 30.56 64.21 11.94 29.63 30.56 38.35 30.56 64.21 16.64"/><polygon class="cls-1" points="69.2 69.39 74.1 58.93 54.89 58.93 59.78 69.39 69.2 69.39"/><rect class="cls-1" x="108.78" y="49.72" width="9.66" height="3.96"/><rect class="cls-1" x="103.56" y="40.01" width="3.17" height="12.74"/></g></g></svg>