<?xml version="1.0" encoding="UTF-8"?><svg xmlns="http://www.w3.org/2000/svg" viewBox="0 0 128 128"><defs><style>.cls-1{fill:#f4eb45;}.cls-2{fill:#35a8e0;}.cls-3{fill:#189dd1;}</style></defs><g id="cuadrobase"><g><rect class="cls-1" x="2" y="2" width="124" height="124" rx="22" ry="22"/><path class="cls-2" d="M104,4c11.03,0,20,8.97,20,20V104c0,11.03-8.97,20-20,20H24c-11.03,0-20-8.97-20-20V24C4,12.97,12.97,4,24,4H104m0-4H24C10.75,0,0,10.75,0,24V104C0,117.25,10.75,128,24,128H104c13.25,0,24-10.75,24-24V24c0-13.25-10.75-24-24-24h0Z"/></g></g><g id="figura"><g><rect class="cls-3" x="54.48" y="-9.06" width="7" height="62.49" transform="translate(24.8 74.64) rotate(-78.62)"/><path class="cls-3" d="M82.22,72.2V35.77l-48.48-9.45v45.88h48.48ZM42.06,38.22h32.07v11.66H42.06v-11.66Z"/><path class="cls-3" d="M109.9,65.91v-3.48h-1.79v-5.91h-3.23v5.91h-12.08v-5.91h-3.23v5.91h-1.54v3.48h1.54v9.9h-1.54v3.48h1.54v9.9h-1.54v3.48h1.54v9.9h-1.54v3.48h1.54v9.9h-1.54v2.33l-6.04-31.67h5.42v-7.01H28.56v7.01h5.42l-7.13,37.38h6.88l7.38-37.38h33.76l7.38,37.38h6.88l-.87-4.56h1.33v4.56h3.23v-4.56h12.08v4.56l3.23-.37v-4.19h1.79v-3.48h-1.79v-9.9h1.79v-3.48h-1.79v-9.9h1.79v-3.48h-1.79v-9.9h1.79v-3.48h-1.79v-9.9h1.79Zm-5.02,50.05h-12.08v-9.9h12.08v9.9Zm0-13.38h-12.08v-9.9h12.08v9.9Zm0-13.38h-12.08v-9.9h12.08v9.9Zm0-13.38h-12.08v-9.9h12.08v9.9Z"/></g></g></svg>