<?xml version="1.0" encoding="UTF-8"?><svg xmlns="http://www.w3.org/2000/svg" viewBox="0 0 128 128"><defs><style>.cls-1{fill:#e9a1c7;}.cls-2{fill:#35a8e0;}.cls-3{fill:#29235c;}</style></defs><g id="cuadrobase"><g><rect class="cls-3" x="2" y="2" width="124" height="124" rx="22" ry="22"/><path class="cls-2" d="M104,4c11.03,0,20,8.97,20,20V104c0,11.03-8.97,20-20,20H24c-11.03,0-20-8.97-20-20V24C4,12.97,12.97,4,24,4H104m0-4H24C10.75,0,0,10.75,0,24V104C0,117.25,10.75,128,24,128H104c13.25,0,24-10.75,24-24V24c0-13.25-10.75-24-24-24h0Z"/></g></g><g id="figura"><g><path class="cls-1" d="M22.05,54.45c7.74-20.95,29.21-32.79,50.78-28.45l-15.02,9.25,2.1,3.41,20.45-12.6-14.06-19.48-3.25,2.34,9.33,12.93c-23.07-4.04-45.81,8.8-54.09,31.23-1.24,3.36-2.11,6.84-2.59,10.35l3.96,.54c.44-3.23,1.24-6.43,2.38-9.51Z"/><path class="cls-1" d="M48.58,112.07c-12.56-4.64-22.39-14.72-26.79-27.29l15.57,8.25,1.87-3.54-21.23-11.24-9.67,21.99,3.66,1.61,6.44-14.64c4.98,13.17,15.46,23.69,28.76,28.61,5.48,2.03,11.21,3.04,16.94,3.04,6.21,0,12.4-1.19,18.27-3.56l-1.5-3.71c-10.36,4.18-21.84,4.35-32.33,.48Z"/><path class="cls-1" d="M116.72,101.06l-15.92,1.19c3.95-4.49,7.03-9.62,9.14-15.33,7.46-20.19,1.02-42.56-16.03-55.66l-2.44,3.17c15.65,12.03,21.56,32.57,14.72,51.11-2.07,5.6-5.15,10.61-9.15,14.92l-.03-17.65h-4s.05,24.03,.05,24.03l23.96-1.79-.3-3.99Z"/><path class="cls-1" d="M51.6,67.78c0,7.31,5.95,13.26,13.26,13.26s13.25-5.95,13.25-13.26-5.95-13.25-13.25-13.25-13.26,5.95-13.26,13.25Zm22.51,0c0,5.1-4.15,9.26-9.25,9.26s-9.26-4.15-9.26-9.26,4.15-9.25,9.26-9.25,9.25,4.15,9.25,9.25Z"/></g></g></svg>