<?xml version="1.0" encoding="UTF-8"?><svg xmlns="http://www.w3.org/2000/svg" viewBox="0 0 128 128"><defs><style>.cls-1{fill:#f8b133;}.cls-2{fill:#063;}.cls-3{fill:#fff;}</style></defs><g id="cuadrobase"><g><rect class="cls-2" x="2" y="2" width="124" height="124" rx="22" ry="22"/><path class="cls-1" d="M104,4c11.03,0,20,8.97,20,20V104c0,11.03-8.97,20-20,20H24c-11.03,0-20-8.97-20-20V24C4,12.97,12.97,4,24,4H104m0-4H24C10.75,0,0,10.75,0,24V104C0,117.25,10.75,128,24,128H104c13.25,0,24-10.75,24-24V24c0-13.25-10.75-24-24-24h0Z"/></g></g><g id="figura"><g><path class="cls-3" d="M55.08,27c1.67,0,3.03-1.36,3.03-3.03h-16.53c0,1.67,1.36,3.03,3.03,3.03h10.47Z"/><path class="cls-3" d="M124.02,97.16h-21.41v-20.49c0-2.4-1.64-4.4-3.86-4.98V26.45l-29.93-11.61c-.51-1.89-2.21-3.28-4.26-3.28h-18.9c-2.41,0-4.37,1.95-4.37,4.37v4.5h23.27c1.38,0,2.59-.64,3.4-1.63l26.78,10.39v42.53c-2.16,.62-3.76,2.59-3.76,4.95v20.49h-10.98v7.03H3.99c0,10.92,8.86,19.78,19.78,19.78H104.23c10.86,0,19.66-8.75,19.77-19.58h.02v-7.23Z"/></g></g></svg>