<?xml version="1.0" encoding="UTF-8"?><svg xmlns="http://www.w3.org/2000/svg" viewBox="0 0 128 128"><defs><style>.cls-1{fill:#d9d9d9;}.cls-2{fill:#1d70b7;}.cls-3{fill:#35a8e0;}</style></defs><g id="cuadrobase"><g><rect class="cls-1" x="2" y="2" width="124" height="124" rx="22" ry="22"/><path class="cls-3" d="M104,4c11.03,0,20,8.97,20,20V104c0,11.03-8.97,20-20,20H24c-11.03,0-20-8.97-20-20V24C4,12.97,12.97,4,24,4H104m0-4H24C10.75,0,0,10.75,0,24V104C0,117.25,10.75,128,24,128H104c13.25,0,24-10.75,24-24V24c0-13.25-10.75-24-24-24h0Z"/></g></g><g id="figura"><g><rect class="cls-2" x="33.47" y="58.57" width="61.35" height="10.01"/><polygon class="cls-2" points="32.25 83.48 16.74 83.48 16.74 93.49 28.82 93.49 32.25 83.48"/><polygon class="cls-2" points="95.75 83.48 99.18 93.49 111.26 93.49 111.26 83.48 95.75 83.48"/><polygon class="cls-2" points="64.44 83.48 63.84 83.48 52.36 83.48 48.93 93.49 63.84 93.49 64.44 93.49 79.35 93.49 75.93 83.48 64.44 83.48"/><polygon class="cls-2" points="39.41 76.48 27.84 108.92 39.89 109.19 51.46 76.74 39.41 76.48"/><polygon class="cls-2" points="76.83 76.74 88.39 109.19 100.44 108.92 88.87 76.48 76.83 76.74"/><path class="cls-2" d="M48.3,45.7c0,3.47,2.81,6.28,6.28,6.28h17.06c3.47,0,6.28-2.81,6.28-6.28v-6.88c.95-2.11,1.5-4.45,1.5-6.92,0-9.18-7.32-16.65-16.31-16.65s-16.31,7.47-16.31,16.65c0,2.47,.54,4.81,1.5,6.92v6.88Zm14.81-27.44c7.34,0,13.31,6.12,13.31,13.65,0,1.11-.15,2.19-.39,3.23h-25.83c-.25-1.04-.39-2.12-.39-3.23,0-7.52,5.97-13.65,13.31-13.65Z"/></g></g></svg>