<?xml version="1.0" encoding="UTF-8"?><svg xmlns="http://www.w3.org/2000/svg" viewBox="0 0 128 128"><defs><style>.cls-1{fill:#ffec00;}.cls-2{fill:#d60b51;}</style></defs><g id="cuadrobase"><g><rect class="cls-1" x="2" y="2" width="124" height="124" rx="22" ry="22"/><path class="cls-1" d="M104,4c11.03,0,20,8.97,20,20V104c0,11.03-8.97,20-20,20H24c-11.03,0-20-8.97-20-20V24C4,12.97,12.97,4,24,4H104m0-4H24C10.75,0,0,10.75,0,24V104c0,13.25,10.75,24,24,24H104c13.25,0,24-10.75,24-24V24c0-13.25-10.75-24-24-24h0Z"/></g></g><g id="figura"><g><rect class="cls-2" x="31.52" y="19.77" width="2.45" height="3.89"/><path class="cls-2" d="M24.92,46.67h15.65c2.54-2.2,4.17-5.44,4.17-9.06,0-6.16-4.65-11.23-10.62-11.91h-2.74c-5.98,.68-10.62,5.75-10.62,11.91,0,3.63,1.62,6.87,4.17,9.06Z"/><rect class="cls-2" x="25.19" y="50.13" width="15.11" height="20.36"/><rect class="cls-2" x="94.03" y="19.77" width="2.45" height="3.89"/><path class="cls-2" d="M87.43,46.67h15.65c2.54-2.2,4.17-5.44,4.17-9.06,0-6.16-4.65-11.23-10.62-11.91h-2.74c-5.98,.68-10.62,5.75-10.62,11.91,0,3.63,1.62,6.87,4.17,9.06Z"/><rect class="cls-2" x="87.7" y="50.13" width="15.11" height="20.36"/><g><polygon class="cls-2" points="50.96 87.54 53.41 83.29 48.5 83.29 50.96 87.54"/><polygon class="cls-2" points="64 110.13 66.46 105.88 61.54 105.88 64 110.13"/><polygon class="cls-2" points="48.5 101.18 53.41 101.18 50.96 96.93 48.5 101.18"/><polygon class="cls-2" points="64 74.34 61.54 78.59 66.46 78.59 64 74.34"/><polygon class="cls-2" points="77.04 87.54 79.5 83.29 74.59 83.29 77.04 87.54"/><path class="cls-2" d="M83.94,73.75v-19.81l-20.63-20.09-19.26,20.09v19.81H19.25v49.68s2.14,.57,4.28,.57H103.86c3.11,0,4.89-.57,4.89-.57v-49.68h-24.8Zm3.69,32.12h-15.75l-7.88,13.64-7.88-13.64h-15.75l7.88-13.64-7.88-13.64h15.75l7.88-13.64,7.88,13.64h15.75l-7.88,13.64,7.88,13.64Z"/><polygon class="cls-2" points="58.83 83.29 53.67 92.23 58.83 101.18 69.17 101.18 74.33 92.23 69.17 83.29 58.83 83.29"/><polygon class="cls-2" points="74.59 101.18 79.5 101.18 77.04 96.93 74.59 101.18"/></g></g></g></svg>