<?xml version="1.0" encoding="UTF-8"?><svg xmlns="http://www.w3.org/2000/svg" viewBox="0 0 128 128"><defs><style>.cls-1{fill:#f8b133;}.cls-2{fill:#063;}.cls-3{fill:#fff;}</style></defs><g id="cuadrobase"><g><rect class="cls-2" x="2" y="2" width="124" height="124" rx="22" ry="22"/><path class="cls-1" d="M104,4c11.03,0,20,8.97,20,20V104c0,11.03-8.97,20-20,20H24c-11.03,0-20-8.97-20-20V24C4,12.97,12.97,4,24,4H104m0-4H24C10.75,0,0,10.75,0,24V104c0,13.25,10.75,24,24,24H104c13.25,0,24-10.75,24-24V24c0-13.25-10.75-24-24-24h0Z"/></g></g><g id="figura"><g><path class="cls-3" d="M60.67,50.9c3.62,0,6.56-2.93,6.56-6.54s-2.94-6.54-6.56-6.54-6.55,2.93-6.55,6.54,2.93,6.54,6.55,6.54Z"/><path class="cls-3" d="M84.41,73c-.04-.76-.47-7.58-3.76-13.33-3.25-5.68-7.81-9.01-8.32-9.37-2.02-1.43-4.81-.95-6.25,1.06-.3,.42-.5,.88-.63,1.34-.14,.15-.27,.32-.38,.51l-9.38,16.24c-.4,.69-.47,1.48-.28,2.2-2.72,.02-6.46,.35-7.65,5.89-1.77,8.25-4.09,23.05-4.75,27.31h4.05c.46-2.96,1.44-9.19,2.51-15.38h14.65c1.1,5.92,1.34,7.61,1.34,7.63l3.96-.55c-.02-.14-.52-3.64-3.5-18.98-.74-3.8-2.66-5.22-4.69-5.72l7.42-12.85c1.19,1.12,2.82,2.88,4.09,5.11,2.26,3.95,2.58,9.28,2.58,9.32,.02,.32,.07,.63,.15,.93v26.21c0,2.38,1.95,4.33,4.33,4.33h.16c2.38,0,4.33-1.95,4.33-4.33v-26.68c0-.06-.01-.11-.02-.17,.03-.24,.05-.49,.04-.74Zm-20.69,13.81h-13.67c.55-3.08,1.11-6.03,1.62-8.41,.59-2.72,1.58-2.73,4.24-2.73,.33,0,.66,0,.99,0,.27,0,.55-.02,.82-.03,2.86-.1,3.83-.14,4.38,2.72,.65,3.36,1.19,6.14,1.62,8.45Z"/><circle class="cls-3" cx="68.61" cy="101.97" r="3.15"/><path class="cls-3" d="M107.47,105.59V37.89l10.36,4.42,3.14-7.36L64.28,10.78,7.04,34.94l3.11,7.37,10.37-4.38V105.59H4.02c0,9.46,9.01,18.54,20.9,18.54H103.89c12.38,0,20.09-11.12,20.09-18.54h-16.5ZM27.53,34.98l36.74-15.51,36.21,15.44V105.59H27.53V34.98Z"/></g></g></svg>