<?xml version="1.0" encoding="UTF-8"?><svg xmlns="http://www.w3.org/2000/svg" viewBox="0 0 128 128"><defs><style>.cls-1{fill:#dddb00;}.cls-2{fill:#1d1d1b;}.cls-3{fill:#93c01f;}</style></defs><g id="cuadrobase"><g><rect class="cls-1" x="2" y="2" width="124" height="124" rx="22" ry="22"/><path class="cls-3" d="M104,4c11.03,0,20,8.97,20,20V104c0,11.03-8.97,20-20,20H24c-11.03,0-20-8.97-20-20V24C4,12.97,12.97,4,24,4H104m0-4H24C10.75,0,0,10.75,0,24V104C0,117.25,10.75,128,24,128H104c13.25,0,24-10.75,24-24V24c0-13.25-10.75-24-24-24h0Z"/></g></g><g id="figura"><g><path class="cls-2" d="M29.62,47.74c0,1.55,1.35,2.81,3,2.81s3-1.25,3-2.81-1.35-2.81-3-2.81-3,1.25-3,2.81Z"/><path class="cls-2" d="M37.58,47.74c0,1.55,1.35,2.81,3,2.81s3-1.25,3-2.81-1.35-2.81-3-2.81-3,1.25-3,2.81Z"/><path class="cls-2" d="M60.78,97.56V61.39c0-5.1-4.59-9.78-10.83-9.78l-13.29-.02-13.4,.02c-6.24,0-10.83,4.69-10.83,9.78v36.18c0,4.94,4.14,9,8.3,9.62l-9.07,12.56s1.35,.99,2.42,1.68,2.92,1.37,2.92,1.37l2.23-3.28H53.97l3.66,4.5h6.97l-12.12-16.82c4.16-.63,8.31-4.68,8.31-9.62Zm-10.72,4.35c-2.62,0-4.75-1.98-4.75-4.44s2.13-4.43,4.75-4.43,4.75,1.98,4.75,4.43-2.13,4.44-4.75,4.44ZM29.57,55.32c0-.88,.83-1.63,1.78-1.63h10.5c.95,0,1.77,.75,1.77,1.63v2.88c0,.89-.78,1.64-1.77,1.64h-10.5c-1,0-1.78-.75-1.78-1.64v-2.88Zm-11.35,11.55c0-2.7,1.87-5.07,5.4-5.07h25.96c3.53,0,5.4,2.37,5.4,5.07v6.51c.03,3.13-2.42,5.04-5.4,5.04H23.62c-2.98,0-5.43-1.92-5.4-5.04v-6.51Zm.07,30.6c0-2.45,2.12-4.43,4.74-4.43s4.76,1.98,4.76,4.43c0,2.46-2.13,4.44-4.76,4.44s-4.74-1.98-4.74-4.44Zm3.98,17.88l2.11-2.89h24.45l2.11,2.89H22.26Z"/><path class="cls-2" d="M89.49,50.54c1.65,0,3-1.25,3-2.81s-1.35-2.81-3-2.81-3,1.25-3,2.81,1.35,2.81,3,2.81Z"/><path class="cls-2" d="M94.46,47.74c0,1.55,1.35,2.81,3,2.81s3-1.25,3-2.81-1.35-2.81-3-2.81-3,1.25-3,2.81Z"/><path class="cls-2" d="M117.65,97.56V61.39c0-5.1-4.59-9.78-10.83-9.78l-13.29-.02-13.4,.02c-6.24,0-10.83,4.69-10.83,9.78v36.18c0,4.94,4.14,9,8.3,9.62l-12.57,16.82h7.19l3.88-4.5h34.74l1.89,2.42s1.22-.47,2.43-1.27c1.03-.68,2.16-1.66,2.16-1.66l-7.98-11.81c4.16-.63,8.31-4.68,8.31-9.62Zm-31.21-42.25c0-.88,.83-1.63,1.78-1.63h10.5c.95,0,1.77,.75,1.77,1.63v2.88c0,.89-.78,1.64-1.77,1.64h-10.5c-1,0-1.78-.75-1.78-1.64v-2.88Zm-11.29,42.15c0-2.45,2.12-4.43,4.74-4.43s4.76,1.98,4.76,4.43c0,2.46-2.13,4.44-4.76,4.44s-4.74-1.98-4.74-4.44Zm3.98,17.88l2.11-2.89h24.45l2.11,2.89h-28.67Zm27.8-13.44c-2.62,0-4.75-1.98-4.75-4.44,0-2.45,2.13-4.43,4.75-4.43s4.75,1.98,4.75,4.43-2.13,4.44-4.75,4.44Zm4.92-28.54c.03,3.13-2.42,5.04-5.4,5.04h-25.96c-2.98,0-5.43-1.92-5.4-5.04v-6.51c0-2.7,1.87-5.07,5.4-5.07h25.96c3.53,0,5.4,2.37,5.4,5.07v6.51Z"/><path class="cls-2" d="M70.04,21.06c0-2.3-1.61-3.54-4.25-3.54-1.05,0-1.81,.09-2.21,.18v7.06c.49,.13,1.09,.17,1.87,.17,2.85,0,4.59-1.42,4.59-3.87Z"/><path class="cls-2" d="M57.28,38.51h15.75c3.33,0,6.03-2.7,6.03-6.03v-15.75c0-3.33-2.7-6.03-6.03-6.03h-15.75c-3.33,0-6.03,2.7-6.03,6.03v15.75c0,3.33,2.7,6.03,6.03,6.03Zm2.51-23.5c1.39-.24,3.28-.43,5.85-.43,2.79,0,4.82,.59,6.15,1.71,1.25,1.02,2.05,2.66,2.05,4.63s-.62,3.61-1.78,4.73c-1.54,1.52-3.9,2.25-6.61,2.25-.71,0-1.35-.04-1.87-.15v7.89h-3.79V15.01Z"/><polygon class="cls-2" points="25.18 20.02 25.18 39.94 28.18 39.94 28.18 20.01 36.75 29.24 38.94 27.19 26.68 14 14.41 27.19 16.61 29.24 25.18 20.02"/><polygon class="cls-2" points="116.97 26.75 114.77 24.7 106.2 33.92 106.2 14 103.2 14 103.2 33.92 94.63 24.7 92.43 26.75 104.7 39.94 116.97 26.75"/></g></g></svg>