<?xml version="1.0" encoding="UTF-8"?><svg xmlns="http://www.w3.org/2000/svg" viewBox="0 0 128 128"><defs><style>.cls-1{fill:#f4eb45;}.cls-2{fill:#35a8e0;}.cls-3{fill:#189dd1;}</style></defs><g id="cuadrobase"><g><rect class="cls-1" x="2" y="2" width="124" height="124" rx="22" ry="22"/><path class="cls-2" d="M104,4c11.03,0,20,8.97,20,20V104c0,11.03-8.97,20-20,20H24c-11.03,0-20-8.97-20-20V24C4,12.97,12.97,4,24,4H104m0-4H24C10.75,0,0,10.75,0,24V104C0,117.25,10.75,128,24,128H104c13.25,0,24-10.75,24-24V24c0-13.25-10.75-24-24-24h0Z"/></g></g><g id="figura"><g><path class="cls-3" d="M67.62,91.6h-13c-3.39,0-6.15,3.03-6.15,6.75v10.98c4.08,.36,8.35,.55,12.77,.55s8.52-.19,12.53-.53v-11c0-3.72-2.76-6.75-6.15-6.75Z"/><path class="cls-3" d="M61.24,84.12c-21.27,0-43.67-4.69-49.82-13.47v23.83h.23c1.29,6.73,14.8,12.36,33.27,14.48v-10.63c0-5.87,4.35-10.65,9.7-10.65h13c5.35,0,9.7,4.78,9.7,10.65v10.65c18.6-2.1,32.22-7.75,33.51-14.51h.23v-23.83c-6.15,8.78-28.55,13.47-49.82,13.47Zm-43.61,8.51c0,1.02-.76,1.85-1.69,1.85s-1.69-.83-1.69-1.85v-11.85c0-1.02,.76-1.85,1.69-1.85s1.69,.83,1.69,1.85v11.85Zm8.8,4.25c0,1.02-.76,1.85-1.69,1.85s-1.69-.83-1.69-1.85v-11.85c0-1.02,.76-1.85,1.69-1.85s1.69,.83,1.69,1.85v11.85Zm11.96,3.48c0,1.02-.76,1.85-1.69,1.85s-1.69-.83-1.69-1.85v-11.85c0-1.02,.76-1.85,1.69-1.85s1.69,.83,1.69,1.85v11.85Zm48.73,0c0,1.02-.76,1.85-1.69,1.85s-1.69-.83-1.69-1.85v-11.85c0-1.02,.76-1.85,1.69-1.85s1.69,.83,1.69,1.85v11.85Zm11.44-2.9c0,1.02-.76,1.85-1.69,1.85s-1.69-.83-1.69-1.85v-11.85c0-1.02,.76-1.85,1.69-1.85s1.69,.83,1.69,1.85v11.85Zm9.15-4.63c0,1.02-.76,1.85-1.69,1.85s-1.69-.83-1.69-1.85v-11.85c0-1.02,.76-1.85,1.69-1.85s1.69,.83,1.69,1.85v11.85Z"/><path class="cls-3" d="M61.24,80.22c27.75,0,47.23-7.37,47.9-14.14,.01-.12,.03-.24,.03-.36,0-6.86-19.68-14.5-47.93-14.5s-47.93,7.64-47.93,14.5c0,.12,.02,.24,.03,.36,.67,6.76,20.14,14.14,47.9,14.14Zm0-26.3c14.1,0,40.75,2.34,40.75,11.18,0,.34-.05,.66-.13,.98-1.9,8.04-27.07,10.21-40.63,10.21s-38.73-2.17-40.63-10.21c-.07-.32-.13-.64-.13-.98,0-8.85,26.66-11.18,40.75-11.18Z"/><path class="cls-3" d="M24.69,66.09c2.06,1.77,9.11,4.28,20.94,5.53l-6.35-5.53-6.15-5.36c-6.02,1.53-9.09,3.31-9.09,4.38,0,.28,.22,.62,.64,.98Z"/><path class="cls-3" d="M78.54,66.09l7.18-6.17c-5.65-1.12-13.15-1.97-22.46-2.08v14.54c2.96-.03,5.74-.14,8.33-.31l6.95-5.98Z"/><path class="cls-3" d="M51.93,72.13c2.43,.14,5.03,.23,7.77,.25v-14.55c-9.02,.08-16.36,.85-21.99,1.9l7.29,6.35,6.93,6.04Z"/><path class="cls-3" d="M78.01,71.49c11.14-1.29,17.8-3.7,19.79-5.4,.42-.36,.64-.7,.64-.98,0-1.02-2.76-2.67-8.19-4.15l-5.96,5.12-6.28,5.4Z"/><path class="cls-3" d="M15.93,30.59h-1.18v26.89c.38-.28,.77-.56,1.18-.83V30.59Z"/><polygon class="cls-3" points="15.95 31.37 15.95 41.93 33.87 36.65 15.95 31.37"/><path class="cls-3" d="M44.37,33.61l17.06-5.02-17.06-5.02v-1.07h-1.18v25.98c.39-.05,.79-.1,1.18-.15v-14.71Z"/><path class="cls-3" d="M79.09,34.55l17.41-5.13-17.41-5.13v-1.4h-1.18v25.4c.4,.05,.79,.1,1.18,.15v-13.89Z"/><path class="cls-3" d="M105.49,44.06l17.19-5.06-17.19-5.06v-3.96h-1.18v25.33c.41,.22,.8,.44,1.18,.67v-11.92Z"/></g></g></svg>