<?xml version="1.0" encoding="UTF-8"?><svg xmlns="http://www.w3.org/2000/svg" viewBox="0 0 128 128"><defs><style>.cls-1{fill:#eaa1c7;}.cls-2{fill:#f255a0;}.cls-3{fill:#662482;}</style></defs><g id="cuadrobase"><g><rect class="cls-3" x="2" y="2" width="124" height="124" rx="22" ry="22"/><path class="cls-1" d="M104,4c11.03,0,20,8.97,20,20V104c0,11.03-8.97,20-20,20H24c-11.03,0-20-8.97-20-20V24C4,12.97,12.97,4,24,4H104m0-4H24C10.75,0,0,10.75,0,24V104C0,117.25,10.75,128,24,128H104c13.25,0,24-10.75,24-24V24c0-13.25-10.75-24-24-24h0Z"/></g></g><g id="figura"><g><path class="cls-2" d="M121.77,90.18c-1.41-.64-3-1.02-4.65-1.02s-3.24,.38-4.64,1.02c-1.37,.62-2.88,.98-4.47,.98-1.57,0-3.11-.37-4.47-.98-1.4-.64-2.99-1.02-4.65-1.02s-3.24,.38-4.64,1.02c-.53,.24-1.09,.43-1.66,.58V51.68h-10.28v9.55c-.57-.09-1.16-.16-1.76-.16-1.64,0-3.23,.38-4.64,1.02-1.39,.63-2.92,.99-4.53,.99s-3.14-.36-4.51-.99c-1.41-.64-3-1.02-4.65-1.02s-3.25,.38-4.65,1.02c-1.37,.63-2.92,.99-4.52,.99s-3.14-.36-4.52-.99c-1.41-.64-3-1.02-4.65-1.02s-3.24,.38-4.65,1.02c-1.37,.62-2.88,.98-4.47,.98-1.57,0-3.11-.37-4.47-.98-1.4-.64-2.99-1.02-4.65-1.02s-3.24,.38-4.64,1.02c-1.39,.63-2.92,.99-4.53,.99s-3.14-.36-4.51-.99c-1.41-.64-3-1.02-4.66-1.02-1.1,0-2.16,.18-3.18,.48v6.76c1.01-.31,2.08-.49,3.18-.49,1.66,0,3.25,.38,4.66,1.04,1.37,.62,2.92,.99,4.51,.99s3.14-.37,4.53-.99c1.4-.66,2.99-1.04,4.64-1.04s3.25,.38,4.65,1.04c1.35,.61,2.86,.97,4.42,.98h0s.03,0,.04,0,.03,0,.04,0h0c1.57-.02,3.07-.38,4.43-.99,1.41-.66,3-1.04,4.65-1.04s3.24,.38,4.65,1.04c1.38,.62,2.92,.99,4.52,.99s3.15-.37,4.52-.99c1.4-.66,2.99-1.04,4.65-1.04s3.24,.38,4.65,1.04c1.37,.62,2.9,.99,4.51,.99s3.14-.37,4.53-.99c1.41-.66,3-1.04,4.64-1.04,.6,0,1.18,.07,1.76,.16v7.07c-.57-.09-1.16-.16-1.76-.16-1.64,0-3.23,.38-4.64,1.02-1.39,.63-2.92,.99-4.53,.99s-3.14-.36-4.51-.99c-1.41-.64-3-1.02-4.65-1.02s-3.25,.38-4.65,1.02c-1.37,.63-2.92,.99-4.52,.99s-3.14-.36-4.52-.99c-1.41-.64-3-1.02-4.65-1.02s-3.24,.38-4.65,1.02c-1.37,.62-2.88,.98-4.47,.98-1.57,0-3.11-.37-4.47-.98-1.4-.64-2.99-1.02-4.65-1.02s-3.24,.38-4.64,1.02c-1.39,.63-2.92,.99-4.53,.99s-3.14-.36-4.51-.99c-1.41-.64-3-1.02-4.66-1.02-1.1,0-2.16,.18-3.18,.48v6.76c1.01-.31,2.08-.49,3.18-.49,1.66,0,3.25,.38,4.66,1.04,1.37,.62,2.92,.99,4.51,.99s3.14-.37,4.53-.99c1.4-.66,2.99-1.04,4.64-1.04s3.25,.38,4.65,1.04c1.35,.61,2.86,.97,4.42,.98h0s.03,0,.04,0,.03,0,.04,0h0c1.57-.02,3.07-.38,4.43-.99,1.41-.66,3-1.04,4.65-1.04s3.24,.38,4.65,1.04c1.38,.62,2.92,.99,4.52,.99s3.15-.37,4.52-.99c1.4-.66,2.99-1.04,4.65-1.04s3.24,.38,4.65,1.04c1.37,.62,2.9,.99,4.51,.99s3.14-.37,4.53-.99c1.41-.66,3-1.04,4.64-1.04,.6,0,1.18,.07,1.76,.16v7.51c-.57-.09-1.16-.16-1.76-.16-1.64,0-3.23,.38-4.64,1.02-1.39,.63-2.92,.99-4.53,.99s-3.14-.36-4.51-.99c-1.41-.64-3-1.02-4.65-1.02s-3.25,.38-4.65,1.02c-1.37,.63-2.92,.99-4.52,.99s-3.14-.36-4.52-.99c-1.41-.64-3-1.02-4.65-1.02s-3.24,.38-4.65,1.02c-1.37,.62-2.88,.98-4.47,.98-1.57,0-3.11-.37-4.47-.98-1.4-.64-2.99-1.02-4.65-1.02s-3.24,.38-4.64,1.02c-1.39,.63-2.92,.99-4.53,.99s-3.14-.36-4.51-.99c-1.41-.64-3-1.02-4.66-1.02-1.1,0-2.16,.18-3.18,.48v6.76c1.01-.31,2.08-.49,3.18-.49,1.66,0,3.25,.38,4.66,1.04,1.37,.62,2.92,.99,4.51,.99s3.14-.37,4.53-.99c1.4-.66,2.99-1.04,4.64-1.04s3.25,.38,4.65,1.04c1.35,.61,2.86,.97,4.42,.98h0s.03,0,.04,0,.03,0,.04,0h0c1.57-.02,3.07-.38,4.43-.99,1.41-.66,3-1.04,4.65-1.04s3.24,.38,4.65,1.04c1.38,.62,2.92,.99,4.52,.99s3.15-.37,4.52-.99c1.4-.66,2.99-1.04,4.65-1.04s3.24,.38,4.65,1.04c1.37,.62,2.9,.99,4.51,.99s3.14-.37,4.53-.99c1.41-.66,3-1.04,4.64-1.04,.6,0,1.18,.07,1.76,.16v9h10.28v-7.54c.57-.16,1.13-.34,1.66-.58,1.4-.66,2.99-1.04,4.64-1.04s3.25,.38,4.65,1.04c1.35,.61,2.86,.97,4.42,.98h0s.03,0,.04,0,.03,0,.04,0h0c1.57-.02,3.08-.38,4.43-.99,1.41-.66,3-1.04,4.64-1.04s3.24,.38,4.65,1.04c.67,.3,1.37,.54,2.1,.7v-6.77c-.73-.17-1.44-.41-2.1-.71Z"/><path class="cls-2" d="M15.92,56.91c1.61,0,3.15-.37,4.52-.97,1.4-.65,2.99-1.04,4.65-1.04s3.24,.39,4.65,1.04c1.37,.6,2.9,.97,4.51,.97s3.14-.37,4.53-.97c1.41-.65,3-1.04,4.64-1.04s3.25,.39,4.66,1.04c1.37,.6,2.92,.97,4.51,.97,.31,0,.6-.08,.89-.11,.04,0,.04,.04,.07,.04,.21,0,.35-.09,.55-.09,.37-.05,.73-.09,1.1-.18,3.28-.68,5.4-3.24,5.4-3.24l6.39-8.09h-1.86s-11.39,0-11.39,0h-3.47v-7.49H27.73v7.49H9.59v10.08c.62,.16,1.24,.34,1.81,.62,1.38,.6,2.92,.97,4.52,.97Z"/></g></g></svg>