<?xml version="1.0" encoding="UTF-8"?><svg xmlns="http://www.w3.org/2000/svg" viewBox="0 0 128 128"><defs><style>.cls-1{fill:#fff;}.cls-2{fill:#ffec00;}.cls-3{fill:#29235c;}</style></defs><g id="cuadrobase"><g><rect class="cls-3" x="2" y="2" width="124" height="124" rx="22" ry="22"/><path class="cls-2" d="M104,4c11.03,0,20,8.97,20,20V104c0,11.03-8.97,20-20,20H24c-11.03,0-20-8.97-20-20V24C4,12.97,12.97,4,24,4H104m0-4H24C10.75,0,0,10.75,0,24V104c0,13.25,10.75,24,24,24H104c13.25,0,24-10.75,24-24V24c0-13.25-10.75-24-24-24h0Z"/></g></g><g id="figura"><g><path class="cls-1" d="M94.84,38.98c4.09,.3,7.27-1.49,10.13-4.25-2.86-2.75-5.98-4.61-10.1-4.26,3.05-2.71,4.12-6.15,4.11-10.12-1.93-.09-3.74,.2-5.5,.86-1.77,.66-3.28,1.71-4.66,3.3,.26-4.18-1.42-7.37-4.22-10.14-1.42,1.32-2.5,2.81-3.28,4.51-.79,1.72-1.09,3.53-.96,5.61-2.77-3.09-6.18-4.19-10.18-4.16,.03,3.92,1.07,7.34,4.12,10.14-4.1-.2-7.27,1.53-10.09,4.25,2.76,2.77,5.92,4.46,9.96,4.29-2.94,2.75-4.04,6.16-3.98,10.1,3.95,.04,7.36-1.04,10.15-4.15-.25,4.17,1.43,7.34,4.23,10.13,2.79-2.77,4.48-5.94,4.23-10.12,2.78,3.09,6.19,4.19,10.13,4.15,.11-1.95-.19-3.78-.87-5.55-.68-1.78-1.7-3.33-3.23-4.58Zm-9.87,.17c-2.56,.19-4.73-1.92-4.81-4.14-.09-2.39,1.58-4.49,3.88-4.67,2.76-.22,4.75,1.4,4.95,4.02,.36,2.27-1.73,4.62-4.01,4.79Z"/><path class="cls-1" d="M64.58,68.74c1.99,2.21,4.44,3,7.26,2.97,.08-1.4-.14-2.71-.62-3.98-.49-1.27-1.22-2.39-2.32-3.29,2.94,.22,5.21-1.07,7.26-3.05-2.05-1.97-4.28-3.31-7.24-3.06,2.19-1.94,2.96-4.41,2.95-7.26-1.39-.06-2.68,.15-3.94,.62-1.27,.47-2.35,1.23-3.34,2.37,.18-3-1.02-5.29-3.03-7.27-1.02,.95-1.79,2.01-2.35,3.23-.57,1.23-.78,2.53-.69,4.02-1.98-2.22-4.43-3.01-7.3-2.98,.02,2.81,.77,5.26,2.95,7.27-2.94-.15-5.21,1.09-7.23,3.05,1.98,1.99,4.24,3.2,7.14,3.08-2.1,1.97-2.9,4.41-2.85,7.24,2.83,.03,5.28-.75,7.28-2.97-.09,1.55,.19,2.9,.76,4.12h-26.35v6.18h7.5l12.78,37.55h21.62l12.78-37.55h7.5v-6.18h-31.27c.56-1.22,.85-2.57,.75-4.12Zm-6.21-7.14c-.06-1.72,1.13-3.22,2.78-3.35,1.98-.15,3.4,1,3.55,2.89,.26,1.62-1.24,3.31-2.88,3.44-1.84,.14-3.39-1.38-3.45-2.97Z"/><path class="cls-1" d="M33.33,50.47c2.44-.6,4.54-1.68,6.36-3.52,.65,2.47,1.92,4.47,3.75,6.23,1.81-1.71,3.1-3.7,3.74-6.23,1.8,1.81,3.9,2.92,6.37,3.52,.71-2.42,.8-4.78,.15-7.21,.77,.12,1.48,.25,2.2,.34,1.57,.2,3.11-.05,4.63-.4,.48-.11,.37-.39,.28-.69-.62-2.1-1.59-4-3.15-5.56-.07-.07-.12-.15-.22-.27,2.47-.59,4.46-1.9,6.23-3.73-1.75-1.81-3.74-3.13-6.28-3.74,1.88-1.77,2.95-3.91,3.56-6.38-2.42-.7-4.79-.76-7.29-.12,.7-2.46,.59-4.84-.15-7.4-1.17,.49-2.33,.85-3.37,1.43-1.05,.57-1.98,1.35-3,2.06-.61-2.34-1.88-4.35-3.71-6.09-1.81,1.73-3.1,3.73-3.74,6.24-1.8-1.82-3.9-2.92-6.36-3.52-.71,2.4-.82,4.75-.15,7.2-.19-.02-.35-.02-.49-.06-2.04-.51-4.07-.4-6.1,.06-.48,.11-.62,.31-.49,.82,.53,2.03,1.5,3.8,2.94,5.33,.11,.12,.2,.25,.35,.43-2.4,.73-4.45,1.92-6.18,3.74,1.74,1.83,3.75,3.13,6.27,3.73-1.44,1.39-2.42,2.98-3.07,4.77-.14,.39-.24,.79-.38,1.17-.14,.37,0,.5,.36,.59,2.23,.56,4.46,.66,6.81-.02-.67,2.48-.58,4.87,.14,7.29Zm10.11-22.9c3.14-.05,5.34,2.69,5.38,5.28,.05,3.25-2.63,5.48-5.37,5.46-2.96,0-5.35-2.38-5.36-5.35,0-3.07,2.29-5.34,5.35-5.39Z"/></g></g></svg>