<?xml version="1.0" encoding="UTF-8"?><svg xmlns="http://www.w3.org/2000/svg" viewBox="0 0 128 128"><defs><style>.cls-1{fill:#bd1622;}.cls-2{fill:#35a8e0;}</style></defs><g id="cuadrobase"><g><rect class="cls-2" x="2" y="2" width="124" height="124" rx="22" ry="22"/><path class="cls-1" d="M104,4c11.03,0,20,8.97,20,20V104c0,11.03-8.97,20-20,20H24c-11.03,0-20-8.97-20-20V24C4,12.97,12.97,4,24,4H104m0-4H24C10.75,0,0,10.75,0,24V104C0,117.25,10.75,128,24,128H104c13.25,0,24-10.75,24-24V24c0-13.25-10.75-24-24-24h0Z"/></g></g><g id="figura"><g><path class="cls-1" d="M38.06,58.65c-4.12-7.13-11.7-10.47-16.93-7.45-5.23,3.02-6.13,11.25-2.02,18.39,4.12,7.13,11.7,10.47,16.93,7.45,5.23-3.02,6.13-11.25,2.02-18.39Z"/><path class="cls-1" d="M106.87,50.61c-5.23-3.02-12.81,.31-16.93,7.45-4.12,7.14-3.22,15.37,2.02,18.39,5.23,3.02,12.81-.31,16.93-7.45,4.12-7.13,3.22-15.37-2.02-18.39Z"/><path class="cls-1" d="M50.58,50.32c6.23-1.36,9.79-9.35,7.93-17.85-1.85-8.5-8.41-14.29-14.64-12.93-6.23,1.36-9.79,9.35-7.93,17.85,1.85,8.5,8.41,14.29,14.64,12.93Z"/><path class="cls-1" d="M77.98,50.42c6.28,1.16,12.64-4.84,14.22-13.4,1.58-8.56-2.23-16.43-8.5-17.59-6.28-1.16-12.64,4.84-14.22,13.4-1.58,8.56,2.23,16.43,8.5,17.59Z"/><path class="cls-1" d="M64.11,67.44c-15.62,0-37.04,30.01-30.47,36.91,11.11,11.67,13.64-1.88,30.47-1.88s20.67,15.12,30.47,1.88c6.2-8.37-17.81-36.91-30.47-36.91Z"/></g></g></svg>