<?xml version="1.0" encoding="UTF-8"?><svg xmlns="http://www.w3.org/2000/svg" viewBox="0 0 128 128"><defs><style>.cls-1{fill:#ffec00;}.cls-2{fill:#662482;}</style></defs><g id="cuadrobase"><g><rect class="cls-2" x="2" y="2" width="124" height="124" rx="22" ry="22"/><path class="cls-1" d="M104,4c11.03,0,20,8.97,20,20V104c0,11.03-8.97,20-20,20H24c-11.03,0-20-8.97-20-20V24C4,12.97,12.97,4,24,4H104m0-4H24C10.75,0,0,10.75,0,24V104c0,13.25,10.75,24,24,24H104c13.25,0,24-10.75,24-24V24c0-13.25-10.75-24-24-24h0Z"/></g></g><g id="figura"><g><path class="cls-1" d="M93.55,77.62l-5.33-18.11c-.98-2.87-3.15-5.33-7.24-5.33H46.93c-4.07,0-6.23,2.47-7.24,5.33l-5.29,18.11c-2.1,.28-5.81,3.02-5.81,8.17v19.27h5.16v6.2c0,7.57,9.67,7.48,9.67,0v-6.2h41.12v6.2c-.02,7.48,9.66,7.57,9.67,0v-6.2h5.16v-19.27c-.01-5.15-3.73-7.89-5.81-8.17Zm-54.82,18.25c-3.17,0-5.74-2.48-5.73-5.5,0-3.07,2.56-5.54,5.73-5.55,3.17,0,5.74,2.48,5.73,5.55,0,3.02-2.56,5.49-5.73,5.5Zm1.17-18.4l3.99-14.89c.48-1.66,1.23-2.87,2.99-2.88h34.18c1.74,.01,2.49,1.22,2.99,2.88l3.99,14.89H39.9Zm49.32,18.75c-3.39,0-6.13-2.64-6.15-5.85,.03-3.27,2.76-5.9,6.15-5.91,3.35,.01,6.08,2.64,6.09,5.91-.01,3.21-2.75,5.84-6.09,5.85Z"/><path class="cls-1" d="M14,29.75l3.09-19.24c.14-.9,1.11-1.41,1.93-1.02l9.67,4.51c.82,.38,1.05,1.45,.46,2.13l-12.76,14.73c-.9,1.04-2.6,.25-2.38-1.11Z"/><path class="cls-1" d="M33.1,36.56l-.61-19.48c-.03-.91,.82-1.59,1.7-1.37l10.35,2.6c.88,.22,1.3,1.22,.85,2.01l-9.74,16.88c-.69,1.19-2.51,.73-2.55-.64Z"/><path class="cls-1" d="M52.44,39.97l-3.3-19.2c-.15-.89,.59-1.69,1.49-1.59l10.61,1.14c.9,.1,1.46,1.03,1.12,1.87l-7.31,18.06c-.52,1.28-2.38,1.08-2.61-.28Z"/><path class="cls-1" d="M72.29,40.76l-6.11-18.5c-.28-.86,.33-1.76,1.24-1.79l10.66-.45c.91-.04,1.6,.8,1.39,1.69l-4.55,18.95c-.32,1.34-2.2,1.42-2.63,.11Z"/><path class="cls-1" d="M92.63,38.15l-9.41-17.06c-.44-.79,0-1.79,.89-1.99l10.4-2.4c.88-.2,1.72,.5,1.67,1.4l-.99,19.46c-.07,1.37-1.9,1.8-2.56,.59Z"/><path class="cls-1" d="M113.03,31.07l-13.4-14.14c-.62-.66-.44-1.73,.36-2.15l9.46-4.94c.8-.42,1.79,.05,1.97,.94l3.94,19.08c.28,1.35-1.38,2.22-2.33,1.22Z"/><g><path class="cls-1" d="M10.05,77.47l-3.99-14.89c-.4-1.32-.96-2.34-2.04-2.72v17.61h6.03Z"/><path class="cls-1" d="M11.23,84.46c-3.39,.01-6.13,2.64-6.15,5.91,.03,3.21,2.76,5.84,6.15,5.85,3.35,0,6.08-2.64,6.09-5.85-.01-3.27-2.75-5.9-6.09-5.91Z"/><path class="cls-1" d="M15.55,77.62l-5.33-18.11c-.9-2.61-2.78-4.89-6.21-5.27v5.63c1.08,.38,1.65,1.4,2.04,2.72l3.99,14.89H4.02v27.59h2.52v6.2c-.02,7.48,9.66,7.57,9.67,0v-6.2h5.16v-19.27c-.01-5.15-3.73-7.89-5.81-8.17Zm-4.33,18.6c-3.39,0-6.13-2.64-6.15-5.85,.03-3.27,2.76-5.9,6.15-5.91,3.35,.01,6.08,2.64,6.09,5.91-.01,3.21-2.75,5.84-6.09,5.85Z"/></g><g><path class="cls-1" d="M116.73,84.81c-3.17,0-5.74,2.48-5.73,5.55,0,3.02,2.56,5.49,5.73,5.5,3.17,0,5.74-2.48,5.73-5.5,0-3.07-2.56-5.54-5.73-5.55Z"/><path class="cls-1" d="M121.89,62.58l-3.99,14.89h6.06v-17.62c-1.12,.37-1.69,1.4-2.07,2.73Z"/><path class="cls-1" d="M117.9,77.47l3.99-14.89c.39-1.33,.96-2.36,2.07-2.73v-5.62c-3.45,.36-5.35,2.65-6.28,5.28l-5.29,18.11c-2.1,.28-5.81,3.02-5.81,8.17v19.27h5.16v6.2c0,7.57,9.67,7.48,9.67,0v-6.2h2.55v-27.59h-6.06Zm-1.17,18.4c-3.17,0-5.74-2.48-5.73-5.5,0-3.07,2.56-5.54,5.73-5.55,3.17,0,5.74,2.48,5.73,5.55,0,3.02-2.56,5.49-5.73,5.5Z"/></g></g></g></svg>