<?xml version="1.0" encoding="UTF-8"?><svg xmlns="http://www.w3.org/2000/svg" viewBox="0 0 128 128"><defs><style>.cls-1{fill:#fff;}.cls-2{fill:#ffec00;}.cls-3{fill:#00a099;}</style></defs><g id="cuadrobase"><g><rect class="cls-3" x="2" y="2" width="124" height="124" rx="22" ry="22"/><path class="cls-2" d="M104,4c11.03,0,20,8.97,20,20V104c0,11.03-8.97,20-20,20H24c-11.03,0-20-8.97-20-20V24C4,12.97,12.97,4,24,4H104m0-4H24C10.75,0,0,10.75,0,24V104c0,13.25,10.75,24,24,24H104c13.25,0,24-10.75,24-24V24c0-13.25-10.75-24-24-24h0Z"/></g></g><g id="figura"><g><path class="cls-1" d="M111.78,32.45l-7.4-16.41-.86-1.89v-.02c-.65-1.37-2.09-2.25-3.7-2.25l-62.26,.03-11.15-.03c-1.63,0-3.11,.92-3.71,2.3l-4.07,8.95-4.2,9.29c-.69,1.5-1.03,3.12-1.03,4.8v4.93c0,4.07,4.11,6.83,5.66,7.87,.57,.39,1.18,.73,1.81,1.03v59.08c0,2,1.77,3.62,3.94,3.62H101.37c2.17,0,3.94-1.62,3.94-3.62V51.06c.63-.31,1.24-.65,1.82-1.03,1.55-1.04,5.66-3.8,5.66-7.87v-4.93c0-1.63-.34-3.23-1.02-4.77Zm-13.22-15.14l.37,.82,6.51,14.43h-16.56l-3.44-15.24h13.12Zm-32.51,.01h13.35s3.44,15.23,3.44,15.23h-16.79v-15.23Zm0,20.67h17.47v3.65c-.63,1.59-1.76,3-3.23,3.99-1.6,1.07-3.56,1.65-5.51,1.65s-3.92-.58-5.5-1.64c-1.48-.99-2.61-2.41-3.24-3.99v-3.65Zm-19.26-20.65h13.36s0,15.22,0,15.22h-16.79l3.44-15.22Zm-4.11,20.65h17.47v3.65c-.63,1.59-1.76,3-3.23,3.99-1.6,1.07-3.56,1.65-5.51,1.65s-3.92-.58-5.5-1.64c-1.48-.99-2.61-2.41-3.24-3.99v-3.65Zm-18.59-12.78l3.59-7.9,9.88,.03h3.2s-3.43,15.22-3.43,15.22H20.76l3.32-7.34Zm-1.55,20.42c-2.15-1.44-3.24-2.61-3.24-3.48v-4.16h17.47v3.65c-.63,1.59-1.76,3-3.23,3.99-1.6,1.07-3.56,1.65-5.51,1.65s-3.92-.58-5.5-1.64Zm76.87,62.69H26.77V52.66c.42,.03,.84,.05,1.26,.05,3.18,0,6.37-.95,8.98-2.69,1.01-.68,1.91-1.47,2.71-2.35,.8,.88,1.7,1.68,2.71,2.35,2.58,1.73,5.77,2.69,8.98,2.69s6.37-.95,8.98-2.69c1.01-.68,1.91-1.47,2.71-2.35,.8,.88,1.7,1.68,2.71,2.35,2.58,1.73,5.77,2.69,8.98,2.69s6.37-.95,8.98-2.69c1.01-.68,1.91-1.47,2.71-2.35,.8,.88,1.7,1.68,2.71,2.35,2.58,1.73,5.77,2.69,8.98,2.69,.42,0,.83-.02,1.25-.05v55.66Zm7.49-66.17c0,.87-1.09,2.04-3.23,3.47-1.6,1.07-3.56,1.65-5.51,1.65s-3.92-.58-5.5-1.64c-1.48-.99-2.61-2.41-3.24-3.99v-3.65h17.47v4.16Z"/><path class="cls-1" d="M90.69,95.39c-.08,.08-8.49,8.12-26.43,7.96-17.78-.17-26.33-9.61-26.43-9.72-.57-.65-1.56-.72-2.21-.15-.65,.57-.72,1.56-.15,2.21,.38,.43,9.47,10.61,28.76,10.79,19.23,.18,28.28-8.48,28.66-8.85,.62-.61,.63-1.6,.02-2.22-.61-.62-1.6-.63-2.22-.02Z"/><path class="cls-1" d="M62.48,79.17c3.92,.61,6.88,.33,8.14-.76,.54-.47,.18-3.03-.72-4.99-.6,.15-1.23,.29-1.96,.39-3.15,.44-5.65-.73-7.16-1.73-.94,1.25-1.72,2.43-1.84,2.94-.11,.48-.05,1.54,.58,2.47,.61,.91,1.61,1.47,2.95,1.68Z"/><path class="cls-1" d="M42.26,72.75c2.9,2.19,5.74-4.39,7.95-3.63,2.21,.76,.24,5.85-.67,8.29-.44,1.17-1.09,2.75-1.74,4.3l-4.79,8.01c-.85,1.79,.41,2.73,2.2,3.58l.33,.16c1.79,.85,3.46,1.31,4.31-.48l4.87-8.16c.19-.4,.29-.81,.32-1.23,2.29,1.37,6.06,3.08,10.54,2.99,2.81-.06,5.18-.63,7.05-1.32,.06,.14,.1,.28,.18,.41l5.71,7.95c1.02,1.81,2.42,2.24,4.24,1.22l.97-.66c1.81-1.02,2.41-2.48,1.39-4.29l-4.74-6.6c-.74-1.5-1.9-5.15-1.44-6.95,.48-1.9,1.5-1.76,2.83-1.97,.04,0,.05-.02,.08-.02,.35,.02,.84,.01,1.55-.04,3.49-.26,4.78,3.15,6.94,1.99,2.16-1.16,1.5-1.84-.34-3.48-1.84-1.65-6.63-3.02-8.93-2.82s-.82-.15-4.15,.85c-1.58,.48-2.79,1.04-4.04,1.56,.57,1.36,2.34,6.16-.21,8.37-1.45,1.25-3.68,1.87-6.66,1.84-1.22-.01-2.55-.13-4.02-.36-2.79-.43-4.3-1.88-5.07-3.02-1.2-1.77-1.31-3.77-1.04-4.94,.31-1.32,1.74-3.32,2.88-4.77-.91-1.82-1.98-4.38-3.84-6.52-2.61-3.01-6.13-2.2-6.59-2.08-.28-.8-.91-2.32-1.71-2.62-2.38-.89-3.31-.08-3.31-.08,0,0,1.4,1.47,1.01,3.79-.18,1.05-.44,1.7-.67,2.1-.06,.09-.15,.22-.26,.38-.16,.18-.26,.24-.26,.24l.18-.11c-1.08,1.67-3.66,6.15-1.07,8.1Zm3.48-8.3c.88,0,1.59,.73,1.58,1.61,0,.88-.73,1.59-1.61,1.58-.88,0-1.59-.73-1.58-1.61s.73-1.59,1.61-1.58Z"/></g></g></svg>