<?xml version="1.0" encoding="UTF-8"?><svg xmlns="http://www.w3.org/2000/svg" viewBox="0 0 128 128"><defs><style>.cls-1{fill:#fff;}.cls-2{fill:#951b81;}</style></defs><g id="cuadrobase"><g><rect class="cls-2" x="2" y="2" width="124" height="124" rx="22" ry="22"/><path class="cls-1" d="M104,4c11.03,0,20,8.97,20,20V104c0,11.03-8.97,20-20,20H24c-11.03,0-20-8.97-20-20V24C4,12.97,12.97,4,24,4H104M104,0H24C10.74,0,0,10.75,0,24V104C0,117.25,10.74,128,24,128H104c13.25,0,24-10.75,24-24V24C128,10.75,117.25,0,104,0h0Z"/></g></g><g id="figura"><g><path class="cls-1" d="M55.54,60.45c-.19-1.69-1.97-4.85-3.31-5.24-1.34-.39-7.06-2.16-17.68-2.16s-15.87,1.7-17.68,2.16c-1.81,.46-3.12,3.55-3.31,5.24l-2.36,18.55h0v20.06c0,2.08,1.69,3.76,3.76,3.76h.92v4.7c0,1.75,1.42,3.17,3.17,3.17h.4c1.75,0,3.17-1.42,3.17-3.17v-4.7h23.87v4.7c0,1.75,1.42,3.17,3.17,3.17h.4c1.75,0,3.17-1.42,3.17-3.17v-4.7h.92c2.08,0,3.76-1.68,3.76-3.76v-20.02h0v-.03h0l-2.36-18.55Zm-34.66-2.36c0-.92,.74-1.66,1.66-1.66h24.03c.92,0,1.66,.74,1.66,1.66h0c0,.92-.74,1.66-1.66,1.66H22.54c-.92,0-1.66-.74-1.66-1.66h0Zm-1.63,38.27c-1.97,0-3.56-1.59-3.56-3.56s1.59-3.56,3.56-3.56,3.56,1.59,3.56,3.56-1.59,3.56-3.56,3.56Zm9.01-.21c0,.52-.42,.95-.95,.95h-.17c-.52,0-.95-.42-.95-.95v-5.43c0-.52,.42-.95,.95-.95h.17c.52,0,.95,.42,.95,.95v5.43Zm4.88,0c0,.52-.42,.95-.95,.95h-.17c-.52,0-.95-.42-.95-.95v-5.43c0-.52,.42-.95,.95-.95h.17c.52,0,.95,.42,.95,.95v5.43Zm4.88,0c0,.52-.42,.95-.95,.95h-.17c-.52,0-.95-.42-.95-.95v-5.43c0-.52,.42-.95,.95-.95h.17c.52,0,.95,.42,.95,.95v5.43Zm4.88,0c0,.52-.42,.95-.95,.95h-.17c-.52,0-.95-.42-.95-.95v-5.43c0-.52,.42-.95,.95-.95h.17c.52,0,.95,.42,.95,.95v5.43Zm6.95,.21c-1.97,0-3.56-1.59-3.56-3.56s1.59-3.56,3.56-3.56,3.56,1.59,3.56,3.56-1.59,3.56-3.56,3.56Zm1.93-16.72H17.32c-1.85,0-3.31-1.33-3.15-2.87l1.22-11.87c.14-1.37,1.51-2.42,3.15-2.42h31.61c1.61,0,2.96,1.01,3.14,2.34l1.63,11.87c.22,1.57-1.25,2.95-3.14,2.95Z"/><path class="cls-1" d="M117.27,79l-2.36-18.55c-.19-1.69-1.97-4.85-3.31-5.24-1.34-.39-7.06-2.16-17.68-2.16s-15.87,1.7-17.68,2.16-3.12,3.55-3.31,5.24l-2.36,18.55h0v20.06c0,2.08,1.68,3.76,3.76,3.76h.92v4.7c0,1.75,1.42,3.17,3.17,3.17h.4c1.75,0,3.17-1.42,3.17-3.17v-4.7h23.87v4.7c0,1.75,1.42,3.17,3.17,3.17h.4c1.75,0,3.17-1.42,3.17-3.17v-4.7h.92c2.08,0,3.76-1.68,3.76-3.76v-20.02h0v-.03h0Zm-37.02-20.9c0-.92,.74-1.66,1.66-1.66h24.03c.92,0,1.66,.74,1.66,1.66h0c0,.92-.74,1.66-1.66,1.66h-24.03c-.92,0-1.66-.74-1.66-1.66h0Zm-1.63,38.27c-1.97,0-3.56-1.59-3.56-3.56s1.59-3.56,3.56-3.56,3.56,1.59,3.56,3.56-1.59,3.56-3.56,3.56Zm9.01-.21c0,.52-.42,.95-.95,.95h-.17c-.52,0-.95-.42-.95-.95v-5.43c0-.52,.42-.95,.95-.95h.17c.52,0,.95,.42,.95,.95v5.43Zm4.88,0c0,.52-.42,.95-.95,.95h-.17c-.52,0-.95-.42-.95-.95v-5.43c0-.52,.42-.95,.95-.95h.17c.52,0,.95,.42,.95,.95v5.43Zm4.88,0c0,.52-.42,.95-.95,.95h-.17c-.52,0-.95-.42-.95-.95v-5.43c0-.52,.42-.95,.95-.95h.17c.52,0,.95,.42,.95,.95v5.43Zm4.88,0c0,.52-.42,.95-.95,.95h-.17c-.52,0-.95-.42-.95-.95v-5.43c0-.52,.42-.95,.95-.95h.17c.52,0,.95,.42,.95,.95v5.43Zm6.95,.21c-1.97,0-3.56-1.59-3.56-3.56s1.59-3.56,3.56-3.56,3.56,1.59,3.56,3.56-1.59,3.56-3.56,3.56Zm1.93-16.72h-34.46c-1.85,0-3.31-1.33-3.15-2.87l1.22-11.87c.14-1.37,1.51-2.42,3.15-2.42h31.61c1.61,0,2.96,1.01,3.14,2.34l1.63,11.87c.22,1.57-1.25,2.95-3.14,2.95Z"/><path class="cls-1" d="M69.31,23.83c0-2.45-1.75-3.65-4.37-3.65-1.05,0-1.84,.1-2.26,.19v7.2c.53,.15,1.2,.21,1.98,.21,2.9,0,4.65-1.42,4.65-3.95Z"/><path class="cls-1" d="M57.64,41.55h15.75c3.33,0,6.03-2.7,6.03-6.03v-15.75c0-3.33-2.7-6.03-6.03-6.03h-15.75c-3.33,0-6.03,2.7-6.03,6.03v15.75c0,3.33,2.7,6.03,6.03,6.03Zm2.64-22.89c1.15-.21,2.67-.37,4.6-.37,2.35,0,4.08,.54,5.19,1.54,1,.89,1.63,2.23,1.63,3.88s-.5,3-1.44,3.96c-1.28,1.35-3.32,2.03-5.66,2.03-.73,0-1.38-.03-1.93-.17v7.43h-2.39V18.66Z"/><polygon class="cls-1" points="33.05 22.1 33.05 42.02 36.05 42.02 36.05 22.09 44.62 31.32 46.82 29.27 34.55 16.08 22.28 29.27 24.48 31.32 33.05 22.1"/><polygon class="cls-1" points="106.19 28.82 103.99 26.78 95.42 36 95.42 16.08 92.42 16.08 92.42 36 83.85 26.78 81.65 28.82 93.92 42.02 106.19 28.82"/></g></g></svg>