<?xml version="1.0" encoding="UTF-8"?><svg xmlns="http://www.w3.org/2000/svg" viewBox="0 0 128 128"><defs><style>.cls-1{fill:#ffec00;}.cls-2{fill:#1d70b7;}</style></defs><g id="cuadrobase"><g><rect class="cls-2" x="2" y="2" width="124" height="124" rx="22" ry="22"/><path class="cls-1" d="M104,4c11.03,0,20,8.97,20,20V104c0,11.03-8.97,20-20,20H24c-11.03,0-20-8.97-20-20V24C4,12.97,12.97,4,24,4H104m0-4H24C10.75,0,0,10.75,0,24V104C0,117.25,10.75,128,24,128H104c13.25,0,24-10.75,24-24V24c0-13.25-10.75-24-24-24h0Z"/></g></g><g id="figura"><g><polygon class="cls-1" points="64 50.13 36.35 63.35 91.65 63.35 64 50.13"/><rect class="cls-1" x="42.96" y="67.28" width="5.54" height="39.31"/><rect class="cls-1" x="61.23" y="67.28" width="5.54" height="39.31"/><rect class="cls-1" x="79.5" y="67.28" width="5.54" height="39.31"/><polygon class="cls-1" points="83.21 54.58 83.21 43.21 44.79 43.21 44.79 54.58 64.09 45.31 83.21 54.58"/><rect class="cls-1" x="12.55" y="104.59" width="26.43" height="3.28"/><rect class="cls-1" x="88.56" y="104.59" width="26.43" height="3.28"/><rect class="cls-1" x="11.87" y="111.66" width="104.27" height="3.28"/><path class="cls-1" d="M16.37,67.46v34.6h21.25v-34.6H16.37Zm13.04,29.5h-5.68v-7.63c0-1.51,1.22-2.73,2.73-2.73h.21c1.51,0,2.73,1.22,2.73,2.73v7.63Zm0-14.24h-5.68v-7.63c0-1.51,1.22-2.73,2.73-2.73h.21c1.51,0,2.73,1.22,2.73,2.73v7.63Z"/><path class="cls-1" d="M90.47,67.46v34.6h21.25v-34.6h-21.25Zm14.02,29.5h-5.68v-7.63c0-1.51,1.22-2.73,2.73-2.73h.21c1.51,0,2.73,1.22,2.73,2.73v7.63Zm0-14.24h-5.68v-7.63c0-1.51,1.22-2.73,2.73-2.73h.21c1.51,0,2.73,1.22,2.73,2.73v7.63Z"/><polygon class="cls-1" points="34.74 59.69 17.44 59.69 12.1 63.69 26.09 63.69 34.74 59.69"/><polygon class="cls-1" points="114.25 63.69 108.9 59.69 91.6 59.69 100.25 63.69 114.25 63.69"/><path class="cls-1" d="M49.82,39.39h28.37c.16,0,.3-.13,.3-.29,0-5.29-6.48-10.67-14.46-10.67h-.03c-7.99,0-14.46,5.2-14.46,10.67,0,.16,.13,.29,.3,.29Z"/><rect class="cls-1" x="61.38" y="13.06" width="2.41" height="13.18"/><path class="cls-1" d="M78.45,23.26V13.44c-5.66,0-6.35-3.22-9.61-3.22-2.57,0-3.64,1.13-3.64,1.13v9.82s1.53-1.12,3.64-1.12c3.2,0,4.18,3.22,9.61,3.22Z"/></g></g></svg>