<?xml version="1.0" encoding="UTF-8"?><svg xmlns="http://www.w3.org/2000/svg" viewBox="0 0 128 128"><defs><style>.cls-1{fill:#008d36;}.cls-2{fill:#d9d9d9;}.cls-3{fill:#93c01f;}</style></defs><g id="cuadrobase"><g><rect class="cls-2" x="2" y="2" width="124" height="124" rx="22" ry="22"/><path class="cls-3" d="M104,4c11.03,0,20,8.97,20,20V104c0,11.03-8.97,20-20,20H24c-11.03,0-20-8.97-20-20V24C4,12.97,12.97,4,24,4H104m0-4H24C10.75,0,0,10.75,0,24V104C0,117.25,10.75,128,24,128H104c13.25,0,24-10.75,24-24V24c0-13.25-10.75-24-24-24h0Z"/></g></g><g id="figura"><g><path class="cls-1" d="M66.86,23.97c3.29,.27,6.15-2.19,6.43-5.48s-2.21-6.15-5.5-6.42c-3.29-.27-6.15,2.2-6.41,5.49-.26,3.29,2.19,6.16,5.48,6.41Z"/><path class="cls-1" d="M46.42,85.52c1.57,.14,2.95-.69,3.77-1.95l8.27-13.91c.16-.36,.73-1.28,.8-1.71l2-9.17,8.6,9.43,2.7,14.15c.43,1.67,1.8,3.03,3.64,3.2,2.22,.16,4.17-1.48,4.34-3.72,.02-.28-.02-.48,0-.83l-2.86-15.1c-.09-.45-.26-.91-.5-1.29l-10.58-12.51,2.7-11.89,2.24,4.46c.19,.3,.42,.57,.69,.8l8.96,6.17c.42,.19,.78,.36,1.23,.38,1.48,.14,2.77-.98,2.88-2.45,.09-.95-.34-1.81-1.05-2.36l-8.22-5.65-6.01-11.95c-1.02-1.53-2.71-2.81-4.75-2.96-1.58-.14-3.01,.41-4.2,1.22l-11.99,9.72c-.38,.34-.66,.79-.83,1.29l-2.63,11.79c-.02,.14-.05,.24-.05,.36-.12,1.5,.98,2.79,2.48,2.91,1.38,.12,2.57-.95,2.86-2.24l2.22-10.1,4.18-3.38-6.41,28.35-7.67,12.88c-.23,.45-.5,1.1-.55,1.74-.19,2.22,1.48,4.17,3.72,4.34Z"/><path class="cls-1" d="M78.24,92.75h-1.18s-.28,1.15-.28,1.15c-.03,.12-.2,.8-.57,1.8-.22-.06-.44-.12-.64-.22-.5-.23-1.06-.36-1.65-.36s-1.15,.14-1.65,.36c-.5,.22-1.04,.35-1.61,.35s-1.12-.13-1.6-.35c-.5-.23-1.07-.36-1.66-.36s-1.15,.14-1.65,.36c-.49,.22-1.04,.35-1.61,.35s-1.12-.13-1.6-.35c-.5-.23-1.07-.36-1.65-.36s-1.16,.14-1.65,.36c-.49,.22-1.04,.35-1.61,.35s-1.12-.13-1.61-.35c-.5-.23-1.07-.36-1.66-.36s-1.15,.14-1.65,.36c-.49,.22-1.03,.35-1.59,.35-.56,0-1.1-.13-1.59-.35-.5-.23-1.06-.36-1.65-.36s-1.15,.14-1.65,.36c-.33,.15-.7,.24-1.07,.29-.35-.94-.52-1.58-.55-1.69l-.28-1.14H3.99v3H42.03c1.25,3.64,6.08,14.69,18.66,14.69s17.42-11.2,18.66-14.87h44.68v-3h-45.79Zm-32.04,5.14c.5-.23,1.06-.37,1.65-.37s1.16,.14,1.65,.37c.48,.22,1.02,.34,1.57,.35h0s.01,0,.02,0,.01,0,.02,0h0c.56,0,1.09-.13,1.58-.35,.5-.23,1.07-.37,1.65-.37s1.15,.14,1.66,.37c.49,.22,1.04,.35,1.61,.35s1.12-.13,1.61-.35c.5-.23,1.06-.37,1.65-.37s1.15,.14,1.65,.37c.49,.22,1.03,.35,1.6,.35s1.12-.13,1.61-.35c.5-.23,1.07-.37,1.65-.37s1.16,.14,1.66,.37c.49,.22,1.04,.35,1.6,.35s1.12-.13,1.61-.35c.5-.23,1.06-.37,1.65-.37,.49,0,.96,.11,1.39,.28-.6,1.23-1.42,2.61-2.49,3.95-.19,.05-.38,.11-.55,.18-.5,.22-1.04,.35-1.61,.35s-1.12-.13-1.6-.35c-.5-.23-1.07-.36-1.66-.36s-1.15,.13-1.65,.36c-.49,.22-1.04,.35-1.61,.35s-1.12-.13-1.6-.35c-.5-.23-1.07-.36-1.65-.36s-1.16,.13-1.65,.36c-.49,.22-1.04,.35-1.61,.35s-1.12-.13-1.61-.35c-.5-.23-1.07-.36-1.66-.36s-1.15,.13-1.65,.36c-.49,.22-1.03,.35-1.59,.35-.56,0-1.1-.13-1.59-.35-.34-.15-.72-.24-1.1-.3-1-1.25-1.76-2.54-2.33-3.7,.04-.02,.09-.02,.13-.04Zm5.28,6.76c.42-.05,.83-.14,1.21-.31,.5-.23,1.07-.37,1.65-.37s1.15,.14,1.66,.37c.49,.22,1.04,.35,1.61,.35s1.12-.13,1.61-.35c.5-.23,1.06-.37,1.65-.37s1.15,.14,1.65,.37c.49,.22,1.03,.35,1.6,.35s1.12-.13,1.61-.35c.5-.23,1.07-.37,1.65-.37s1.16,.14,1.66,.37c.27,.12,.55,.21,.85,.27-2.31,1.75-5.31,3.01-9.21,3.01s-6.9-1.24-9.21-2.97Z"/></g></g></svg>