<?xml version="1.0" encoding="UTF-8"?><svg xmlns="http://www.w3.org/2000/svg" viewBox="0 0 128 128"><defs><style>.cls-1{fill:#fff;}.cls-2{fill:#95c11f;}</style></defs><g id="cuadrobase"><g><rect class="cls-2" x="2" y="2" width="124" height="124" rx="22" ry="22"/><path class="cls-1" d="M104,4c11.03,0,20,8.97,20,20V104c0,11.03-8.97,20-20,20H24c-11.03,0-20-8.97-20-20V24C4,12.97,12.97,4,24,4H104M104,0H24C10.75,0,0,10.75,0,24V104C0,117.25,10.75,128,24,128H104c13.25,0,24-10.75,24-24V24C128,10.75,117.25,0,104,0h0Z"/></g></g><g id="figura"><path class="cls-1" d="M110.23,22.85s-2.97,4.73-9.08,6.47c-6.1,1.74-63.58,14.24-63.58,14.24-3.84,1.09-6.38,4.68-6.8,8.9-.64-.04-1.3,.02-1.96,.2-2.92,.83-4.67,3.7-3.9,6.39,.77,2.7,3.76,4.21,6.68,3.38,.66-.19,1.25-.49,1.77-.86,2.58,3.37,6.63,5.08,10.47,3.98,0,0,.82-.29,2.26-.8l-21.45,36.17c-.57-3.09-3.27-5.44-6.53-5.44-3.67,0-6.64,2.97-6.64,6.64s2.78,6.44,6.28,6.62v.02h14.71v-.23l.04,.03,16.49-27.8c-.3,1.53-.46,3.11-.46,4.73,0,13.41,10.91,24.33,24.33,24.33s24.33-10.91,24.33-24.33-10.91-24.33-24.33-24.33c-5.94,0-11.39,2.14-15.61,5.69l4.54-7.65c16.95-5.97,40.29-14.15,43.82-15.15,5.62-1.6,10.88,.78,10.88,.78l-6.27-22ZM24.76,102.41c0-.09,.01-.19,.01-.28,0-.13-.01-.27-.02-.4l.78,.68h-.77Zm34.73-6.48c-1.84-2.36-3.07-5.21-3.46-8.33h11.79l-8.33,8.33Zm11.29-5.37v11.79c-3.12-.39-5.97-1.62-8.33-3.46l8.33-8.33Zm4.19,0l8.33,8.33c-2.36,1.84-5.21,3.08-8.33,3.46v-11.79Zm2.96-2.96h11.79c-.39,3.12-1.62,5.97-3.46,8.33l-8.33-8.33Zm0-4.19l8.33-8.33c1.84,2.36,3.08,5.21,3.46,8.33h-11.79Zm-2.96-2.96v-11.79c3.12,.39,5.97,1.62,8.33,3.46l-8.33,8.33Zm-4.19,0l-8.33-8.33c2.36-1.84,5.21-3.08,8.33-3.46v11.79Zm-2.96,2.96h-11.79c.39-3.12,1.62-5.97,3.46-8.33l8.33,8.33Z"/></g></svg>