<?xml version="1.0" encoding="UTF-8"?><svg xmlns="http://www.w3.org/2000/svg" viewBox="0 0 128 128"><defs><style>.cls-1{fill:#e61b72;}.cls-2{fill:#ffec00;}.cls-3{fill:#ececec;}</style></defs><g id="cuadrobase"><g><rect class="cls-3" x="2" y="2" width="124" height="124" rx="22" ry="22"/><path class="cls-2" d="M104,4c11.03,0,20,8.97,20,20V104c0,11.03-8.97,20-20,20H24c-11.03,0-20-8.97-20-20V24C4,12.97,12.97,4,24,4H104m0-4H24C10.75,0,0,10.75,0,24V104c0,13.25,10.75,24,24,24H104c13.25,0,24-10.75,24-24V24c0-13.25-10.75-24-24-24h0Z"/></g></g><g id="figura"><g><polygon class="cls-1" points="32.13 38.05 33.55 38.05 33.55 36.94 34.25 36.94 34.25 35.83 33.55 35.83 33.55 35.1 32.13 35.1 32.13 35.83 31.43 35.83 31.43 36.94 32.13 36.94 32.13 38.05"/><path class="cls-1" d="M38.61,43.93c.05-.2,.08-.4,.08-.61,0-2.16-2.62-3.91-5.85-3.91s-5.85,1.75-5.85,3.91c0,.21,.03,.41,.08,.61h11.55Z"/><rect class="cls-1" x="27.01" y="45.66" width="11.65" height="6.38"/><polygon class="cls-1" points="94.12 38.05 95.55 38.05 95.55 36.94 96.25 36.94 96.25 35.83 95.55 35.83 95.55 35.1 94.12 35.1 94.12 35.83 93.42 35.83 93.42 36.94 94.12 36.94 94.12 38.05"/><path class="cls-1" d="M100.61,43.93c.05-.2,.08-.4,.08-.61,0-2.16-2.62-3.91-5.85-3.91s-5.85,1.75-5.85,3.91c0,.21,.03,.41,.08,.61h11.55Z"/><rect class="cls-1" x="89.01" y="45.66" width="11.65" height="6.38"/><path class="cls-1" d="M83.34,36.84c.16-.52,.27-1.05,.27-1.59,0-5.15-7.53-9.4-17.28-10.07v-5.21h2.86v-4.54h-2.86v-2.07h-5.82v2.07h-2.86v4.54h2.86v5.24c-9.56,.76-16.89,4.96-16.89,10.04,0,.54,.11,1.07,.27,1.59h39.46Z"/><path class="cls-1" d="M86.17,53.78v-15H41.05v15H22.79V123.97H105.21V53.78h-19.04Zm4.59,20.46h-22.53v23.11l9.49,4.37-2.96,7.67-6.53-3.13v14.25h-8.34v-18.26l-9.27-4.45,3.39-6.98,5.88,2.71v-19.28h-22.65v-8.01h22.65v-8.08h-8.82v-8.34h8.82v-7.56h8.34v7.56h8.88v8.34h-8.88v8.08h22.53v8.01Z"/></g></g></svg>