<?xml version="1.0" encoding="UTF-8"?><svg xmlns="http://www.w3.org/2000/svg" viewBox="0 0 128 128"><defs><style>.cls-1{fill:#fff;}.cls-2{fill:#be1622;}</style></defs><g id="cuadrobase"><g><rect class="cls-2" x="2" y="2" width="124" height="124" rx="22" ry="22"/><path class="cls-1" d="M104,4c11.03,0,20,8.97,20,20V104c0,11.03-8.97,20-20,20H24c-11.03,0-20-8.97-20-20V24C4,12.97,12.97,4,24,4H104M104,0H24C10.74,0,0,10.75,0,24V104C0,117.25,10.74,128,24,128H104c13.25,0,24-10.75,24-24V24C128,10.75,117.25,0,104,0h0Z"/></g></g><g id="figura"><path class="cls-1" d="M64,9.55c-26.35,0-47.71,21.36-47.71,47.71s38.71,61.19,47.71,61.19c8.49,0,47.71-34.85,47.71-61.19S90.35,9.55,64,9.55Zm.75,70.24c-13.41,0-24.28-10.87-24.28-24.28s10.87-24.28,24.28-24.28,24.28,10.87,24.28,24.28-10.87,24.28-24.28,24.28Z"/></g></svg>