<?xml version="1.0" encoding="UTF-8"?><svg xmlns="http://www.w3.org/2000/svg" viewBox="0 0 128 128"><defs><style>.cls-1{fill:#1d70b7;}.cls-2{fill:#35a8e0;}.cls-3{fill:#2d2e82;}</style></defs><g id="cuadrobase"><g><rect class="cls-2" x="2" y="2" width="124" height="124" rx="22" ry="22"/><path class="cls-1" d="M104,4c11.03,0,20,8.97,20,20V104c0,11.03-8.97,20-20,20H24c-11.03,0-20-8.97-20-20V24C4,12.97,12.97,4,24,4H104m0-4H24C10.75,0,0,10.75,0,24V104C0,117.25,10.75,128,24,128H104c13.25,0,24-10.75,24-24V24c0-13.25-10.75-24-24-24h0Z"/></g></g><g id="figura"><g><rect class="cls-3" x="3.99" y="30.27" width="23.32" height="19.78"/><path class="cls-3" d="M117.12,96.84c-1.65,0-3.24,.38-4.64,1.02-1.37,.62-2.88,.98-4.47,.98-1.57,0-3.11-.37-4.47-.98-1.4-.64-2.99-1.02-4.65-1.02s-3.24,.38-4.64,1.02c-1.39,.63-2.92,.99-4.53,.99s-3.14-.36-4.51-.99c-1.41-.64-3-1.02-4.66-1.02s-3.23,.38-4.64,1.02c-1.39,.63-2.92,.99-4.53,.99s-3.14-.36-4.51-.99c-1.41-.64-3-1.02-4.65-1.02s-3.25,.38-4.65,1.02c-1.37,.63-2.92,.99-4.52,.99s-3.14-.36-4.52-.99c-1.41-.64-3-1.02-4.65-1.02s-3.24,.38-4.65,1.02c-1.37,.62-2.88,.98-4.47,.98-1.57,0-3.11-.37-4.47-.98-1.4-.64-2.99-1.02-4.65-1.02s-3.24,.38-4.64,1.02c-1.39,.63-2.92,.99-4.53,.99s-3.14-.36-4.51-.99c-1.41-.64-3-1.02-4.66-1.02-1.1,0-2.16,.18-3.18,.48v6.76c1.01-.31,2.08-.49,3.18-.49,1.66,0,3.25,.38,4.66,1.04,1.37,.62,2.92,.99,4.51,.99s3.14-.37,4.53-.99c1.4-.66,2.99-1.04,4.64-1.04s3.25,.38,4.65,1.04c1.35,.61,2.86,.97,4.42,.98h0s.03,0,.04,0,.03,0,.04,0h0c1.57-.02,3.07-.38,4.43-.99,1.41-.66,3-1.04,4.65-1.04s3.24,.38,4.65,1.04c1.38,.62,2.92,.99,4.52,.99s3.15-.37,4.52-.99c1.4-.66,2.99-1.04,4.65-1.04s3.24,.38,4.65,1.04c1.37,.62,2.9,.99,4.51,.99s3.14-.37,4.53-.99c1.41-.66,3-1.04,4.64-1.04s3.25,.38,4.66,1.04c1.37,.62,2.92,.99,4.51,.99s3.14-.37,4.53-.99c1.4-.66,2.99-1.04,4.64-1.04s3.25,.38,4.65,1.04c1.35,.61,2.86,.97,4.42,.98h0s.03,0,.04,0,.03,0,.04,0h0c1.57-.02,3.08-.38,4.43-.99,1.41-.66,3-1.04,4.64-1.04s3.24,.38,4.65,1.04c.67,.3,1.37,.54,2.1,.7v-6.77c-.73-.17-1.44-.41-2.1-.71-1.41-.64-3-1.02-4.65-1.02Z"/><path class="cls-3" d="M121.77,83.58c-1.41-.64-3-1.02-4.65-1.02s-3.24,.38-4.64,1.02c-1.37,.62-2.88,.98-4.47,.98-1.57,0-3.11-.37-4.47-.98-1.4-.64-2.99-1.02-4.65-1.02s-3.24,.38-4.64,1.02c-1.39,.63-2.92,.99-4.53,.99s-3.14-.36-4.51-.99c-1.41-.64-3-1.02-4.66-1.02s-3.23,.38-4.64,1.02c-1.39,.63-2.92,.99-4.53,.99s-3.14-.36-4.51-.99c-1.41-.64-3-1.02-4.65-1.02s-3.25,.38-4.65,1.02c-.41,.19-.83,.34-1.27,.48-3.87-10.89-7.65-34.38-24.35-41.5l-.24,.59c7.11,3.97,16.32,12.4,22.99,40.41-7.76-28.13-18.09-36.72-23.17-39.99l-.31,.74c6.67,4.69,17.42,18.52,20.79,39.26-3.96-20.1-16.07-34.45-20.98-38.8l-.35,.84c5.73,4.63,16.62,20.41,18.98,38.4-.04-.01-.08-.03-.12-.04-4.06-19.49-15.01-34.04-19.02-37.97l-.35,.85c4.32,3.98,14.39,19.67,16.1,35.97-.1-.02-.2-.03-.3-.05-3.85-18.86-12.87-32.45-15.93-35.61l-.34,.83c10.29,13.44,11.78,24.09,11.84,34.81-.81,.17-1.58,.43-2.31,.76-1.37,.62-2.88,.98-4.47,.98-1.57,0-3.11-.37-4.47-.98-1.4-.64-2.99-1.02-4.65-1.02s-3.24,.38-4.64,1.02c-1.39,.63-2.92,.99-4.53,.99s-3.14-.36-4.51-.99c-1.41-.64-3-1.02-4.66-1.02-1.1,0-2.16,.18-3.18,.48v6.76c1.01-.31,2.08-.49,3.18-.49,1.66,0,3.25,.38,4.66,1.04,1.37,.62,2.92,.99,4.51,.99s3.14-.37,4.53-.99c1.4-.66,2.99-1.04,4.64-1.04s3.25,.38,4.65,1.04c1.35,.61,2.86,.97,4.42,.98h0s.03,0,.04,0,.03,0,.04,0h0c1.57-.02,3.07-.38,4.43-.99,1.41-.66,3-1.04,4.65-1.04s3.24,.38,4.65,1.04c1.38,.62,2.92,.99,4.52,.99s3.15-.37,4.52-.99c1.4-.66,2.99-1.04,4.65-1.04s3.24,.38,4.65,1.04c1.37,.62,2.9,.99,4.51,.99s3.14-.37,4.53-.99c1.41-.66,3-1.04,4.64-1.04s3.25,.38,4.66,1.04c1.37,.62,2.92,.99,4.51,.99s3.14-.37,4.53-.99c1.4-.66,2.99-1.04,4.64-1.04s3.25,.38,4.65,1.04c1.35,.61,2.86,.97,4.42,.98h0s.03,0,.04,0,.03,0,.04,0h0c1.57-.02,3.08-.38,4.43-.99,1.41-.66,3-1.04,4.64-1.04s3.24,.38,4.65,1.04c.67,.3,1.37,.54,2.1,.7v-6.77c-.73-.17-1.44-.41-2.1-.71Z"/></g></g></svg>