<?xml version="1.0" encoding="UTF-8"?><svg xmlns="http://www.w3.org/2000/svg" viewBox="0 0 128 128"><defs><style>.cls-1{fill:#ffec00;}.cls-2{fill:#d60b51;}</style></defs><g id="cuadrobase"><g><rect class="cls-2" x="2" y="2" width="124" height="124" rx="22" ry="22"/><path class="cls-1" d="M104,4c11.03,0,20,8.97,20,20V104c0,11.03-8.97,20-20,20H24c-11.03,0-20-8.97-20-20V24C4,12.97,12.97,4,24,4H104m0-4H24C10.75,0,0,10.75,0,24V104C0,117.25,10.75,128,24,128H104c13.25,0,24-10.75,24-24V24c0-13.25-10.75-24-24-24h0Z"/></g></g><g id="figura"><g><path class="cls-1" d="M104.47,104.08l-2.61-8.87c-.48-1.4-1.54-2.61-3.55-2.61h-16.68c-1.99,0-3.05,1.21-3.55,2.61l-2.59,8.87c-1.03,.14-2.85,1.48-2.85,4v9.44h2.53v3.04c0,3.71,4.74,3.66,4.74,0v-3.04h20.15v3.04c0,3.66,4.73,3.71,4.74,0v-3.04h2.53v-9.44c0-2.52-1.83-3.86-2.85-4Zm-26.86,8.94c-1.55,0-2.81-1.21-2.81-2.7,0-1.51,1.25-2.72,2.81-2.72,1.55,0,2.81,1.22,2.81,2.72,0,1.48-1.25,2.69-2.81,2.7Zm.57-9.01l1.95-7.3c.24-.81,.6-1.41,1.47-1.41h16.75c.85,0,1.22,.6,1.47,1.41l1.95,7.3h-23.59Zm24.17,9.19c-1.66,0-3-1.29-3.01-2.87,.01-1.6,1.35-2.89,3.01-2.89,1.64,0,2.98,1.29,2.99,2.89,0,1.57-1.35,2.86-2.99,2.87Z"/><path class="cls-1" d="M75.17,36.21c0,3.71,4.74,3.67,4.74,0v-3.04h20.15v3.04c0,3.67,4.73,3.71,4.74,0v-3.04h2.53v-9.44c0-2.52-1.83-3.86-2.85-4l-2.61-8.87c-.48-1.4-1.54-2.61-3.55-2.61h-16.68c-1.99,0-3.05,1.21-3.55,2.61l-2.59,8.87c-1.03,.14-2.85,1.48-2.85,4v9.44h2.53v3.04Zm27.18-13.13c1.64,0,2.98,1.29,2.99,2.89,0,1.57-1.35,2.86-2.99,2.87-1.66,0-3-1.29-3.01-2.87,.01-1.6,1.35-2.89,3.01-2.89Zm-22.21-10.72c.24-.81,.6-1.41,1.47-1.41h16.75c.85,0,1.22,.6,1.47,1.41l1.95,7.3h-23.59l1.95-7.3Zm-5.33,13.61c0-1.51,1.25-2.72,2.81-2.72,1.55,0,2.81,1.22,2.81,2.72,0,1.48-1.25,2.69-2.81,2.7-1.55,0-2.81-1.21-2.81-2.7Z"/><path class="cls-1" d="M104.79,78.19v-3.04h2.53v-9.44c0-2.52-1.83-3.86-2.85-4l-2.61-8.87c-.48-1.4-1.54-2.61-3.55-2.61h-16.68c-1.99,0-3.05,1.21-3.55,2.61l-2.59,8.87c-1.03,.14-2.85,1.48-2.85,4v9.44h2.53v3.04c0,3.71,4.74,3.66,4.74,0v-3.04h20.15v3.04c0,3.66,4.73,3.71,4.74,0Zm-27.18-7.54c-1.55,0-2.81-1.21-2.81-2.7,0-1.51,1.25-2.72,2.81-2.72,1.55,0,2.81,1.22,2.81,2.72,0,1.48-1.25,2.69-2.81,2.7Zm.57-9.01l1.95-7.3c.24-.81,.6-1.41,1.47-1.41h16.75c.85,0,1.22,.6,1.47,1.41l1.95,7.3h-23.59Zm21.15,6.32c.01-1.6,1.35-2.89,3.01-2.89,1.64,0,2.98,1.29,2.99,2.89,0,1.57-1.35,2.86-2.99,2.87-1.66,0-3-1.29-3.01-2.87Z"/><path class="cls-1" d="M43.21,15.55H18.1c-3.06,0-5.54,2.48-5.54,5.54v24.87c0,3.06,2.48,5.54,5.54,5.54h25.12c3.06,0,5.54-2.48,5.54-5.54V21.08c0-3.06-2.48-5.54-5.54-5.54Zm-5.03,29.53h-15.05V21.48h14.56v4.38h-9.21v4.9h8.68v4.34h-8.68v5.6h9.7v4.38Z"/><polygon class="cls-1" points="123.88 39.71 58.9 39.71 58.9 4.11 55.36 4.11 55.36 123.89 58.9 123.89 58.9 86.62 123.88 86.62 123.88 82.68 58.9 82.68 58.9 43.65 123.88 43.65 123.88 39.71"/></g></g></svg>