<?xml version="1.0" encoding="UTF-8"?><svg xmlns="http://www.w3.org/2000/svg" viewBox="0 0 128 128"><defs><style>.cls-1{fill:#f9b233;}.cls-2{fill:#fff;}</style></defs><g id="cuadrobase"><g><rect class="cls-1" x="2" y="2" width="124" height="124" rx="22" ry="22"/><path class="cls-2" d="M104,4c11.03,0,20,8.97,20,20V104c0,11.03-8.97,20-20,20H24c-11.03,0-20-8.97-20-20V24C4,12.97,12.97,4,24,4H104M104,0H24C10.75,0,0,10.75,0,24V104C0,117.25,10.75,128,24,128H104c13.25,0,24-10.75,24-24V24C128,10.75,117.25,0,104,0h0Z"/></g></g><g id="figura"><g><rect class="cls-2" x="35.86" y="113.02" width="56.29" height="11.09"/><path class="cls-2" d="M35.86,107.43h56.29v-35.29H35.86v35.29Zm25.15-16.63h17.8c5.52,0,9.99,4.47,9.99,9.99v.48h-27.79v-10.48Zm-12.71-2.31c3.3,0,5.97,2.67,5.97,5.97s-2.67,5.97-5.97,5.97-5.97-2.67-5.97-5.97,2.67-5.97,5.97-5.97Z"/><path class="cls-2" d="M64.39,8.09L9.8,43.68h6.99V117.73c0,3.51,2.87,6.38,6.38,6.38h7.1V41.31h5.59v25.26h56.29v-7.25h5.59V124.11h6.17c.87,0,7.32-.71,7.32-1.58V43.68h7.76L64.39,8.09Zm-16.09,51.48c-3.3,0-5.97-2.67-5.97-5.97s2.67-5.97,5.97-5.97,5.97,2.67,5.97,5.97-2.67,5.97-5.97,5.97Zm40.5,.84h-27.79v-10.48h17.8c5.52,0,9.99,4.47,9.99,9.99v.48Z"/></g></g></svg>