<?xml version="1.0" encoding="UTF-8"?><svg xmlns="http://www.w3.org/2000/svg" viewBox="0 0 128 128"><defs><style>.cls-1{fill:#dce2c9;}.cls-2{fill:#1d70b7;}.cls-3{fill:#35a8e0;}</style></defs><g id="cuadrobase"><g><rect class="cls-1" x="2" y="2" width="124" height="124" rx="22" ry="22"/><path class="cls-3" d="M104,4c11.03,0,20,8.97,20,20V104c0,11.03-8.97,20-20,20H24c-11.03,0-20-8.97-20-20V24C4,12.97,12.97,4,24,4H104m0-4H24C10.75,0,0,10.75,0,24V104C0,117.25,10.75,128,24,128H104c13.25,0,24-10.75,24-24V24c0-13.25-10.75-24-24-24h0Z"/></g></g><g id="figura"><g><path class="cls-2" d="M70.15,26.78c4.03,.33,7.54-2.68,7.88-6.71,.34-4.03-2.71-7.54-6.74-7.87s-7.54,2.69-7.85,6.73c-.31,4.03,2.68,7.55,6.71,7.85Z"/><path class="cls-2" d="M87.8,95.94c.03-.34-.03-.58,0-1.01l-3.51-18.51c-.11-.56-.31-1.11-.61-1.58l-12.97-15.34,3.31-14.58,2.75,5.47c.23,.37,.51,.7,.84,.98l10.99,7.57c.51,.23,.96,.44,1.51,.47,1.81,.17,3.39-1.2,3.53-3.01,.11-1.17-.41-2.22-1.28-2.89l-10.08-6.93-7.37-14.65c-1.25-1.88-3.32-3.45-5.83-3.63-1.94-.17-3.69,.5-5.15,1.5l-14.7,11.92c-.47,.41-.81,.97-1.01,1.58l-3.22,14.45c-.03,.17-.06,.3-.06,.44-.14,1.84,1.2,3.42,3.04,3.56,1.7,.14,3.15-1.17,3.51-2.75l2.72-12.39,5.13-4.15-7.85,34.76-9.41,15.79c-.29,.56-.61,1.35-.67,2.14-.23,2.72,1.81,5.12,4.56,5.32,1.92,.17,3.62-.84,4.62-2.39l10.13-17.06c.2-.44,.9-1.57,.98-2.1l2.45-11.25,10.55,11.56,3.31,17.35c.53,2.05,2.21,3.72,4.46,3.92,2.72,.2,5.12-1.81,5.32-4.56Z"/><polygon class="cls-2" points="4.1 79.28 4.1 95.67 15.86 79.28 4.1 79.28"/><path class="cls-2" d="M8.54,116.93c3.25,3.94,8.02,6.56,13.41,7.01h5.11l13.8-44.65h-12.81L8.54,116.93Z"/><path class="cls-2" d="M64.83,79.28l-.34,1.55c-.08,.53-.78,1.65-.98,2.1l-10.13,17.06c-.47,.73-1.09,1.32-1.81,1.75l-3.4,22.19h22.15l-4.45-44.65h-1.03Z"/><path class="cls-2" d="M90.87,79.28l-2.78,.08,3.18,17.35c-.03,.43,.03,.28,0,.62-.18,2.52-2.83,5.1-5.36,5.36l5.52,21.25h22.15l-.9-1.77-21.8-42.88Z"/><path class="cls-2" d="M116.48,79.28h-12.81l20.03,27.91c.12-.87,.2-1.75,.2-2.65v-17.25l-7.43-8.01Z"/></g></g></svg>