<?xml version="1.0" encoding="UTF-8"?><svg xmlns="http://www.w3.org/2000/svg" viewBox="0 0 128 128"><defs><style>.cls-1{fill:#e5332a;}.cls-2{fill:#00a099;}.cls-3{fill:#35a8e0;}</style></defs><g id="cuadrobase"><g><rect class="cls-2" x="2" y="2" width="124" height="124" rx="22" ry="22"/><path class="cls-3" d="M104,4c11.03,0,20,8.97,20,20V104c0,11.03-8.97,20-20,20H24c-11.03,0-20-8.97-20-20V24C4,12.97,12.97,4,24,4H104m0-4H24C10.75,0,0,10.75,0,24V104C0,117.25,10.75,128,24,128H104c13.25,0,24-10.75,24-24V24c0-13.25-10.75-24-24-24h0Z"/></g></g><g id="figura"><g><path class="cls-1" d="M15.84,62.16H113.59c.85,0,1.53-1.69,1.53-2.53s-.69-1.53-1.53-1.53h-14.39v-10.51h8.45c2.2,0,3.98-2.78,3.98-4.98v-.1c0-2.2-1.78-4.98-3.98-4.98h-8.45v-9.17h8.45c2.2,0,3.98-2.78,3.98-4.98v-.1c0-2.2-1.78-4.98-3.98-4.98H21.78c-2.2,0-3.98,2.78-3.98,4.98v.1c0,2.2,1.78,4.98,3.98,4.98h5.4v9.17h-5.4c-2.2,0-3.98,2.78-3.98,4.98v.1c0,2.2,1.78,4.98,3.98,4.98h5.4v10.51H15.84c-.85,0-1.53,.69-1.53,1.53s.69,2.53,1.53,2.53ZM33.76,28.36h59.03v9.17H33.76v-9.17Zm0,19.22h59.03v10.51H33.76v-10.51Z"/><path class="cls-1" d="M15.78,71.9H113.65c.81,0,1.47-1.66,1.47-2.47s-.66-2.47-1.47-2.47H15.78c-.81,0-1.47,1.66-1.47,2.47s.66,2.47,1.47,2.47Z"/><path class="cls-1" d="M111.83,98.44l-4.58-14.79h5.63c1.24,0,2.24-2,2.24-3.24s-1-3.24-2.24-3.24H16.55c-1.24,0-2.24,2-2.24,3.24s1,3.24,2.24,3.24h4.87l-3.84,14.79H4v5.52c0,11.07,8.98,20.05,20.05,20.05H103.95c11.07,0,20.05-8.98,20.05-20.05v-5.52h-12.17Zm-88.39,0l3.91-14.79H101.22l4.68,14.79H23.44Z"/></g></g></svg>