<?xml version="1.0" encoding="UTF-8"?><svg xmlns="http://www.w3.org/2000/svg" viewBox="0 0 128 128"><defs><style>.cls-1{fill:#008d36;}.cls-2{fill:#ffec00;}</style></defs><g id="cuadrobase"><g><rect class="cls-1" x="2" y="2" width="124" height="124" rx="22" ry="22"/><path class="cls-2" d="M104,4c11.03,0,20,8.97,20,20V104c0,11.03-8.97,20-20,20H24c-11.03,0-20-8.97-20-20V24C4,12.97,12.97,4,24,4H104m0-4H24C10.75,0,0,10.75,0,24V104C0,117.25,10.75,128,24,128H104c13.25,0,24-10.75,24-24V24c0-13.25-10.75-24-24-24h0Z"/></g></g><g id="figura"><g><polygon class="cls-2" points="101.5 11.66 26.5 11.66 16.24 11.66 16.24 21.92 16.24 30.53 26.5 30.53 26.5 21.92 101.5 21.92 101.5 30.53 111.76 30.53 111.76 21.92 111.76 11.66 101.5 11.66"/><path class="cls-2" d="M88.69,109.44h-10.65c-1.54-4.69-5.62-10.46-14.04-10.46s-12.18,5.79-13.81,10.46h-10.62V31.31h-7V116.44h20.34l2.99-.02,.47-2.95c.12-.77,1.37-7.49,7.63-7.49,.7,0,6.87,.21,7.79,7.35l.35,3.11h23.55V31.31h-7V109.44Z"/><polygon class="cls-2" points="78.75 49.95 78.75 41.82 51.71 41.82 51.71 85.64 79.66 85.64 79.66 77.51 61.66 77.51 61.66 67.11 77.78 67.11 77.78 59.05 61.66 59.05 61.66 49.95 78.75 49.95"/></g></g></svg>