<?xml version="1.0" encoding="UTF-8"?><svg xmlns="http://www.w3.org/2000/svg" viewBox="0 0 128 128"><defs><style>.cls-1{fill:#063;}.cls-2{fill:#ffec00;}.cls-3{fill:#35a8e0;}</style></defs><g id="cuadrobase"><g><rect class="cls-1" x="2" y="2" width="124" height="124" rx="22" ry="22"/><path class="cls-3" d="M104,4c11.03,0,20,8.97,20,20V104c0,11.03-8.97,20-20,20H24c-11.03,0-20-8.97-20-20V24C4,12.97,12.97,4,24,4H104m0-4H24C10.75,0,0,10.75,0,24V104C0,117.25,10.75,128,24,128H104c13.25,0,24-10.75,24-24V24c0-13.25-10.75-24-24-24h0Z"/></g></g><g id="figura"><path class="cls-2" d="M98.02,14.04l-3.59,5.43c1.49,.99,4.4,3.24,6.87,5.92l-4.71,5.41,8.99,7.82h.01s0,45.51,0,45.51c0,2.12-.49,3.81-1.41,4.88-.83,.96-1.78,1.16-2.43,1.16-2.06,0-4.28-1.95-4.28-6.23v-25.49c0-4.12-1.49-7.55-4.31-9.91-3.45-2.89-8.2-3.68-11.98-3.77v-8.35c0-5.23-4.24-9.46-9.46-9.46H31.02c-5.23,0-9.46,4.24-9.46,9.46V123.93h59.63V51.3c2.76,.08,5.88,.62,7.81,2.24,1.35,1.13,1.97,2.7,1.97,4.92v25.49c0,8.27,5.56,12.74,10.79,12.74,2.84,0,5.45-1.21,7.36-3.42,1.96-2.27,2.99-5.43,2.99-9.13V33.44c0-9.81-12.65-18.44-14.09-19.39Zm-26.55,44.98H31.28v-18.48h40.19v18.48Z"/></g></svg>