<?xml version="1.0" encoding="UTF-8"?><svg xmlns="http://www.w3.org/2000/svg" viewBox="0 0 128 128"><defs><style>.cls-1{fill:#008d36;}.cls-2{fill:#d9d9d9;}.cls-3{fill:#93c01f;}</style></defs><g id="cuadrobase"><g><rect class="cls-2" x="2" y="2" width="124" height="124" rx="22" ry="22"/><path class="cls-3" d="M104,4c11.03,0,20,8.97,20,20V104c0,11.03-8.97,20-20,20H24c-11.03,0-20-8.97-20-20V24C4,12.97,12.97,4,24,4H104m0-4H24C10.75,0,0,10.75,0,24V104C0,117.25,10.75,128,24,128H104c13.25,0,24-10.75,24-24V24c0-13.25-10.75-24-24-24h0Z"/></g></g><g id="figura"><g><path class="cls-1" d="M116.57,79.11c-2.3-1.05-4.9-1.67-7.61-1.67s-5.28,.62-7.58,1.67c-2.19,.98-4.62,1.56-7.15,1.6-11.92-19.74,2-43.74-49.83-59.54-.47-3.81-1.34-6.87-2.49-7.31H6.8s-2.79,4.54-2.79,9.7v14.64H41.91c1.01,.37,1.73-.72,2.21-2.6,18.38,14.18,13.14,25.2,10.3,42.67-1.71-.53-3.53-.84-5.41-.84-2.7,0-5.28,.62-7.59,1.67-2.25,1.01-4.77,1.6-7.39,1.6s-5.13-.59-7.38-1.6c-2.3-1.05-4.9-1.67-7.59-1.67s-5.3,.62-7.6,1.67c-2.25,1.01-4.76,1.6-7.38,1.6v11.08c2.63,0,5.13-.6,7.38-1.61,2.3-1.08,4.88-1.7,7.6-1.7s5.29,.62,7.59,1.7c2.25,1.01,4.76,1.61,7.38,1.61s5.14-.6,7.39-1.61c2.31-1.08,4.89-1.7,7.59-1.7s5.3,.62,7.61,1.7c2.24,1.01,4.76,1.61,7.38,1.61s5.13-.6,7.37-1.61c2.32-1.08,4.92-1.7,7.6-1.7s5.32,.62,7.61,1.7c2.24,1.01,4.75,1.61,7.37,1.61s5.14-.6,7.4-1.61c2.3-1.08,4.9-1.7,7.58-1.7s5.31,.62,7.61,1.7c2.24,1.01,4.78,1.61,7.37,1.61v-11.08c-2.6,0-5.14-.59-7.37-1.6ZM44.78,26.03c0-.28-.02-.56-.04-.85,15.45,8.08,31.83,11.75,35.12,45.33-5.85-34.14-27.2-39.52-35.08-44.48Zm.03,2.9c13.15,8.12,26.99,12.09,29.78,46.13-4.95-34.45-22.86-40.24-29.8-45.26,0-.28,.02-.57,.02-.86Zm41.57,41.54c-7.01-36.93-32.92-42.21-41.8-47.57-.03-.29-.05-.57-.08-.85,17.78,8.61,36.57,12.11,41.88,48.42ZM44.52,33.34c.03-.27,.07-.55,.09-.84,9.79,7.12,19.77,11.69,21.84,42.49-3.59-30.46-16.03-37.05-21.94-41.66Z"/><path class="cls-1" d="M108.96,98.94c-2.68,0-5.28,.62-7.58,1.67-2.26,1.01-4.78,1.6-7.4,1.6s-5.13-.59-7.37-1.6c-2.29-1.05-4.89-1.67-7.61-1.67s-5.28,.62-7.6,1.67c-2.24,1.01-4.75,1.6-7.37,1.6s-5.14-.59-7.38-1.6c-2.31-1.05-4.9-1.67-7.61-1.67s-5.28,.62-7.59,1.67c-2.25,1.01-4.77,1.6-7.39,1.6s-5.13-.59-7.38-1.6c-2.3-1.05-4.9-1.67-7.59-1.67s-5.3,.62-7.6,1.67c-2.25,1.01-4.76,1.6-7.38,1.6v11.08c2.63,0,5.13-.6,7.38-1.61,2.3-1.08,4.88-1.7,7.6-1.7s5.29,.62,7.59,1.7c2.25,1.01,4.76,1.61,7.38,1.61s5.14-.6,7.39-1.61c2.31-1.08,4.89-1.7,7.59-1.7s5.3,.62,7.61,1.7c2.24,1.01,4.76,1.61,7.38,1.61s5.13-.6,7.37-1.61c2.32-1.08,4.92-1.7,7.6-1.7s5.32,.62,7.61,1.7c2.24,1.01,4.75,1.61,7.37,1.61s5.14-.6,7.4-1.61c2.3-1.08,4.9-1.7,7.58-1.7s5.31,.62,7.61,1.7c2.24,1.01,4.78,1.61,7.37,1.61v-11.08c-2.6,0-5.14-.59-7.37-1.6-2.3-1.05-4.9-1.67-7.61-1.67Z"/></g></g></svg>