<?xml version="1.0" encoding="UTF-8"?><svg xmlns="http://www.w3.org/2000/svg" viewBox="0 0 128 128"><defs><style>.cls-1{fill:#e9a1c7;}.cls-2{fill:#e20613;}.cls-3{fill:#35a8e0;}</style></defs><g id="cuadrobase"><g><rect class="cls-2" x="2" y="2" width="124" height="124" rx="22" ry="22"/><path class="cls-3" d="M104,4c11.03,0,20,8.97,20,20V104c0,11.03-8.97,20-20,20H24c-11.03,0-20-8.97-20-20V24C4,12.97,12.97,4,24,4H104m0-4H24C10.75,0,0,10.75,0,24V104c0,13.25,10.75,24,24,24H104c13.25,0,24-10.75,24-24V24c0-13.25-10.75-24-24-24h0Z"/></g></g><g id="figura"><g><rect class="cls-1" x="56.07" y="109.56" width="15.93" height="7.48"/><path class="cls-1" d="M65.18,64.12h-2.37c-8.33,0-15.09,6.76-15.09,15.09v37.84h4.34v-11.48h23.93v11.48h4.28v-37.84c0-8.33-6.76-15.09-15.09-15.09Zm-.99,4.2c2.01,0,3.64,1.88,3.64,4.19s-1.63,4.19-3.64,4.19-3.64-1.88-3.64-4.19,1.63-4.19,3.64-4.19Zm5,11.65l-1.39,2.66-2.9-1.52,1.39-2.66,2.9,1.52Zm-10.13-1.48l2.85,.93-2.9,8.87-2.85-.93,2.9-8.87Zm3.65,4.97h7.92v11.65l-13.44,4.39,5.52-16.04Zm8.86,22.09h-4.75v-3h4.75v3Zm-9.51-1.63v1.63h-4.75v-3h.18l-.11-.37,14.59-4.35,.86,2.88-10.77,3.21Z"/><rect class="cls-1" x="32.97" y="83.55" width="7.91" height="33.5"/><polygon class="cls-1" points="31.78 81.26 42.05 81.26 43.47 76.71 30.37 76.71 31.78 81.26"/><rect class="cls-1" x="87.13" y="83.55" width="7.91" height="33.5"/><polygon class="cls-1" points="85.95 81.26 96.22 81.26 97.63 76.71 84.53 76.71 85.95 81.26"/><path class="cls-1" d="M105.83,46.29L63.77,7.45,22.16,46.3c-1.01,.94-1.06,2.52-.12,3.53,.94,1.01,2.52,1.06,3.53,.12L63.79,14.27l38.65,35.69c.48,.44,1.09,.66,1.7,.66,.67,0,1.34-.27,1.84-.8,.94-1.01,.87-2.6-.14-3.53Z"/><path class="cls-1" d="M64,34.64c-4.7,0-8.53,3.83-8.53,8.53s3.83,8.53,8.53,8.53,8.53-3.83,8.53-8.53-3.83-8.53-8.53-8.53Zm5.74,9.55h-4.74v4.74h-2v-4.74h-4.74v-2h4.74v-4.74h2v4.74h4.74v2Z"/><path class="cls-1" d="M94.87,72.94v-23.38l-31.09-28.89-30.65,28.89v23.38h7.94s4.63-16.76,22.93-16.76,23.16,16.76,23.16,16.76h7.72Zm-30.87-18.41c-6.27,0-11.36-5.09-11.36-11.36s5.09-11.36,11.36-11.36,11.36,5.09,11.36,11.36-5.09,11.36-11.36,11.36Z"/></g></g></svg>