<?xml version="1.0" encoding="UTF-8"?><svg xmlns="http://www.w3.org/2000/svg" viewBox="0 0 128 128"><defs><style>.cls-1{fill:#d9d9d9;}.cls-2{fill:#aed82a;}.cls-3{fill:#0d8237;}</style></defs><g id="cuadrobase"><g><rect class="cls-2" x="2" y="2" width="124" height="124" rx="22" ry="22"/><path class="cls-1" d="M104,4c11.03,0,20,8.97,20,20V104c0,11.03-8.97,20-20,20H24c-11.03,0-20-8.97-20-20V24C4,12.97,12.97,4,24,4H104m0-4H24C10.75,0,0,10.75,0,24V104C0,117.25,10.75,128,24,128H104c13.25,0,24-10.75,24-24V24c0-13.25-10.75-24-24-24h0Z"/></g></g><g id="figura"><path class="cls-3" d="M73.94,10.77h-19.89c-7.02,0-12.76,5.74-12.76,12.76V104.47c0,7.02,5.74,12.76,12.76,12.76h19.89c7.02,0,12.76-5.74,12.76-12.76V23.53c0-7.02-5.74-12.76-12.76-12.76Zm-9.94,99.63c-7.7,0-13.95-6.24-13.95-13.95s6.24-13.95,13.95-13.95,13.95,6.24,13.95,13.95-6.24,13.95-13.95,13.95Zm0-32.46c-7.7,0-13.95-6.24-13.95-13.95s6.24-13.95,13.95-13.95,13.95,6.24,13.95,13.95-6.24,13.95-13.95,13.95Zm0-32.46c-7.7,0-13.95-6.24-13.95-13.95s6.24-13.95,13.95-13.95,13.95,6.24,13.95,13.95-6.24,13.95-13.95,13.95Z"/></g></svg>