<?xml version="1.0" encoding="UTF-8"?><svg xmlns="http://www.w3.org/2000/svg" viewBox="0 0 128 128"><defs><style>.cls-1{fill:#fff;}.cls-2{fill:#ffec00;}.cls-3{fill:#00a099;}</style></defs><g id="cuadrobase"><g><rect class="cls-3" x="2" y="2" width="124" height="124" rx="22" ry="22"/><path class="cls-2" d="M104,4c11.03,0,20,8.97,20,20V104c0,11.03-8.97,20-20,20H24c-11.03,0-20-8.97-20-20V24C4,12.97,12.97,4,24,4H104m0-4H24C10.75,0,0,10.75,0,24V104C0,117.25,10.75,128,24,128H104c13.25,0,24-10.75,24-24V24c0-13.25-10.75-24-24-24h0Z"/></g></g><g id="figura"><path class="cls-1" d="M105.61,58.89l-4.2-33.06c-.34-3-3.52-8.65-5.9-9.34-2.39-.69-12.57-3.85-31.5-3.85s-28.28,3.02-31.5,3.85c-3.22,.83-5.56,6.33-5.9,9.34l-4.21,33.06h0v35.75c0,3.7,3,6.71,6.71,6.71h1.65v8.37c0,3.12,2.53,5.64,5.64,5.64h.72c3.12,0,5.64-2.53,5.64-5.64v-8.37h42.54v8.37c0,3.12,2.53,5.64,5.64,5.64h.72c3.12,0,5.64-2.53,5.64-5.64v-8.37h1.65c3.7,0,6.71-3,6.71-6.71V58.94h0v-.06h0ZM39.63,21.63c0-1.63,1.32-2.95,2.95-2.95h42.83c1.63,0,2.95,1.32,2.95,2.95h0c0,1.63-1.32,2.95-2.95,2.95H42.58c-1.63,0-2.95-1.32-2.95-2.95h0Zm-2.9,68.21c-3.5,0-6.34-2.84-6.34-6.34s2.84-6.34,6.34-6.34,6.34,2.84,6.34,6.34-2.84,6.34-6.34,6.34Zm16.06-.38c0,.93-.75,1.69-1.69,1.69h-.3c-.93,0-1.69-.75-1.69-1.69v-9.67c0-.93,.75-1.69,1.69-1.69h.3c.93,0,1.69,.75,1.69,1.69v9.67Zm8.7,0c0,.93-.75,1.69-1.69,1.69h-.3c-.93,0-1.69-.75-1.69-1.69v-9.67c0-.93,.75-1.69,1.69-1.69h.3c.93,0,1.69,.75,1.69,1.69v9.67Zm8.7,0c0,.93-.75,1.69-1.69,1.69h-.3c-.93,0-1.69-.75-1.69-1.69v-9.67c0-.93,.75-1.69,1.69-1.69h.3c.93,0,1.69,.75,1.69,1.69v9.67Zm8.7,0c0,.93-.75,1.69-1.69,1.69h-.3c-.93,0-1.69-.75-1.69-1.69v-9.67c0-.93,.75-1.69,1.69-1.69h.3c.93,0,1.69,.75,1.69,1.69v9.67Zm12.39,.38c-3.5,0-6.34-2.84-6.34-6.34s2.84-6.34,6.34-6.34,6.34,2.84,6.34,6.34-2.84,6.34-6.34,6.34Zm3.44-29.8H33.29c-3.3,0-5.9-2.37-5.62-5.12l2.18-21.16c.25-2.44,2.69-4.31,5.62-4.31h56.33c2.87,0,5.27,1.8,5.6,4.18l2.91,21.16c.38,2.8-2.23,5.25-5.6,5.25Z"/></g></svg>