<?xml version="1.0" encoding="UTF-8"?><svg xmlns="http://www.w3.org/2000/svg" viewBox="0 0 128 128"><defs><style>.cls-1{fill:#fff;}.cls-2{fill:#1d70b7;}.cls-3{fill:#35a8e0;}</style></defs><g id="cuadrobase"><g><rect class="cls-3" x="2" y="2" width="124" height="124" rx="22" ry="22"/><path class="cls-2" d="M104,4c11.03,0,20,8.97,20,20V104c0,11.03-8.97,20-20,20H24c-11.03,0-20-8.97-20-20V24C4,12.97,12.97,4,24,4H104m0-4H24C10.75,0,0,10.75,0,24V104c0,13.25,10.75,24,24,24H104c13.25,0,24-10.75,24-24V24c0-13.25-10.75-24-24-24h0Z"/></g></g><g id="figura"><g><path class="cls-1" d="M64,64.14c-6.09,0-11.04,4.95-11.04,11.04s4.95,11.04,11.04,11.04,11.04-4.95,11.04-11.04-4.95-11.04-11.04-11.04Zm0,18.5c-4.12,0-7.46-3.34-7.46-7.46s3.34-7.46,7.46-7.46,7.46,3.34,7.46,7.46-3.34,7.46-7.46,7.46Z"/><polygon class="cls-1" points="23.5 4 23.5 8.68 28.19 8.68 39.22 25.58 88.88 25.58 99.81 8.68 104.5 8.68 104.5 4 23.5 4"/><rect class="cls-1" x="39.15" y="32.18" width="49.71" height="15.09"/><path class="cls-1" d="M86.31,52.7H41.69v15.56h-2.54v2.01h.11c.39,13.34,11.31,24.04,24.74,24.04s24.35-10.7,24.74-24.04h.11v-2.01h-2.54v-15.56Zm-22.31,37.43c-8.24,0-14.94-6.7-14.94-14.94s6.7-14.94,14.94-14.94,14.94,6.7,14.94,14.94-6.7,14.94-14.94,14.94Z"/></g></g></svg>