<?xml version="1.0" encoding="UTF-8"?><svg xmlns="http://www.w3.org/2000/svg" viewBox="0 0 128 128"><defs><style>.cls-1{fill:#ffec00;}.cls-2{fill:#7a6a58;}</style></defs><g id="cuadrobase"><g><rect class="cls-2" x="2" y="2" width="124" height="124" rx="22" ry="22"/><path class="cls-1" d="M104,4c11.03,0,20,8.97,20,20V104c0,11.03-8.97,20-20,20H24c-11.03,0-20-8.97-20-20V24C4,12.97,12.97,4,24,4H104m0-4H24C10.75,0,0,10.75,0,24V104C0,117.25,10.75,128,24,128H104c13.25,0,24-10.75,24-24V24c0-13.25-10.75-24-24-24h0Z"/></g></g><g id="figura"><g><ellipse class="cls-1" cx="72.64" cy="16.87" rx="4.18" ry="3.9"/><ellipse class="cls-1" cx="83.73" cy="16.87" rx="4.18" ry="3.9"/><path class="cls-1" d="M100.27,99.58c5.79-.87,11.56-6.51,11.56-13.39V35.86c0-7.09-6.39-13.61-15.07-13.61l-18.5-.02-18.64,.02c-8.68,0-15.06,6.52-15.06,13.61v50.33c0,6.88,5.76,12.52,11.55,13.39l-17.35,24.36h10l5.26-7.21h48.33l5.22,6.97s2.35-.48,4.07-1.21c1.58-.67,3.09-1.59,3.09-1.59l-14.46-21.32Zm-3.35-7.34c-3.64,0-6.61-2.76-6.61-6.18,0-3.41,2.96-6.17,6.61-6.17s6.61,2.76,6.61,6.17-2.96,6.18-6.61,6.18ZM68.41,27.41c0-1.23,1.16-2.26,2.48-2.26h14.61c1.32,0,2.47,1.04,2.47,2.26v4.01c0,1.24-1.08,2.29-2.47,2.29h-14.61c-1.39,0-2.48-1.05-2.48-2.29v-4.01Zm-15.79,16.07c0-3.76,2.61-7.05,7.51-7.05h36.12c4.91,0,7.51,3.29,7.51,7.05v9.06c.04,4.35-3.36,7.02-7.51,7.02H60.13c-4.15,0-7.55-2.67-7.51-7.02v-9.06Zm.09,42.58c0-3.41,2.95-6.17,6.59-6.17s6.62,2.76,6.62,6.17c0,3.42-2.96,6.18-6.62,6.18s-6.59-2.76-6.59-6.18Zm5.53,24.88l2.94-4.02h34.02l2.94,4.02H58.24Z"/><path class="cls-1" d="M23.37,28.25c-1.05,0-1.81,.09-2.21,.18v7.06c.49,.13,1.09,.17,1.87,.17,2.85,0,4.59-1.42,4.59-3.87,0-2.3-1.61-3.54-4.25-3.54Z"/><path class="cls-1" d="M30.6,21.44H14.86c-3.33,0-6.03,2.7-6.03,6.03v15.75c0,3.33,2.7,6.03,6.03,6.03h15.75c3.33,0,6.03-2.7,6.03-6.03v-15.75c0-3.33-2.7-6.03-6.03-6.03Zm-.97,14.95c-1.54,1.52-3.9,2.25-6.61,2.25-.71,0-1.35-.04-1.87-.15v7.89h-3.79V25.75c1.39-.24,3.28-.43,5.85-.43,2.79,0,4.82,.59,6.15,1.71,1.25,1.02,2.05,2.66,2.05,4.63s-.62,3.61-1.78,4.73Z"/></g></g></svg>