<?xml version="1.0" encoding="UTF-8"?><svg xmlns="http://www.w3.org/2000/svg" viewBox="0 0 128 128"><defs><style>.cls-1{fill:#f29100;}.cls-2{fill:#fff;}.cls-3{fill:#662482;}</style></defs><g id="cuadrobase"><g><rect class="cls-3" x="2" y="2" width="124" height="124" rx="22" ry="22"/><path class="cls-1" d="M104,4c11.03,0,20,8.97,20,20V104c0,11.03-8.97,20-20,20H24c-11.03,0-20-8.97-20-20V24C4,12.97,12.97,4,24,4H104m0-4H24C10.75,0,0,10.75,0,24V104C0,117.25,10.75,128,24,128H104c13.25,0,24-10.75,24-24V24c0-13.25-10.75-24-24-24h0Z"/></g></g><g id="figura"><g><path class="cls-2" d="M108.51,88.59c-6.59-1.15-13.19-2.3-19.67-4.01-3.09-.81-5.95-2.77-8.78-4.45-7.33-4.37-15.12-5.98-23.52-6.2-10.53-.27-20.25,1.54-29.28,7.63-2.4,1.62-5.6,1.97-8.47,2.73-4.7,1.24-5.22,1.92-5.64,6.96-.19,2.31-.98,4.56-1.2,6.87-.4,4.25-.29,7.05,4.28,7.07,.28,0,.55,.07,.83,.11q4.55,.68,4.81-4.02c.33-5.98,5.02-10.63,10.54-10.46,5.75,.18,10.32,5.28,10.27,11.48-.03,4.59-.03,4.57,4.3,4.56,13.21,0,26.42,.01,39.63,.02,1.08,0,2.17,0,3.46,0,0-1.68,.1-2.96-.02-4.22-.4-4.39,1.01-7.93,4.61-10.03,3.46-1.88,8.76-2.38,12.4,.69,2.74,2.31,4.09,5.31,3.84,9.12-.08,1.25-.65,3.04,1.47,3.14,1.99,.09,4.03,.12,4.76-2.52,1.81-6.55-2.38-13.37-8.64-14.47Zm-74.64-5.56c-.05-3.08,3.16-3.79,5.37-4.54,.15,2.85,.48,5.25,.8,7.69-3.55-.52-6.11,.51-6.17-3.15Zm13.47,3.71c-6.99-.38-6.12,1.05-6.58-4.83-.49-4.25-.7-3.88,1.85-4.56,3.39-.9,7.1-1.04,10.6-1.02,2.03,.01,1.48,.01,1.69,1.46,.43,2.86,1.01,5.7,1.54,8.97-3.57,0-6.34,.08-9.11-.02Zm29.73,1.03c-5.86-.37-11.38-.64-16.88-1.14-.71-.06-1.75-1.21-1.9-2.01-.48-2.6-.8-5.52-1.09-8.31,8.35-.14,18.32,2.34,23.17,7.89-2.4-.27-3.96,.4-3.3,3.58Z"/><path class="cls-2" d="M100.42,93.27c-4.54,0-8.22,3.68-8.22,8.22s3.68,8.22,8.22,8.22,8.22-3.68,8.22-8.22-3.68-8.22-8.22-8.22Z"/><path class="cls-2" d="M32.02,93.27c-4.54,0-8.22,3.68-8.22,8.22s3.68,8.22,8.22,8.22,8.22-3.68,8.22-8.22-3.68-8.22-8.22-8.22Z"/><path class="cls-2" d="M75.21,65.34l1.11,2.79c10.84-4.32,19.35-12.6,23.96-23.32s4.77-22.59,.45-33.43l-2.79,1.11c4.02,10.1,3.88,21.15-.42,31.14-4.29,9.98-12.22,17.7-22.31,21.72Z"/><path class="cls-2" d="M70.83,54.35l1.11,2.79c7.9-3.15,14.11-9.19,17.47-17.01s3.48-16.48,.33-24.38l-2.79,1.11c2.85,7.16,2.75,15-.3,22.08-3.04,7.08-8.67,12.55-15.83,15.41Z"/><path class="cls-2" d="M67.83,46.81c5.15-2.05,9.18-5.98,11.37-11.07,2.19-5.09,2.26-10.72,.21-15.87l-2.79,1.11c1.75,4.4,1.69,9.22-.18,13.57-1.87,4.35-5.33,7.71-9.73,9.47l1.11,2.79Z"/><path class="cls-2" d="M70.13,23.57l-2.79,1.11c1.58,3.97-.36,8.48-4.33,10.06l1.11,2.79c5.5-2.19,8.2-8.46,6-13.96Z"/><path class="cls-2" d="M18.51,46.42H51.05c2.7,0,4.88-2.18,4.88-4.88V25.27c0-2.7-2.18-4.88-4.88-4.88h-6.51l-1.63-3.25c-.81-1.63-1.45-3.25-3.25-3.25h-9.76c-1.8,0-2.45,1.64-3.25,3.25l-1.63,3.25h-6.51c-2.7,0-4.88,2.18-4.88,4.88v16.27c0,2.7,2.18,4.88,4.88,4.88Zm16.27-22.78c5.39,0,9.76,4.37,9.76,9.76s-4.37,9.76-9.76,9.76-9.76-4.37-9.76-9.76,4.37-9.76,9.76-9.76Zm-16.27,0c.9,0,1.63,.73,1.63,1.63s-.73,1.63-1.63,1.63-1.63-.73-1.63-1.63,.73-1.63,1.63-1.63Z"/><path class="cls-2" d="M34.78,38.28c2.7,0,4.88-2.19,4.88-4.88s-2.19-4.88-4.88-4.88-4.88,2.19-4.88,4.88,2.19,4.88,4.88,4.88Z"/></g></g></svg>