<?xml version="1.0" encoding="UTF-8"?><svg xmlns="http://www.w3.org/2000/svg" viewBox="0 0 128 128"><defs><style>.cls-1{fill:#e5332a;}.cls-2{fill:#35a8e0;}.cls-3{fill:#3acc78;}</style></defs><g id="cuadrobase"><g><rect class="cls-3" x="2" y="2" width="124" height="124" rx="22" ry="22"/><path class="cls-2" d="M104,4c11.03,0,20,8.97,20,20V104c0,11.03-8.97,20-20,20H24c-11.03,0-20-8.97-20-20V24C4,12.97,12.97,4,24,4H104m0-4H24C10.75,0,0,10.75,0,24V104C0,117.25,10.75,128,24,128H104c13.25,0,24-10.75,24-24V24c0-13.25-10.75-24-24-24h0Z"/></g></g><g id="figura"><g><path class="cls-1" d="M60,83.96c-9.33-1.85-16.38-10.1-16.38-19.96s7.05-18.11,16.38-19.96V22.55H12.43v19.19c6.74,2.58,15.04,9.07,15.04,21.89s-8.34,19.65-15.04,22.47v19.35H60v-21.49Z"/><path class="cls-1" d="M19.47,63.63c0-7.16-3.65-11.01-7.04-13.04v26.45c3.41-2.25,7.04-6.31,7.04-13.41Z"/><path class="cls-1" d="M76.32,64c0-5.4-3.49-9.99-8.33-11.67v23.33c4.84-1.68,8.33-6.27,8.33-11.67Z"/><path class="cls-1" d="M99.07,64.37c0-13.27,9.35-20.12,16.5-22.75V22.55h-47.57v21.5c9.3,1.87,16.33,10.11,16.33,19.95s-7.03,18.08-16.33,19.95v21.5h47.57v-18.94c-7.19-2.39-16.5-8.87-16.5-22.15Z"/><path class="cls-1" d="M115.57,77.9v-27.49c-3.88,2.11-8.5,6.24-8.5,13.96s4.63,11.65,8.5,13.53Z"/><path class="cls-1" d="M51.62,64c0,5.42,3.52,10.03,8.38,11.69v-23.37c-4.87,1.66-8.38,6.27-8.38,11.69Z"/></g></g></svg>