<?xml version="1.0" encoding="UTF-8"?><svg xmlns="http://www.w3.org/2000/svg" viewBox="0 0 128 128"><defs><style>.cls-1{fill:#ffec00;}.cls-2{fill:#7a6a58;}</style></defs><g id="cuadrobase"><g><rect class="cls-2" x="2" y="2" width="124" height="124" rx="22" ry="22"/><path class="cls-1" d="M104,4c11.03,0,20,8.97,20,20V104c0,11.03-8.97,20-20,20H24c-11.03,0-20-8.97-20-20V24C4,12.97,12.97,4,24,4H104m0-4H24C10.75,0,0,10.75,0,24V104c0,13.25,10.75,24,24,24H104c13.25,0,24-10.75,24-24V24c0-13.25-10.75-24-24-24h0Z"/></g></g><g id="figura"><g><path class="cls-1" d="M96.47,52.34h-10.22c-.44-1.06-.7-5.53-1.55-6.28-.71-1.36-2.96-2.65-3.45-1.85-.29,.46-.28,1.03-.31,1.57-.23,3.79-2.96,7.32-6.57,8.49-2.16,.7-5.04,.27-5.89-1.83-.46-1.14-.18-2.44-.36-3.66-.33-2.2-1.4-4.84-3.63-4.92-3.48-.12-7.83,4.26-10.96,2.73-1.07-.53-2.27-1.62-3.24-.92-.43,.31-.59,.88-.71,1.4-.49,2.04-.01,1.64-.1,4.11-.02,.56,0,2.01-1.06,3.01-1.26,1.19-3.12,.75-3.57,.67-1.55-.28-2.22-.9-2.93-2.31-.8-1.59,.18-3.63-.57-5.24-.49-1.05-1.67-2.19-2.82-1.97l-.52-.03c-.4-.05-1.14,0-1.96,.85-.86,1.2-1.37,2.67-1.37,4.25,0,0-.79,6.25-.79,25.34s.79,25.47,.79,25.47c0,5.02,4.11,9.13,9.13,9.13h32.91c4.41,0,8.73,.08,9.9-9.96h9.59c4.26,0,10.36-7.07,10.36-11.2v-26.04c0-4.13-5.81-10.79-10.07-10.79Zm-48.39,38.51c0,1.7-1.39,3.08-3.08,3.08s-3.08-1.39-3.08-3.08v-28.51c0-1.7,1.39-3.08,3.08-3.08s3.08,1.39,3.08,3.08v28.51Zm15.1,0c0,1.7-1.39,3.08-3.08,3.08s-3.08-1.39-3.08-3.08v-28.51c0-1.7,1.39-3.08,3.08-3.08s3.08,1.39,3.08,3.08v28.51Zm14.68,0c0,1.7-1.39,3.08-3.08,3.08s-3.08-1.39-3.08-3.08v-28.51c0-1.7,1.39-3.08,3.08-3.08s3.08,1.39,3.08,3.08v28.51Zm20.77-3.66c0,2.97-2.51,5.4-5.57,5.4h-6.59s.12-5.45,.12-16.74-.23-15.73-.23-15.73h6.7c3.06,0,5.57,2.43,5.57,5.4v21.67Z"/><path class="cls-1" d="M91.74,30.09c-.72-1.25-1.56-2.35-2.46-3.27-.38-.59-.86-1.1-1.48-1.46-.19-.11-.4-.2-.6-.28-2-1.32-4.07-1.73-5.66-.93-.31-.35-.35-.87-.41-1.34-.37-2.7-2.51-5.07-5.16-5.72-2.65-.64-5.64,.48-7.21,2.71-.41,.58-.75,1.25-1.34,1.66s-1.55,.38-1.87-.26c-.17-.34-.11-.73-.11-1.11,0-1.85-1.46-3.44-3.16-4.18-1.7-.73-3.64-1.39-5.49-1.43-2.74-.05-5.97,.78-7.37,3.13-.55,.92-.99,2.25-2.06,2.23-1.06-.02-1.47-1.34-2.06-2.22-1.08-1.61-3.5-1.93-5.21-1.01-1.71,.91-2.75,2.78-3.13,4.68-.38,1.9-.29,2.92-.1,4.85-.03,.05-.07,.08-.1,.12-1.64-.03-3.49,.74-5.17,2.14-.34,.26-.63,.52-.82,.75-.74,.73-1.43,1.59-2.04,2.55-2.8,4.45-2.76,9.51,.09,11.3,2.43,1.53,6.11,.17,8.88-3.02,.03-.02,.07-.03,.1-.05l.67,.19c1.14-.22,4,1.12,4.86,1.91,1.24,1.15,1.48,1.84,1.57,4.03,.06,1.58-.29,2.44,.21,3.09,.28,.37,1.11,.72,1.38,0,.4-1.05-.02-2.66,.03-3.22,.15-1.61,.06-2.76,1.42-4.68,.31-.44,1.49-1.27,2.35-1.31,1.19-.05,2.17,.4,3.24,.92,3.13,1.53,7.48-2.85,10.96-2.73,2.23,.08,5.26,2.09,6.08,4.16,.96,2.42,1.15,4.16,.96,5.7-.12,.99,1.48,1.61,3.31,.28,3.1-2.26,3.36-4.44,3.59-8.24,.03-.54,.25-1.67,1.64-1.83,.93-.1,2.38,.49,3.23,.94,.07,.04,.14,.07,.21,.1,2.66,2.8,5.87,4,8.08,2.72,2.91-1.68,2.98-7.02,.14-11.92Z"/></g></g></svg>