<?xml version="1.0" encoding="UTF-8"?><svg xmlns="http://www.w3.org/2000/svg" viewBox="0 0 128 128"><defs><style>.cls-1{fill:#bd1622;}.cls-2{fill:#35a8e0;}</style></defs><g id="cuadrobase"><g><rect class="cls-2" x="2" y="2" width="124" height="124" rx="22" ry="22"/><path class="cls-1" d="M104,4c11.03,0,20,8.97,20,20V104c0,11.03-8.97,20-20,20H24c-11.03,0-20-8.97-20-20V24C4,12.97,12.97,4,24,4H104m0-4H24C10.75,0,0,10.75,0,24V104c0,13.25,10.75,24,24,24H104c13.25,0,24-10.75,24-24V24c0-13.25-10.75-24-24-24h0Z"/></g></g><g id="figura"><g><path class="cls-1" d="M49,85.11c.1,0,.19-.01,.29-.04l22.57-6.89,8.36,3.07c.11,.04,.23,.06,.34,.06,.41,0,.79-.25,.94-.66,.19-.52-.08-1.09-.59-1.28l-5.89-2.16,4.8-1.46c.53-.16,.83-.72,.66-1.25-.16-.53-.72-.83-1.25-.66l-7.32,2.23-7.91-2.91c-.52-.19-1.09,.08-1.28,.59-.19,.52,.08,1.09,.59,1.28l5.43,2-20.05,6.12c-.53,.16-.83,.72-.66,1.25,.13,.43,.53,.71,.96,.71Z"/><path class="cls-1" d="M87.86,55.86v-7.66h11.18L64,11.1,28.96,48.21h11.18v7.66l-31.14,21.43h14.2v46.74H104.8v-46.74h14.2l-31.14-21.43Zm-31.08,44.81l42.18-14.02s0,.03,0,.04c0,.58,.12,1.28,.31,2.02l-42.45,14.11-26.58-10.66c-.06-.71,0-1.41,.14-2.08l26.41,10.59Zm-26.13-11.55c.24-.67,.57-1.27,.94-1.8l25.29,10.14,42.78-14.22c-.25,.75-.48,1.55-.6,2.32l-42.25,14.04-26.16-10.49Zm26.13,14.76l42.76-14.21c.22,.69,.47,1.38,.73,2.04l-43.1,14.32-26.24-10.52c-.21-.64-.4-1.37-.55-2.21l26.39,10.58Zm.37,3.21l43.51-14.46c.58,1.35,1.09,2.35,1.09,2.35l-44,14.32s-17.89-6.74-22.23-8.88c-1.84-.91-3.15-1.81-4.05-3.62l25.68,10.3Zm42.96-25.06l-43.2,14.35-24.66-9.89c.9-.94,1.91-1.4,2.61-1.07,3.43,1.59,22.16,8.94,22.16,8.94l44.01-14.37s-.45,.85-.93,2.04Zm-41.89,32.34l-26.8-10.47-.15-.13c-.24-.2-5.82-5.07-5.82-12.77,0-6.65,4.42-9.93,6.76-10.73l.1-.03,40.5-11.83,27.55,9.66-42.84,13.83-24.01-9.39c.08-.02-5.73,2.2-5.73,8.5,0,5.93,4.04,10.04,4.84,10.8l25.65,10.04,44.11-15.15,.72,2.28-44.88,15.41Z"/></g></g></svg>