<?xml version="1.0" encoding="UTF-8"?><svg xmlns="http://www.w3.org/2000/svg" viewBox="0 0 128 128"><defs><style>.cls-1{fill:#ffec00;}.cls-2{fill:#662482;}</style></defs><g id="cuadrobase"><g><rect class="cls-2" x="2" y="2" width="124" height="124" rx="22" ry="22"/><path class="cls-1" d="M104,4c11.03,0,20,8.97,20,20V104c0,11.03-8.97,20-20,20H24c-11.03,0-20-8.97-20-20V24C4,12.97,12.97,4,24,4H104m0-4H24C10.75,0,0,10.75,0,24V104c0,13.25,10.75,24,24,24H104c13.25,0,24-10.75,24-24V24c0-13.25-10.75-24-24-24h0Z"/></g></g><g id="figura"><g><path class="cls-1" d="M62.79,28.4c-2.21,1.82-2.58,5.01-.84,7.11s4.94,2.33,7.14,.5c2.21-1.82,2.58-5.01,.84-7.11-1.74-2.1-4.94-2.33-7.14-.5Z"/><path class="cls-1" d="M51.84,31.94c-1.74-2.1-4.94-2.33-7.14-.5-2.21,1.83-2.58,5.01-.84,7.11s4.94,2.33,7.14,.5c2.21-1.82,2.58-5.01,.84-7.11Z"/><path class="cls-1" d="M51.74,63.93c-3.29,2.73-3.86,7.48-1.26,10.62,2.6,3.14,7.38,3.48,10.67,.75s3.86-7.48,1.26-10.62c-2.6-3.14-7.38-3.48-10.67-.75Z"/><path class="cls-1" d="M82.41,54.78c-2.21,1.83-2.58,5.01-.84,7.11s4.94,2.33,7.14,.5c2.21-1.82,2.58-5.01,.84-7.11-1.74-2.1-4.94-2.33-7.14-.5Z"/><path class="cls-1" d="M64,7.5c-26.46,0-47.91,21.45-47.91,47.91s37.76,62.93,47.91,62.93c8.73,0,47.91-36.47,47.91-62.93S90.46,7.5,64,7.5Zm20.05,72.07h0c-12.11,10.02-29.2,10.05-40.43,.86-3.91-4.05-7.34-10.32-1.93-15.48,5.79-5.53,6.9-11.08-.3-17.45-5.83-5.15-10.44-9.75-4.35-18.26,.94-.99,1.94-1.95,3.02-2.84h0c13.67-11.31,33.67-9.9,44.45,3.12l4.8,5.8c10.78,13.03,8.42,32.94-5.25,44.25Z"/><path class="cls-1" d="M84.74,38.97c-1.74-2.1-4.94-2.33-7.14-.5-2.21,1.82-2.58,5.01-.84,7.11s4.94,2.33,7.14,.5c2.21-1.82,2.58-5.01,.84-7.11Z"/></g></g></svg>