<?xml version="1.0" encoding="UTF-8"?><svg xmlns="http://www.w3.org/2000/svg" viewBox="0 0 128 128"><defs><style>.cls-1{fill:#1d70b7;}.cls-2{fill:#35a8e0;}.cls-3{fill:#2d2e82;}</style></defs><g id="cuadrobase"><g><rect class="cls-2" x="2" y="2" width="124" height="124" rx="22" ry="22"/><path class="cls-1" d="M104,4c11.03,0,20,8.97,20,20V104c0,11.03-8.97,20-20,20H24c-11.03,0-20-8.97-20-20V24C4,12.97,12.97,4,24,4H104m0-4H24C10.75,0,0,10.75,0,24V104C0,117.25,10.75,128,24,128H104c13.25,0,24-10.75,24-24V24c0-13.25-10.75-24-24-24h0Z"/></g></g><g id="figura"><g><path class="cls-3" d="M112.1,71.89l-5.37-18.23c-.99-2.88-3.17-5.37-7.29-5.37h-34.27c-4.09,0-6.27,2.49-7.29,5.37l-5.32,18.23c-2.11,.29-5.85,3.04-5.85,8.22v19.4h5.19v6.24c0,7.62,9.73,7.53,9.73,0v-6.24h41.38v6.24c-.02,7.53,9.72,7.62,9.73,0v-6.24h5.19v-19.4c-.01-5.18-3.76-7.94-5.85-8.22Zm-55.17,18.37c-3.19,0-5.77-2.5-5.77-5.54,0-3.09,2.58-5.58,5.77-5.59,3.19,0,5.77,2.5,5.77,5.59,0,3.04-2.58,5.53-5.77,5.54Zm1.18-18.51l4.01-14.99c.49-1.67,1.24-2.89,3.01-2.9h34.4c1.75,.01,2.51,1.23,3.01,2.9l4.01,14.99H58.11Zm49.64,18.87c-3.42,0-6.17-2.65-6.19-5.89,.03-3.29,2.78-5.93,6.19-5.94,3.37,.01,6.12,2.66,6.13,5.94-.01,3.23-2.76,5.88-6.13,5.89Z"/><path class="cls-3" d="M51.85,44.52V19.65c0-3.06-2.48-5.54-5.54-5.54H21.2c-3.06,0-5.54,2.48-5.54,5.54v24.87c0,3.06,2.48,5.54,5.54,5.54h10.47v62.29h4.19V50.05h10.47c3.06,0,5.54-2.48,5.54-5.54Zm-10.57-.88h-15.05V20.04h14.56v4.38h-9.21v4.9h8.68v4.34h-8.68v5.6h9.7v4.38Z"/></g></g></svg>