<?xml version="1.0" encoding="UTF-8"?><svg xmlns="http://www.w3.org/2000/svg" viewBox="0 0 128 128"><defs><style>.cls-1{fill:#ffec00;}.cls-2{fill:#7a6a58;}</style></defs><g id="cuadrobase"><g><rect class="cls-2" x="2" y="2" width="124" height="124" rx="22" ry="22"/><path class="cls-1" d="M104,4c11.03,0,20,8.97,20,20V104c0,11.03-8.97,20-20,20H24c-11.03,0-20-8.97-20-20V24C4,12.97,12.97,4,24,4H104m0-4H24C10.75,0,0,10.75,0,24V104c0,13.25,10.75,24,24,24H104c13.25,0,24-10.75,24-24V24c0-13.25-10.75-24-24-24h0Z"/></g></g><g id="figura"><g><polygon class="cls-1" points="50.23 78.42 50.23 69.65 50.23 69.53 38.56 69.53 38.56 69.65 38.56 78.42 38.56 82.61 38.56 83.35 50.23 83.35 50.23 82.61 50.23 78.42"/><polygon class="cls-1" points="28.8 91.38 61.79 91.38 61.79 82.61 61.79 78.42 61.79 69.65 54.23 69.65 54.23 78.42 54.23 82.61 54.23 87.35 34.56 87.35 34.56 82.61 28.8 82.61 28.8 91.38"/><rect class="cls-1" x="87.94" y="82.61" width="11.04" height="8.77"/><polygon class="cls-1" points="52.9 39.55 74.67 39.55 63.73 29.91 52.9 39.55"/><polygon class="cls-1" points="98.98 60.99 94.11 56.7 33.62 56.7 28.8 60.99 28.8 65.46 98.98 65.46 98.98 60.99"/><rect class="cls-1" x="28.8" y="69.65" width="5.76" height="8.77"/><rect class="cls-1" x="87.94" y="69.65" width="11.04" height="8.77"/><polygon class="cls-1" points="38.33 52.51 89.36 52.51 79.42 43.74 48.19 43.74 38.33 52.51"/><polygon class="cls-1" points="98.98 101.47 98.98 95.57 87.94 95.57 87.94 101.47 83.94 101.47 83.94 95.57 83.94 91.38 83.94 82.61 83.94 78.42 83.94 69.65 83.94 69.53 65.79 69.53 65.79 69.65 65.79 78.42 65.79 82.61 65.79 91.38 65.79 95.57 65.79 101.47 61.79 101.47 61.79 95.57 28.8 95.57 28.8 101.47 4 101.47 4 104.46 124 104.46 124 101.47 98.98 101.47"/><polygon class="cls-1" points="42.63 15.84 27.75 15.84 27.75 42.59 42.63 28.3 42.63 15.84"/><path class="cls-1" d="M17.47,66.44L64.03,21.76l48.5,45.82c.58,.55,1.32,.82,2.06,.82,.8,0,1.59-.32,2.18-.94,1.14-1.2,1.08-3.1-.12-4.24L64,13.47l-21.37,20.51v-.03l-14.88,14.28v.03l-14.43,13.85c-1.2,1.15-1.23,3.05-.09,4.24,1.15,1.2,3.05,1.23,4.24,.09Z"/></g></g></svg>