<?xml version="1.0" encoding="UTF-8"?><svg xmlns="http://www.w3.org/2000/svg" viewBox="0 0 128 128"><defs><style>.cls-1{fill:#ffec00;}.cls-2{fill:#f255a0;}.cls-3{fill:#7a6a58;}</style></defs><g id="cuadrobase"><g><rect class="cls-1" x="2" y="2" width="124" height="124" rx="22" ry="22"/><path class="cls-3" d="M104,4c11.03,0,20,8.97,20,20V104c0,11.03-8.97,20-20,20H24c-11.03,0-20-8.97-20-20V24C4,12.97,12.97,4,24,4H104m0-4H24C10.75,0,0,10.75,0,24V104C0,117.25,10.75,128,24,128H104c13.25,0,24-10.75,24-24V24c0-13.25-10.75-24-24-24h0Z"/></g></g><g id="figura"><path class="cls-2" d="M64,19.48h0c-17.76,0-32.15,14.4-32.15,32.15v59.4H96.15V51.63c0-17.76-14.4-32.15-32.15-32.15Zm-11.09,12.86h8.29v-5.36h5.61v5.36h8.29v5.61h-8.29v20.57h-5.61v-20.57h-8.29v-5.61Zm35.06,57.88H41.42v-5.41h46.55v5.41Zm0-9.74H41.42v-5.41h46.55v5.41Zm0-10.28H41.42v-5.41h46.55v5.41Z"/></g></svg>