<?xml version="1.0" encoding="UTF-8"?><svg xmlns="http://www.w3.org/2000/svg" viewBox="0 0 128 128"><defs><style>.cls-1{fill:#fff;}.cls-2{fill:#ffec00;}.cls-3{fill:#29235c;}</style></defs><g id="cuadrobase"><g><rect class="cls-3" x="2" y="2" width="124" height="124" rx="22" ry="22"/><path class="cls-2" d="M104,4c11.03,0,20,8.97,20,20V104c0,11.03-8.97,20-20,20H24c-11.03,0-20-8.97-20-20V24C4,12.97,12.97,4,24,4H104m0-4H24C10.75,0,0,10.75,0,24V104c0,13.25,10.75,24,24,24H104c13.25,0,24-10.75,24-24V24c0-13.25-10.75-24-24-24h0Z"/></g></g><g id="figura"><g><path class="cls-1" d="M49.83,93.08c-6.07,0-10.99,4.92-10.99,10.99s4.92,11,10.99,11,10.99-4.92,10.99-11-4.92-10.99-10.99-10.99Z"/><path class="cls-1" d="M92.13,93.08c-6.07,0-10.99,4.92-10.99,10.99s4.92,11,10.99,11,10.99-4.92,10.99-11-4.92-10.99-10.99-10.99Z"/><path class="cls-1" d="M106.99,26.21H35.65v-2.53c-.02-4.84-3.9-8.72-8.74-8.74H13c-3.07,0-5.56,2.49-5.56,5.57s2.49,5.56,5.56,5.56h11.52v57.22c.02,4.84,3.9,8.72,8.74,8.74H103.24c3.07,0,5.56-2.49,5.56-5.56s-2.49-5.56-5.56-5.56H35.65v-3.86l71.89,.04c3.84-.62,6.49-3.64,6.6-7.53V33.36c-.02-3.96-3.19-7.14-7.15-7.15Zm-2.95,29.41l-34.47,10.29s-19.42-6.41-24.91-9.29c-6.21-3.25-3.77-14.87,.1-13.14,4.44,1.99,24.83,9.36,24.83,9.36l34.49-10.37s-2.59,2.52-2.61,6.04c-.02,3.52,2.58,7.1,2.58,7.1Zm-32.84,19.9l-30.82-11.28-.2-.16c-.31-.25-7.52-6.33-7.52-15.96,0-8.31,5.71-12.4,8.73-13.41l.13-.04,30.89-7.21,25.46,8.41-.04,.11,5.42,1.76-32.97,9.68-27.22-9.93c.1-.03,.9-.26,2.18-.61l-2.96,.69c-.67,.25-6.63,2.67-6.63,10.55,0,7.41,5.22,12.54,6.25,13.49l29.34,10.73,34.62-11.34,.93,2.85-35.6,11.66Z"/></g></g></svg>