<?xml version="1.0" encoding="UTF-8"?><svg xmlns="http://www.w3.org/2000/svg" viewBox="0 0 128 128"><defs><style>.cls-1{fill:#ffec00;}.cls-2{fill:#7a6a58;}</style></defs><g id="cuadrobase"><g><rect class="cls-2" x="2" y="2" width="124" height="124" rx="22" ry="22"/><path class="cls-1" d="M104,4c11.03,0,20,8.97,20,20V104c0,11.03-8.97,20-20,20H24c-11.03,0-20-8.97-20-20V24C4,12.97,12.97,4,24,4H104m0-4H24C10.75,0,0,10.75,0,24V104c0,13.25,10.75,24,24,24H104c13.25,0,24-10.75,24-24V24c0-13.25-10.75-24-24-24h0Z"/></g></g><g id="figura"><g><path class="cls-1" d="M116.17,83.12h-10.03l-.03-35.07c0-10.66-8.65-19.3-19.3-19.3H31.32c-10.65,0-19.27,8.64-19.27,19.3l.03,24.83c0,7.87,6.36,14.22,14.21,14.22h17.3c.49-7.99,7.06-14.32,15.17-14.32s14.66,6.33,15.17,14.29h46.18c0-2.16-1.77-3.96-3.93-3.96Zm-57.14-31.55c0,2.19-1.79,3.98-3.98,3.98H29.42c-2.2,0-3.98-1.8-3.98-3.98v-6.64c0-2.19,1.78-3.98,3.98-3.98h25.63c2.19,0,3.98,1.8,3.98,3.98v6.64Zm35.21-.03c0,2.19-1.77,3.98-3.98,3.98h-13.81c-2.2,0-3.98-1.8-3.98-3.98v-6.61c0-2.19,1.78-3.98,3.98-3.98h13.81c2.21,0,3.98,1.8,3.98,3.98v6.61Z"/><path class="cls-1" d="M58.75,77.11c-6.06,0-10.95,4.9-10.95,10.96s4.89,10.95,10.95,10.95,10.95-4.92,10.95-10.95-4.89-10.96-10.95-10.96Zm0,15.69c-2.62,0-4.74-2.1-4.74-4.73s2.12-4.76,4.74-4.76,4.75,2.13,4.75,4.76-2.13,4.73-4.75,4.73Z"/></g></g></svg>