<?xml version="1.0" encoding="UTF-8"?><svg xmlns="http://www.w3.org/2000/svg" viewBox="0 0 128 128"><defs><style>.cls-1{fill:#fff;}.cls-2{fill:#ffec00;}.cls-3{fill:#29235c;}</style></defs><g id="cuadrobase"><g><rect class="cls-3" x="2" y="2" width="124" height="124" rx="22" ry="22"/><path class="cls-2" d="M104,4c11.03,0,20,8.97,20,20V104c0,11.03-8.97,20-20,20H24c-11.03,0-20-8.97-20-20V24C4,12.97,12.97,4,24,4H104m0-4H24C10.75,0,0,10.75,0,24V104c0,13.25,10.75,24,24,24H104c13.25,0,24-10.75,24-24V24c0-13.25-10.75-24-24-24h0Z"/></g></g><g id="figura"><g><path class="cls-1" d="M47.58,65.07l16.68-20.24,3.05-3.7h1.73l-3.9-4.62h0s-8.68,0-8.68,0h-11.3c-.1-1.57,.07-3.34,.32-3.67,.52-.4,1.09-.71,1.69-1.03,1.43-.78,3.06-1.67,3.83-3.85,1.05-3,.14-6.95-3.64-8.69-2.11-.97-4.46-.88-6.45,.24-1.82,1.03-3.04,2.79-3.26,4.72-.2,1.76,.23,2.59,.42,2.87l2.17-1.5c.05,.08,.07,.12,.07,.12,0,0-.14-.34-.04-1.19,.12-1.09,.84-2.11,1.93-2.72,1.25-.7,2.73-.75,4.06-.14,2.83,1.3,2.71,4.12,2.25,5.42-.41,1.17-1.21,1.66-2.6,2.41-.63,.34-1.35,.73-2.03,1.26-1.42,1.09-1.45,4.16-1.36,5.76H23.08S7.5,56.3,7.5,56.3c0,0,11.39,2.61,15.59,3.82v52.11h41.17v-42.86c-3.69-1.07-16.68-4.29-16.68-4.29Zm-3.47-15.84l-8.48-8.51h17.43l-8.95,8.51Z"/><path class="cls-1" d="M107.42,44.83h0s-7.64,0-7.64,0h-9.94c-.09-1.38,.06-2.94,.28-3.23,.46-.35,.96-.62,1.48-.91,1.26-.69,2.69-1.47,3.37-3.39,.92-2.64,.12-6.11-3.2-7.64-1.85-.85-3.92-.78-5.68,.21-1.6,.9-2.67,2.45-2.86,4.15-.17,1.54,.2,2.28,.37,2.52l1.91-1.32c.05,.07,.06,.11,.06,.11,0,0-.12-.3-.04-1.05,.11-.96,.74-1.85,1.7-2.39,1.1-.62,2.4-.66,3.57-.13,2.49,1.15,2.39,3.62,1.98,4.77-.36,1.03-1.07,1.46-2.29,2.12-.56,.3-1.19,.65-1.79,1.11-1.25,.96-1.28,3.66-1.19,5.07h-17.1s-13.72,17.41-13.72,17.41c0,0,10.02,2.29,13.72,3.36v46.89h37v-46.89c3.69-1.07,13.72-3.36,13.72-3.36l-13.72-17.41Zm-18.5,11.19l-7.44-7.33h15.34l-7.9,7.33Z"/></g></g></svg>