<?xml version="1.0" encoding="UTF-8"?><svg xmlns="http://www.w3.org/2000/svg" viewBox="0 0 128 128"><defs><style>.cls-1{fill:#fff;}.cls-2{fill:#ffec00;}.cls-3{fill:#00a099;}</style></defs><g id="cuadrobase"><g><rect class="cls-3" x="2" y="2" width="124" height="124" rx="22" ry="22"/><path class="cls-2" d="M104,4c11.03,0,20,8.97,20,20V104c0,11.03-8.97,20-20,20H24c-11.03,0-20-8.97-20-20V24C4,12.97,12.97,4,24,4H104m0-4H24C10.75,0,0,10.75,0,24V104C0,117.25,10.75,128,24,128H104c13.25,0,24-10.75,24-24V24c0-13.25-10.75-24-24-24h0Z"/></g></g><g id="figura"><g><path class="cls-1" d="M83.6,60.62c0-2.88-2.23-5.22-4.98-5.22s-4.96,2.34-4.96,5.22c0,2.9,2.23,5.23,4.96,5.23s4.98-2.33,4.98-5.23Z"/><path class="cls-1" d="M91.81,92.83v-15.97c0-3.47-2.57-6.86-6.43-6.86l-13.17-.02c-3.53,0-6.36,3.03-6.36,6.78v16.07c0,3.11,3.91,3.11,3.91,0v-15.63h3.23l-.87,42.39h0c0,1.62,1.23,2.93,2.77,2.93s2.79-1.31,2.79-2.93v-24.59h2.33v24.59c0,1.62,1.25,2.93,2.79,2.93s2.78-1.31,2.78-2.93l-.79-42.39h3.13v15.63c0,3.15,3.89,3.15,3.89,0Z"/><path class="cls-1" d="M32.48,29.22c-.56,.56,2.12,8.44,4.88,11.2,2.76,2.76,4.77,1.94,6.52,.2,1.75-1.75,2.56-3.76-.2-6.52-2.76-2.76-10.6-5.47-11.2-4.88Z"/><path class="cls-1" d="M25.31,36.21c1.75-1.75,2.56-3.76-.2-6.52-2.76-2.76-10.6-5.47-11.2-4.88-.56,.56,2.12,8.44,4.88,11.2,2.76,2.76,4.77,1.94,6.52,.2Z"/><path class="cls-1" d="M58.94,28.08c1.75-1.75,2.56-3.76-.2-6.52-2.76-2.76-10.6-5.47-11.2-4.88-.56,.56,2.12,8.44,4.88,11.2,2.76,2.76,4.77,1.94,6.52,.2Z"/><path class="cls-1" d="M40.81,21.88c1.75-1.75,2.56-3.76-.2-6.52-2.76-2.76-10.6-5.47-11.2-4.88-.56,.56,2.12,8.44,4.88,11.2,2.76,2.76,4.77,1.94,6.52,.2Z"/><path class="cls-1" d="M29.53,54.37c1.75-1.75,2.56-3.76-.2-6.52-2.76-2.76-10.6-5.47-11.2-4.88-.56,.56,2.12,8.44,4.88,11.2,2.76,2.76,4.77,1.94,6.52,.2Z"/><polygon class="cls-1" points="40.99 123.99 46.87 123.99 46.87 59.09 76.88 31.53 99.49 52.49 104.53 47.04 76.4 20.97 76 21.4 75.83 21.22 20.67 71.89 26.29 78.01 40.99 64.49 40.99 123.99"/></g></g></svg>