<?xml version="1.0" encoding="UTF-8"?><svg xmlns="http://www.w3.org/2000/svg" viewBox="0 0 128 128"><defs><style>.cls-1{fill:#fff;}.cls-2{fill:#ffec00;}.cls-3{fill:#29235c;}</style></defs><g id="cuadrobase"><g><rect class="cls-3" x="2" y="2" width="124" height="124" rx="22" ry="22"/><path class="cls-2" d="M104,4c11.03,0,20,8.97,20,20V104c0,11.03-8.97,20-20,20H24c-11.03,0-20-8.97-20-20V24C4,12.97,12.97,4,24,4H104m0-4H24C10.75,0,0,10.75,0,24V104C0,117.25,10.75,128,24,128H104c13.25,0,24-10.75,24-24V24c0-13.25-10.75-24-24-24h0Z"/></g></g><g id="figura"><g><polygon class="cls-1" points="107.17 94.91 20.83 94.91 12.83 108.56 115.17 108.56 107.17 94.91"/><path class="cls-1" d="M20.83,50.81v36.38H107.17V34.84h5.82v-14.91h-8.69v8.63h-7.95v-8.63h-8.69v8.63h-7.95v-8.63h-8.69v14.91h6.04v15.97h-26.12v-15.97h5.94v-14.91h-8.69v8.63h-7.95v-8.63h-8.69v8.63h-7.95v-8.63H14.9v14.91h5.92v15.97Zm67.49-5.38h9.5v16.8l-4.62,7.96-4.88-7.96v-16.8Zm-56.91,0h9.5v16.8l-4.62,7.96-4.88-7.96v-16.8Z"/></g></g></svg>