<?xml version="1.0" encoding="UTF-8"?><svg xmlns="http://www.w3.org/2000/svg" viewBox="0 0 128 128"><defs><style>.cls-1{fill:#ffec00;}.cls-2{fill:#662482;}</style></defs><g id="cuadrobase"><g><rect class="cls-2" x="2" y="2" width="124" height="124" rx="22" ry="22"/><path class="cls-1" d="M104,4c11.03,0,20,8.97,20,20V104c0,11.03-8.97,20-20,20H24c-11.03,0-20-8.97-20-20V24C4,12.97,12.97,4,24,4H104m0-4H24C10.75,0,0,10.75,0,24V104C0,117.25,10.75,128,24,128H104c13.25,0,24-10.75,24-24V24c0-13.25-10.75-24-24-24h0Z"/></g></g><g id="figura"><g><path class="cls-1" d="M95.58,39.49l-14.08-5.61,17.78-1.73-.3-6.6-21.86,1.99-6.81,7.74,16.69,6.84-6.17,17.76c-1.97-.87-4.08-1.49-6.25-1.87v-.56c0-10.4-8.46-18.86-18.86-18.86h-20.77c-10.4,0-18.86,8.46-18.86,18.86v55.75h9V57.45c0-5.44,4.42-9.86,9.86-9.86h20.77c5.44,0,9.86,4.42,9.86,9.86v.52c-13.19,2.19-23.3,14.08-23.3,28.37,0,15.85,12.43,28.74,27.7,28.74s27.7-12.89,27.7-28.74c0-4.18-.92-8.31-2.62-12.08l15.55,18.37c-.19,1.29,.08,2.59,.77,3.68,.65,1.03,1.62,1.8,2.79,2.25l.92,3.73h-.89v5.7l9.57-.49-.39-5.36h-1.99l-.89-4.4c.53-.45,.96-.93,1.29-1.46l2.29-.43v-8.49l-2,.21,2-6.36V48.38h-30.91l2.4-8.89Zm-17.36,28.83c-.98,3.01-2,5.3-3.62,7.52v-8.9c1.25,.34,2.48,.8,3.62,1.38Zm-27.23,18.02c0-9.45,6.24-17.37,14.61-19.46v18.19c-.05,.28-.08,.56-.08,.86,0,.27,.04,.54,.08,.8v19.08c-8.36-2.1-14.61-10.02-14.61-19.46Zm23.61,19.41v-18.89s.03-.09,.04-.14c3.79-3.19,7.4-6.71,10.16-12.92,2.7,3.5,4.21,7.93,4.21,12.54,0,9.37-6.15,17.23-14.4,19.41Zm48.3-49.13l-6.83,21.61h-6.48c-12.15-14.28-16.67-19.58-18.36-21.56l31.67-.04Z"/><path class="cls-1" d="M121.75,36.99c-1.58,.05-2.9,.85-3.38,2.03-.43,1.08-.09,2.27,.92,3.19,.85,.77,2.74,1.66,4.78,2.4v-7.72c-.81,.04-1.59,.08-2.33,.11Z"/></g></g></svg>