<?xml version="1.0" encoding="UTF-8"?><svg xmlns="http://www.w3.org/2000/svg" viewBox="0 0 128 128"><defs><style>.cls-1{fill:#bd1622;}.cls-2{fill:#35a8e0;}</style></defs><g id="cuadrobase"><g><rect class="cls-2" x="2" y="2" width="124" height="124" rx="22" ry="22"/><path class="cls-1" d="M104,4c11.03,0,20,8.97,20,20V104c0,11.03-8.97,20-20,20H24c-11.03,0-20-8.97-20-20V24C4,12.97,12.97,4,24,4H104m0-4H24C10.75,0,0,10.75,0,24V104C0,117.25,10.75,128,24,128H104c13.25,0,24-10.75,24-24V24c0-13.25-10.75-24-24-24h0Z"/></g></g><g id="figura"><g><path class="cls-1" d="M39.78,53.15c-.44,.91-.76,1.91-.93,2.98-.07,.53-.12,1.07-.12,1.61l.39,24.6-8.49,18.31c-.3,.54-.52,1.17-.61,1.83-.47,3.03,1.61,5.84,4.63,6.31,2.34,.36,4.59-.84,5.66-2.81l9.35-20.02c.19-.47,.37-.95,.44-1.49,.02-.24,.05-.52,.05-.76l-.08-15.2,14.38,6.27,2.31,14.88c.47,2.17,2.25,3.91,4.57,4.27,3.02,.44,5.83-1.63,6.29-4.63,.08-.52,.08-1.03,.02-1.52l-2.83-17.94c-.34-1.73-1.49-3.23-3.09-3.98l-12.84-5.71,8.18-14.23,4.06,5.16c.41,.46,.95,.85,1.56,1.09l15.45,4.52c2.05,.44,4.15-.63,4.95-2.61,.91-2.24-.17-4.78-2.39-5.69l-.22-.07-13.43-3.96-10.1-12.13c-1.51-1.61-3.54-2.76-5.88-3.12-4.1-.61-7.99,1.34-10.05,4.66l-11.23,19.41h0Z"/><path class="cls-1" d="M66.06,28.01c4.56,0,8.27-3.71,8.27-8.28s-3.7-8.27-8.27-8.27-8.28,3.71-8.28,8.27,3.71,8.28,8.28,8.28Z"/><path class="cls-1" d="M46.32,26.92c.63-1.12,.27-2.59-.88-3.22l-4-2.34c-1.15-.63-2.59-.27-3.25,.88l-12.35,21.31c-.63,1.12-.27,2.57,.88,3.23l4.02,2.32c1.12,.66,2.56,.27,3.23-.86l12.35-21.31Z"/><path class="cls-1" d="M124.2,85.11L14.89,121.89s-1.77-.99-3.13-2.01-2.84-2.72-2.84-2.72l115.25-38.81,.02,6.75Z"/><rect class="cls-1" x="95.84" y="36.97" width="2.96" height="52.47"/><rect class="cls-1" x="94.94" y="41.01" width="4.75" height="6.89"/></g></g></svg>