<?xml version="1.0" encoding="UTF-8"?><svg xmlns="http://www.w3.org/2000/svg" viewBox="0 0 128 128"><defs><style>.cls-1{fill:#eaa1c7;}.cls-2{fill:#f255a0;}.cls-3{fill:#662482;}</style></defs><g id="cuadrobase"><g><rect class="cls-3" x="2" y="2" width="124" height="124" rx="22" ry="22"/><path class="cls-1" d="M104,4c11.03,0,20,8.97,20,20V104c0,11.03-8.97,20-20,20H24c-11.03,0-20-8.97-20-20V24C4,12.97,12.97,4,24,4H104m0-4H24C10.75,0,0,10.75,0,24V104C0,117.25,10.75,128,24,128H104c13.25,0,24-10.75,24-24V24c0-13.25-10.75-24-24-24h0Z"/></g></g><g id="figura"><path class="cls-2" d="M119.34,104.86l2.21-4.07-8.82-5.42-2.21,4.07,2.5,1.54-4.18,7.7h-.78L68.63,24.68l3.87-8.24-5.08-1.96-1.8,3.81-1.89-3.58-4.85,2.02,3.74,7.97-8.47,18.04,.05,.04L23.25,108.67h-4.17l-4.09-7.55,2.5-1.54-2.21-4.07-8.82,5.42,2.21,4.07,2.5-1.54,2.82,5.2h-1.57v2.86H118.61v-2.86h-4.67l2.9-5.35,2.5,1.54Zm-53.68-28.28l15.25,28.1h-30.49l15.25-28.1Z"/></g></svg>