<?xml version="1.0" encoding="UTF-8"?><svg xmlns="http://www.w3.org/2000/svg" viewBox="0 0 128 128"><defs><style>.cls-1{fill:#008d36;}.cls-2{fill:#ffec00;}</style></defs><g id="cuadrobase"><g><rect class="cls-1" x="2" y="2" width="124" height="124" rx="22" ry="22"/><path class="cls-2" d="M104,4c11.03,0,20,8.97,20,20V104c0,11.03-8.97,20-20,20H24c-11.03,0-20-8.97-20-20V24C4,12.97,12.97,4,24,4H104m0-4H24C10.75,0,0,10.75,0,24V104c0,13.25,10.75,24,24,24H104c13.25,0,24-10.75,24-24V24c0-13.25-10.75-24-24-24h0Z"/></g></g><g id="figura"><path class="cls-2" d="M108.78,42.59l-6.81-16.41-.79-1.89v-.02c-.59-1.37-1.93-2.25-3.4-2.25l-57.27,.03-10.26-.03c-1.5,0-2.86,.92-3.41,2.3l-3.74,8.95-3.87,9.29c-.63,1.5-.95,3.12-.95,4.8v4.93c0,4.07,3.78,6.83,5.21,7.87,.53,.39,1.09,.73,1.66,1.03v43.7c0,2,1.62,3.62,3.62,3.62H99.21c2,0,3.62-1.62,3.62-3.62V61.2c.58-.31,1.14-.65,1.68-1.03,1.42-1.04,5.21-3.8,5.21-7.87v-4.93c0-1.63-.32-3.23-.94-4.77Zm-11.82-14.32l5.99,14.43h-15.23l-3.16-15.24h12.07s.34,.81,.34,.81Zm-14.17,23.51c-.58,1.59-1.62,3-2.97,3.99-1.47,1.07-3.27,1.65-5.07,1.65s-3.6-.58-5.06-1.64c-1.36-.99-2.4-2.41-2.98-3.99v-3.65h16.07v3.65Zm-40.29,.51h0Zm2.72-4.16h16.07v3.65c-.58,1.59-1.62,3-2.97,3.99-1.47,1.07-3.27,1.65-5.07,1.65s-3.6-.58-5.06-1.64c-1.36-.99-2.4-2.41-2.98-3.99v-3.65Zm.62-5.43l3.16-15.22h12.29s0,15.22,0,15.22h-15.45Zm20.88,0v-15.23h12.28s3.16,15.23,3.16,15.23h-15.45Zm-38.6-7.34l3.3-7.9,9.09,.03h2.94s-3.16,15.22-3.16,15.22h-15.23l3.06-7.34Zm-4.4,16.94v-4.16h16.07v3.65c-.58,1.59-1.62,3-2.97,3.99-1.47,1.07-3.27,1.65-5.07,1.65s-3.6-.58-5.06-1.64c-1.98-1.44-2.98-2.61-2.98-3.48Zm73.68,50.79h-18.79v-24.4c0-5.23-4.24-9.48-9.48-9.48h-10.01c-5.23,0-9.48,4.24-9.48,9.48v24.4H30.59V62.8c.39,.03,.77,.05,1.16,.05,2.93,0,5.86-.95,8.26-2.69,.93-.68,1.76-1.47,2.49-2.35,.73,.88,1.57,1.68,2.49,2.35,2.38,1.73,5.31,2.69,8.26,2.69s5.86-.95,8.26-2.69c.93-.68,1.76-1.47,2.49-2.35,.73,.88,1.57,1.68,2.49,2.35,2.38,1.73,5.31,2.69,8.26,2.69s5.86-.95,8.26-2.69c.93-.68,1.76-1.47,2.49-2.35,.73,.88,1.57,1.68,2.49,2.35,2.38,1.73,5.31,2.69,8.26,2.69,.38,0,.77-.02,1.15-.05v40.29Zm3.92-47.32c-1.47,1.07-3.27,1.65-5.07,1.65s-3.6-.58-5.06-1.64c-1.36-.99-2.4-2.41-2.98-3.99v-3.65h16.07v4.16c0,.87-1,2.04-2.97,3.47Z"/></g></svg>