<?xml version="1.0" encoding="UTF-8"?><svg xmlns="http://www.w3.org/2000/svg" viewBox="0 0 128 128"><defs><style>.cls-1{fill:#f4eb45;}.cls-2{fill:#35a8e0;}.cls-3{fill:#189dd1;}</style></defs><g id="cuadrobase"><g><rect class="cls-1" x="2" y="2" width="124" height="124" rx="22" ry="22"/><path class="cls-2" d="M104,4c11.03,0,20,8.97,20,20V104c0,11.03-8.97,20-20,20H24c-11.03,0-20-8.97-20-20V24C4,12.97,12.97,4,24,4H104m0-4H24C10.75,0,0,10.75,0,24V104C0,117.25,10.75,128,24,128H104c13.25,0,24-10.75,24-24V24c0-13.25-10.75-24-24-24h0Z"/></g></g><g id="figura"><path class="cls-3" d="M114.05,59.45v11.22l-43.38-6.67-2.12,31.85,18.81,11.53v6.67l-23.36-4.55-23.36,4.55v-6.67l18.81-11.53-2.12-31.85-43.38,6.67v-11.22l43.38-15.47V23.96s0-10.01,6.67-10.01,6.67,10.01,6.67,10.01v18.81l43.38,16.68Z"/></g></svg>