<?xml version="1.0" encoding="UTF-8"?><svg xmlns="http://www.w3.org/2000/svg" viewBox="0 0 128 128"><defs><style>.cls-1,.cls-2{fill:#ffec00;}.cls-3{fill:#86134d;}.cls-2{fill-rule:evenodd;}</style></defs><g id="cuadrobase"><g><rect class="cls-3" x="2" y="2" width="124" height="124" rx="22" ry="22"/><path class="cls-1" d="M104,4c11.03,0,20,8.97,20,20V104c0,11.03-8.97,20-20,20H24c-11.03,0-20-8.97-20-20V24C4,12.97,12.97,4,24,4H104m0-4H24C10.75,0,0,10.75,0,24V104C0,117.25,10.75,128,24,128H104c13.25,0,24-10.75,24-24V24c0-13.25-10.75-24-24-24h0Z"/></g></g><g id="figura"><g><path class="cls-2" d="M95.47,107.11c-4,0-6.35-.73-10.52-2.12-4.82-1.61-10.82-3.62-20.48-3.62s-15.76,1.98-20.91,3.56c-4.41,1.36-7.08,2.13-10.67,2.13-4.53,0-7.74-1.08-11.82-2.44-4.48-1.5-10.03-3.2-16.98-3.2v8.53c1.8,0,4.39,.68,7.69,1.79,4.86,1.63,11.51,3.86,21.11,3.86,8.48,0,14.54-1.87,19.42-3.37,4.2-1.3,7.52-2.32,12.15-2.32s7.23,.88,11.21,2.21c4.7,1.57,10.55,3.53,19.79,3.53,10.31,0,16.99-2.26,21.86-3.91,3.1-1.05,4.94-1.65,6.57-1.65v-8.53c-6.83,0-11.88,1.71-15.93,3.09-4.08,1.38-7.3,2.47-12.5,2.47Z"/><path class="cls-2" d="M107.97,87.74c-4.08,1.38-7.3,2.47-12.5,2.47-2.58,0-4.48-.31-6.62-.9-.93-3.19-1.94-8.25-1.94-15.18V25.45c0-5.31-6.75-8.53-11.63-8.53h-7.89s-63.37,0-63.37,0v7.78h28.63c4.72,.05,14.43,1.31,14.43,8.68v49.8c0,1.27,.45,2.44,1.16,3.49-1.68,.45-3.22,.93-4.66,1.37-4.41,1.36-7.08,2.13-10.67,2.13-4.53,0-7.74-1.08-11.82-2.44-4.48-1.5-10.03-3.2-16.98-3.2v8.53c1.8,0,4.39,.68,7.69,1.79,4.86,1.63,11.51,3.86,21.11,3.86,8.48,0,14.54-1.87,19.42-3.37,4.2-1.3,7.52-2.32,12.15-2.32s7.23,.88,11.21,2.21c4.7,1.57,10.55,3.53,19.79,3.53,10.31,0,16.99-2.26,21.86-3.91,3.1-1.05,4.94-1.65,6.57-1.65v-8.53c-6.83,0-11.88,1.71-15.93,3.09Zm-52.94-13.61V30.14c0-2.25-1.22-4.08-2.98-5.45h2.41c4.54,.02,8.54,1.22,8.54,8.68v49.8c0,.45,.06,.89,.17,1.32-2.62,.05-5,.26-7.19,.57-.54-2.9-.95-6.53-.95-10.93Zm16.85,10.78c-.52-2.87-.92-6.46-.92-10.78V30.14c0-2.25-1.22-4.08-2.98-5.45h2.41c4.54,.02,8.54,1.22,8.54,8.68v49.8c0,1.22,.41,2.34,1.07,3.36-2.33-.65-4.99-1.24-8.12-1.63Z"/></g></g></svg>