<?xml version="1.0" encoding="UTF-8"?><svg xmlns="http://www.w3.org/2000/svg" viewBox="0 0 128 128"><defs><style>.cls-1{fill:#e9a1c7;}.cls-2{fill:#35a8e0;}.cls-3{fill:#29235c;}</style></defs><g id="cuadrobase"><g><rect class="cls-3" x="2" y="2" width="124" height="124" rx="22" ry="22"/><path class="cls-2" d="M104,4c11.03,0,20,8.97,20,20V104c0,11.03-8.97,20-20,20H24c-11.03,0-20-8.97-20-20V24C4,12.97,12.97,4,24,4H104M104,0H24C10.75,0,0,10.75,0,24V104C0,117.25,10.75,128,24,128H104c13.25,0,24-10.75,24-24V24C128,10.75,117.25,0,104,0h0Z"/></g></g><g id="figura"><g><path class="cls-1" d="M123.98,102.8c-2.6,0-5.17-.59-7.41-1.59-2.3-1.04-4.9-1.65-7.61-1.65s-5.28,.61-7.58,1.65c-2.27,1-4.78,1.59-7.4,1.59s-5.13-.59-7.37-1.59c-2.29-1.04-4.89-1.65-7.61-1.65s-5.28,.61-7.6,1.65c-2.24,1-4.75,1.59-7.37,1.59s-5.14-.59-7.38-1.59c-2.31-1.04-4.9-1.65-7.61-1.65s-5.28,.61-7.59,1.65c-2.25,1-4.77,1.59-7.39,1.59s-5.13-.59-7.38-1.59c-2.3-1.04-4.9-1.65-7.59-1.65s-5.3,.61-7.6,1.65c-2.25,1-4.83,1.62-7.46,1.62,0,0-.05,1.12,.05,2.47,.1,1.31,.31,2.52,.31,2.52,2.63,0,4.84-.6,7.1-1.6,2.3-1.07,4.88-1.68,7.6-1.68s5.29,.61,7.59,1.68c2.25,1,4.76,1.6,7.38,1.6s5.14-.6,7.39-1.6c2.31-1.07,4.89-1.68,7.59-1.68s5.3,.61,7.61,1.68c2.24,1,4.76,1.6,7.38,1.6s5.13-.6,7.37-1.6c2.32-1.07,4.92-1.68,7.6-1.68s5.32,.61,7.61,1.68c2.24,1,4.75,1.6,7.37,1.6s5.14-.6,7.4-1.6c2.3-1.07,4.9-1.68,7.58-1.68s5.31,.61,7.61,1.68c2.24,1,4.47,1.61,7.07,1.61,0,0,.35-2.12,.35-3.33s-.01-1.7-.01-1.7Z"/><path class="cls-1" d="M19.04,93.94c2.69,0,5.29,.61,7.59,1.68,2.25,1,4.76,1.6,7.38,1.6s5.14-.6,7.39-1.6c2.31-1.07,4.89-1.68,7.59-1.68s5.3,.61,7.61,1.68c2.24,1,4.76,1.6,7.38,1.6s5.13-.6,7.37-1.6c2.32-1.07,4.92-1.68,7.6-1.68s5.32,.61,7.61,1.68c2.24,1,4.75,1.6,7.37,1.6s5.14-.6,7.4-1.6c2.3-1.07,4.9-1.68,7.58-1.68s5.31,.61,7.61,1.68c2.24,1,4.78,1.6,7.37,1.6v-5.03c-2.6,0-5.14-.59-7.37-1.59-2.3-1.04-4.9-1.65-7.61-1.65s-5.28,.61-7.58,1.65c-2.27,1-4.78,1.59-7.4,1.59s-5.13-.59-7.37-1.59c-2.28-1.03-4.87-1.65-7.57-1.65,6.77-3,12.53-7.88,16.59-14l5.33,4.08v-16.29c.7-2.9,1.08-5.92,1.08-9.03,0-2.63-.27-5.21-.77-7.69l6.63-.88-11.54-11.54c-2.95-4.79-6.92-8.9-11.6-12l4.08-5.33h-16.29c-2.9-.7-5.92-1.08-9.03-1.08-2.63,0-5.21,.27-7.69,.77l-.88-6.63-11.54,11.54c-4.79,2.95-8.9,6.92-12,11.6l-5.33-4.08v16.29c-.7,2.9-1.08,5.92-1.08,9.03,0,2.63,.27,5.21,.77,7.69l-6.63,.88,11.54,11.54c2.93,4.76,6.86,8.84,11.51,11.94l-4.68,6.06c-1.13,.22-2.28,.36-3.47,.36-2.63,0-5.13-.59-7.38-1.59-2.3-1.04-4.9-1.65-7.59-1.65s-5.3,.61-7.6,1.65c-2.25,1-4.76,1.59-7.38,1.59v5.03c2.63,0,5.13-.6,7.38-1.6,2.3-1.07,4.88-1.68,7.6-1.68Zm41.23-5.86v-25.47c1.01,.37,2.09,.58,3.23,.58,1.37,0,2.67-.3,3.85-.82l3.27,25.13c-2.3,.48-4.68,.74-7.12,.74-1.09,0-2.17-.06-3.23-.16Zm25.24-7.79l-18-18c2.21-1.03,3.95-2.89,4.83-5.18l20.09,15.4c-1.91,2.93-4.24,5.55-6.92,7.78Zm11.76-33.74c.49,2.31,.75,4.71,.75,7.17,0,1.09-.06,2.17-.16,3.23h-25.47c.37-1.01,.58-2.09,.58-3.23,0-1.37-.3-2.67-.82-3.85l25.12-3.32Zm-14.97-21.76c2.93,1.91,5.55,4.24,7.78,6.92l-18,18c-1.03-2.21-2.89-3.95-5.18-4.83l15.4-20.09Zm-18.8-5.59c1.09,0,2.17,.06,3.23,.16v25.47c-1.01-.37-2.09-.58-3.23-.58-1.37,0-2.67,.3-3.85,.82l-3.32-25.12c2.31-.49,4.71-.75,7.17-.75Zm-22.01,7.95l18,18c-2.21,1.03-3.95,2.89-4.83,5.18l-20.09-15.4c1.91-2.93,4.24-5.55,6.92-7.78Zm-11.76,33.74c-.49-2.31-.75-4.71-.75-7.17,0-1.09,.06-2.17,.16-3.23h25.47c-.37,1.01-.58,2.09-.58,3.23,0,1.37,.3,2.67,.82,3.85l-25.12,3.32Zm7.19,14.84l18-18c1.03,2.21,2.89,3.95,5.18,4.83l-15.48,20.04c-2.9-1.9-5.49-4.22-7.7-6.87Z"/><path class="cls-1" d="M108.96,111.14c-2.68,0-5.28,.61-7.58,1.65-2.27,1-4.78,1.59-7.4,1.59s-5.13-.59-7.37-1.59c-2.29-1.04-4.89-1.65-7.61-1.65s-5.28,.61-7.6,1.65c-2.24,1-4.75,1.59-7.37,1.59s-5.14-.59-7.38-1.59c-2.31-1.04-4.9-1.65-7.61-1.65s-5.28,.61-7.59,1.65c-2.25,1-4.77,1.59-7.39,1.59s-5.13-.59-7.38-1.59c-2.3-1.04-4.9-1.65-7.59-1.65s-5.3,.61-7.6,1.65c-1.45,.65-3.02,1.1-4.65,1.35,.35,.6,1.09,1.81,1.88,2.77,.47,.57,.96,1.06,1.37,1.44,.47-.17,.95-.34,1.4-.54,2.3-1.07,4.88-1.68,7.6-1.68s5.29,.61,7.59,1.68c2.25,1,4.76,1.6,7.38,1.6s5.14-.6,7.39-1.6c2.31-1.07,4.89-1.68,7.59-1.68s5.3,.61,7.61,1.68c2.24,1,4.76,1.6,7.38,1.6s5.13-.6,7.37-1.6c2.32-1.07,4.92-1.68,7.6-1.68s5.32,.61,7.61,1.68c2.24,1,4.75,1.6,7.37,1.6s5.14-.6,7.4-1.6c2.3-1.07,4.9-1.68,7.58-1.68s5.31,.61,7.61,1.68c.45,.2,.92,.37,1.39,.54,.51-.44,1.24-1.13,1.8-1.9,.62-.85,1.16-1.76,1.46-2.31-1.63-.25-3.2-.7-4.65-1.35-2.3-1.04-4.9-1.65-7.61-1.65Z"/></g></g></svg>