<?xml version="1.0" encoding="UTF-8"?><svg xmlns="http://www.w3.org/2000/svg" viewBox="0 0 128 128"><defs><style>.cls-1{fill:#fff;}.cls-2{fill:#1d70b7;}.cls-3{fill:#35a8e0;}</style></defs><g id="cuadrobase"><g><rect class="cls-3" x="2" y="2" width="124" height="124" rx="22" ry="22"/><path class="cls-2" d="M104,4c11.03,0,20,8.97,20,20V104c0,11.03-8.97,20-20,20H24c-11.03,0-20-8.97-20-20V24C4,12.97,12.97,4,24,4H104m0-4H24C10.75,0,0,10.75,0,24V104C0,117.25,10.75,128,24,128H104c13.25,0,24-10.75,24-24V24c0-13.25-10.75-24-24-24h0Z"/></g></g><g id="figura"><path class="cls-1" d="M110.74,44.88h2.5v-8.53h-6.74v7.54h-5.77v-7.54h-6.74v7.54h-5.77v-7.54h-6.74v8.53h2.5l-.83,12.35h-3.28v-6.18h-6.74v6.18h-5.77v-6.18h-6.74v6.18h-5.77v-6.18h-6.74v6.18h-3.28l-.83-12.35h2.5v-8.53h-6.74v7.54h-5.77v-7.54h-6.74v7.54h-5.77v-7.54h-6.74v8.53h2.5l-4.08,60.84h29.43v.03h45.01v-.03h27.2l-4.09-60.84ZM34.72,63.98h-9.57v-9c0-2.58,2.09-4.67,4.67-4.67h.23c2.58,0,4.67,2.09,4.67,4.67v9Zm47.79,41.74H45.48v-17.24c0-10.23,8.29-18.52,18.52-18.52s18.52,8.29,18.52,18.52v17.24Zm20.33-41.74h-9.57v-9c0-2.58,2.09-4.67,4.67-4.67h.23c2.58,0,4.67,2.09,4.67,4.67v9Z"/></g></svg>