<?xml version="1.0" encoding="UTF-8"?><svg xmlns="http://www.w3.org/2000/svg" viewBox="0 0 128 128"><defs><style>.cls-1{fill:#ffec00;}.cls-2{fill:#d60b51;}</style></defs><g id="cuadrobase"><g><rect class="cls-1" x="2" y="2" width="124" height="124" rx="22" ry="22"/><path class="cls-1" d="M104,4c11.03,0,20,8.97,20,20V104c0,11.03-8.97,20-20,20H24c-11.03,0-20-8.97-20-20V24C4,12.97,12.97,4,24,4H104m0-4H24C10.75,0,0,10.75,0,24V104C0,117.25,10.75,128,24,128H104c13.25,0,24-10.75,24-24V24c0-13.25-10.75-24-24-24h0Z"/></g></g><g id="figura"><g><path class="cls-2" d="M56.41,57.97c0-4.98-7.89-15.45-7.89-15.45,0,0-7.89,10.47-7.89,15.45s3.53,9.01,7.89,9.01,7.89-4.03,7.89-9.01Z"/><path class="cls-2" d="M95.39,116.32c-9.28,0-15.16-1.77-19.89-3.2-3.99-1.2-6.63-2-11.26-2s-7.99,.93-12.22,2.1c-4.9,1.36-10.99,3.06-19.51,3.06-9.64,0-16.33-2.02-21.21-3.5-2.53-.76-4.36-1.3-5.89-1.52,2.9,7.44,10.12,12.72,18.59,12.72H104.01c8.42,0,15.6-5.22,18.54-12.59-1.33,.21-2.93,.68-5.2,1.37-4.9,1.5-11.6,3.55-21.97,3.55Z"/><path class="cls-2" d="M103.88,75.24V27.92c0-8.31-6.29-15.04-14.05-15.04l-33.81-.14c-8.31,0-15.04,6.29-15.04,14.05v.15c0,.05,.01,.1,.02,.16h-.02v9.75h15.18v-7.96h31.57v46.36H4.02v28.79c0,.08,.01,.16,.01,.24v-.84c6.99,0,12.09,1.54,16.59,2.9,4.09,1.24,7.33,2.22,11.88,2.22,3.6,0,6.29-.7,10.72-1.93,5.17-1.44,11.61-3.23,21.01-3.23s15.74,1.82,20.58,3.28c4.19,1.26,6.56,1.92,10.57,1.92,5.23,0,8.47-.99,12.56-2.24,4.08-1.25,9.16-2.8,16.02-2.8v.72c0-.08,.01-.16,.01-.25v-28.79h-20.1Zm20.09,17.53c-1.64,0-3.49,.54-6.61,1.49-4.9,1.5-11.6,3.55-21.97,3.55-9.28,0-15.16-1.77-19.89-3.2-3.99-1.2-6.63-2-11.26-2s-7.99,.93-12.22,2.1c-4.9,1.36-10.99,3.06-19.51,3.06-9.64,0-16.33-2.02-21.21-3.5-3.32-1-5.45-1.62-7.25-1.62v-7.73c6.99,0,12.09,1.54,16.59,2.9,4.09,1.24,7.33,2.22,11.88,2.22,3.6,0,6.29-.7,10.72-1.93,5.17-1.44,11.61-3.23,21.01-3.23s15.74,1.82,20.58,3.28c4.19,1.26,6.56,1.92,10.57,1.92,5.23,0,8.47-.99,12.56-2.24,4.08-1.25,9.16-2.8,16.02-2.8v7.73Z"/></g></g></svg>