<?xml version="1.0" encoding="UTF-8"?><svg xmlns="http://www.w3.org/2000/svg" viewBox="0 0 128 128"><defs><style>.cls-1,.cls-2{fill:#fff;}.cls-3{fill:#00a19a;}.cls-2{fill-rule:evenodd;}</style></defs><g id="cuadrobase"><g><rect class="cls-3" x="2" y="2" width="124" height="124" rx="22" ry="22"/><path class="cls-1" d="M104,4c11.03,0,20,8.97,20,20V104c0,11.03-8.97,20-20,20H24c-11.03,0-20-8.97-20-20V24C4,12.97,12.97,4,24,4H104m0-4H24C10.75,0,0,10.75,0,24V104C0,117.25,10.75,128,24,128H104c13.25,0,24-10.75,24-24V24c0-13.25-10.75-24-24-24h0Z"/></g></g><g id="figura"><g><path class="cls-2" d="M15.72,86.69c3.45,0,5.91-1.07,7.89-1.93,1.71-.74,3.06-1.32,4.94-1.32s2.94,.5,4.55,1.26c1.91,.9,4.29,2.01,8.04,2.01,4.19,0,6.9-1.29,8.88-2.23,1.26-.6,2.01-.94,2.67-.94v-4.87c-2.77,0-4.83,.98-6.48,1.76-1.66,.79-2.97,1.41-5.08,1.41-1.62,0-2.58-.41-4.27-1.21-1.96-.92-4.4-2.06-8.32-2.06s-6.4,1.13-8.5,2.03c-1.79,.78-2.88,1.22-4.33,1.22-1.84,0-3.15-.62-4.8-1.4-1.82-.86-4.07-1.83-6.9-1.83v4.87c.73,0,1.78,.39,3.13,1.02,1.97,.93,4.68,2.2,8.58,2.2Z"/><path class="cls-2" d="M15.72,75.04c3.45,0,5.91-1.07,7.89-1.93,1.71-.74,3.06-1.32,4.94-1.32s2.94,.5,4.55,1.26c1.91,.9,4.29,2.01,8.04,2.01,4.19,0,6.9-1.29,8.88-2.23,1.26-.6,2.01-.94,2.67-.94v-4.87c-2.77,0-4.83,.98-6.48,1.76-1.66,.79-2.97,1.41-5.08,1.41-1.62,0-2.58-.41-4.27-1.21-1.96-.92-4.4-2.06-8.32-2.06s-6.4,1.13-8.5,2.03c-1.79,.78-2.88,1.22-4.33,1.22-1.84,0-3.15-.62-4.8-1.4-1.82-.86-4.07-1.83-6.9-1.83v4.87c.73,0,1.78,.39,3.13,1.02,1.97,.93,4.68,2.2,8.58,2.2Z"/><path class="cls-2" d="M15.72,63.44c3.45,0,5.91-1.07,7.89-1.93,1.71-.74,3.06-1.32,4.94-1.32s2.94,.5,4.55,1.26c1.91,.9,4.29,2.01,8.04,2.01,4.19,0,6.9-1.29,8.88-2.23,1.26-.6,2.01-.94,2.67-.94v-4.87c-2.77,0-4.83,.98-6.48,1.76-1.66,.79-2.97,1.41-5.08,1.41-1.62,0-2.58-.41-4.27-1.21-1.96-.92-4.4-2.06-8.32-2.06s-6.4,1.13-8.5,2.03c-1.79,.78-2.88,1.22-4.33,1.22-1.84,0-3.15-.62-4.8-1.4-1.82-.86-4.07-1.83-6.9-1.83v4.87c.73,0,1.78,.39,3.13,1.02,1.97,.93,4.68,2.2,8.58,2.2Z"/><path class="cls-2" d="M15.72,51.79c3.45,0,5.91-1.07,7.89-1.93,1.71-.74,3.06-1.32,4.94-1.32s2.94,.5,4.55,1.26c1.91,.9,4.29,2.01,8.04,2.01,4.19,0,6.9-1.29,8.88-2.23,1.26-.6,2.01-.94,2.67-.94v-4.87c-2.77,0-4.83,.98-6.48,1.76-1.66,.79-2.97,1.41-5.08,1.41-1.62,0-2.58-.41-4.27-1.21-1.96-.92-4.4-2.06-8.32-2.06s-6.4,1.13-8.5,2.03c-1.79,.78-2.88,1.22-4.33,1.22-1.84,0-3.15-.62-4.8-1.4-1.82-.86-4.07-1.83-6.9-1.83v4.87c.73,0,1.78,.39,3.13,1.02,1.97,.93,4.68,2.2,8.58,2.2Z"/><polygon class="cls-2" points="99.04 100.55 91.69 88.54 99.7 88.54 99.7 77.21 84.75 77.21 82.7 73.87 73.96 27.7 71.76 27.7 71.76 23.29 66.53 23.29 66.53 15.59 72.1 15.59 72.1 13.05 58.43 13.05 58.43 15.59 63.99 15.59 63.99 23.29 58.67 23.29 58.67 27.7 55.84 27.7 55.84 89.72 4.05 89.72 4.05 104.17 55.84 104.17 58.38 104.17 67.36 104.17 101.26 104.17 123.83 104.17 123.83 100.55 99.04 100.55"/></g></g></svg>