<?xml version="1.0" encoding="UTF-8"?><svg xmlns="http://www.w3.org/2000/svg" viewBox="0 0 128 128"><defs><style>.cls-1{fill:#35a8e0;}.cls-2{fill:#93c01f;}.cls-3{fill:#2d2e82;}</style></defs><g id="cuadrobase"><g><rect class="cls-2" x="2" y="2" width="124" height="124" rx="22" ry="22"/><path class="cls-1" d="M104,4c11.03,0,20,8.97,20,20V104c0,11.03-8.97,20-20,20H24c-11.03,0-20-8.97-20-20V24C4,12.97,12.97,4,24,4H104m0-4H24C10.75,0,0,10.75,0,24V104C0,117.25,10.75,128,24,128H104c13.25,0,24-10.75,24-24V24c0-13.25-10.75-24-24-24h0Z"/></g></g><g id="figura"><path class="cls-3" d="M64,11.42c-29.04,0-52.58,23.54-52.58,52.58s23.54,52.58,52.58,52.58,52.58-23.54,52.58-52.58S93.04,11.42,64,11.42Zm29.12,84.86h-12.98v-25.74H47.86v25.74h-12.98V31.72h12.98v25.74h32.29V31.72h12.98V96.28Z"/></g></svg>