<?xml version="1.0" encoding="UTF-8"?><svg xmlns="http://www.w3.org/2000/svg" viewBox="0 0 128 128"><defs><style>.cls-1{fill:#f8b133;}.cls-2{fill:#ececec;}.cls-3{fill:#1d1d1b;}</style></defs><g id="cuadrobase"><g><rect class="cls-2" x="2" y="2" width="124" height="124" rx="22" ry="22"/><path class="cls-1" d="M104,4c11.03,0,20,8.97,20,20V104c0,11.03-8.97,20-20,20H24c-11.03,0-20-8.97-20-20V24C4,12.97,12.97,4,24,4H104m0-4H24C10.75,0,0,10.75,0,24V104c0,13.25,10.75,24,24,24H104c13.25,0,24-10.75,24-24V24c0-13.25-10.75-24-24-24h0Z"/></g></g><g id="figura"><g><rect class="cls-3" x="28.04" y="20.05" width="10.28" height="3.4" rx="1.54" ry="1.54"/><path class="cls-3" d="M28.89,27.73h8.57c.47,0,.86-.38,.86-.86s-.39-.86-.86-.86h-8.57c-.47,0-.86,.38-.86,.86s.39,.86,.86,.86Z"/><rect class="cls-3" x="58.72" y="20.05" width="10.28" height="3.4" rx="1.54" ry="1.54"/><path class="cls-3" d="M59.58,27.73h8.57c.47,0,.86-.38,.86-.86s-.38-.86-.86-.86h-8.57c-.47,0-.86,.38-.86,.86s.38,.86,.86,.86Z"/><rect class="cls-3" x="90.19" y="20.05" width="10.28" height="3.4" rx="1.54" ry="1.54"/><path class="cls-3" d="M91.05,27.73h8.57c.47,0,.86-.38,.86-.86s-.38-.86-.86-.86h-8.57c-.47,0-.86,.38-.86,.86s.38,.86,.86,.86Z"/><path class="cls-3" d="M112.04,70.11h-5.68v-13.81c0-2.55-1.66-4.73-3.96-5.51l-2.28-18.41c-.13-1.02-.99-1.78-2.01-1.78h-5.57c-1.02,0-1.89,.76-2.01,1.78l-2.28,18.41c-2.3,.78-3.96,2.96-3.96,5.51v13.81h-9.4v-13.81c0-2.55-1.66-4.73-3.96-5.51l-2.28-18.41c-.13-1.02-.99-1.78-2.01-1.78h-5.57c-1.02,0-1.89,.76-2.01,1.78l-2.28,18.41c-2.3,.78-3.96,2.96-3.96,5.51v13.81h-8.62v-13.81c0-2.55-1.66-4.73-3.96-5.51l-2.28-18.41c-.13-1.02-.99-1.78-2.01-1.78h-5.57c-1.02,0-1.89,.76-2.01,1.78l-2.28,18.41c-2.3,.78-3.96,2.96-3.96,5.51v13.81h-6.19c-1.63,0-2.97,1.34-2.97,2.97v28.13c0,5.2,4.26,9.46,9.46,9.46H105.55c5.2,0,9.46-4.26,9.46-9.46v-28.13c0-1.63-1.34-2.97-2.97-2.97Z"/></g></g></svg>