<?xml version="1.0" encoding="UTF-8"?><svg xmlns="http://www.w3.org/2000/svg" viewBox="0 0 128 128"><defs><style>.cls-1{fill:#fff;}.cls-2{fill:#3aaa35;}</style></defs><g id="cuadrobase"><g><rect class="cls-2" x="2" y="2" width="124" height="124" rx="22" ry="22"/><path class="cls-1" d="M104,4c11.03,0,20,8.97,20,20V104c0,11.03-8.97,20-20,20H24c-11.03,0-20-8.97-20-20V24C4,12.97,12.97,4,24,4H104M104,0H24C10.75,0,0,10.75,0,24V104C0,117.25,10.75,128,24,128H104c13.25,0,24-10.75,24-24V24C128,10.75,117.25,0,104,0h0Z"/></g></g><g id="figura"><g><path class="cls-1" d="M87.86,55.92v-7.66h11.18L64,11.15,28.96,48.26h11.18v7.66l-31.14,21.43h14.2v46.74H104.8v-46.74h14.2l-31.14-21.43Zm-23.86-23.8c10.37,0,18.78,8.41,18.78,18.78s-8.41,18.78-18.78,18.78-18.78-8.41-18.78-18.78,8.41-18.78,18.78-18.78Zm12.41,63.08c-1.82,1.54-5.77,3.56-5.77,3.56l4.83,18.35h-23.23l4.52-18.32s-4.65-2.61-6.51-4.35c-5.03-4.71-6.42-16-6.42-16h0s40.34-.2,40.34-.2c0,0-2.05,12.09-7.76,16.94Z"/><path class="cls-1" d="M53.82,52.17h5.06c.49,0,.89,.4,.89,.89v12.81c0,.49,.4,.89,.89,.89h6.68c.49,0,.89-.4,.89-.89v-12.81c0-.49,.4-.89,.89-.89h5.06c.49,0,.89-.4,.89-.89v-6.67c0-.49-.4-.89-.89-.89h-5.06c-.49,0-.89-.4-.89-.89v-5.36c0-.49-.4-.89-.89-.89h-6.68c-.49,0-.89,.4-.89,.89v5.36c0,.49-.4,.89-.89,.89h-5.06c-.49,0-.89,.4-.89,.89v6.67c0,.49,.4,.89,.89,.89Z"/></g></g></svg>