<?xml version="1.0" encoding="UTF-8"?><svg xmlns="http://www.w3.org/2000/svg" viewBox="0 0 128 128"><defs><style>.cls-1,.cls-2{fill:#ffec00;}.cls-3{fill:#d60b51;}.cls-2{fill-rule:evenodd;}</style></defs><g id="cuadrobase"><g><rect class="cls-3" x="2" y="2" width="124" height="124" rx="22" ry="22"/><path class="cls-1" d="M104,4c11.03,0,20,8.97,20,20V104c0,11.03-8.97,20-20,20H24c-11.03,0-20-8.97-20-20V24C4,12.97,12.97,4,24,4H104m0-4H24C10.75,0,0,10.75,0,24V104C0,117.25,10.75,128,24,128H104c13.25,0,24-10.75,24-24V24c0-13.25-10.75-24-24-24h0Z"/></g></g><g id="figura"><g><path class="cls-2" d="M92.51,62.97l-33.79-7.9,2.96-12.65,2.86,.67c.99,.23,1.97-.38,2.2-1.37,.23-.99-.38-1.97-1.37-2.2l-2.85-.67h0l-5.41-1.27-1-.23h0l-8.31-1.94c-4.43-1.04-7.3,1.7-9.9,6.15l-3.89,7.74-22.16-5.18h0s-1.24-.28-1.24-.28l-.71,3.04,3.36,.79,6.19,15.51,66.76,15.61,4.21-10.55,3.55,.83,1.27-5.44-2.73-.64h0Z"/><polygon class="cls-2" points="4.03 94.62 89.74 94.62 89.74 89.79 4.03 69.4 4.03 94.62"/><path class="cls-2" d="M120.39,79.71c-.98,.33-1.76,.6-3.02,.6-.96,0-1.53-.18-2.54-.51-1.16-.39-2.61-.87-4.95-.87s-3.81,.48-5.05,.86c-1.07,.33-1.71,.51-2.58,.51-1.09,0-1.87-.26-2.85-.59-1.08-.36-2.42-.77-4.1-.77v2.06c.43,0,1.06,.16,1.86,.43,1.17,.39,2.78,.93,5.1,.93,2.05,0,3.51-.45,4.69-.81,1.02-.31,1.82-.56,2.94-.56s1.75,.21,2.71,.53c1.14,.38,2.55,.85,4.78,.85,2.49,0,4.1-.55,5.28-.95,.75-.25,1.19-.4,1.59-.4v-2.06c-1.65,0-2.87,.41-3.85,.75Z"/><path class="cls-2" d="M117.37,86.47c-.96,0-1.53-.18-2.54-.51-1.16-.39-2.61-.87-4.95-.87s-3.81,.48-5.05,.86c-1.07,.33-1.71,.51-2.58,.51-1.09,0-1.87-.26-2.85-.59-1.08-.36-2.42-.77-4.1-.77v2.06c.43,0,1.06,.16,1.86,.43,1.17,.39,2.78,.93,5.1,.93,2.05,0,3.51-.45,4.69-.81,1.02-.31,1.82-.56,2.94-.56s1.75,.21,2.71,.53c1.14,.38,2.55,.85,4.78,.85,2.49,0,4.1-.55,5.28-.95,.75-.25,1.19-.4,1.59-.4v-2.06c-1.65,0-2.87,.41-3.85,.75-.98,.33-1.76,.6-3.02,.6Z"/><path class="cls-2" d="M117.37,92.65c-.96,0-1.53-.18-2.54-.51-1.16-.39-2.61-.87-4.95-.87s-3.81,.48-5.05,.86c-1.07,.33-1.71,.51-2.58,.51-1.09,0-1.87-.26-2.85-.59-1.08-.36-2.42-.77-4.1-.77v2.06c.43,0,1.06,.16,1.86,.43,1.17,.39,2.78,.93,5.1,.93,2.05,0,3.51-.45,4.69-.81,1.02-.31,1.82-.56,2.94-.56s1.75,.21,2.71,.53c1.14,.38,2.55,.85,4.78,.85,2.49,0,4.1-.55,5.28-.95,.75-.25,1.19-.4,1.59-.4v-2.06c-1.65,0-2.87,.41-3.85,.75-.98,.33-1.76,.6-3.02,.6Z"/></g></g></svg>