<?xml version="1.0" encoding="UTF-8"?><svg xmlns="http://www.w3.org/2000/svg" viewBox="0 0 128 128"><defs><style>.cls-1{fill:#fff;}.cls-2{fill:#ffec00;}.cls-3{fill:#7a6a58;}</style></defs><g id="cuadrobase"><g><rect class="cls-3" x="2" y="2" width="124" height="124" rx="22" ry="22"/><path class="cls-2" d="M104,4c11.03,0,20,8.97,20,20V104c0,11.03-8.97,20-20,20H24c-11.03,0-20-8.97-20-20V24C4,12.97,12.97,4,24,4H104m0-4H24C10.75,0,0,10.75,0,24V104c0,13.25,10.75,24,24,24H104c13.25,0,24-10.75,24-24V24c0-13.25-10.75-24-24-24h0Z"/></g></g><g id="figura"><g><path class="cls-1" d="M28,15.33l-9.67-4.51c-.82-.38-1.78,.13-1.93,1.02l-3.09,19.24c-.22,1.36,1.48,2.15,2.38,1.11l12.76-14.73c.59-.69,.37-1.75-.46-2.13Z"/><path class="cls-1" d="M34.96,38.54l9.74-16.88c.45-.79,.03-1.79-.85-2.01l-10.35-2.6c-.88-.22-1.73,.46-1.7,1.37l.61,19.48c.04,1.38,1.86,1.83,2.55,.64Z"/><path class="cls-1" d="M51.75,41.3c.23,1.36,2.1,1.56,2.61,.28l7.31-18.06c.34-.84-.22-1.78-1.12-1.87l-10.61-1.14c-.9-.1-1.65,.7-1.49,1.59l3.3,19.2Z"/><path class="cls-1" d="M71.6,42.09c.43,1.31,2.31,1.23,2.63-.11l4.55-18.95c.21-.88-.48-1.72-1.39-1.68l-10.66,.45c-.91,.04-1.53,.93-1.24,1.79l6.11,18.5Z"/><path class="cls-1" d="M91.94,39.48c.66,1.21,2.49,.78,2.56-.59l.99-19.46c.05-.91-.79-1.61-1.67-1.4l-10.4,2.4c-.88,.2-1.33,1.2-.89,1.99l9.41,17.06Z"/><path class="cls-1" d="M114.67,31.18l-3.94-19.08c-.18-.89-1.17-1.36-1.97-.94l-9.46,4.94c-.8,.42-.98,1.49-.36,2.15l13.4,14.14c.95,1,2.61,.13,2.33-1.22Z"/><path class="cls-1" d="M93,71.94c-3.2,0-6.41,.85-9.15,2.41l-4.79-6.54,1.98-4.58c3.16-.65,4.24-1.69,5.39-3.08,1.09-1.32,.99-2.29,.72-2.87-.26-.54-.87-1.19-2.32-1.19h-.02c-.83,0-3.55,.15-6.7,.33-2.36,.13-4.95,.27-7.08,.37-1.1,.04-2.02,.63-2.35,1.49-.3,.79-.06,1.67,.64,2.34,.88,.84,3.33,1.87,5.38,2.44l-.95,2.1h-22.61l1.67-6.53-9.8-4.12,12.38-1.27-.21-4.85-15.21,1.46-4.74,5.68,11.61,5.02-4.29,13.05c-2.33-1.08-4.96-1.67-7.55-1.67-10.63,0-19.28,9.47-19.28,21.11s8.65,21.11,19.28,21.11,19.28-9.47,19.28-21.11c0-3.07-.64-6.11-1.82-8.87l10.82,13.5c-.13,.95,.05,1.9,.54,2.71,.45,.75,1.13,1.32,1.94,1.65l.64,2.74h-.62v4.19l6.66-.36-.27-3.93h-1.39l-.62-3.24c.37-.33,.67-.69,.9-1.07l3.62-.72c2.63,8.61,10.01,14.53,18.34,14.53,10.63,0,19.28-9.47,19.28-21.11s-8.65-21.11-19.28-21.11Zm-58.01,35.83c-7.29,0-13.23-6.6-13.23-14.71s5.93-14.72,13.23-14.72c1.93,0,3.97,.53,5.72,1.48-1.22,3.98-2.53,6.23-6.23,9.57-1.5,.32-2.61,1.71-2.61,3.36,0,1.89,1.45,3.43,3.24,3.43,1.57,0,2.84-1.21,3.11-2.85,2.64-2.34,5.15-4.93,7.07-9.49,1.88,2.57,2.93,5.83,2.93,9.21,0,8.11-5.93,14.71-13.23,14.71Zm32.06-20.67h-4.51c-8.46-10.49-11.6-14.39-12.78-15.84l22.04-.03-4.75,15.88Zm6.67,5.96c0,.19,0,.4,.02,.63l-2.49,.28,5.74-19.31,2.31,3.05c-3.7,4.15-5.58,9.31-5.58,15.35Zm6.13-.6c.12-3.33,.65-6.7,3.06-9.64l5.64,8.07-8.69,1.56Zm13.14,15.31c-5.43,0-10.42-3.85-12.31-9.33l11.43-2.42c.32,.11,.66,.16,.98,.16,1.79,0,3.24-1.54,3.24-3.43,0-1.58-1-2.93-2.35-3.32l-6.76-9.89c1.66-.76,3.76-1.2,5.76-1.2,7.29,0,13.23,6.6,13.23,14.72s-5.93,14.72-13.23,14.72Z"/></g></g></svg>