<?xml version="1.0" encoding="UTF-8"?><svg xmlns="http://www.w3.org/2000/svg" viewBox="0 0 128 128"><defs><style>.cls-1{fill:#f8b133;}.cls-2{fill:#ececec;}.cls-3{fill:#1d1d1b;}</style></defs><g id="cuadrobase"><g><rect class="cls-2" x="2" y="2" width="124" height="124" rx="22" ry="22"/><path class="cls-1" d="M104,4c11.03,0,20,8.97,20,20V104c0,11.03-8.97,20-20,20H24c-11.03,0-20-8.97-20-20V24C4,12.97,12.97,4,24,4H104m0-4H24C10.75,0,0,10.75,0,24V104C0,117.25,10.75,128,24,128H104c13.25,0,24-10.75,24-24V24c0-13.25-10.75-24-24-24h0Z"/></g></g><g id="figura"><path class="cls-3" d="M105.07,59.54l-7.4-25.15c-1.37-3.98-4.37-7.4-10.05-7.41h-1.59l-1.97-9.21c0-2.13-1.73-3.87-3.86-3.87H47.81c-2.13,0-3.86,1.73-3.86,3.87l-1.97,9.21h-1.65c-5.65,0-8.65,3.43-10.05,7.41l-7.34,25.15c-2.91,.39-8.07,4.19-8.07,11.35v26.76h7.16v8.61c-.01,10.51,13.43,10.39,13.42,0v-8.61h57.1v8.61c-.03,10.39,13.42,10.51,13.42,0v-8.61h7.16v-26.76c-.01-7.15-5.18-10.95-8.07-11.35ZM50.8,19.48h26.4v7.34h-26.4v-7.34ZM28.95,84.88c-4.4-.01-7.97-3.44-7.96-7.64-.01-4.27,3.56-7.7,7.96-7.71,4.4,.01,7.97,3.44,7.95,7.71,.01,4.2-3.55,7.63-7.95,7.64Zm1.62-25.55l5.54-20.68c.67-2.31,1.71-3.98,4.15-4.01h47.47c2.42,.02,3.46,1.7,4.15,4.01l5.54,20.68H30.57Zm68.49,26.03c-4.71-.01-8.51-3.66-8.54-8.13,.03-4.54,3.83-8.19,8.54-8.2,4.65,.01,8.44,3.66,8.46,8.2-.02,4.46-3.81,8.11-8.46,8.13Z"/></g></svg>