<?xml version="1.0" encoding="UTF-8"?><svg xmlns="http://www.w3.org/2000/svg" viewBox="0 0 128 128"><defs><style>.cls-1{fill:#ffec00;}.cls-2{fill:#1d70b7;}</style></defs><g id="cuadrobase"><g><rect class="cls-2" x="2" y="2" width="124" height="124" rx="22" ry="22"/><path class="cls-1" d="M104,4c11.03,0,20,8.97,20,20V104c0,11.03-8.97,20-20,20H24c-11.03,0-20-8.97-20-20V24C4,12.97,12.97,4,24,4H104m0-4H24C10.75,0,0,10.75,0,24V104c0,13.25,10.75,24,24,24H104c13.25,0,24-10.75,24-24V24c0-13.25-10.75-24-24-24h0Z"/></g></g><g id="figura"><path class="cls-1" d="M84.43,112.18c-.18,0-.36,0-.54,0-5.37-.06-12.53-1.01-16.15-5.23-4.8-5.59-47.51-50.47-47.94-50.92l4.37-4.16c1.76,1.85,43.24,45.44,48.14,51.15,1.63,1.9,5.98,3.07,11.64,3.13,5.24,.06,11.05-.82,15.83-2.37,.3-.7,.61-1.39,.9-2.06,3.86-8.76,6.92-15.67,.04-26.11-2.82-4.29-13.31-15.93-27.37-30.37-12.12-12.46-22.13-22.1-24.9-24.3-1.48,.53-5.24,2.68-10.09,6.75-5.38,4.52-7.66,7.71-8.13,8.88,1.72,2.49,10.41,12.5,24.25,27.41,13.4,14.45,24.4,25.68,26.75,27.32,5.4,3.76,6.86,2.58,7.55,1.9,.1-.11,.2-.23,.31-.34,.63-.71,1.29-1.44,1.41-2.18,.16-.92-.49-2.28-1.83-3.84-4.8-5.59-44.65-47.52-45.05-47.95l4.37-4.16c1.65,1.73,40.35,42.47,45.25,48.17,6.3,7.33,1.96,12.16,.33,13.98-.11,.12-.21,.24-.31,.35l-.14,.15c-5.6,5.65-12.93,.55-15.34-1.13-4.34-3.02-24.03-24.18-27.94-28.39-3.9-4.21-23.44-25.37-25.24-28.95-1.37-2.71,.09-6.18,4.59-10.92,2.93-3.09,6.98-6.51,10.82-9.15,1.95-1.34,3.68-2.37,5.14-3.05,1.56-.73,3.58-1.46,5.39-.67,.63,.28,1.69,.74,9.7,8.47,4.78,4.61,10.76,10.58,16.82,16.8,5.56,5.71,24.08,24.88,28.7,31.9,3.89,5.91,5.51,11.65,4.96,17.55-.48,5.16-2.54,9.81-4.52,14.31-.46,1.05-.94,2.14-1.39,3.21l-.51,1.22-1.24,.45c-5.47,1.99-12.4,3.16-18.64,3.16ZM48.94,20.79m-.98-.25h0Z"/></g></svg>