<?xml version="1.0" encoding="UTF-8"?><svg xmlns="http://www.w3.org/2000/svg" viewBox="0 0 128 128"><defs><style>.cls-1{fill:#fff;}.cls-2{fill:#1d70b7;}.cls-3{fill:#35a8e0;}</style></defs><g id="cuadrobase"><g><rect class="cls-3" x="2" y="2" width="124" height="124" rx="22" ry="22"/><path class="cls-2" d="M104,4c11.03,0,20,8.97,20,20V104c0,11.03-8.97,20-20,20H24c-11.03,0-20-8.97-20-20V24C4,12.97,12.97,4,24,4H104m0-4H24C10.75,0,0,10.75,0,24V104C0,117.25,10.75,128,24,128H104c13.25,0,24-10.75,24-24V24c0-13.25-10.75-24-24-24h0Z"/></g></g><g id="figura"><g><rect class="cls-1" x="22" y="52.7" width="4.48" height="40.72"/><rect class="cls-1" x="101.49" y="52.7" width="4.52" height="40.72"/><rect class="cls-1" x="9.16" y="106.26" width="109.68" height="4.26"/><path class="cls-1" d="M112.53,39.1l3.15-3.58h-26.54l-25.14-13.93-25.14,13.93H12.32l3.15,3.58H112.53Zm-48.53-12.93l11.29,6.26h-22.59l11.29-6.26Z"/><polygon class="cls-1" points="17.81 102.75 110.19 102.75 110.19 97.07 105.42 97.07 105.42 100.21 87.5 100.21 87.5 97.07 40.5 97.07 40.5 100.21 22.58 100.21 22.58 97.07 17.81 97.07 17.81 102.75"/><path class="cls-1" d="M110.19,40.55H17.81v8.86h4.77v-2.67h17.92v2.67h47.01v-2.67h17.92v2.67h4.77v-8.86Zm-26.17,6.21H43.98v-1.99h40.04v1.99Z"/><path class="cls-1" d="M90.86,52.7H37.14v40.72h53.71V52.7Zm-43.48,36.35h-7.45v-15.24h7.45v15.24Zm0-18.95h-7.45v-15.24h7.45v15.24Zm30.78,22.6h-28.3v-24.01c0-7.81,6.33-14.15,14.15-14.15s14.15,6.34,14.15,14.15v24.01Zm9.92-3.66h-7.45v-15.24h7.45v15.24Zm0-18.95h-7.45v-15.24h7.45v15.24Z"/><rect class="cls-1" x="29.15" y="50.65" width="1.38" height="45.94"/><rect class="cls-1" x="32.99" y="50.65" width="1.38" height="45.94"/><rect class="cls-1" x="93.86" y="50.65" width="1.38" height="45.94"/><rect class="cls-1" x="97.7" y="50.65" width="1.38" height="45.94"/></g></g></svg>