<?xml version="1.0" encoding="UTF-8"?><svg xmlns="http://www.w3.org/2000/svg" viewBox="0 0 128 128"><defs><style>.cls-1{fill:#eaa1c7;}.cls-2{fill:#e61b72;}.cls-3{fill:#662482;}</style></defs><g id="cuadrobase"><g><rect class="cls-1" x="2" y="2" width="124" height="124" rx="22" ry="22"/><path class="cls-3" d="M104,4c11.03,0,20,8.97,20,20V104c0,11.03-8.97,20-20,20H24c-11.03,0-20-8.97-20-20V24C4,12.97,12.97,4,24,4H104m0-4H24C10.75,0,0,10.75,0,24V104C0,117.25,10.75,128,24,128H104c13.25,0,24-10.75,24-24V24c0-13.25-10.75-24-24-24h0Z"/></g></g><g id="figura"><g><path class="cls-2" d="M18.18,103.64h52.86V24.36H18.18V103.64ZM60.12,27.7h7.71v7.71h-7.71v-7.71Zm0,13.07h7.71v7.71h-7.71v-7.71Zm0,13.07h7.71v7.71h-7.71v-7.71Zm0,13.07h7.71v7.71h-7.71v-7.71Zm0,13.07h7.71v7.71h-7.71v-7.71Zm0,13.07h7.71v7.71h-7.71v-7.71ZM32.06,27.7h25.08v23.11h-25.08V27.7Zm0,25.1h25.08v23.11h-25.08v-23.11Zm0,24.93h25.08v23.11h-25.08v-23.11ZM21.18,27.7h7.71v7.71h-7.71v-7.71Zm0,13.07h7.71v7.71h-7.71v-7.71Zm0,13.07h7.71v7.71h-7.71v-7.71Zm0,13.07h7.71v7.71h-7.71v-7.71Zm0,13.07h7.71v7.71h-7.71v-7.71Zm0,13.07h7.71v7.71h-7.71v-7.71Z"/><path class="cls-2" d="M77.17,24.2c-.05,0-.11,0-.16,0V56.39c4,.24,7.18,3.55,7.18,7.61s-3.17,7.37-7.18,7.61v32.19c.05,0,.11,0,.16,0,21.98,0,39.8-17.82,39.8-39.8s-17.82-39.8-39.8-39.8Z"/></g></g></svg>