<?xml version="1.0" encoding="UTF-8"?><svg xmlns="http://www.w3.org/2000/svg" viewBox="0 0 128 128"><defs><style>.cls-1{fill:#dddb00;}.cls-2{fill:#35a8e0;}</style></defs><g id="cuadrobase"><g><rect class="cls-1" x="2" y="2" width="124" height="124" rx="22" ry="22"/><path class="cls-2" d="M104,4c11.03,0,20,8.97,20,20V104c0,11.03-8.97,20-20,20H24c-11.03,0-20-8.97-20-20V24C4,12.97,12.97,4,24,4H104m0-4H24C10.75,0,0,10.75,0,24V104C0,117.25,10.75,128,24,128H104c13.25,0,24-10.75,24-24V24c0-13.25-10.75-24-24-24h0Z"/></g></g><g id="figura"><path class="cls-2" d="M117.53,56.46L64,12.9,10.47,56.46h7.51v54.89H110.03V56.46h7.51Zm-28.84,32.03v.47h-27.09v-10.22h17.35c5.38,0,9.74,4.36,9.74,9.74Zm-33.66-6.17c0,3.22-2.61,5.82-5.82,5.82s-5.82-2.61-5.82-5.82,2.61-5.82,5.82-5.82,5.82,2.61,5.82,5.82Zm42.37,29h-5.45v-10.92H37.08v10.92h-5.45v-39.1h5.45v22.74h54.88v-14.25h5.45v30.61Z"/></g></svg>