<?xml version="1.0" encoding="UTF-8"?><svg xmlns="http://www.w3.org/2000/svg" viewBox="0 0 128 128"><defs><style>.cls-1{fill:#063;}.cls-2{fill:#ffec00;}.cls-3{fill:#35a8e0;}</style></defs><g id="cuadrobase"><g><rect class="cls-1" x="2" y="2" width="124" height="124" rx="22" ry="22"/><path class="cls-3" d="M104,4c11.03,0,20,8.97,20,20V104c0,11.03-8.97,20-20,20H24c-11.03,0-20-8.97-20-20V24C4,12.97,12.97,4,24,4H104m0-4H24C10.75,0,0,10.75,0,24V104c0,13.25,10.75,24,24,24H104c13.25,0,24-10.75,24-24V24c0-13.25-10.75-24-24-24h0Z"/></g></g><g id="figura"><g><path class="cls-2" d="M11.46,59.1v49.73h27.44V52.96H17.61c-3.39,0-6.14,2.75-6.14,6.14Zm7.71,.12h10.96v10.24h-10.96v-10.24Zm0,16.22h10.96v10.24h-10.96v-10.24Z"/><path class="cls-2" d="M110.87,52.96h-21.77v55.87h27.44V58.62c0-3.13-2.54-5.66-5.66-5.66Zm-2.68,32.72h-10.96v-10.24h10.96v10.24Zm0-16.22h-10.96v-10.24h10.96v10.24Z"/><path class="cls-2" d="M80.45,40.8c-1.96,7.11-8.77,12.36-16.87,12.36s-14.62-5.03-16.74-11.92c-1.58,1.12-2.62,2.9-2.62,4.92v62.46h14.6v-17.82h10.78v17.82h14.18V46.17c0-2.31-1.35-4.32-3.33-5.37Zm-19.81,36.86h-10.78v-10.41h10.78v10.41Zm17.08,0h-10.78v-10.41h10.78v10.41Z"/><path class="cls-2" d="M63.6,45.22c9.1,0,16.47-7.37,16.47-16.47s-7.37-16.47-16.47-16.47-16.47,7.37-16.47,16.47,7.37,16.47,16.47,16.47Zm-6.61-20.2h2.88v-3.62c0-2.05,1.68-3.73,3.73-3.73s3.73,1.68,3.73,3.73v3.62h2.88c2.05,0,3.73,1.68,3.73,3.73s-1.68,3.73-3.73,3.73h-2.88v3.62c0,2.05-1.68,3.73-3.73,3.73s-3.73-1.68-3.73-3.73v-3.62h-2.88c-2.05,0-3.73-1.68-3.73-3.73s1.68-3.73,3.73-3.73Z"/></g></g></svg>