<?xml version="1.0" encoding="UTF-8"?><svg xmlns="http://www.w3.org/2000/svg" viewBox="0 0 128 128"><defs><style>.cls-1{fill:#e61b72;}.cls-2{fill:#fff;}.cls-3{fill:#ffec00;}</style></defs><g id="cuadrobase"><g><rect class="cls-1" x="2" y="2" width="124" height="124" rx="22" ry="22"/><path class="cls-3" d="M104,4c11.03,0,20,8.97,20,20V104c0,11.03-8.97,20-20,20H24c-11.03,0-20-8.97-20-20V24C4,12.97,12.97,4,24,4H104m0-4H24C10.75,0,0,10.75,0,24V104c0,13.25,10.75,24,24,24H104c13.25,0,24-10.75,24-24V24c0-13.25-10.75-24-24-24h0Z"/></g></g><g id="figura"><path class="cls-2" d="M87.86,55.7v-7.66h11.18L64,10.94,28.96,48.05h11.18v7.66l-31.14,21.43h14.2v46.74H104.8v-46.74h14.2l-31.14-21.43Zm-25.89,66.28h-19.18v-40.09h19.18v40.09Zm0-44.14h-19.18v-20.52h19.18v20.52Zm23.23,44.14h-19.18v-40.09h19.18v40.09Zm0-44.14h-19.18v-20.52h19.18v20.52Z"/></g></svg>