<?xml version="1.0" encoding="UTF-8"?><svg xmlns="http://www.w3.org/2000/svg" viewBox="0 0 128 128"><defs><style>.cls-1{fill:#008d36;}.cls-2{fill:#d9d9d9;}.cls-3{fill:#93c01f;}</style></defs><g id="cuadrobase"><g><rect class="cls-3" x="2" y="2" width="124" height="124" rx="22" ry="22"/><path class="cls-2" d="M104,4c11.03,0,20,8.97,20,20V104c0,11.03-8.97,20-20,20H24c-11.03,0-20-8.97-20-20V24C4,12.97,12.97,4,24,4H104m0-4H24C10.75,0,0,10.75,0,24V104c0,13.25,10.75,24,24,24H104c13.25,0,24-10.75,24-24V24c0-13.25-10.75-24-24-24h0Z"/></g></g><g id="figura"><path class="cls-1" d="M64,13.39c-22.69,0-41.08,18.39-41.08,41.08s33.79,62.08,41.08,62.08c9.6,0,41.08-39.39,41.08-62.08S86.69,13.39,64,13.39Zm-7.76,7.64c1.07-.46,2.3-.04,2.72,.99,.02,0,5.65,13.26,5.65,13.26h-.03c.43,1-.03,2.22-1.16,2.72h-.03s-5.03,2.14-5.03,2.14l-7.18-16.97,5.06-2.14Zm-10.65,38.41c-9.74-23.92-.83-33.13,2.05-34.7l7.18,16.97c-2.61,1.09-1.98,4.23-1.05,7.33,1.3,4.44,3.21,8.65,5.04,11.91,2.76,4.96,4.32,7.26,6.82,6.2l7.01,16.55c-3.01,1.34-16.76,.95-27.05-24.25Zm35.62,20.58h-.03s-5.03,2.14-5.03,2.14l-7.02-16.58,5.06-2.14c1.07-.46,2.3-.04,2.72,.99,.02,0,5.5,12.9,5.5,12.9h-.03c.42,.99-.03,2.21-1.17,2.69Z"/></g></svg>