<?xml version="1.0" encoding="UTF-8"?><svg xmlns="http://www.w3.org/2000/svg" viewBox="0 0 128 128"><defs><style>.cls-1{fill:#f8b133;}.cls-2{fill:#ececec;}.cls-3{fill:#1d1d1b;}</style></defs><g id="cuadrobase"><g><rect class="cls-2" x="2" y="2" width="124" height="124" rx="22" ry="22"/><path class="cls-1" d="M104,4c11.03,0,20,8.97,20,20V104c0,11.03-8.97,20-20,20H24c-11.03,0-20-8.97-20-20V24C4,12.97,12.97,4,24,4H104m0-4H24C10.75,0,0,10.75,0,24V104C0,117.25,10.75,128,24,128H104c13.25,0,24-10.75,24-24V24c0-13.25-10.75-24-24-24h0Z"/></g></g><g id="figura"><g><path class="cls-3" d="M17.34,40.1l1.08-.42c2.9,6.22,9.11,10.2,16.02,10.2s13.14-4.04,16.02-10.2l1.07,.42c.93,.36,1.9-.44,1.71-1.42l-1.16-6.26c-.17-.93-1.26-1.35-2.02-.79l-5.09,3.82c-.8,.6-.63,1.84,.3,2.2l1.43,.56c-1.98,4.04-5.84,6.85-10.28,7.51V20.58c1.26-.71,2.12-2.04,2.12-3.58,0-2.27-1.85-4.12-4.12-4.12s-4.12,1.85-4.12,4.12c0,1.54,.86,2.88,2.12,3.58v25.16c-4.43-.65-8.29-3.44-10.28-7.51l1.43-.56c.93-.36,1.1-1.61,.3-2.2l-5.09-3.82c-.76-.57-1.85-.14-2.02,.79l-1.16,6.26c-.18,.98,.79,1.78,1.72,1.42ZM34.44,14.87c1.17,0,2.12,.95,2.12,2.12s-.95,2.12-2.12,2.12-2.12-.95-2.12-2.12,.95-2.12,2.12-2.12Z"/><polygon class="cls-3" points="78.67 77.09 78.67 9.76 36.91 77.09 78.67 77.09"/><path class="cls-3" d="M82.63,25.29v51.8h24.96c1.92-24.14-12.67-44.25-24.96-51.8Z"/><path class="cls-3" d="M90.92,80.77H46.77v10.08c.62,.16,1.24,.34,1.81,.62,1.38,.6,2.92,.97,4.52,.97s3.15-.37,4.52-.97c1.4-.65,2.99-1.04,4.65-1.04s3.24,.39,4.65,1.04c1.37,.6,2.9,.97,4.51,.97s3.14-.37,4.53-.97c1.41-.65,3-1.04,4.64-1.04s3.25,.39,4.66,1.04c1.37,.6,2.92,.97,4.51,.97,.31,0,.6-.08,.89-.11,.04,0,.04,.04,.07,.04,.2,0,.35-.09,.55-.09,.37-.05,.73-.09,1.1-.18,3.28-.68,5.4-3.24,5.4-3.24l6.39-8.09h-1.86s-11.39,0-11.39,0Z"/><path class="cls-3" d="M121.77,97.62c-1.41-.64-3-1.02-4.65-1.02s-3.24,.38-4.64,1.02c-1.37,.62-2.88,.98-4.47,.98-1.57,0-3.11-.37-4.47-.98-1.4-.64-2.99-1.02-4.65-1.02s-3.24,.38-4.64,1.02c-1.39,.63-2.92,.99-4.53,.99s-3.14-.36-4.51-.99c-1.41-.64-3-1.02-4.66-1.02s-3.23,.38-4.64,1.02c-1.39,.63-2.92,.99-4.53,.99s-3.14-.36-4.51-.99c-1.41-.64-3-1.02-4.65-1.02s-3.25,.38-4.65,1.02c-1.37,.63-2.92,.99-4.52,.99s-3.14-.36-4.52-.99c-1.41-.64-3-1.02-4.65-1.02s-3.24,.38-4.65,1.02c-1.37,.62-2.88,.98-4.47,.98-1.57,0-3.11-.37-4.47-.98-1.4-.64-2.99-1.02-4.65-1.02s-3.24,.38-4.64,1.02c-1.39,.63-2.92,.99-4.53,.99s-3.14-.36-4.51-.99c-1.41-.64-3-1.02-4.66-1.02-1.1,0-2.16,.18-3.18,.48v6.76c1.01-.31,2.08-.49,3.18-.49,1.66,0,3.25,.38,4.66,1.04,1.37,.62,2.92,.99,4.51,.99s3.14-.37,4.53-.99c1.4-.66,2.99-1.04,4.64-1.04s3.25,.38,4.65,1.04c1.35,.61,2.86,.97,4.42,.98h0s.03,0,.04,0,.03,0,.04,0h0c1.57-.02,3.07-.38,4.43-.99,1.41-.66,3-1.04,4.65-1.04s3.24,.38,4.65,1.04c1.38,.62,2.92,.99,4.52,.99s3.15-.37,4.52-.99c1.4-.66,2.99-1.04,4.65-1.04s3.24,.38,4.65,1.04c1.37,.62,2.9,.99,4.51,.99s3.14-.37,4.53-.99c1.41-.66,3-1.04,4.64-1.04s3.25,.38,4.66,1.04c1.37,.62,2.92,.99,4.51,.99s3.14-.37,4.53-.99c1.4-.66,2.99-1.04,4.64-1.04s3.25,.38,4.65,1.04c1.35,.61,2.86,.97,4.42,.98h0s.03,0,.04,0,.03,0,.04,0h0c1.57-.02,3.08-.38,4.43-.99,1.41-.66,3-1.04,4.64-1.04s3.24,.38,4.65,1.04c.67,.3,1.37,.54,2.1,.7v-6.77c-.73-.17-1.44-.41-2.1-.71Z"/></g></g></svg>