<?xml version="1.0" encoding="UTF-8"?><svg xmlns="http://www.w3.org/2000/svg" viewBox="0 0 128 128"><defs><style>.cls-1{fill:#fff;}.cls-2{fill:#ffec00;}.cls-3{fill:#7a6a58;}</style></defs><g id="cuadrobase"><g><rect class="cls-3" x="2" y="2" width="124" height="124" rx="22" ry="22"/><path class="cls-2" d="M104,4c11.03,0,20,8.97,20,20V104c0,11.03-8.97,20-20,20H24c-11.03,0-20-8.97-20-20V24C4,12.97,12.97,4,24,4H104m0-4H24C10.75,0,0,10.75,0,24V104C0,117.25,10.75,128,24,128H104c13.25,0,24-10.75,24-24V24c0-13.25-10.75-24-24-24h0Z"/></g></g><g id="figura"><g><path class="cls-1" d="M64,11.87c-24.1,0-43.63,16.65-43.63,40.74s38.36,63.51,43.63,63.51,43.63-39.42,43.63-63.51S88.1,11.87,64,11.87Zm13.16,10.89c3,0,5.43,2.32,5.43,5.17s-2.43,5.16-5.43,5.16-5.42-2.31-5.42-5.16,2.42-5.17,5.42-5.17Zm-16.56,63.53h-20.93v-26.09h3.43s3.92,0,3.92,0l2.74,5.29,8.77-5.29h.91s1.15-.01,1.15-.01v26.11Zm-13.29-31.24l6.25-3.25,3.27,6.25-6.26,3.25-3.25-6.25Zm43.83,3.22c0,3.1-4.24,3.1-4.24,0v-15.42h-2.8v41.82c0,1.6-1.37,2.9-3.06,2.9s-3.04-1.3-3.04-2.9v-24.25h-2.81v24.25c0,1.6-1.37,2.9-3.05,2.9s-3.04-1.3-3.04-2.9V42.86s-4.69,7.04-4.69,7.04c-.54,.82-1.26,1.17-1.95,1.17l-9.34,.02c-3.24,0-3.24-4.05,0-4.05h8.18s5.45-8.29,5.45-8.29c1.23-1.81,3.36-3.01,5.8-3.01h10.8c4.22,0,7.79,3.38,7.79,6.8v15.73Z"/><polygon class="cls-1" points="43.75 74.74 49.4 77.77 52.45 72.11 46.78 69.08 43.75 74.74"/></g></g></svg>