<?xml version="1.0" encoding="UTF-8"?><svg xmlns="http://www.w3.org/2000/svg" viewBox="0 0 128 128"><defs><style>.cls-1{fill:#925f36;}.cls-2{fill:#dddb00;}.cls-3{fill:#35a8e0;}</style></defs><g id="cuadrobase"><g><rect class="cls-2" x="2" y="2" width="124" height="124" rx="22" ry="22"/><path class="cls-3" d="M104,4c11.03,0,20,8.97,20,20V104c0,11.03-8.97,20-20,20H24c-11.03,0-20-8.97-20-20V24C4,12.97,12.97,4,24,4H104m0-4H24C10.75,0,0,10.75,0,24V104c0,13.25,10.75,24,24,24H104c13.25,0,24-10.75,24-24V24c0-13.25-10.75-24-24-24h0Z"/></g></g><g id="figura"><g><path class="cls-1" d="M90.75,82.67h-7.29v-3.3h4.28c1.11,0,2.02-.9,2.02-2.02v-.05c0-1.11-.9-2.02-2.02-2.02h-4.28v-2.62h4.28c1.11,0,2.02-.9,2.02-2.02v-.05c0-1.11-.9-2.02-2.02-2.02H44.25c-1.11,0-2.02,.9-2.02,2.02v.05c0,1.11,.9,2.02,2.02,2.02h2.74v2.62h-2.74c-1.11,0-2.02,.9-2.02,2.02v.05c0,1.11,.9,2.02,2.02,2.02h2.74v3.3h-5.75c-.43,0-.78,.35-.78,.78s.35,.78,.78,.78h49.52c.43,0,.78-.35,.78-.78s-.35-.78-.78-.78Zm-10.53,0h-29.9v-3.3h29.9v3.3Zm0-7.38h-29.9v-2.62h29.9v2.62Z"/><path class="cls-1" d="M90.78,86.15H41.21c-.41,0-.75,.33-.75,.75s.33,.75,.75,.75h49.58c.41,0,.75-.33,.75-.75s-.33-.75-.75-.75Z"/><path class="cls-1" d="M90.39,89.8H41.6c-.63,0-1.14,.51-1.14,1.14s.51,1.14,1.14,1.14h2.47l-2.08,7.04c-.1,.34,.09,.7,.43,.8l1.54,.45c.34,.1,.7-.09,.8-.43l2.32-7.86h37.42l2.78,7.86c.12,.33,.48,.51,.82,.39l1.51-.53c.33-.12,.51-.48,.39-.82l-2.44-6.9h2.85c.63,0,1.14-.51,1.14-1.14s-.51-1.14-1.14-1.14Z"/><path class="cls-1" d="M42.56,55.27c.98-1.24,.78-2.75-.35-3.83,.08-.04,.15-.08,.22-.12,.07-.04,.14-.08,.21-.12h.02c.13-.09,.25-.18,.37-.27,0,0,0,0,0,0,.12-.1,.24-.2,.35-.31,.05-.05,.1-.1,.15-.16h.01c.05-.07,.09-.12,.13-.18,.09-.12,.17-.24,.24-.37,.03-.06,.07-.13,.1-.19,.03-.06,.06-.13,.08-.2,.02-.07,.04-.13,.06-.2,.03-.12,.05-.24,.07-.36,0,0,0,0,0,0,0-.04,0-.07,.01-.11,0,0,0-.01,0-.02,0-.05,0-.09,0-.14,0-.08,0-.16-.01-.23,0-.03,0-.06-.01-.08,0-.04,0-.07-.02-.11-.02-.13-.06-.27-.1-.39,0,0,0,0,0-.01,0,0,0,0,0-.01-.02-.05-.04-.11-.06-.16,0,0,0-.02-.01-.03,0,0,0-.01-.01-.02-.03-.06-.05-.11-.08-.17-.03-.05-.06-.11-.09-.16,0,0,0-.02-.02-.03-.03-.04-.05-.08-.08-.12-.02-.03-.05-.07-.08-.1-.03-.04-.07-.09-.11-.13-.07-.08-.15-.17-.23-.24-.02-.02-.05-.05-.08-.07,0,0,0,0-.01,0-.03-.03-.07-.06-.11-.09-.02-.02-.05-.04-.07-.06,0,0,0,0,0,0-.06-.05-.12-.09-.18-.14,0,0-.02-.01-.03-.02-.06-.04-.11-.08-.17-.12l-.05-.03c-.05-.03-.11-.06-.16-.09l-.07-.04s-.1-.05-.15-.08c1.12-1.07,1.32-2.58,.34-3.82-.9-1.14-2.55-1.76-4.22-1.73-.16,0-.32,.02-.49,.03,0-.05-.01-.11-.02-.16,0-.01,0-.03,0-.04-.02-.11-.04-.22-.08-.33,0,0,0-.02,0-.03,0-.01,0-.02-.01-.04-.02-.06-.05-.13-.08-.19-.03-.06-.06-.13-.09-.19-.03-.05-.05-.1-.08-.16-.01-.02-.02-.04-.04-.06-.03-.05-.07-.1-.1-.15,0,0-.01-.01-.02-.02-.04-.05-.08-.1-.12-.16-.02-.03-.05-.06-.08-.09-.06-.06-.12-.12-.18-.19-.02-.02-.04-.04-.06-.06-.03-.03-.07-.06-.1-.09-.05-.04-.1-.09-.16-.13-.02-.01-.03-.03-.05-.04-.08-.06-.16-.11-.24-.17-.04-.03-.08-.05-.13-.08,0,0,0,0,0,0,0,0,0,0-.01,0-.09-.05-.18-.1-.28-.15-.05-.02-.09-.05-.14-.07-.05-.03-.11-.05-.17-.07-.1-.04-.21-.08-.31-.12,0,0-.01,0-.02,0-.06-.02-.13-.04-.19-.06-.05-.01-.1-.03-.14-.04-.04-.01-.08-.02-.12-.03-.02,0-.03,0-.05-.01-.07-.02-.15-.03-.22-.05-.04,0-.08-.01-.12-.02-.05,0-.1-.02-.15-.03,0,0-.02,0-.02,0h-.02c-.08-.01-.16-.02-.24-.03-.06,0-.12-.01-.18-.02-.06,0-.11,0-.17-.01-.15,0-.3,0-.44,0h-.08c-.07,0-.15,0-.22,.01-.08,0-.16,.01-.24,.02h-.07c-.17,.03-.34,.05-.5,.09-.08,.02-.17,.04-.25,.06,0,0-.01,0-.02,0-.08,.02-.17,.05-.25,.07-.08,.03-.17,.05-.25,.08-.71-1.25-2.4-2.13-4.37-2.13s-3.65,.88-4.37,2.13c0,0,0,0-.01,0-.08-.03-.16-.06-.24-.08-.08-.03-.17-.05-.25-.07-.09-.02-.17-.04-.26-.06-.09-.02-.17-.03-.26-.05-.08-.01-.17-.03-.25-.04h-.02s-.02,0-.02,0c-.09,0-.17-.02-.26-.02-.08,0-.17-.01-.25-.01h-.05c-.08,0-.16,0-.24,0h-.02c-.08,0-.16,0-.24,.01-.02,0-.04,0-.06,0-.07,0-.15,.01-.22,.02,0,0,0,0-.01,0-.01,0-.02,0-.03,0-.08,0-.16,.02-.24,.03-.07,.01-.15,.02-.22,.04-.09,.02-.19,.04-.28,.06-.16,.04-.31,.08-.47,.14-.03,.01-.06,.02-.09,.03,0,0,0,0-.01,0-.09,.03-.17,.06-.26,.1-.06,.02-.11,.05-.17,.07-.05,.02-.1,.05-.14,.07-.1,.05-.19,.1-.28,.15,0,0-.01,0-.02,.01-.04,.03-.09,.05-.13,.08-.04,.03-.09,.06-.13,.09-.04,.03-.07,.05-.11,.08-.02,.01-.03,.03-.05,.04-.03,.02-.05,.04-.08,.06-.04,.04-.08,.07-.12,.11-.04,.03-.07,.07-.11,.1-.07,.07-.14,.14-.2,.21-.03,.04-.06,.07-.09,.11-.03,.04-.06,.07-.09,.11-.02,.03-.04,.06-.06,.09-.01,.02-.02,.03-.03,.05-.01,.02-.03,.04-.04,.06,0,0,0,.02-.02,.03,0,.02-.02,.03-.03,.05-.02,.03-.04,.06-.05,.09,0,.02-.02,.03-.03,.05-.01,.03-.02,.06-.04,.09-.03,.07-.06,.14-.09,.21-.03,.08-.06,.15-.08,.23h0s0,.02,0,.03c0,.04-.02,.07-.02,.11,0,.04-.02,.08-.02,.13,0,.03-.01,.06-.02,.09,0,.01,0,.03,0,.04,0,0,0,.02,0,.02-.24-.02-.47-.03-.71-.03-1.6,.03-3.14,.64-3.99,1.73-.98,1.24-.79,2.75,.34,3.82-.01,0-.02,.01-.03,.02-.19,.09-.37,.2-.54,.32-.04,.03-.08,.06-.13,.09-.08,.06-.16,.12-.23,.19-.04,.03-.07,.07-.11,.1-.03,.03-.07,.06-.1,.09,0,0,0,0,0,0-.02,.02-.03,.03-.05,.05-.04,.04-.08,.08-.11,.12,0,0,0,.01-.02,.02-.04,.05-.08,.1-.12,.15-.02,.03-.04,.05-.06,.08,0,0-.01,.02-.02,.02-.05,.07-.1,.14-.14,.22-.02,.04-.04,.08-.06,.12-.02,.04-.04,.08-.06,.12,0,.02-.01,.04-.02,.06-.02,.05-.04,.1-.06,.16-.02,.06-.04,.11-.05,.17,0,.02-.01,.05-.02,.07-.03,.11-.04,.21-.06,.32,0,0,0,0,0,0,0,.04,0,.07-.01,.11,0,.05,0,.1,0,.16s0,.11,0,.16c0,.03,0,.07,.01,.1,0,0,0,0,0,.01,.01,.12,.04,.24,.07,.36,.02,.07,.04,.14,.06,.2,.02,.07,.05,.13,.08,.2,.03,.07,.06,.13,.09,.19,.03,.06,.07,.12,.11,.18,.02,.02,.03,.05,.05,.07,.02,.02,.04,.05,.05,.07,.01,.02,.03,.04,.05,.06,.04,.05,.08,.1,.12,.15,0,0,0,.01,.02,.02,.04,.04,.08,.08,.11,.12,.01,.01,.03,.03,.04,.04,.04,.04,.08,.07,.11,.11,.01,.01,.03,.02,.04,.03,.05,.04,.1,.09,.15,.13l.03,.02s0,0,0,0c0,0,.01,0,.02,.01,.04,.03,.09,.07,.13,.1,.03,.02,.05,.04,.08,.06,.05,.03,.1,.07,.15,.1,0,0,0,0,.01,0,.06,.04,.13,.08,.2,.12,0,0,.02,0,.02,.01,.07,.04,.13,.07,.2,.11h.01c-1.13,1.08-1.33,2.59-.34,3.83,.98,1.25,2.87,1.87,4.71,1.7,0,.01,0,.02,0,.03,0,.03,0,.06,.01,.1,0,.02,0,.04,0,.05,0,.02,0,.05,.01,.07,0,.01,0,.02,0,.03,0,.03,.01,.07,.02,.1,0,0,0,.02,0,.02,0,.03,.02,.06,.03,.09,0,.03,.02,.07,.03,.1,0,.01,0,.03,.01,.04,0,0,0,.01,0,.02,.01,.03,.03,.06,.04,.09,0,.02,.02,.04,.03,.06,.03,.06,.05,.12,.08,.18,0,.01,.01,.02,.02,.03,.02,.04,.04,.07,.06,.11,0,0,0,.01,.01,.02,.01,.02,.03,.05,.05,.07,0,.01,.02,.02,.02,.03,.02,.03,.04,.06,.06,.08l.02,.03s.05,.07,.08,.11c.03,.03,.06,.07,.09,.1,0,0,0,0,0,.01,.05,.06,.11,.12,.17,.17,.02,.02,.04,.04,.06,.06l.04,.04c.34,.31,.77,.58,1.27,.79,1.73,.73,3.84,.53,5.26-.38,0,0,0,0,0,.01l.18-2.11c-4.01-.71-8.9-3.1-8.74-8.7,.46,1.74,1.84,3.3,3.84,4.5,.98-.98-.51-2.81-1.6-3.64,2.53-.51,4.64,3.5,3.56,4.57,1.45,.8,1.83,.69,3.56,1.08,.12-.11,.05-.12,.2-.22-1.19-.99-1.75-3.25-1.63-4.87-2.36-1.23-3.62-3.35-.96-4.81-.56,2.29,.34,2.37,1.21,2.66,.65-2.55,1.1-3.28,3.77-4.9,0,0,0,0,0,0h0s0,0,0,0c-2.13,2.99-3.5,8.31-.58,11.11,.31-.07,.29,.11,.63,.11,.78,0,.75,0,1.31,.31,1.78-3,1.37-6.33,1.71-8.93,.9,1.52,1.43,2.62,1.54,4.45,2.37-.72,2.83-1.78,2.68-3.09,1.79,1.91,.52,4.62-2.74,5.56-.41,1.19-.61,2.24-1.55,3.1,.16,.18,.11,.09,.19,.3v.14c4.61-1.02,8.05-3.45,8.82-6.4,1.45,3.4-1.36,7.02-8.62,8.6l.07,1.21c1.42,.86,3.47,1.03,5.16,.32,.5-.21,.92-.48,1.26-.79h0s.04-.04,.06-.05c.01-.01,.03-.03,.04-.04,.03-.03,.06-.06,.08-.09,.03-.03,.06-.07,.09-.1h0s.03-.04,.04-.06c.02-.03,.05-.05,.07-.08,.03-.04,.06-.07,.08-.11,.02-.03,.04-.05,.06-.08,0-.01,.01-.02,.02-.03,.04-.06,.07-.12,.1-.17,0,0,.01-.02,.02-.03,.03-.05,.05-.1,.07-.15,.01-.03,.03-.06,.04-.09,0-.01,0-.02,.01-.03,.01-.03,.03-.06,.04-.09,0-.01,0-.02,.01-.03,.01-.03,.02-.06,.03-.09,0-.01,0-.02,0-.03,.01-.04,.02-.08,.03-.12,0-.03,.02-.06,.02-.1,0-.03,.01-.07,.02-.1,0-.02,0-.04,0-.05,0-.04,.01-.08,.02-.12,1.84,.17,3.72-.45,4.71-1.7Z"/><path class="cls-1" d="M29.09,87.02c-.55,.04-.94,.54-.92,1.11,.02,.53,.53,1.03,1.14,.98,.54-.04,1.04-.6,.95-1.14-.05-.62-.52-1.01-1.18-.96Z"/><path class="cls-1" d="M29.36,76.04l-.51-19.27s-.37-1.06-1.8-1.06c-1.56,0-2.05,1.06-2.05,1.06l-.39,24c-.38,.94-.73,2.01-1.04,3.18-1.27-3.32-2.92-5.33-4.73-5.33-.73,0-1.43,.33-2.09,.93-1.1-2.26-2.39-3.56-3.76-3.56-3.99,0-7.23,10.92-7.23,24.4,0,.2,0,.4,0,.59h30.37c0-.2,0-.39,0-.59,0-12.97-3-23.56-6.78-24.35Zm-9.86,17.18c.51,.5,.82,1.12,1.02,1.8,.03,.1,.06,.19-.09,.22-.49,.11-.99,.19-1.5,.13-.23-.03-.46-.07-.71-.11,.21,.79,.18,1.55-.05,2.34-.8-.2-1.48-.55-2.06-1.14-.21,.82-.63,1.46-1.21,2.02-.59-.57-1.01-1.22-1.21-2.02-.59,.6-1.27,.94-2.06,1.14-.23-.79-.26-1.56-.04-2.36-.76,.22-1.48,.19-2.2,0-.12-.03-.16-.07-.12-.19,.05-.12,.08-.25,.12-.38,.21-.58,.53-1.1,.99-1.55-.82-.19-1.47-.61-2.03-1.21,.56-.59,1.23-.97,2-1.21-.05-.06-.08-.1-.11-.14-.46-.49-.78-1.07-.95-1.72-.04-.16,0-.23,.16-.26,.66-.15,1.31-.18,1.97-.02,.05,.01,.1,.01,.16,.02-.22-.79-.18-1.56,.05-2.33,.8,.19,1.48,.55,2.06,1.14,.21-.81,.63-1.46,1.21-2.02,.59,.56,1.01,1.21,1.2,1.97,.33-.23,.63-.48,.97-.67,.34-.19,.71-.31,1.09-.46,.24,.83,.28,1.6,.05,2.4,.81-.21,1.58-.19,2.36,.04-.2,.8-.55,1.49-1.15,2.07,.82,.2,1.47,.62,2.03,1.21-.57,.59-1.22,1.02-2.02,1.21,.03,.04,.05,.07,.07,.09Zm13.14-8.57c0,.94-.25,1.76-.98,2.41,.98-.08,1.72,.36,2.4,1.01-.68,.66-1.43,1.08-2.41,1.01,.36,.3,.61,.67,.77,1.09,.16,.42,.23,.86,.21,1.32-.94,0-1.75-.25-2.41-.99,.06,1-.34,1.75-1.01,2.41-.67-.66-1.07-1.42-1.01-2.41-.66,.74-1.47,1-2.41,.99-.02-.94,.25-1.75,.95-2.4-.96,.04-1.71-.36-2.37-1.02,.67-.65,1.42-1.06,2.4-1.01-.72-.66-.97-1.48-.98-2.41,.95,0,1.76,.25,2.42,.99-.03-.49,.04-.92,.23-1.33,.19-.41,.44-.76,.78-1.07,.67,.66,1.06,1.42,1,2.41,.33-.38,.69-.63,1.11-.78,.42-.16,.85-.22,1.31-.2Z"/><path class="cls-1" d="M14.89,90.18c-.99,.02-1.73,.75-1.73,1.75,0,.96,.78,1.73,1.74,1.73,.89,0,1.76-.71,1.74-1.77-.01-.84-.72-1.73-1.74-1.71Z"/><path class="cls-1" d="M122.4,45.78s-.01-.08-.02-.11c0-.05-.01-.1-.02-.15-.03-.18-.08-.36-.14-.53,0,0,0-.01,0-.02,0,0,0-.01,0-.02-.03-.07-.06-.14-.09-.21,0-.01-.01-.03-.02-.04,0-.01-.01-.02-.02-.03-.04-.08-.07-.15-.11-.23-.04-.07-.08-.15-.12-.22,0-.01-.01-.02-.02-.03-.04-.06-.07-.11-.11-.17-.03-.05-.07-.09-.1-.14-.05-.06-.09-.12-.14-.18-.1-.11-.2-.22-.31-.33-.03-.03-.07-.07-.1-.1,0,0-.01,0-.02-.01-.05-.04-.1-.08-.14-.12-.03-.03-.06-.06-.1-.08,0,0,0,0-.01,0-.08-.06-.16-.12-.25-.18-.01,0-.02-.02-.04-.03-.08-.05-.16-.11-.24-.16l-.07-.04c-.07-.04-.15-.09-.22-.13l-.1-.05c-.07-.04-.14-.07-.21-.11,1.53-1.46,1.8-3.51,.46-5.2-1.22-1.54-3.46-2.39-5.74-2.35-.22,0-.44,.02-.66,.04,0-.07-.01-.14-.03-.21,0-.02,0-.04-.01-.06-.03-.15-.06-.3-.11-.45,0-.01,0-.02-.01-.03,0-.02,0-.03-.02-.05-.03-.09-.07-.17-.1-.26-.04-.09-.08-.17-.12-.26-.04-.07-.07-.14-.11-.21-.02-.03-.03-.06-.05-.08-.04-.07-.09-.13-.14-.2,0,0-.01-.02-.02-.03-.05-.07-.11-.14-.17-.21-.03-.04-.07-.08-.1-.12-.08-.09-.16-.17-.25-.25-.03-.02-.05-.05-.08-.08-.04-.04-.09-.08-.14-.12-.07-.06-.14-.12-.21-.17-.02-.02-.04-.04-.07-.05-.1-.08-.21-.15-.32-.23-.06-.04-.12-.07-.18-.11,0,0,0,0-.01,0,0,0-.01,0-.02,0-.12-.07-.25-.14-.38-.21-.06-.03-.13-.07-.2-.1-.07-.03-.15-.07-.23-.1-.14-.06-.28-.11-.42-.16,0,0-.02,0-.03-.01-.09-.03-.17-.06-.26-.09-.06-.02-.13-.04-.2-.06-.06-.02-.11-.03-.17-.05-.02,0-.04-.01-.06-.02-.1-.02-.2-.05-.3-.07-.06-.01-.11-.02-.16-.03-.07-.01-.13-.02-.2-.03-.01,0-.02,0-.03,0h-.02c-.11-.02-.22-.03-.32-.05-.08,0-.16-.02-.25-.02-.08,0-.15-.01-.23-.02-.2-.01-.4-.01-.6,0h-.11c-.1,0-.2,.01-.3,.02-.11,0-.21,.02-.32,.03h-.1c-.23,.04-.46,.07-.68,.12-.11,.02-.23,.05-.34,.08,0,0-.01,0-.02,0-.12,.03-.23,.06-.34,.1-.11,.03-.23,.07-.34,.11-.97-1.7-3.26-2.89-5.93-2.89s-4.97,1.19-5.93,2.89c0,0-.01,0-.02,0-.11-.04-.21-.08-.32-.11-.11-.03-.23-.07-.35-.1-.12-.03-.24-.06-.36-.08-.12-.02-.24-.04-.36-.06-.11-.02-.23-.04-.34-.05h-.03s-.02,0-.02,0c-.12-.01-.23-.02-.35-.03-.11,0-.23-.02-.35-.02h-.06c-.11,0-.22,0-.32,0h-.03c-.11,0-.22,0-.32,.02-.03,0-.06,0-.09,0-.1,0-.2,.02-.3,.03,0,0-.01,0-.02,0-.01,0-.03,0-.04,0-.11,.01-.22,.03-.33,.05-.1,.02-.2,.03-.3,.05-.13,.02-.26,.05-.38,.08-.21,.05-.43,.11-.63,.18-.04,.01-.08,.03-.12,.04,0,0-.01,0-.02,0-.12,.04-.23,.09-.35,.14-.08,.03-.15,.07-.23,.1-.07,.03-.13,.07-.2,.1-.13,.07-.26,.13-.38,.21,0,0-.02,.01-.03,.02-.06,.04-.12,.07-.18,.11-.06,.04-.12,.08-.18,.12-.05,.03-.1,.07-.14,.11-.02,.02-.04,.04-.07,.05-.04,.03-.07,.05-.11,.08-.06,.05-.11,.1-.17,.15-.05,.04-.1,.09-.15,.14-.1,.09-.19,.19-.27,.29-.04,.05-.08,.1-.12,.15-.04,.05-.08,.1-.12,.15-.03,.04-.06,.09-.09,.13-.02,.02-.03,.05-.05,.07-.02,.03-.03,.05-.05,.08,0,.01-.01,.03-.02,.04-.01,.02-.02,.04-.04,.06-.02,.04-.05,.08-.07,.12-.01,.02-.02,.05-.04,.07-.02,.04-.03,.08-.05,.12-.04,.09-.08,.18-.12,.28-.04,.1-.07,.21-.1,.32v.02s0,.01-.01,.02c-.01,.05-.02,.1-.03,.15-.01,.06-.02,.12-.03,.17,0,.04-.02,.08-.02,.12,0,.02,0,.04,0,.06,0,.01,0,.02,0,.03-.32-.03-.64-.05-.96-.04-2.17,.04-4.26,.87-5.43,2.35-1.34,1.69-1.07,3.74,.46,5.2-.01,0-.03,.02-.04,.02-.26,.13-.5,.27-.73,.43-.06,.04-.11,.08-.17,.12-.11,.08-.22,.16-.32,.25-.05,.04-.1,.09-.15,.14-.05,.04-.09,.08-.14,.13,0,0,0,0,0,.01-.02,.02-.05,.04-.07,.06-.05,.06-.1,.11-.15,.17,0,0-.01,.02-.02,.03-.06,.07-.11,.13-.16,.2-.03,.03-.05,.07-.08,.11,0,.01-.02,.02-.03,.03-.07,.1-.13,.2-.19,.3-.03,.05-.06,.11-.09,.17-.03,.05-.06,.11-.08,.16-.01,.02-.02,.05-.03,.08-.03,.07-.06,.14-.08,.21-.03,.08-.05,.15-.07,.23,0,.03-.02,.07-.03,.1-.04,.14-.06,.29-.08,.44,0,0,0,0,0,0,0,.05-.01,.1-.02,.15,0,.07,0,.14,0,.21s0,.14,0,.21c0,.05,.01,.09,.02,.14,0,0,0,.01,0,.02,.02,.17,.05,.33,.09,.49,.02,.09,.05,.18,.08,.27,.03,.09,.07,.18,.11,.27,.04,.09,.08,.17,.13,.26,.05,.08,.09,.17,.14,.25,.02,.03,.04,.07,.06,.1,.02,.03,.05,.07,.07,.1,.02,.03,.04,.06,.06,.08,.05,.07,.1,.13,.16,.2,0,0,.01,.02,.02,.03,.05,.06,.1,.11,.15,.17,.02,.02,.04,.04,.06,.06,.05,.05,.1,.1,.15,.15,.02,.02,.03,.03,.05,.05,.07,.06,.13,.12,.21,.18l.04,.03s0,0,.01,0c0,0,.01,0,.02,.02,.06,.04,.12,.09,.18,.13,.04,.03,.07,.05,.11,.08,.07,.05,.13,.09,.2,.14,0,0,.01,0,.02,0,.09,.05,.18,.11,.27,.16,.01,0,.02,0,.03,.02,.09,.05,.18,.1,.28,.15h.02c-1.53,1.47-1.8,3.52-.46,5.21,1.34,1.69,3.9,2.54,6.4,2.3,0,.01,0,.03,0,.04,0,.04,0,.09,.02,.13,0,.02,0,.05,.01,.07,0,.03,0,.07,.02,.1,0,.01,0,.03,.01,.04,0,.05,.02,.09,.03,.14,0,.01,0,.02,.01,.03,.01,.04,.02,.08,.04,.12,.01,.05,.03,.09,.04,.14,0,.02,0,.04,.02,.05,0,0,0,.01,.01,.02,.02,.04,.03,.08,.05,.12,.01,.03,.02,.06,.04,.08,.04,.08,.07,.16,.11,.24,0,.02,.02,.03,.03,.05,.03,.05,.05,.1,.08,.15,0,0,.01,.01,.02,.02,.02,.03,.04,.07,.06,.1,0,.01,.02,.03,.03,.04,.02,.04,.05,.08,.08,.11l.03,.04c.04,.05,.07,.1,.11,.15,.04,.05,.08,.09,.12,.14,0,0,0,.01,.01,.02,.07,.08,.15,.16,.23,.24,.03,.03,.06,.06,.09,.09l.06,.05c.46,.42,1.04,.79,1.72,1.08,2.35,.99,5.21,.72,7.14-.51,0,0,0,.01,0,.02l.25-2.86c-5.44-.96-12.09-4.21-11.87-11.82,.62,2.37,2.5,4.49,5.22,6.11,1.33-1.34-.69-3.81-2.18-4.94,3.44-.7,6.31,4.76,4.83,6.21,1.97,1.09,2.48,.93,4.83,1.47,.16-.15,.07-.17,.27-.3-1.62-1.35-2.37-4.41-2.22-6.62-3.21-1.67-4.92-4.55-1.31-6.54-.76,3.11,.46,3.21,1.64,3.62,.89-3.46,1.5-4.46,5.12-6.66,0,0,0,0,0,0h0s0,0,0,0c-2.9,4.06-4.75,11.3-.8,15.09,.42-.09,.4,.15,.86,.15,1.06,0,1.02,0,1.78,.43,2.42-4.07,1.86-8.6,2.33-12.13,1.22,2.06,1.95,3.56,2.1,6.05,3.21-.97,3.85-2.42,3.64-4.19,2.43,2.6,.71,6.27-3.72,7.55-.55,1.61-.83,3.04-2.1,4.22,.21,.25,.15,.12,.25,.41v.18c6.26-1.38,10.93-4.69,11.99-8.7,1.97,4.62-1.85,9.54-11.71,11.69l.09,1.64c1.93,1.17,4.72,1.41,7.02,.44,.68-.29,1.25-.66,1.72-1.08h0s.05-.05,.08-.07c.02-.02,.03-.04,.05-.05,.04-.04,.08-.08,.11-.12,.04-.05,.09-.09,.13-.14h.01s.04-.06,.06-.08c.03-.04,.06-.07,.09-.11,.04-.05,.08-.1,.11-.15,.03-.04,.06-.07,.08-.11,0-.01,.02-.03,.03-.04,.05-.08,.09-.16,.14-.24,0-.01,.02-.02,.03-.04,.04-.07,.07-.13,.1-.2,.02-.04,.04-.08,.06-.12,0-.01,.01-.03,.02-.04,.02-.04,.04-.08,.05-.12,0-.01,.01-.03,.02-.04,.01-.04,.03-.08,.04-.12,0-.01,0-.03,.01-.04,.02-.05,.03-.11,.05-.17,.01-.04,.02-.09,.03-.13,0-.05,.02-.09,.03-.14,0-.02,0-.05,.01-.07,0-.06,.02-.11,.02-.17,2.49,.24,5.06-.61,6.4-2.3,1.34-1.69,1.06-3.74-.47-5.2,.1-.05,.21-.1,.3-.16,.1-.05,.2-.11,.29-.17h.02c.18-.12,.35-.24,.5-.37,0,0,0,0,0,0,.17-.13,.32-.27,.47-.42,.07-.07,.14-.14,.2-.21l.02-.02c.06-.07,.12-.15,.18-.23,.12-.16,.23-.33,.32-.5,.05-.09,.09-.17,.13-.26,.04-.09,.08-.18,.11-.27,.03-.09,.06-.18,.08-.27,.04-.16,.07-.32,.09-.49,0,0,0,0,0,0,0-.05,.01-.1,.02-.15,0,0,0-.02,0-.03,0-.06,0-.12,0-.18,0-.11,0-.21-.02-.32Z"/><path class="cls-1" d="M117.68,93.91c.58,.48,.97,1.07,1.23,1.74,.26,.67,.37,1.37,.33,2.11-1.5,.02-2.79-.4-3.85-1.58,.1,1.59-.55,2.8-1.61,3.85-1.07-1.06-1.71-2.26-1.61-3.85-1.06,1.18-2.36,1.59-3.86,1.58-.02-1.5,.4-2.79,1.51-3.84-1.54,.06-2.74-.58-3.79-1.63,1.07-1.04,2.28-1.69,3.84-1.62-1.16-1.06-1.56-2.37-1.57-3.86,1.52-.01,2.82,.41,3.87,1.58-.05-.79,.06-1.48,.36-2.13,.3-.65,.71-1.21,1.25-1.72,1.07,1.05,1.7,2.27,1.61,3.86,.52-.6,1.1-1,1.77-1.25,.67-.25,1.35-.36,2.09-.33,0,1.51-.41,2.82-1.56,3.85,1.35-.11,2.41,.39,3.37,1.2-1.02-9.05-3.61-15.48-6.65-15.48-1.77,0-3.39,2.19-4.64,5.81-1.25-3.62-2.87-5.81-4.64-5.81-1.09,0-2.12,.83-3.04,2.3l-.57-21.62s-.51-1.44-2.45-1.44c-2.12,0-2.78,1.44-2.78,1.44l-.56,34.31c-1.67,2.59-2.67,5.77-2.67,9.22,0,.13,.01,.25,.02,.38h28.44c0-.2,0-.39,0-.59,0-2.71-.14-5.32-.38-7.75-.99,.85-2.09,1.37-3.46,1.26Zm-14.87-2.32c.06,.98-.34,1.72-.99,2.37-.66-.65-1.05-1.39-.99-2.37-.65,.73-1.45,.98-2.37,.97-.01-.92,.24-1.72,.93-2.36-.95,.04-1.68-.36-2.33-1,.66-.64,1.4-1.04,2.36-.99-.71-.65-.96-1.45-.96-2.37,.93,0,1.73,.25,2.38,.97-.03-.49,.04-.91,.22-1.31,.18-.4,.44-.75,.77-1.05,.66,.65,1.05,1.39,.99,2.37,.32-.37,.68-.62,1.09-.77,.41-.15,.83-.22,1.29-.2,0,.93-.25,1.73-.96,2.37,.96-.08,1.69,.35,2.36,1-.67,.65-1.41,1.06-2.37,.99,.36,.29,.6,.66,.76,1.07,.16,.41,.23,.84,.2,1.3-.92,0-1.72-.25-2.37-.97Z"/><path class="cls-1" d="M101.69,88.17c-.54,.04-.93,.53-.91,1.09,.02,.52,.53,1.01,1.13,.97,.53-.04,1.02-.59,.94-1.12-.05-.61-.51-.99-1.16-.94Z"/><path class="cls-1" d="M113.57,90.62c-.88,.07-1.51,.87-1.47,1.78,.03,.85,.86,1.65,1.83,1.58,.87-.06,1.66-.96,1.53-1.82-.08-1-.83-1.61-1.88-1.53Z"/></g></g></svg>