<?xml version="1.0" encoding="UTF-8"?><svg xmlns="http://www.w3.org/2000/svg" viewBox="0 0 128 128"><defs><style>.cls-1{fill:#eaa1c7;}.cls-2{fill:#e61b72;}.cls-3{fill:#662482;}</style></defs><g id="cuadrobase"><g><rect class="cls-1" x="2" y="2" width="124" height="124" rx="22" ry="22"/><path class="cls-3" d="M104,4c11.03,0,20,8.97,20,20V104c0,11.03-8.97,20-20,20H24c-11.03,0-20-8.97-20-20V24C4,12.97,12.97,4,24,4H104m0-4H24C10.75,0,0,10.75,0,24V104c0,13.25,10.75,24,24,24H104c13.25,0,24-10.75,24-24V24c0-13.25-10.75-24-24-24h0Z"/></g></g><g id="gt"><path class="cls-2" d="M64,7.5c-26.46,0-47.91,21.45-47.91,47.91s37.76,62.93,47.91,62.93c8.73,0,47.91-36.47,47.91-62.93S90.46,7.5,64,7.5Zm20.65,59.48c0,9.86-5.41,17.85-15.27,17.85h-11.98c-9.86,0-14.05-7.99-14.05-17.85v-10.11l20.29,12.98,21.01-12.98v10.11Zm12.76-23l-32.2,20.04c-.79,.49-1.78,.49-2.57,0l-24.33-15.04v22.99c1.39,1.05,2.31,2.94,2.31,5.11,0,3.31-2.15,5.99-4.81,5.99s-4.81-2.68-4.81-5.99c0-2.17,.93-4.06,2.31-5.11v-26.08l-2.73-1.69c-1.62-1-1.5-3.39,.21-4.25L62.97,23.73c.69-.35,1.5-.35,2.19,0l32.07,16.01c1.7,.85,1.8,3.24,.18,4.25Z"/></g></svg>