<?xml version="1.0" encoding="UTF-8"?><svg xmlns="http://www.w3.org/2000/svg" viewBox="0 0 128 128"><defs><style>.cls-1{fill:#e5332a;}.cls-2{fill:#35a8e0;}.cls-3{fill:#2dab66;}</style></defs><g id="cuadrobase"><g><rect class="cls-3" x="2" y="2" width="124" height="124" rx="22" ry="22"/><path class="cls-2" d="M104,4c11.03,0,20,8.97,20,20V104c0,11.03-8.97,20-20,20H24c-11.03,0-20-8.97-20-20V24C4,12.97,12.97,4,24,4H104m0-4H24C10.75,0,0,10.75,0,24V104c0,13.25,10.75,24,24,24H104c13.25,0,24-10.75,24-24V24c0-13.25-10.75-24-24-24h0Z"/></g></g><g id="figura"><g><polygon class="cls-1" points="64.33 47.6 63.93 47.01 63.53 47.61 63.93 48.19 64.33 47.6"/><path class="cls-1" d="M64,45.58c-.23,0-.45,.17-.44,.44,0,.27,.23,.44,.45,.44s.43-.22,.43-.45c0-.23-.21-.43-.44-.44Z"/><path class="cls-1" d="M62.71,43c-1.23,1.07-2.07,2.63-2.38,3.95,.25,1.43,.34,2.04,.34,2.04,.89-.41,1.64-.52,2.54-.55,.11-2.52,0-3.95-.5-5.45Z"/><path class="cls-1" d="M57.05,54.31c.68,.08,1.27-.73,1.29-1.41,.02-.71-.5-1.32-1.11-1.34-.41-.02-1.29,.5-1.32,1.54-.02,1.04,.91,1.18,1.14,1.2Z"/><path class="cls-1" d="M63.97,48.79c-.23,0-.45,.17-.44,.44s.23,.44,.45,.44c.22,0,.43-.22,.43-.45,0-.23-.21-.43-.44-.44Z"/><path class="cls-1" d="M61.32,65.35l.89-10.37c-2.43,.24-4.77,.83-6.96,1.72l6.07,8.66Z"/><path class="cls-1" d="M62.47,51.9c-.14-.02-.29-.04-.42-.07-.33,1.04-1.24,1.98-1.89,2.56,.7-.12,1.41-.21,2.12-.27l.19-2.22Z"/><path class="cls-1" d="M66.84,51c.15-.2,.16-.21,.24-.4-1.55-.84-4.28-.88-6.07-.01l.23,.45c1.56-.72,3.88-.83,5.61-.05Z"/><polygon class="cls-1" points="62.52 49.54 62.94 49.28 62.46 49.15 62.05 49.42 62.52 49.54"/><path class="cls-1" d="M61.25,49.6c0-.12-.11-.23-.23-.23-.12,0-.23,.09-.23,.23,0,.14,.12,.23,.24,.23,.11,0,.23-.11,.23-.23Z"/><polygon class="cls-1" points="64.35 44.25 63.95 43.66 63.54 44.25 63.95 44.83 64.35 44.25"/><path class="cls-1" d="M71.03,54.48c.23-.03,1.16-.16,1.14-1.2-.02-1.04-.91-1.56-1.32-1.54-.61,.02-1.14,.63-1.11,1.34,.02,.68,.61,1.48,1.29,1.41Z"/><path class="cls-1" d="M64,43c.22,0,.43-.22,.43-.45,0-.23-.21-.43-.44-.44-.23,0-.45,.17-.44,.44s.23,.44,.45,.44Z"/><path class="cls-1" d="M71.72,67.3l8.27-6.34c-1.89-1.74-4.06-3.19-6.43-4.24l-1.83,10.59Z"/><path class="cls-1" d="M85.91,69.24c-1.03-2.32-2.42-4.5-4.1-6.41l-6.25,8.25,10.35-1.83Z"/><path class="cls-1" d="M87.92,76.97c-.2-2.37-.77-4.7-1.65-6.9l-8.66,5.96,10.31,.95Z"/><path class="cls-1" d="M73.88,54.86l-.18,1.01c.62,.26,1.22,.54,1.81,.84,1.6-.34-.14-3.87-3.29-1.4,.36,.12,.71,.25,1.07,.39l.58-.85Z"/><path class="cls-1" d="M67.35,49s.09-.61,.34-2.04c-.32-1.32-1.16-2.88-2.38-3.95-.5,1.5-.61,2.93-.5,5.45,.91,.02,1.66,.14,2.54,.55Z"/><polygon class="cls-1" points="65.65 49.54 66.13 49.42 65.71 49.15 65.23 49.27 65.65 49.54"/><path class="cls-1" d="M66.94,49.37c-.12,0-.23,.09-.23,.23,0,.14,.12,.23,.24,.23,.11,0,.23-.11,.23-.23,0-.12-.11-.23-.23-.23Z"/><path class="cls-1" d="M65.38,51.92l.22,2.14c.71,.03,1.41,.1,2.1,.19-.58-.48-1.26-1.24-1.79-2.39,0,0-.2,.03-.52,.06Z"/><path class="cls-1" d="M66.73,65.24l6.09-8.83c-2.22-.89-4.62-1.42-7.13-1.53l1.04,10.36Z"/><path class="cls-1" d="M58.92,81.21c.18,1.75,1.63,2.63,3.05,3.51,.83-1.41,1.03-2.63,1.05-3.98-1.41-.12-3.09-.08-4.1,.47Z"/><path class="cls-1" d="M76.56,78.84v-.11c0-6.87-5.54-12.46-12.42-12.52-6.92-.06-12.57,5.5-12.63,12.42-.06,6.92,5.5,12.57,12.42,12.63,6.92,.06,12.57-5.5,12.63-12.42Zm-12.54,10.35c-6.01,0-10.42-4.9-10.4-10.56,.01-5.67,4.89-10.21,10.67-10.24,5.78-.04,10.42,5.2,10.19,10.46-.23,5.25-4.45,10.35-10.46,10.35Z"/><path class="cls-1" d="M64.26,69.7c-5.05,.03-9.31,4-9.33,8.95-.01,4.95,3.84,9.23,9.09,9.23,5.25,0,8.93-4.45,9.14-9.04s-3.86-9.17-8.9-9.14Zm-.05,17.06s-6.28-2.23-6.23-4.76c.05-2.53,0-8.53,0-8.53,3.44-.63,8.72-.63,12.07-.09-.02,2.86,.01,7.15,.02,8.55,.02,2.65-5.86,4.83-5.86,4.83Z"/><path class="cls-1" d="M65.86,102.6c2.55-.2,4.95-.79,7.17-1.7l-6.24-8.55-.93,10.25Z"/><path class="cls-1" d="M65.2,80.74c.03,1.35,.22,2.57,1.05,3.98,1.42-.88,2.87-1.77,3.05-3.51-1.01-.55-2.69-.59-4.1-.47Z"/><path class="cls-1" d="M87.86,55.82v-7.66h11.18L64,11.05,28.96,48.17h11.18v7.66l-31.14,21.43h14.2v46.74H104.8v-46.74h14.2l-31.14-21.43Zm.98,24.49c-.16,2.7-.75,5.26-1.7,7.63l.86,.59-1.03-.18c-1.1,2.59-2.63,4.95-4.49,6.98l5.4,6.99-7.11-5.3c-2.01,1.81-4.31,3.29-6.81,4.37l.2,1.03-.62-.85c-2.43,1-5.04,1.63-7.75,1.83l-1.58,17.41-1.69-17.38c-2.64-.15-5.18-.74-7.56-1.69l-.67,.97,.2-1.17c-2.54-1.08-4.89-2.59-6.93-4.44l-7.11,5.49,5.42-7.18c-1.81-1.98-3.31-4.27-4.42-6.79l-1.16,.23,.97-.69c-1-2.39-1.64-4.98-1.86-7.71l-10.76-1.57,10.7-1.67c.13-2.77,.72-5.39,1.69-7.8l-.78-.55,.94,.17c1.1-2.58,2.64-4.91,4.51-6.92l-5.41-7.11,7.09,5.46c1.13-1,2.35-1.91,3.65-2.7-1.88-1.74-.44-5.08,4.2-3.76-1.07-3.57,5.27-4.61,3.93-.39,0,0,1.48,.16,2.18-2-.59-.07-.77-.27-.77-.27,0,0-.27-1.59-.82-4.77,1.36-3.27,3.72-5.42,3.72-5.42h.33s0-.23,0-.23h-.85l.88-.88-.14-.14-.89,.89v-2.04l.84,.84,.13-.13-.83-.83h2.03l-.85,.85,.13,.13,.85-.85v2.02l-.86-.86-.14,.14,.86,.86h-.69v.18s.08,.06,.37,0c1.99,1.54,3.66,5.59,3.66,5.59l-.9,4.79s-.05,.09-.67,.16c0,0-.11,1.45,2.24,2.19-1.79-3.95,4.62-3.67,4.05,.26,4.7-1.09,5.66,2.11,4.27,3.58,1.25,.78,2.42,1.67,3.5,2.65l6.96-5.34-5.31,7c1.87,2.05,3.4,4.43,4.5,7.04l1.08-.19-.9,.62c.94,2.36,1.54,4.9,1.72,7.56l10.42,1.58-10.4,1.68Z"/><path class="cls-1" d="M86.33,87.39c.89-2.23,1.44-4.59,1.61-6.99l-10.34,1.01,8.73,5.98Z"/><path class="cls-1" d="M69.28,77.83c.02-.26,0-3.63,0-3.63,0,0-1.27-.24-2.93-.16-.55,.03-1.01,1.41-1.03,2.18-.03,.89,.02,1.43,.05,2.34,2.37-.05,3.89-.47,3.91-.73Z"/><path class="cls-1" d="M81.89,94.58c1.69-1.91,3.08-4.07,4.1-6.39l-10.41-1.77,6.31,8.16Z"/><path class="cls-1" d="M73.79,100.57c2.31-1.04,4.4-2.44,6.23-4.1l-8.23-6.13,2,10.22Z"/><path class="cls-1" d="M55.39,101.11c2.19,.83,4.55,1.36,7.04,1.51l-1-10.29-6.04,8.78Z"/><path class="cls-1" d="M41.72,69.94c-.92,2.26-1.49,4.68-1.64,7.22l10.49-1.01-8.86-6.21Z"/><path class="cls-1" d="M40.14,80.55c.21,2.51,.8,4.94,1.72,7.2l8.81-6.25-10.53-.95Z"/><path class="cls-1" d="M62.9,78.56c.02-.91,.07-1.45,.05-2.34-.02-.77-.48-2.15-1.03-2.18-1.66-.08-2.93,.16-2.93,.16,0,0-.02,3.37,0,3.63s1.55,.68,3.91,.73Z"/><path class="cls-1" d="M42.18,88.5c1.04,2.33,2.43,4.47,4.11,6.35l6.35-8.4-10.46,2.05Z"/><path class="cls-1" d="M54.45,57.03c-2.32,1.03-4.46,2.4-6.34,4.04l8.26,6.36-1.92-10.41Z"/><path class="cls-1" d="M46.24,62.89c-1.73,1.87-3.16,4.01-4.21,6.34l10.5,1.94-6.29-8.27Z"/><path class="cls-1" d="M53.36,56.54c.3-.14,.61-.28,.92-.42l-.2-1.1,.65,.92c.49-.2,.98-.38,1.48-.55-.29-.45-.97-1.11-2.46-1.1-1.58,.07-2.8,2.61-.38,2.25Z"/><path class="cls-1" d="M48.12,96.67c1.9,1.7,4.08,3.1,6.48,4.12l1.76-10.49-8.25,6.37Z"/></g></g></svg>