<?xml version="1.0" encoding="UTF-8"?><svg xmlns="http://www.w3.org/2000/svg" viewBox="0 0 128 128"><defs><style>.cls-1{fill:#008d36;}.cls-2{fill:#d9d9d9;}.cls-3{fill:#93c01f;}</style></defs><g id="cuadrobase"><g><rect class="cls-2" x="2" y="2" width="124" height="124" rx="22" ry="22"/><path class="cls-3" d="M104,4c11.03,0,20,8.97,20,20V104c0,11.03-8.97,20-20,20H24c-11.03,0-20-8.97-20-20V24C4,12.97,12.97,4,24,4H104m0-4H24C10.75,0,0,10.75,0,24V104C0,117.25,10.75,128,24,128H104c13.25,0,24-10.75,24-24V24c0-13.25-10.75-24-24-24h0Z"/></g></g><g id="figura"><path class="cls-1" d="M43.98,28.6v15.76h40.04v-15.76c-40.08,0-41.78,0-40.04,0Zm32.35,40.84l-7.6,9.22,13.19,16.06-5.59-25.27Zm-2.02-9.14l-2.42-11.05h-15.75l-2.41,11.02,10.28,12.63,10.3-12.6Zm-28.22,34.41l13.19-16.05-7.61-9.22-5.58,25.27Zm-3.5,15.85l-1.35,6.09-8.72-.04,14.93-67.34-8.62-.09V24.68l25.16-11.28,25.17,11.28v24.51l-8.59,.09,14.89,67.34-8.69,.04-1.34-6.07-21.44-26.12s-21.42,26.09-21.41,26.09Z"/></g></svg>