<?xml version="1.0" encoding="UTF-8"?><svg xmlns="http://www.w3.org/2000/svg" viewBox="0 0 128 128"><defs><style>.cls-1{fill:#008d36;}.cls-2{fill:#ffec00;}</style></defs><g id="cuadrobase"><g><rect class="cls-1" x="2" y="2" width="124" height="124" rx="22" ry="22"/><path class="cls-2" d="M104,4c11.03,0,20,8.97,20,20V104c0,11.03-8.97,20-20,20H24c-11.03,0-20-8.97-20-20V24C4,12.97,12.97,4,24,4H104m0-4H24C10.75,0,0,10.75,0,24V104C0,117.25,10.75,128,24,128H104c13.25,0,24-10.75,24-24V24c0-13.25-10.75-24-24-24h0Z"/></g></g><g id="figura"><g><polygon class="cls-2" points="70.03 50.33 57.97 50.33 57.97 58.72 49.58 58.72 49.58 70.78 57.97 70.78 57.97 79.17 70.03 79.17 70.03 70.78 78.42 70.78 78.42 58.72 70.03 58.72 70.03 50.33"/><path class="cls-2" d="M63.58,10.21c-25.11,0-45.47,16.07-45.47,41.18S56.72,117.03,63.58,117.03s45.47-40.52,45.47-65.63S88.7,10.21,63.58,10.21Zm-9.5,10.79c0-1.7,1.37-3.07,3.07-3.07h13.7c1.7,0,3.07,1.37,3.07,3.07v10.38h-19.84v-10.38Zm30,23h0v40.83c0,4.11-3.33,7.44-7.44,7.44h-25.29c-4.11,0-7.44-3.33-7.44-7.44V43.99h0l2.88-5.73h34.38l2.88,5.73h0Z"/></g></g></svg>