<?xml version="1.0" encoding="UTF-8"?><svg xmlns="http://www.w3.org/2000/svg" viewBox="0 0 128 128"><defs><style>.cls-1{fill:#1d70b7;}.cls-2{fill:#35a8e0;}.cls-3{fill:#2d2e82;}</style></defs><g id="cuadrobase"><g><rect class="cls-2" x="2" y="2" width="124" height="124" rx="22" ry="22"/><path class="cls-1" d="M104,4c11.03,0,20,8.97,20,20V104c0,11.03-8.97,20-20,20H24c-11.03,0-20-8.97-20-20V24C4,12.97,12.97,4,24,4H104m0-4H24C10.75,0,0,10.75,0,24V104C0,117.25,10.75,128,24,128H104c13.25,0,24-10.75,24-24V24c0-13.25-10.75-24-24-24h0Z"/></g></g><g id="figura"><g><path class="cls-3" d="M64.28,20.56c2.75,.22,5.14-1.83,5.38-4.58,.23-2.75-1.85-5.14-4.6-5.37-2.75-.22-5.14,1.84-5.36,4.59-.21,2.75,1.83,5.15,4.58,5.36Z"/><path class="cls-3" d="M103.02,82.75l-.42,.82c-.04,.07-.93,1.81-2.62,4.39-.86,.12-1.69,.36-2.46,.7-.13,.06-.27,.11-.41,.16l-2.36,.53,1.56-.26c-.72,.2-1.47,.33-2.25,.33-1.22,0-2.41-.28-3.46-.76-1.09-.49-2.32-.79-3.6-.79s-2.51,.29-3.59,.79c-1.08,.48-2.26,.76-3.51,.76s-2.43-.28-3.49-.76c-1.09-.49-2.32-.79-3.61-.79s-2.5,.29-3.59,.79c-1.07,.48-2.26,.76-3.51,.76s-2.43-.28-3.49-.76c-1.09-.49-2.32-.79-3.6-.79s-2.52,.29-3.6,.79c-1.06,.48-2.26,.76-3.5,.76s-2.43-.28-3.5-.76c-1.09-.49-2.32-.79-3.6-.79s-2.51,.29-3.6,.79c-1.06,.48-2.23,.76-3.46,.76-1.22,0-2.4-.28-3.46-.76-1.09-.49-2.32-.79-3.6-.79-.58,0-1.16,.07-1.71,.18-1.8-2.65-2.78-4.45-2.82-4.52l-.42-.79H4.07v3H23.57c1.21,2.11,4.86,8.04,10.55,14.05,9.3,9.8,19.63,14.98,29.88,14.98,23.81,0,38.18-24.12,40.85-29.03h19.14v-3h-20.96Zm-70.44,10.69c.46,.13,.9,.28,1.32,.48,1.04,.47,2.22,.75,3.42,.76h0s.02,0,.03,0,.02,0,.03,0h0c1.22-.01,2.38-.29,3.43-.76,1.09-.51,2.32-.81,3.6-.81s2.51,.29,3.6,.81c1.07,.48,2.26,.76,3.5,.76s2.44-.28,3.5-.76c1.09-.51,2.32-.81,3.6-.81s2.51,.29,3.6,.81c1.06,.48,2.25,.76,3.49,.76s2.43-.28,3.51-.76c1.09-.51,2.32-.81,3.59-.81s2.52,.29,3.61,.81c1.06,.48,2.26,.76,3.49,.76s2.43-.28,3.51-.76c1.09-.51,2.32-.81,3.59-.81s2.52,.29,3.6,.81c1.04,.47,2.22,.75,3.42,.76h0s.02,0,.03,0,.02,0,.03,0h0c.33,0,.66-.03,.98-.07-1.27,1.53-2.68,3.1-4.25,4.65-.07-.03-.15-.06-.23-.09-1.09-.49-2.32-.79-3.6-.79s-2.51,.29-3.59,.79c-1.08,.48-2.26,.76-3.51,.76s-2.43-.28-3.49-.76c-1.09-.49-2.32-.79-3.61-.79s-2.5,.29-3.59,.79c-1.07,.48-2.26,.76-3.51,.76s-2.43-.28-3.49-.76c-1.09-.49-2.32-.79-3.6-.79s-2.52,.29-3.6,.79c-1.06,.48-2.26,.76-3.5,.76s-2.43-.28-3.5-.76c-1.09-.49-2.32-.79-3.6-.79s-2.51,.29-3.6,.79c-.74,.34-1.54,.56-2.37,.68-2.23-2.14-4.19-4.34-5.87-6.41Zm10.38,10.32c.48-.08,.96-.14,1.46-.14,1.28,0,2.51,.29,3.6,.81,1.07,.48,2.26,.76,3.5,.76s2.44-.28,3.5-.76c1.09-.51,2.32-.81,3.6-.81s2.51,.29,3.6,.81c1.06,.48,2.25,.76,3.49,.76s2.43-.28,3.51-.76c1.09-.51,2.32-.81,3.59-.81s2.52,.29,3.61,.81c1.06,.48,2.26,.76,3.49,.76s2.43-.28,3.51-.76c.72-.34,1.51-.57,2.33-.7-5.9,4.55-13.21,8.06-21.75,8.06-8.08,0-15.2-3.5-21.04-8.03Z"/><path class="cls-3" d="M41.27,83.37c.98-.38,2.04-.61,3.15-.61,1.28,0,2.51,.29,3.6,.79,1.07,.48,2.26,.76,3.5,.76s2.44-.28,3.5-.76c1.09-.49,2.32-.79,3.6-.79s2.51,.29,3.6,.79c1.06,.48,2.25,.76,3.49,.76s2.43-.28,3.51-.76c1.09-.49,2.32-.79,3.59-.79s2.52,.29,3.61,.79c1.06,.48,2.26,.76,3.49,.76s2.43-.28,3.51-.76c1.07-.49,2.28-.77,3.53-.78l1.43-3.99h3.49v-3.87H36.13v3.87h3.49l1.65,4.59Z"/><path class="cls-3" d="M78.56,46.39c-.16,.68-.58,1.16-1.21,1.4-1.03,.38-1.86-.08-2.38-.98-.09-.15-.16-.32-.21-.48l-3.83-12.14c-.07-.21-.38-.17-.39,.05l-.22,7.39,4.22,31.67c.15,1.12-.72,2.11-1.85,2.11h-2.59c-.94,0-1.74-.7-1.85-1.64l-3.56-28.34-3.56,28.34c-.12,.93-.91,1.64-1.85,1.64h-2.59c-1.13,0-2-.99-1.85-2.11l4.22-31.67-.22-7.39c0-.22-.32-.27-.39-.05l-3.83,12.14c-.05,.17-.12,.33-.21,.48-.52,.9-1.35,1.36-2.38,.98-.63-.23-1.04-.71-1.21-1.4-.1-.42-.08-.86,.04-1.28l5.49-19.03c.52-1.79,2.15-3.02,4.01-3.02h8.65c1.86,0,3.5,1.23,4.01,3.02l5.49,19.03c.12,.42,.14,.86,.04,1.28h0Z"/></g></g></svg>