<?xml version="1.0" encoding="UTF-8"?><svg xmlns="http://www.w3.org/2000/svg" viewBox="0 0 128 128"><defs><style>.cls-1{fill:#fff;}.cls-2{fill:#c6c6c5;}</style></defs><g id="cuadrobase"><g><rect class="cls-2" x="2" y="2" width="124" height="124" rx="22" ry="22"/><path class="cls-1" d="M104,4c11.03,0,20,8.97,20,20V104c0,11.03-8.97,20-20,20H24c-11.03,0-20-8.97-20-20V24C4,12.97,12.97,4,24,4H104m0-4H24C10.75,0,0,10.75,0,24V104C0,117.25,10.75,128,24,128H104c13.25,0,24-10.75,24-24V24c0-13.25-10.75-24-24-24h0Z"/></g></g><g id="figura"><g><path class="cls-1" d="M106.47,77.98H38.94v-3.33l62.02-8.21c3.32-.53,5.6-3.14,5.7-6.5v-20.47c-.01-3.42-2.76-6.16-6.17-6.17H38.94v-4.69c-.02-4.18-3.36-7.52-7.54-7.54h-12c-2.65,0-4.8,2.15-4.8,4.8s2.15,4.8,4.8,4.8h9.94v49.36c.02,4.18,3.36,7.52,7.54,7.54H106.47c2.65,0,4.8-2.15,4.8-4.8s-2.15-4.8-4.8-4.8Zm-17.77-35.95h11.1v17.64l-11.1,1.47v-19.11Zm-17.27,0h11.79v19.84l-11.79,1.56v-21.4Zm-17.27,0h11.79v22.13l-11.79,1.56v-23.69Zm-15.22,0h9.73v24.41l-9.73,1.29v-25.7Z"/><path class="cls-1" d="M48.67,91.07c-3.79,0-6.86,3.07-6.86,6.86s3.07,6.86,6.86,6.86,6.86-3.07,6.86-6.86-3.07-6.86-6.86-6.86Z"/><path class="cls-1" d="M89.9,91.07c-3.79,0-6.86,3.07-6.86,6.86s3.07,6.86,6.86,6.86,6.86-3.07,6.86-6.86-3.07-6.86-6.86-6.86Z"/></g></g></svg>