<?xml version="1.0" encoding="UTF-8"?><svg xmlns="http://www.w3.org/2000/svg" viewBox="0 0 128 128"><defs><style>.cls-1{fill:#fff;}.cls-2{fill:#e84e1b;}.cls-3{fill:#35a8e0;}</style></defs><g id="cuadrobase"><g><rect class="cls-1" x="2" y="2" width="124" height="124" rx="22" ry="22"/><path class="cls-2" d="M104,4c11.03,0,20,8.97,20,20V104c0,11.03-8.97,20-20,20H24c-11.03,0-20-8.97-20-20V24C4,12.97,12.97,4,24,4H104m0-4H24C10.75,0,0,10.75,0,24V104C0,117.25,10.75,128,24,128H104c13.25,0,24-10.75,24-24V24c0-13.25-10.75-24-24-24h0Z"/></g></g><g id="figura"><g><path class="cls-3" d="M56.74,58.22l2.81-1.4-10.8-5.57c1.14,2.28,2.64,5.19,4.37,8.29l3.62-1.32Z"/><path class="cls-3" d="M64.2,76.03c2.54-2.82,5.13-6.54,7.51-10.39l-2.52-3.84-4.6-2.37-4.6,2.37-2.93,4.46c2.28,3.63,4.72,7.11,7.13,9.78Z"/><path class="cls-3" d="M73.16,67.83c-2.31,3.65-4.81,7.16-7.3,9.89,.69,.65,1.37,1.24,2.04,1.71,9.63,6.84,17.9,5.53,23.06,1.79l-6.8-6.8-7.53-1.31-3.47-5.29Z"/><path class="cls-3" d="M75.42,59.31c1.54-2.77,2.9-5.38,3.97-7.51l-9.75,5.03,2.81,1.4,2.97,1.08Z"/><path class="cls-3" d="M52,112.12c6.9,1.02,10.07,4.27,11.43,6.4h1.14c1.37-2.13,4.53-5.38,11.43-6.4,13.39-1.97,31.93-6.57,38.29-23.72,3.98-10.74,.68-18.88-3.13-28.29-.94-2.31-1.9-4.7-2.8-7.21-4.23-11.87,5.39-23.47,7.51-25.82l-13.67-16.16-12.01,7.09-.34-.27c-.12-.09-11.67-9.27-25.46-9.27-.06,0-.11,0-.17,0h-.32s-.13,0-.13,0c-13.92-.1-25.51,9.18-25.62,9.27l-.34,.27-12.01-7.09L12.13,27.07c2.12,2.36,11.74,13.96,7.51,25.82-.9,2.52-1.86,4.9-2.8,7.21-3.82,9.42-7.12,17.55-3.13,28.29,6.36,17.15,24.89,21.75,38.29,23.72Zm41.03-12.22h-5.44v2.59H42.47v-2.36h-6.19v-6.67h7.64v2.36h41.46v-2.59h7.64v6.67Zm-10.42-70.31c0-1.49,1.2-2.69,2.69-2.69h7.94c1.49,0,2.69,1.2,2.69,2.69v.21c0,1.49-1.2,2.69-2.69,2.69h-7.94c-1.49,0-2.69-1.2-2.69-2.69v-.21Zm-53.28-.03c0-1.47,1.19-2.66,2.66-2.66h46.18c1.47,0,2.66,1.19,2.66,2.66v.27c0,1.47-1.19,2.66-2.66,2.66H31.99c-1.47,0-2.66-1.19-2.66-2.66v-.27Zm47.21,9.49v.21c0,1.49-1.2,2.69-2.69,2.69h-19.68c-1.49,0-2.69-1.2-2.69-2.69v-.21c0-1.49,1.2-2.69,2.69-2.69h19.68c1.49,0,2.69,1.2,2.69,2.69Zm-33.48,24.63l6.01,2.74,2.43-4.85c-2.84-5.03-5.12-9.63-6.32-12.15l-6.79-3.5-9.56-5.03,1.91-3.49,33.84,16.9,33.84-16.9,1.91,3.49-9.56,5.03-7.84,4.04c-1.19,2.47-3.19,6.48-5.65,10.88l2.8,5.58,6.01-2.74,19.29,11.15-8.53,12.31-4.21-4.21c-3.02,2.27-6.89,3.7-11.27,3.7s-9.64-1.54-14.87-5.25c-.77-.54-1.54-1.21-2.32-1.95-.78,.75-1.56,1.41-2.32,1.95-5.23,3.72-10.32,5.25-14.87,5.25-4.16,0-7.86-1.3-10.81-3.37l-3.89,3.89-8.53-12.31,19.29-11.15Z"/><path class="cls-3" d="M60.5,79.44c.67-.48,1.35-1.06,2.04-1.71-2.35-2.58-4.71-5.85-6.91-9.29l-3.08,4.68-7.53,1.31-7.13,7.13c5.19,3.49,13.26,4.52,22.6-2.12Z"/></g></g></svg>