<?xml version="1.0" encoding="UTF-8"?><svg xmlns="http://www.w3.org/2000/svg" viewBox="0 0 128 128"><defs><style>.cls-1{fill:#ffec00;}.cls-2{fill:#86134d;}</style></defs><g id="cuadrobase"><g><rect class="cls-2" x="2" y="2" width="124" height="124" rx="22" ry="22"/><path class="cls-1" d="M104,4c11.03,0,20,8.97,20,20V104c0,11.03-8.97,20-20,20H24c-11.03,0-20-8.97-20-20V24C4,12.97,12.97,4,24,4H104m0-4H24C10.75,0,0,10.75,0,24V104C0,117.25,10.75,128,24,128H104c13.25,0,24-10.75,24-24V24c0-13.25-10.75-24-24-24h0Z"/></g></g><g id="figura"><g><path class="cls-1" d="M109.81,108.63v-4.56h3.79v-14.17c0-3.79-2.74-5.8-4.27-6.01l-3.92-13.31c-.72-2.11-2.31-3.92-5.32-3.92h-25.03c-2.99,0-4.58,1.82-5.32,3.92l-3.89,13.31c-1.54,.21-4.27,2.22-4.27,6.01v14.17h3.79v4.56c0,5.56,7.11,5.5,7.11,0v-4.56h30.22v4.56c-.01,5.5,7.1,5.56,7.11,0Zm-40.77-11.31c-2.33,0-4.22-1.82-4.21-4.04,0-2.26,1.88-4.07,4.21-4.08,2.33,0,4.22,1.82,4.21,4.08,0,2.22-1.88,4.04-4.21,4.04Zm.86-13.52l2.93-10.95c.36-1.22,.91-2.11,2.2-2.12h25.12c1.28,.01,1.83,.9,2.2,2.12l2.93,10.95h-35.38Zm31.73,9.48c.02-2.4,2.03-4.33,4.52-4.34,2.46,0,4.47,1.94,4.48,4.34-.01,2.36-2.02,4.29-4.48,4.3-2.49,0-4.5-1.94-4.52-4.3Z"/><path class="cls-1" d="M41.13,86.94c-4.47-11.45-8.69-22.27-16.48-22.27H3.72v4H24.66c5.05,0,8.96,10.03,12.75,19.72,5.22,13.37,11.13,28.52,23.3,28.52h58.57l2.62-4H60.71c-9.43,0-14.82-13.8-19.57-25.97Z"/><path class="cls-1" d="M82.69,31.8v-15.32c0-3.06-2.48-5.54-5.54-5.54h-25.12c-3.06,0-5.54,2.48-5.54,5.54v24.87c0,3.06,2.48,5.54,5.54,5.54h25.12c3.06,0,5.54-2.48,5.54-5.54v-5.55h41.37v-4h-41.37Zm-10.57,8.67h-15.05V16.87h14.56v4.38h-9.21v4.9h8.68v4.34h-8.68v5.6h9.7v4.38Z"/><polygon class="cls-1" points="19.57 47.7 19.46 50.7 37.47 51.36 36.81 33.35 33.81 33.46 34.27 46.03 16.79 28.55 14.67 30.67 32.15 48.16 19.57 47.7"/></g></g></svg>