<?xml version="1.0" encoding="UTF-8"?><svg xmlns="http://www.w3.org/2000/svg" viewBox="0 0 128 128"><defs><style>.cls-1{fill:#ffec00;}.cls-2{fill:#662482;}</style></defs><g id="cuadrobase"><g><rect class="cls-2" x="2" y="2" width="124" height="124" rx="22" ry="22"/><path class="cls-1" d="M104,4c11.03,0,20,8.97,20,20V104c0,11.03-8.97,20-20,20H24c-11.03,0-20-8.97-20-20V24C4,12.97,12.97,4,24,4H104m0-4H24C10.75,0,0,10.75,0,24V104C0,117.25,10.75,128,24,128H104c13.25,0,24-10.75,24-24V24c0-13.25-10.75-24-24-24h0Z"/></g></g><g id="figura"><g><polygon class="cls-1" points="52.03 20.33 42.46 20.33 40.67 30.83 53.83 30.83 52.03 20.33"/><polygon class="cls-1" points="37.41 35.57 33.24 101.13 61.85 101.13 57.68 35.57 37.41 35.57"/><rect class="cls-1" x="33.35" y="104.27" width="28.39" height="3.34"/><path class="cls-1" d="M84.45,34.85V18.2c0-1.61-1.31-2.92-2.92-2.92s-2.92,1.31-2.92,2.92v17.3h-.02s.02,.07,.02,.07v.08h.02l3.69,14.81v55.11c0,1.61,1.31,2.92,2.92,2.92s2.92-1.31,2.92-2.92V49.35h-.1l-3.62-14.5Z"/><rect class="cls-1" x="87.2" y="16.38" width="7.56" height="2.21"/><rect class="cls-1" x="87.2" y="20.02" width="7.56" height="2.21"/><rect class="cls-1" x="87.2" y="23.66" width="7.56" height="2.21"/><rect class="cls-1" x="87.2" y="27.3" width="7.56" height="2.21"/><rect class="cls-1" x="87.2" y="30.94" width="7.56" height="2.21"/></g></g></svg>