<?xml version="1.0" encoding="UTF-8"?><svg xmlns="http://www.w3.org/2000/svg" viewBox="0 0 128 128"><defs><style>.cls-1{fill:#e95296;}.cls-2{fill:#ffec00;}.cls-3{fill:#e85296;}</style></defs><g id="cuadrobase"><g><rect class="cls-2" x="2" y="2" width="124" height="124" rx="22" ry="22"/><path class="cls-3" d="M104,4c11.03,0,20,8.97,20,20V104c0,11.03-8.97,20-20,20H24c-11.03,0-20-8.97-20-20V24C4,12.97,12.97,4,24,4H104m0-4H24C10.75,0,0,10.75,0,24V104c0,13.25,10.75,24,24,24H104c13.25,0,24-10.75,24-24V24c0-13.25-10.75-24-24-24h0Z"/></g></g><g id="gt"><g><path class="cls-1" d="M14.71,45.9c0,2.16,0,4.33,0,6.49,.73,0,1.46,0,2.2,0,0-2.14,0-4.27,0-6.41,.04-1.49-2.22-1.49-2.2-.08Z"/><path class="cls-1" d="M18.93,44.8c-.43,.18-.73,.64-.71,1.1,0,.13-.01,5.93,.03,6.62,.72,0,1.44,.01,2.16-.01,.03-.31,.03,.12,.03-6.6,.07-.77-.78-1.41-1.5-1.11Z"/><path class="cls-1" d="M23.09,44.87c-.64-.16-1.33,.38-1.32,1.04,0,2.16,0,4.32,0,6.48,.73,0,1.45,0,2.18,0,.08-6.71,.23-7.35-.86-7.52Z"/><path class="cls-1" d="M107.69,45.33c-.24,.42-.1,7.11-.1,7.18,.71,.01,1.41,.02,2.12,0,.01-.02,.04-.06,.06-.08,0-.32,.03-6.46,0-6.74-.16-1.08-1.56-1.32-2.07-.36Z"/><path class="cls-1" d="M111.1,45.98c-.01,2.14,0,4.28,0,6.42,.73,0,1.47,0,2.2,0,0-.08,.09-6.59-.09-6.93-.5-1.08-2.16-.66-2.11,.51Z"/><path class="cls-1" d="M104.03,46.21c.02,2.06-.03,4.13,.03,6.19,.73,0,1.45,0,2.18,0,0-2.14,0-4.27,0-6.41,.04-1.42-2.28-1.69-2.21,.22Z"/><path class="cls-1" d="M116.44,42.86c.02-.78,0-1.56,0-2.34-.19,0-.38,0-.58,0,.58-4.79-.84-7.77-2.5-9.2-.78-.73-4.37-2.37-4.59-5.14,.5-.11,.47-.84-.04-.91,0-.02,0-.04,0-.06,.24-.06,.22-.4-.01-.45,0-.13,0-.26-.01-.39,.19-.04,.18-.31-.01-.33,0-.11,0-.22-.01-.33,1.61,.24,2.78-.21,3.59-1.14-4.32,2.19-7.62-2.1-5.19-5.03-2.78,1.94-1.59,5.69,1.59,6.17,0,.11,0,.22,0,.33-.21,0-.22,.31-.02,.33,0,.13-.01,.26-.02,.38-.25,.04-.26,.39-.02,.45,0,.02,0,.04,0,.06-.52,.06-.55,.81-.04,.91-.06,.8-.91,2.79-3.52,4.35-4.36,2.57-3.65,8.06-3.63,9.98-.19,0-.38,0-.56,0-.04,.79-.01,1.58-.02,2.37,.35-.01,.7-.02,1.05-.01,.03,1.37,.01,14.9,.01,16-2.1-.76-4.04-.84-5.3-2.4-.12,.05-.25,.1-.37,.15-.05-1.06,.02-2.61-.05-3.03-.5,0-1.01,0-1.51,.01,.94-5.03,.16-9.68-3.39-13.6-3.69-4.06-9.01-5.85-14.31-7.35-9.75-3.64-10.12-5.06-12.42-8.03,0,0,0-.02,0-.05,.61-.17,.57-1.05-.05-1.17,0-.02,0-.04,0-.06,.27-.1,.26-.49-.03-.57,0-.18-.02-.36-.02-.53,.25-.06,.23-.42-.02-.45,0-.16-.01-.3-.02-.4,2.18,.3,3.76-.33,4.88-1.6-5.99,3.04-10.57-2.91-7.2-6.98-3.86,2.7-2.22,7.94,2.29,8.58l-.02,.41c-.26,.03-.27,.4-.02,.45l-.02,.53c-.29,.07-.3,.47-.03,.57v.06c-.63,.11-.67,1-.06,1.17v.04c-3.75,6.3-14.92,8.64-18.49,10.05-10.08,4-13.3,11.52-11.56,18.96-.52,0-1.03,0-1.55,0-.06,1.21,0,2.42-.03,3.62-.32-.21-.57-.5-.82-.79-1.64,1.74-3.16,1.56-5.75,2.59,0-5.39,0-10.78,0-16.18,.36,0,.71,0,1.07,0,0-.78,0-1.56,0-2.34-.19,0-.38,0-.57-.01,.44-4.05-.22-7.97-3.75-10.06-2.49-1.54-3.32-3.4-3.37-4.27,.51-.1,.49-.85-.03-.91,0-.02,0-.04,0-.06,.24-.06,.23-.41-.01-.45,0-.13,0-.26-.01-.39,.19-.03,.18-.31-.01-.33,0-.15,0-.28-.01-.36,1.53,.19,2.65-.26,3.44-1.16-4.32,2.19-7.62-2.1-5.19-5.03-2.8,1.96-1.59,5.77,1.74,6.19v.36c-.21,.02-.22,.31-.02,.33v.38c-.26,.04-.27,.4-.03,.45v.06c-.53,.06-.55,.82-.03,.91-.02,.29-.11,.57-.23,.83-1.57,3.87-5.08,2.98-6.48,7.74-.57,1.86-.62,3.84-.4,5.76-.19,0-.39,.01-.58,.02,0,.77,0,1.55,.01,2.32,.34,0,.69,0,1.03,0,.03,2.67,.03,63.03,0,77.55,0,0,4.51,3.6,10.27,3.6H105.14c5.67,0,10.26-3.6,10.26-3.6-.02-14.04,0-76.11,0-77.55,.35,0,.7,0,1.05,0ZM14.71,52.39c0-2.16,0-4.33,0-6.49-.02-1.4,2.24-1.4,2.2,.08,0,2.14,0,4.27,0,6.41-.73,0-1.46,0-2.2,0Zm5.7,.12c-.72,.03-1.44,0-2.16,.01-.04-.69-.03-6.49-.03-6.62-.02-.47,.28-.92,.71-1.1,.72-.3,1.57,.34,1.5,1.11,0,6.72,0,6.29-.03,6.6Zm3.54-.12c-.73,0-1.46,0-2.18,0,0-2.16,0-4.32,0-6.48,0-.66,.68-1.21,1.32-1.04,1.09,.17,.94,.81,.86,7.52Zm52.57,7.4l4.57-9.26,4.57,9.26,10.22,1.49-7.4,7.21,1.75,10.18-9.14-4.81-9.14,4.81,1.75-10.18-7.4-7.21,10.22-1.49Zm-4.6,55.73c-20.97,0-37.97-17-37.97-37.97,0-14.2,7.8-26.57,19.34-33.08-3.97,6-6.28,13.19-6.28,20.92,0,20.97,17,37.97,37.97,37.97,6.77,0,13.13-1.78,18.63-4.89-6.79,10.27-18.44,17.05-31.68,17.05Zm34.32-63.12c-.73,0-1.45,0-2.18,0-.05-2.06,0-4.13-.03-6.19-.07-1.91,2.26-1.64,2.21-.22,0,2.14,0,4.27,0,6.41Zm3.54,.04s-.04,.06-.06,.08c-.71,.02-1.41,.01-2.12,0,0-.08-.14-6.77,.1-7.18,.51-.96,1.91-.71,2.07,.36,.04,.28,.01,6.43,0,6.74Zm3.52-.04c-.73,0-1.47,0-2.2,0,0-2.14-.01-4.28,0-6.42-.06-1.17,1.61-1.59,2.11-.51,.18,.35,.09,6.86,.09,6.93Z"/></g></g></svg>