<?xml version="1.0" encoding="UTF-8"?><svg xmlns="http://www.w3.org/2000/svg" viewBox="0 0 128 128"><defs><style>.cls-1{fill:#eaa1c7;}.cls-2{fill:#ffec00;}.cls-3{fill:#662482;}</style></defs><g id="cuadrobase"><g><rect class="cls-1" x="2" y="2" width="124" height="124" rx="22" ry="22"/><path class="cls-3" d="M104,4c11.03,0,20,8.97,20,20V104c0,11.03-8.97,20-20,20H24c-11.03,0-20-8.97-20-20V24C4,12.97,12.97,4,24,4H104m0-4H24C10.75,0,0,10.75,0,24V104c0,13.25,10.75,24,24,24H104c13.25,0,24-10.75,24-24V24c0-13.25-10.75-24-24-24h0Z"/></g></g><g id="figura"><g><path class="cls-2" d="M88.98,81.12l-4.5-15.3c-.83-2.42-2.66-4.5-6.12-4.51h-28.77c-3.44,0-5.26,2.09-6.12,4.51l-4.47,15.3c-1.77,.24-4.91,2.55-4.91,6.9v16.28h4.36v5.24c0,6.39,8.17,6.32,8.17,0v-5.24h34.74v5.24c-.02,6.32,8.16,6.39,8.17,0v-5.24h4.36v-16.28c0-4.35-3.15-6.66-4.91-6.9Zm-46.31,15.42c-2.68,0-4.85-2.09-4.84-4.65,0-2.6,2.16-4.68,4.84-4.69,2.68,0,4.85,2.1,4.84,4.69,0,2.55-2.16,4.64-4.84,4.65Zm.99-15.54l3.37-12.58c.41-1.4,1.04-2.42,2.53-2.44h28.88c1.47,.01,2.1,1.03,2.53,2.44l3.37,12.58H43.67Zm41.66,15.84c-2.87,0-5.18-2.23-5.2-4.94,.02-2.76,2.33-4.98,5.2-4.99,2.83,0,5.13,2.23,5.15,4.99-.01,2.72-2.32,4.94-5.15,4.94Z"/><g><path class="cls-2" d="M24.11,48.55h-6.06c-2.41,0-4.38,2.37-4.38,5.27v6.03c0,2.9,1.97,5.27,4.38,5.27h6.06c2.41,0,4.38-2.37,4.38-5.27v-6.03c0-2.9-1.97-5.27-4.38-5.27Z"/><path class="cls-2" d="M24.11,69.27h-6.06c-2.41,0-4.38,2.37-4.38,5.27v6.03c0,2.9,1.97,5.27,4.38,5.27h6.06c2.41,0,4.38-2.37,4.38-5.27v-6.03c0-2.9-1.97-5.27-4.38-5.27Z"/><path class="cls-2" d="M24.11,90.55h-6.06c-2.41,0-4.38,2.37-4.38,5.27v6.03c0,2.9,1.97,5.27,4.38,5.27h6.06c2.41,0,4.38-2.37,4.38-5.27v-6.03c0-2.9-1.97-5.27-4.38-5.27Z"/><path class="cls-2" d="M109.84,48.55h-5.84c-2.32,0-4.22,2.37-4.22,5.27v6.03c0,2.9,1.9,5.27,4.22,5.27h5.84c2.32,0,4.22-2.37,4.22-5.27v-6.03c0-2.9-1.9-5.27-4.22-5.27Z"/><path class="cls-2" d="M109.84,69.27h-5.84c-2.32,0-4.22,2.37-4.22,5.27v6.03c0,2.9,1.9,5.27,4.22,5.27h5.84c2.32,0,4.22-2.37,4.22-5.27v-6.03c0-2.9-1.9-5.27-4.22-5.27Z"/><path class="cls-2" d="M109.84,90.55h-5.84c-2.32,0-4.22,2.37-4.22,5.27v6.03c0,2.9,1.9,5.27,4.22,5.27h5.84c2.32,0,4.22-2.37,4.22-5.27v-6.03c0-2.9-1.9-5.27-4.22-5.27Z"/><polygon class="cls-2" points="105.36 30.78 105.36 44.4 109.12 44.4 109.12 25.4 109.12 25.4 109.12 22.32 18.88 22.32 18.88 25.4 18.88 30.78 18.88 44.4 22.64 44.4 22.64 30.78 37.03 30.78 34.67 40.45 45.6 40.45 43.24 30.78 53.18 30.78 50.82 40.45 61.75 40.45 59.39 30.78 69.33 30.78 66.97 40.45 77.9 40.45 75.54 30.78 85.48 30.78 83.12 40.45 94.05 40.45 91.69 30.78 105.36 30.78"/></g></g></g></svg>