<?xml version="1.0" encoding="UTF-8"?><svg xmlns="http://www.w3.org/2000/svg" viewBox="0 0 128 128"><defs><style>.cls-1{fill:#1d70b7;}.cls-2{fill:#35a8e0;}.cls-3{fill:#2d2e82;}</style></defs><g id="cuadrobase"><g><rect class="cls-2" x="2" y="2" width="124" height="124" rx="22" ry="22"/><path class="cls-1" d="M104,4c11.03,0,20,8.97,20,20V104c0,11.03-8.97,20-20,20H24c-11.03,0-20-8.97-20-20V24C4,12.97,12.97,4,24,4H104m0-4H24C10.75,0,0,10.75,0,24V104c0,13.25,10.75,24,24,24H104c13.25,0,24-10.75,24-24V24c0-13.25-10.75-24-24-24h0Z"/></g></g><g id="figura"><g><path class="cls-3" d="M40.85,65.68c2.21,.19,4.2,.43,5.98,.73-.62-.14-1.23-.35-1.83-.65-2.63-1.31-4.42-3.49-5.04-6.14-.58-2.44-.07-4.96,1.4-6.91,.79-1.05,1.84-1.89,2.93-2.57l-7.79-2.58c-.21,.66-.43,1.26-.64,1.77-1.15,2.69-4.08,6.11-6.76,8.91,1.09,2.13,2.04,4.55,3.14,6.92,.15,.33,.31,.68,.48,1.05,2.45-.5,5.24-.79,8.14-.54Z"/><path class="cls-3" d="M26.2,54.03c2.2-2.35,4.3-4.88,5.06-6.66,.83-1.95,1.73-5.92,2.47-9.81-.71-.31-1.24-.8-1.5-1.57-.98-2.95,2.53-4.86-1.3-4.86-1.13,0-2.29,1.75-2.92,1.62-2.24-.45-.77-1.65-1.95-2.92-2.47-2.68-3.71-1.34-6.81-.97-2.7,.32-9.92-1.11-6.49,1.95,1.83,1.63,7.72,1.78,10.05,1.95-4.19,1.68-7.64,4.73-10.38,7.46-3.29,3.28-10.19,6.67-3.89,9.73,4.29,2.08,11.31,.46,15.57,2.59,.77,.39,1.45,.9,2.07,1.51Z"/><path class="cls-3" d="M69.7,50.56c2.11,.72,5.78,1.75,9.85,1.95,7.1,.35,11.53-1.24,17.67-3.43,.93-.33,1.89-.68,2.9-1.03,4.33-1.51,8.65-4.9,11.43-7.4-.27-.17-.55-.33-.84-.46-4.64-2.08-11.08-1.23-16.54-.65-7.2,.77-14.12,.28-20.95-.5-.94,1.99-2.73,6.29-3.52,11.52Z"/><path class="cls-3" d="M55.89,58.86c.67-.37,1.29-.72,1.83-.99,.07-.03,.26-.36,.27-1.09,.03-1.73-.94-3.55-1.82-4.03-1.49-.8-4.26-.27-5.11-.02l-.15,.04c-1.05,.24-4.33,1.3-5.55,2.94-.57,.76-.77,1.77-.53,2.76,.28,1.18,1.13,2.17,2.41,2.81,2.26,1.13,6.11-1.01,8.66-2.43Z"/><path class="cls-3" d="M51.31,47.57c1.84-.31,4.81-.52,7.23,.78,2.98,1.61,4.5,5.5,4.45,8.51-.04,2.54-1.14,4.54-3.04,5.48-.49,.24-1.04,.55-1.63,.88-2.56,1.43-6.08,3.39-9.61,3.39-.61,0-1.22-.06-1.83-.19,5.33,.9,8.9,2.32,11.69,4.55,2.3,1.84,4.42,5.14,5.83,7.64,.97-.08,2.08-.08,3.27-.03-1.35-5.88-3.37-15.83-3.37-22.99s2.19-13.62,3.71-17.18c-3.06-.39-6.12-.8-9.19-1.13-2.22-.24-4.4-.26-6.56-.17l-.95,10.46Z"/><path class="cls-3" d="M80.64,57.54c-.44,0-.87-.01-1.33-.03-3.96-.19-7.52-1.05-10-1.81,.02,7.26,2.35,18.01,3.61,23.31,.81,.08,1.62,.16,2.41,.23,1.77-2.46,4.3-6.44,4.88-9.91,.67-4,.57-9.01,.44-11.78Z"/><path class="cls-3" d="M46.47,45.6l.75-8.18c-2.4,.2-4.79,.42-7.2,.5-.42,.01-.85,.03-1.28,.05-.29,1.56-.62,3.19-.97,4.74l8.7,2.88Z"/><path class="cls-3" d="M112.81,53.79c0-.15,.01-.3,.02-.45l-.23,.32c.08,.05,.15,.1,.21,.13Z"/><path class="cls-3" d="M112.8,53.95c-.28,.05-.76,.18-1.47,.54-2.6,1.3-5.67,4-6.11,5.95-.32,1.42,.89,4.29,1.81,5.79l1.87,3.04-3.5,.72c-.97,.22-3.21,1.03-2.69,3.77,.51,2.71,2.01,5.49,3.24,7.42,.18-.17,.36-.32,.54-.44,2.15,3.9,3.31,9.28,2.59,15.24-.26,2.19-1.21,4.33-1.95,6.16-.14,.34-1.58,2.06-1.3,2.59,.85,1.6,4.98,1.52,6.16,.32,.65-.65-.12-3.01,0-3.24,.56-1.07,1.87-.76,2.27-1.95,.79-2.36-.32-4.67-.32-7.13,0-2.69,1.73-5.06,1.95-7.13,.25-2.41-1.2-4.35-1.95-6.81-1.99-6.59-1.48-16.12-1.15-24.84Z"/><path class="cls-3" d="M55.46,74.88c-2.86-2.29-7.36-3.55-15.04-4.22-1.96-.17-3.88-.03-5.65,.26,.77,1.72,1.56,3.38,2.33,4.62,1.62,2.62,5.14,2.79,6.49,4.86,2.17,3.35,.34,12.65-.97,16.21-1.16,3.15-3.07,4.8-3.57,8.43,5.55,0,5.73,.29,6.49-4.22,2.22,1.75,1.87-5.11,2.27-7.13,.37-1.84,1.53-9.07,2.92-7.78,1.47,1.36,.23,9.1,0,11.03-.48,3.98-1.85,4.91-2.92,8.11,1.36,0,5.8,.79,6.81,0,.31-.24-.31-1.71,0-1.95-.2,.15,1.93-2.98,1.62-1.95,.75-2.51,.33-7.67,.65-10.38,.37-3.18,1.44-7.3,3.14-9.77-1.25-2.22-2.97-4.87-4.56-6.14Z"/><path class="cls-3" d="M122.38,73.27c-.51-3.17-1.96-4.23-2.92-6.49-1.47-3.47-1.27-9.6-2.27-14.59-.55-2.76-1.3-5.49-2.42-7.7-3.12,2.78-7.94,6.52-13.01,8.28-1,.35-1.95,.69-2.86,1.01-4.57,1.63-8.48,3.01-13.26,3.53,.14,2.99,.23,8.35-.51,12.82-.53,3.21-2.24,6.57-3.92,9.27,.08,0,.17-.01,.25-.02,.99-1.32,2.46-2.87,4.61-4.36,5.38-3.73,8.74-2.6,10.95-1.86l.17,.06c.14,.05,.29,.1,.44,.16-.18-3.44,1.66-5.79,3.81-7.12-.83-1.92-1.63-4.59-1.12-6.92,.98-4.41,6.15-8.04,8.75-9.34,1.59-.8,2.87-1.08,3.86-1.1,.01-.76,.02-1.5,.02-2.23,.43,.79,.8,1.56,1.14,2.33,.19,.4,.29,.73,.45,1.03l.19,.51c1.48,3.89,1.92,7.7,2.1,12.67,.11,3.05,.18,6.47,1.3,9.08,1.05,2.45,2.76,3.3,2.92,6.16,.36,1.68,1.04,2.52,2.59,2.92-1.33-2.16-.78-4.92-1.3-8.11Z"/><path class="cls-3" d="M99.79,80.39c-1.35-.94-3.17-2.08-4.16-2.42l-.18-.06c-1.79-.6-3.19-1.07-6.52,1.23-.84,.58-1.52,1.16-2.09,1.72,.07,.07,.13,.13,.21,.2,.84,.79,1.07,1.68,2.27,2.27,1.35,.66,1.23,.07,2.27,.32-.95-.23,3.03,.39,2.75,.6,.69-.22,2.27-1.27,2.43-1.25,2.99,.43,1.82,3.62,.97,7.13-1.52,6.32-4.46,9.36-5.51,14.59,7.86,0,7.72-5.09,8.76-11.67,.3-1.88,1.09-4.68,2.13-7.18-.81-1.11-2.16-3.1-3.33-5.49Z"/><path class="cls-3" d="M94.33,84.25c-.06,.02-.12,.04-.16,.05,.09-.01,.14-.03,.16-.05Z"/></g></g></svg>