<?xml version="1.0" encoding="UTF-8"?><svg xmlns="http://www.w3.org/2000/svg" viewBox="0 0 128 128"><defs><style>.cls-1{fill:#f4eb45;}.cls-2{fill:#35a8e0;}.cls-3{fill:#189dd1;}</style></defs><g id="cuadrobase"><g><rect class="cls-1" x="2" y="2" width="124" height="124" rx="22" ry="22"/><path class="cls-2" d="M104,4c11.03,0,20,8.97,20,20V104c0,11.03-8.97,20-20,20H24c-11.03,0-20-8.97-20-20V24C4,12.97,12.97,4,24,4H104m0-4H24C10.75,0,0,10.75,0,24V104C0,117.25,10.75,128,24,128H104c13.25,0,24-10.75,24-24V24c0-13.25-10.75-24-24-24h0Z"/></g></g><g id="figura"><polygon class="cls-3" points="100.17 69.19 107.17 61.95 106.9 45.17 90.12 45.44 83.11 52.68 94.95 52.49 54.35 94.44 54.35 33.75 67.5 46.9 67.5 31.07 48.85 12.42 30.2 31.07 30.2 46.9 43.35 33.75 43.35 123.97 54.35 123.97 54.35 104.5 99.98 57.35 100.17 69.19"/></g></svg>