<?xml version="1.0" encoding="UTF-8"?><svg xmlns="http://www.w3.org/2000/svg" viewBox="0 0 128 128"><defs><style>.cls-1{fill:#ffec00;}.cls-2{fill:#662482;}</style></defs><g id="cuadrobase"><g><rect class="cls-2" x="2" y="2" width="124" height="124" rx="22" ry="22"/><path class="cls-1" d="M104,4c11.03,0,20,8.97,20,20V104c0,11.03-8.97,20-20,20H24c-11.03,0-20-8.97-20-20V24C4,12.97,12.97,4,24,4H104m0-4H24C10.75,0,0,10.75,0,24V104C0,117.25,10.75,128,24,128H104c13.25,0,24-10.75,24-24V24c0-13.25-10.75-24-24-24h0Z"/></g></g><g id="figura"><g><polygon class="cls-1" points="92.1 55.79 35.91 55.79 35.91 62.31 61.25 62.31 61.25 106.26 66.75 106.26 66.75 62.31 92.1 62.31 92.1 55.79"/><path class="cls-1" d="M112.66,39.13l-9.47,33.71h-26.55v4.84h2.08v29.12h5.49v-11.66h18.21v11.13h5.49v-29.92l10.03-35.72-5.29-1.49Zm-10.24,51.16h-18.21v-12.62h18.21v12.62Z"/><path class="cls-1" d="M15.34,39.13l-5.29,1.49,10.03,35.72v29.92h5.49v-11.13h18.21v11.66h5.49v-29.12h2.08v-4.84H24.81L15.34,39.13Zm10.24,38.54h18.21v12.62H25.58v-12.62Z"/><polygon class="cls-1" points="81.48 47.23 83.74 25.23 69.93 25.23 72.19 47.23 81.48 47.23"/><polygon class="cls-1" points="55.81 47.23 58.07 25.23 44.26 25.23 46.52 47.23 55.81 47.23"/></g></g></svg>