<?xml version="1.0" encoding="UTF-8"?><svg xmlns="http://www.w3.org/2000/svg" viewBox="0 0 128 128"><defs><style>.cls-1{fill:#fff;}.cls-2{fill:#1d70b7;}.cls-3{fill:#35a8e0;}</style></defs><g id="cuadrobase"><g><rect class="cls-3" x="2" y="2" width="124" height="124" rx="22" ry="22"/><path class="cls-2" d="M104,4c11.03,0,20,8.97,20,20V104c0,11.03-8.97,20-20,20H24c-11.03,0-20-8.97-20-20V24C4,12.97,12.97,4,24,4H104m0-4H24C10.75,0,0,10.75,0,24V104c0,13.25,10.75,24,24,24H104c13.25,0,24-10.75,24-24V24c0-13.25-10.75-24-24-24h0Z"/></g></g><g id="figura"><g><g><path class="cls-1" d="M37.35,74.48c5.69,0,10.42,2.38,11.37,5.51,.12-.38,.18-.77,.18-1.17,0-3.69-5.17-6.68-11.55-6.68s-11.55,2.99-11.55,6.68c0,.4,.06,.79,.18,1.17,.95-3.13,5.68-5.51,11.37-5.51Z"/><path class="cls-1" d="M64.31,74.48c5.69,0,10.42,2.38,11.37,5.51,.12-.38,.18-.77,.18-1.17,0-3.69-5.17-6.68-11.55-6.68s-11.55,2.99-11.55,6.68c0,.4,.06,.79,.18,1.17,.95-3.13,5.68-5.51,11.37-5.51Z"/><path class="cls-1" d="M91.07,74.48c5.69,0,10.42,2.38,11.37,5.51,.12-.38,.18-.77,.18-1.17,0-3.69-5.17-6.68-11.55-6.68s-11.55,2.99-11.55,6.68c0,.4,.06,.79,.18,1.17,.95-3.13,5.68-5.51,11.37-5.51Z"/><ellipse class="cls-1" cx="37.11" cy="68.89" rx="6.53" ry="4.67"/><ellipse class="cls-1" cx="64.7" cy="68.89" rx="6.53" ry="4.67"/><ellipse class="cls-1" cx="90.62" cy="68.89" rx="6.53" ry="4.67"/><path class="cls-1" d="M23.04,92.52c5.69,0,10.42,2.38,11.37,5.51,.12-.38,.18-.77,.18-1.17,0-3.69-5.17-6.68-11.55-6.68s-11.55,2.99-11.55,6.68c0,.4,.06,.79,.18,1.17,.95-3.13,5.68-5.51,11.37-5.51Z"/><path class="cls-1" d="M50,92.52c5.69,0,10.42,2.38,11.37,5.51,.12-.38,.18-.77,.18-1.17,0-3.69-5.17-6.68-11.55-6.68s-11.55,2.99-11.55,6.68c0,.4,.06,.79,.18,1.17,.95-3.13,5.68-5.51,11.37-5.51Z"/><path class="cls-1" d="M76.76,92.52c5.69,0,10.42,2.38,11.37,5.51,.12-.38,.18-.77,.18-1.17,0-3.69-5.17-6.68-11.55-6.68s-11.55,2.99-11.55,6.68c0,.4,.06,.79,.18,1.17,.95-3.13,5.68-5.51,11.37-5.51Z"/><ellipse class="cls-1" cx="22.8" cy="86.93" rx="6.53" ry="4.67"/><ellipse class="cls-1" cx="50.38" cy="86.93" rx="6.53" ry="4.67"/><ellipse class="cls-1" cx="76.31" cy="86.93" rx="6.53" ry="4.67"/><path class="cls-1" d="M104.96,92.52c5.69,0,10.42,2.38,11.37,5.51,.12-.38,.18-.77,.18-1.17,0-3.69-5.17-6.68-11.55-6.68s-11.55,2.99-11.55,6.68c0,.4,.06,.79,.18,1.17,.95-3.13,5.68-5.51,11.37-5.51Z"/><ellipse class="cls-1" cx="104.73" cy="86.93" rx="6.53" ry="4.67"/><path class="cls-1" d="M36.01,110.72c5.69,0,10.42,2.38,11.37,5.51,.12-.38,.18-.77,.18-1.17,0-3.69-5.17-6.68-11.55-6.68s-11.55,2.99-11.55,6.68c0,.4,.06,.79,.18,1.17,.95-3.13,5.68-5.51,11.37-5.51Z"/><path class="cls-1" d="M62.77,110.72c5.69,0,10.42,2.38,11.37,5.51,.12-.38,.18-.77,.18-1.17,0-3.69-5.17-6.68-11.55-6.68s-11.55,2.99-11.55,6.68c0,.4,.06,.79,.18,1.17,.95-3.13,5.68-5.51,11.37-5.51Z"/><ellipse class="cls-1" cx="36.4" cy="105.12" rx="6.53" ry="4.67"/><ellipse class="cls-1" cx="62.32" cy="105.12" rx="6.53" ry="4.67"/><path class="cls-1" d="M90.97,110.72c5.69,0,10.42,2.38,11.37,5.51,.12-.38,.18-.77,.18-1.17,0-3.69-5.17-6.68-11.55-6.68s-11.55,2.99-11.55,6.68c0,.4,.06,.79,.18,1.17,.95-3.13,5.68-5.51,11.37-5.51Z"/><ellipse class="cls-1" cx="90.74" cy="105.12" rx="6.53" ry="4.67"/></g><path class="cls-1" d="M17.7,16.36V57.61H110.3V16.36H17.7Zm54.19,24.04l-11.81,6.82c-2.66,1.53-5.98-.38-5.98-3.45v-13.63c0-3.07,3.32-4.98,5.98-3.45l11.81,6.82c2.66,1.53,2.66,5.37,0,6.9Z"/></g></g></svg>