<?xml version="1.0" encoding="UTF-8"?><svg xmlns="http://www.w3.org/2000/svg" viewBox="0 0 128 128"><defs><style>.cls-1{fill:#e61b72;}.cls-2{fill:#ffec00;}.cls-3{fill:#ececec;}</style></defs><g id="cuadrobase"><g><rect class="cls-3" x="2" y="2" width="124" height="124" rx="22" ry="22"/><path class="cls-2" d="M104,4c11.03,0,20,8.97,20,20V104c0,11.03-8.97,20-20,20H24c-11.03,0-20-8.97-20-20V24C4,12.97,12.97,4,24,4H104m0-4H24C10.75,0,0,10.75,0,24V104C0,117.25,10.75,128,24,128H104c13.25,0,24-10.75,24-24V24c0-13.25-10.75-24-24-24h0Z"/></g></g><g id="figura"><g><path class="cls-1" d="M94.97,82.51l-5.2-15.92c-.96-2.52-3.07-4.69-7.05-4.69H45.24c-3.96,0-6.07,2.17-7.05,4.69l-5.15,15.92c-2.04,.25-5.66,2.65-5.66,7.18v16.94h5.03v5.45c0,6.65,9.43,6.57,9.42,0v-5.45h44.37v5.45c-.02,6.57,9.42,6.65,9.42,0v-5.45h5.03v-16.94c-.01-4.53-3.64-6.93-5.66-7.18Zm-57.72,16.95c-3.09,0-5.59-2.59-5.58-5.75,0-3.21,2.5-5.79,5.58-5.8,3.09,.01,5.59,2.59,5.58,5.8,0,3.16-2.49,5.74-5.58,5.75Zm1.14-17.08l3.89-13.09c.47-1.46,1.2-2.52,2.91-2.53h37.61c1.7,.01,2.43,1.08,2.92,2.53l3.89,13.09H38.39Zm52.36,17.45c-3.31,0-5.97-2.75-6-6.11,.02-3.41,2.69-6.16,6-6.17,3.26,.01,5.92,2.75,5.94,6.17-.01,3.36-2.68,6.1-5.94,6.11Z"/><path class="cls-1" d="M92.95,30.54c0-5.29-4.29-9.58-9.58-9.58h-31.06v10.05h40.65v-.46Z"/><path class="cls-1" d="M41.2,30.2c3.16,0,5.73-2.56,5.73-5.73s-2.56-5.73-5.73-5.73-5.73,2.56-5.73,5.73,2.56,5.73,5.73,5.73Z"/><polygon class="cls-1" points="99.68 30.96 99.68 39.62 28.32 39.62 28.32 10.07 22.96 10.07 22.96 55.72 28.32 55.72 28.32 44.97 99.68 44.97 99.68 55.72 105.04 55.72 105.04 30.96 99.68 30.96"/></g></g></svg>